%TF.GenerationSoftware,KiCad,Pcbnew,8.0.2*%
%TF.CreationDate,2024-07-24T20:27:57+03:00*%
%TF.ProjectId,DRV8234 DC Motor Driver Expander,44525638-3233-4342-9044-43204d6f746f,rev?*%
%TF.SameCoordinates,PX5f5e100PY5f5e100*%
%TF.FileFunction,Soldermask,Bot*%
%TF.FilePolarity,Negative*%
%FSLAX46Y46*%
G04 Gerber Fmt 4.6, Leading zero omitted, Abs format (unit mm)*
G04 Created by KiCad (PCBNEW 8.0.2) date 2024-07-24 20:27:57*
%MOMM*%
%LPD*%
G01*
G04 APERTURE LIST*
%ADD10C,1.600200*%
%ADD11C,1.650000*%
%ADD12C,0.800000*%
%ADD13C,6.400000*%
G04 APERTURE END LIST*
D10*
%TO.C,J5*%
X45099997Y8200000D03*
X45099997Y3200000D03*
X48600000Y8200000D03*
X48600000Y3200000D03*
%TD*%
%TO.C,J1*%
X20249998Y8200000D03*
X20249998Y3200000D03*
X23750001Y8200000D03*
X23750001Y3200000D03*
%TD*%
D11*
%TO.C,J4*%
X58900000Y26800000D03*
X58900000Y31800000D03*
X55400000Y26800000D03*
X55400000Y31800000D03*
X51900000Y26800000D03*
X51900000Y31800000D03*
X48400000Y26800000D03*
X48400000Y31800000D03*
%TD*%
D10*
%TO.C,J3*%
X42586001Y26808900D03*
X42586001Y31808900D03*
X39086001Y26808900D03*
X39086001Y31808900D03*
X35586000Y26808900D03*
X35586000Y31808900D03*
%TD*%
%TO.C,J2*%
X29800000Y26807799D03*
X29800000Y31807799D03*
X26300000Y26807799D03*
X26300000Y31807799D03*
X22799999Y26807799D03*
X22799999Y31807799D03*
%TD*%
%TO.C,J6*%
X17000000Y26800000D03*
X17000000Y31800000D03*
X13500000Y26800000D03*
X13500000Y31800000D03*
X9999999Y26800000D03*
X9999999Y31800000D03*
%TD*%
D12*
%TO.C,H2*%
X63000000Y31500000D03*
X63702944Y33197056D03*
X63702944Y29802944D03*
X65400000Y33900000D03*
D13*
X65400000Y31500000D03*
D12*
X65400000Y29100000D03*
X67097056Y33197056D03*
X67097056Y29802944D03*
X67800000Y31500000D03*
%TD*%
%TO.C,H3*%
X1100000Y3500000D03*
X1802944Y5197056D03*
X1802944Y1802944D03*
X3500000Y5900000D03*
D13*
X3500000Y3500000D03*
D12*
X3500000Y1100000D03*
X5197056Y5197056D03*
X5197056Y1802944D03*
X5900000Y3500000D03*
%TD*%
%TO.C,H1*%
X5900000Y31500000D03*
X5197056Y29802944D03*
X5197056Y33197056D03*
X3500000Y29100000D03*
D13*
X3500000Y31500000D03*
D12*
X3500000Y33900000D03*
X1802944Y29802944D03*
X1802944Y33197056D03*
X1100000Y31500000D03*
%TD*%
%TO.C,H4*%
X67800000Y3500000D03*
X67097056Y1802944D03*
X67097056Y5197056D03*
X65400000Y1100000D03*
D13*
X65400000Y3500000D03*
D12*
X65400000Y5900000D03*
X63702944Y1802944D03*
X63702944Y5197056D03*
X63000000Y3500000D03*
%TD*%
M02*
