M48
; DRILL file {KiCad 8.0.2} date 2024-07-24T20:27:55+0300
; FORMAT={-:-/ absolute / metric / decimal}
; #@! TF.CreationDate,2024-07-24T20:27:55+03:00
; #@! TF.GenerationSoftware,Kicad,Pcbnew,8.0.2
; #@! TF.FileFunction,Plated,1,4,PTH
FMAT,2
METRIC
; #@! TA.AperFunction,Plated,PTH,ViaDrill
T1C0.250
; #@! TA.AperFunction,Plated,PTH,ComponentDrill
T2C0.500
; #@! TA.AperFunction,Plated,PTH,ComponentDrill
T3C1.092
; #@! TA.AperFunction,Plated,PTH,ComponentDrill
T4C1.100
; #@! TA.AperFunction,Plated,PTH,ComponentDrill
T5C3.200
%
G90
G05
T1
X1.2Y18.2
X1.3Y9.8
X1.5Y14.3
X1.8Y23.8
X2.1Y26.6
X4.5Y26.6
X5.9Y23.2
X7.9Y28.9
X8.3Y33.5
X8.8Y6.1
X9.4Y2.5
X11.1Y23.2
X11.5Y33.5
X12.1Y5.1
X12.4Y21.3
X12.9Y17.6
X13.0Y8.9
X13.2Y12.0
X14.372Y19.244
X14.4Y15.3
X14.4Y2.5
X14.6Y6.4
X15.3Y33.5
X15.9Y10.3
X16.5Y13.2
X16.8Y18.5
X16.8Y15.5
X17.0Y29.3
X17.6Y18.5
X17.6Y15.5
X17.9Y5.4
X18.4Y18.5
X18.4Y15.5
X19.2Y18.5
X19.2Y15.5
X19.5Y29.1
X19.9Y32.3
X19.9Y25.0
X19.9Y23.0
X20.0Y18.5
X20.0Y15.5
X21.3Y33.6
X21.962Y14.306
X23.6Y23.1
X25.7Y22.1
X27.4Y9.7
X27.4Y2.3
X27.9Y6.3
X28.4Y19.7
X28.6Y13.9
X28.6Y13.1
X29.5Y14.6
X29.5Y12.4
X29.8Y3.2
X32.0Y33.3
X32.0Y20.0
X32.1Y29.5
X32.1Y17.4
X32.119Y11.603
X33.2Y2.0
X33.5Y31.1
X33.5Y26.0
X34.0Y11.5
X35.0Y12.5
X35.1Y17.4
X35.2Y9.3
X36.2Y10.0
X36.6Y14.5
X36.6Y13.4
X37.2Y10.9
X37.3Y33.4
X37.4Y25.3
X37.4Y23.1
X38.1Y1.7
X39.5Y14.6
X40.3Y13.5
X40.5Y33.5
X40.9Y25.3
X40.9Y22.9
X41.4Y1.4
X42.1Y5.5
X43.7Y19.6
X45.4Y22.0
X45.8Y26.2
X46.2Y29.6
X46.5Y17.7
X46.6Y33.4
X47.4Y18.8
X49.7Y29.5
X49.7Y15.6
X49.763Y11.61
X50.0Y23.0
X50.1Y33.5
X51.2Y17.1
X52.1Y1.7
X53.2Y9.1
X53.4Y5.4
X53.8Y33.5
X53.8Y24.5
X53.8Y16.1
X54.7Y12.6
X55.4Y4.7
X56.5Y2.7
X56.9Y33.6
X57.0Y15.0
X57.0Y8.0
X57.2Y29.2
X57.2Y22.3
X58.1Y12.1
X59.5Y15.8
X59.5Y3.5
X59.9Y5.8
X60.0Y19.6
X60.2Y9.3
X61.2Y29.9
X61.4Y22.3
X61.9Y26.1
X62.4Y13.4
X63.1Y17.6
X63.2Y8.6
X64.227Y22.115
X64.5Y26.5
X65.4Y15.7
X65.5Y11.0
X65.7Y25.0
X66.0Y19.1
X67.5Y8.0
T2
X1.1Y31.5
X1.1Y3.5
X1.803Y33.197
X1.803Y29.803
X1.803Y5.197
X1.803Y1.803
X3.5Y33.9
X3.5Y29.1
X3.5Y5.9
X3.5Y1.1
X5.197Y33.197
X5.197Y29.803
X5.197Y5.197
X5.197Y1.803
X5.9Y31.5
X5.9Y3.5
X63.0Y31.5
X63.0Y3.5
X63.703Y33.197
X63.703Y29.803
X63.703Y5.197
X63.703Y1.803
X65.4Y33.9
X65.4Y29.1
X65.4Y5.9
X65.4Y1.1
X67.097Y33.197
X67.097Y29.803
X67.097Y5.197
X67.097Y1.803
X67.8Y31.5
X67.8Y3.5
T3
X10.0Y31.8
X10.0Y26.8
X13.5Y31.8
X13.5Y26.8
X17.0Y31.8
X17.0Y26.8
X20.25Y8.2
X20.25Y3.2
X22.8Y31.808
X22.8Y26.808
X23.75Y8.2
X23.75Y3.2
X26.3Y31.808
X26.3Y26.808
X29.8Y31.808
X29.8Y26.808
X35.586Y31.809
X35.586Y26.809
X39.086Y31.809
X39.086Y26.809
X42.586Y31.809
X42.586Y26.809
X45.1Y8.2
X45.1Y3.2
X48.6Y8.2
X48.6Y3.2
T4
X48.4Y31.8
X48.4Y26.8
X51.9Y31.8
X51.9Y26.8
X55.4Y31.8
X55.4Y26.8
X58.9Y31.8
X58.9Y26.8
T5
X3.5Y31.5
X3.5Y3.5
X65.4Y31.5
X65.4Y3.5
M30
