%TF.GenerationSoftware,KiCad,Pcbnew,8.0.2*%
%TF.CreationDate,2024-07-24T20:27:57+03:00*%
%TF.ProjectId,DRV8234 DC Motor Driver Expander,44525638-3233-4342-9044-43204d6f746f,rev?*%
%TF.SameCoordinates,PX5f5e100PY5f5e100*%
%TF.FileFunction,Legend,Top*%
%TF.FilePolarity,Positive*%
%FSLAX46Y46*%
G04 Gerber Fmt 4.6, Leading zero omitted, Abs format (unit mm)*
G04 Created by KiCad (PCBNEW 8.0.2) date 2024-07-24 20:27:57*
%MOMM*%
%LPD*%
G01*
G04 APERTURE LIST*
%ADD10C,0.150000*%
%ADD11C,0.000000*%
%ADD12C,0.152400*%
%ADD13C,0.508000*%
%ADD14C,0.120000*%
%ADD15C,0.250000*%
G04 APERTURE END LIST*
D10*
X38333333Y14840420D02*
X38285714Y14792800D01*
X38285714Y14792800D02*
X38142857Y14745181D01*
X38142857Y14745181D02*
X38047619Y14745181D01*
X38047619Y14745181D02*
X37904762Y14792800D01*
X37904762Y14792800D02*
X37809524Y14888039D01*
X37809524Y14888039D02*
X37761905Y14983277D01*
X37761905Y14983277D02*
X37714286Y15173753D01*
X37714286Y15173753D02*
X37714286Y15316610D01*
X37714286Y15316610D02*
X37761905Y15507086D01*
X37761905Y15507086D02*
X37809524Y15602324D01*
X37809524Y15602324D02*
X37904762Y15697562D01*
X37904762Y15697562D02*
X38047619Y15745181D01*
X38047619Y15745181D02*
X38142857Y15745181D01*
X38142857Y15745181D02*
X38285714Y15697562D01*
X38285714Y15697562D02*
X38333333Y15649943D01*
X38666667Y15745181D02*
X39285714Y15745181D01*
X39285714Y15745181D02*
X38952381Y15364229D01*
X38952381Y15364229D02*
X39095238Y15364229D01*
X39095238Y15364229D02*
X39190476Y15316610D01*
X39190476Y15316610D02*
X39238095Y15268991D01*
X39238095Y15268991D02*
X39285714Y15173753D01*
X39285714Y15173753D02*
X39285714Y14935658D01*
X39285714Y14935658D02*
X39238095Y14840420D01*
X39238095Y14840420D02*
X39190476Y14792800D01*
X39190476Y14792800D02*
X39095238Y14745181D01*
X39095238Y14745181D02*
X38809524Y14745181D01*
X38809524Y14745181D02*
X38714286Y14792800D01*
X38714286Y14792800D02*
X38666667Y14840420D01*
X30333333Y14840420D02*
X30285714Y14792800D01*
X30285714Y14792800D02*
X30142857Y14745181D01*
X30142857Y14745181D02*
X30047619Y14745181D01*
X30047619Y14745181D02*
X29904762Y14792800D01*
X29904762Y14792800D02*
X29809524Y14888039D01*
X29809524Y14888039D02*
X29761905Y14983277D01*
X29761905Y14983277D02*
X29714286Y15173753D01*
X29714286Y15173753D02*
X29714286Y15316610D01*
X29714286Y15316610D02*
X29761905Y15507086D01*
X29761905Y15507086D02*
X29809524Y15602324D01*
X29809524Y15602324D02*
X29904762Y15697562D01*
X29904762Y15697562D02*
X30047619Y15745181D01*
X30047619Y15745181D02*
X30142857Y15745181D01*
X30142857Y15745181D02*
X30285714Y15697562D01*
X30285714Y15697562D02*
X30333333Y15649943D01*
X31285714Y14745181D02*
X30714286Y14745181D01*
X31000000Y14745181D02*
X31000000Y15745181D01*
X31000000Y15745181D02*
X30904762Y15602324D01*
X30904762Y15602324D02*
X30809524Y15507086D01*
X30809524Y15507086D02*
X30714286Y15459467D01*
X33523810Y14745181D02*
X33523810Y15745181D01*
X34571428Y14840420D02*
X34523809Y14792800D01*
X34523809Y14792800D02*
X34380952Y14745181D01*
X34380952Y14745181D02*
X34285714Y14745181D01*
X34285714Y14745181D02*
X34142857Y14792800D01*
X34142857Y14792800D02*
X34047619Y14888039D01*
X34047619Y14888039D02*
X34000000Y14983277D01*
X34000000Y14983277D02*
X33952381Y15173753D01*
X33952381Y15173753D02*
X33952381Y15316610D01*
X33952381Y15316610D02*
X34000000Y15507086D01*
X34000000Y15507086D02*
X34047619Y15602324D01*
X34047619Y15602324D02*
X34142857Y15697562D01*
X34142857Y15697562D02*
X34285714Y15745181D01*
X34285714Y15745181D02*
X34380952Y15745181D01*
X34380952Y15745181D02*
X34523809Y15697562D01*
X34523809Y15697562D02*
X34571428Y15649943D01*
X35523809Y14745181D02*
X34952381Y14745181D01*
X35238095Y14745181D02*
X35238095Y15745181D01*
X35238095Y15745181D02*
X35142857Y15602324D01*
X35142857Y15602324D02*
X35047619Y15507086D01*
X35047619Y15507086D02*
X34952381Y15459467D01*
X58731333Y17545181D02*
X58398000Y18021372D01*
X58159905Y17545181D02*
X58159905Y18545181D01*
X58159905Y18545181D02*
X58540857Y18545181D01*
X58540857Y18545181D02*
X58636095Y18497562D01*
X58636095Y18497562D02*
X58683714Y18449943D01*
X58683714Y18449943D02*
X58731333Y18354705D01*
X58731333Y18354705D02*
X58731333Y18211848D01*
X58731333Y18211848D02*
X58683714Y18116610D01*
X58683714Y18116610D02*
X58636095Y18068991D01*
X58636095Y18068991D02*
X58540857Y18021372D01*
X58540857Y18021372D02*
X58159905Y18021372D01*
X59064667Y18545181D02*
X59731333Y18545181D01*
X59731333Y18545181D02*
X59302762Y17545181D01*
X55229333Y17545181D02*
X54896000Y18021372D01*
X54657905Y17545181D02*
X54657905Y18545181D01*
X54657905Y18545181D02*
X55038857Y18545181D01*
X55038857Y18545181D02*
X55134095Y18497562D01*
X55134095Y18497562D02*
X55181714Y18449943D01*
X55181714Y18449943D02*
X55229333Y18354705D01*
X55229333Y18354705D02*
X55229333Y18211848D01*
X55229333Y18211848D02*
X55181714Y18116610D01*
X55181714Y18116610D02*
X55134095Y18068991D01*
X55134095Y18068991D02*
X55038857Y18021372D01*
X55038857Y18021372D02*
X54657905Y18021372D01*
X56086476Y18545181D02*
X55896000Y18545181D01*
X55896000Y18545181D02*
X55800762Y18497562D01*
X55800762Y18497562D02*
X55753143Y18449943D01*
X55753143Y18449943D02*
X55657905Y18307086D01*
X55657905Y18307086D02*
X55610286Y18116610D01*
X55610286Y18116610D02*
X55610286Y17735658D01*
X55610286Y17735658D02*
X55657905Y17640420D01*
X55657905Y17640420D02*
X55705524Y17592800D01*
X55705524Y17592800D02*
X55800762Y17545181D01*
X55800762Y17545181D02*
X55991238Y17545181D01*
X55991238Y17545181D02*
X56086476Y17592800D01*
X56086476Y17592800D02*
X56134095Y17640420D01*
X56134095Y17640420D02*
X56181714Y17735658D01*
X56181714Y17735658D02*
X56181714Y17973753D01*
X56181714Y17973753D02*
X56134095Y18068991D01*
X56134095Y18068991D02*
X56086476Y18116610D01*
X56086476Y18116610D02*
X55991238Y18164229D01*
X55991238Y18164229D02*
X55800762Y18164229D01*
X55800762Y18164229D02*
X55705524Y18116610D01*
X55705524Y18116610D02*
X55657905Y18068991D01*
X55657905Y18068991D02*
X55610286Y17973753D01*
X51733333Y17545181D02*
X51400000Y18021372D01*
X51161905Y17545181D02*
X51161905Y18545181D01*
X51161905Y18545181D02*
X51542857Y18545181D01*
X51542857Y18545181D02*
X51638095Y18497562D01*
X51638095Y18497562D02*
X51685714Y18449943D01*
X51685714Y18449943D02*
X51733333Y18354705D01*
X51733333Y18354705D02*
X51733333Y18211848D01*
X51733333Y18211848D02*
X51685714Y18116610D01*
X51685714Y18116610D02*
X51638095Y18068991D01*
X51638095Y18068991D02*
X51542857Y18021372D01*
X51542857Y18021372D02*
X51161905Y18021372D01*
X52638095Y18545181D02*
X52161905Y18545181D01*
X52161905Y18545181D02*
X52114286Y18068991D01*
X52114286Y18068991D02*
X52161905Y18116610D01*
X52161905Y18116610D02*
X52257143Y18164229D01*
X52257143Y18164229D02*
X52495238Y18164229D01*
X52495238Y18164229D02*
X52590476Y18116610D01*
X52590476Y18116610D02*
X52638095Y18068991D01*
X52638095Y18068991D02*
X52685714Y17973753D01*
X52685714Y17973753D02*
X52685714Y17735658D01*
X52685714Y17735658D02*
X52638095Y17640420D01*
X52638095Y17640420D02*
X52590476Y17592800D01*
X52590476Y17592800D02*
X52495238Y17545181D01*
X52495238Y17545181D02*
X52257143Y17545181D01*
X52257143Y17545181D02*
X52161905Y17592800D01*
X52161905Y17592800D02*
X52114286Y17640420D01*
X48233333Y17545181D02*
X47900000Y18021372D01*
X47661905Y17545181D02*
X47661905Y18545181D01*
X47661905Y18545181D02*
X48042857Y18545181D01*
X48042857Y18545181D02*
X48138095Y18497562D01*
X48138095Y18497562D02*
X48185714Y18449943D01*
X48185714Y18449943D02*
X48233333Y18354705D01*
X48233333Y18354705D02*
X48233333Y18211848D01*
X48233333Y18211848D02*
X48185714Y18116610D01*
X48185714Y18116610D02*
X48138095Y18068991D01*
X48138095Y18068991D02*
X48042857Y18021372D01*
X48042857Y18021372D02*
X47661905Y18021372D01*
X49090476Y18211848D02*
X49090476Y17545181D01*
X48852381Y18592800D02*
X48614286Y17878515D01*
X48614286Y17878515D02*
X49233333Y17878515D01*
X38933333Y17545181D02*
X38600000Y18021372D01*
X38361905Y17545181D02*
X38361905Y18545181D01*
X38361905Y18545181D02*
X38742857Y18545181D01*
X38742857Y18545181D02*
X38838095Y18497562D01*
X38838095Y18497562D02*
X38885714Y18449943D01*
X38885714Y18449943D02*
X38933333Y18354705D01*
X38933333Y18354705D02*
X38933333Y18211848D01*
X38933333Y18211848D02*
X38885714Y18116610D01*
X38885714Y18116610D02*
X38838095Y18068991D01*
X38838095Y18068991D02*
X38742857Y18021372D01*
X38742857Y18021372D02*
X38361905Y18021372D01*
X39266667Y18545181D02*
X39885714Y18545181D01*
X39885714Y18545181D02*
X39552381Y18164229D01*
X39552381Y18164229D02*
X39695238Y18164229D01*
X39695238Y18164229D02*
X39790476Y18116610D01*
X39790476Y18116610D02*
X39838095Y18068991D01*
X39838095Y18068991D02*
X39885714Y17973753D01*
X39885714Y17973753D02*
X39885714Y17735658D01*
X39885714Y17735658D02*
X39838095Y17640420D01*
X39838095Y17640420D02*
X39790476Y17592800D01*
X39790476Y17592800D02*
X39695238Y17545181D01*
X39695238Y17545181D02*
X39409524Y17545181D01*
X39409524Y17545181D02*
X39314286Y17592800D01*
X39314286Y17592800D02*
X39266667Y17640420D01*
X42433333Y17545181D02*
X42100000Y18021372D01*
X41861905Y17545181D02*
X41861905Y18545181D01*
X41861905Y18545181D02*
X42242857Y18545181D01*
X42242857Y18545181D02*
X42338095Y18497562D01*
X42338095Y18497562D02*
X42385714Y18449943D01*
X42385714Y18449943D02*
X42433333Y18354705D01*
X42433333Y18354705D02*
X42433333Y18211848D01*
X42433333Y18211848D02*
X42385714Y18116610D01*
X42385714Y18116610D02*
X42338095Y18068991D01*
X42338095Y18068991D02*
X42242857Y18021372D01*
X42242857Y18021372D02*
X41861905Y18021372D01*
X42814286Y18449943D02*
X42861905Y18497562D01*
X42861905Y18497562D02*
X42957143Y18545181D01*
X42957143Y18545181D02*
X43195238Y18545181D01*
X43195238Y18545181D02*
X43290476Y18497562D01*
X43290476Y18497562D02*
X43338095Y18449943D01*
X43338095Y18449943D02*
X43385714Y18354705D01*
X43385714Y18354705D02*
X43385714Y18259467D01*
X43385714Y18259467D02*
X43338095Y18116610D01*
X43338095Y18116610D02*
X42766667Y17545181D01*
X42766667Y17545181D02*
X43385714Y17545181D01*
X35405333Y17545181D02*
X35072000Y18021372D01*
X34833905Y17545181D02*
X34833905Y18545181D01*
X34833905Y18545181D02*
X35214857Y18545181D01*
X35214857Y18545181D02*
X35310095Y18497562D01*
X35310095Y18497562D02*
X35357714Y18449943D01*
X35357714Y18449943D02*
X35405333Y18354705D01*
X35405333Y18354705D02*
X35405333Y18211848D01*
X35405333Y18211848D02*
X35357714Y18116610D01*
X35357714Y18116610D02*
X35310095Y18068991D01*
X35310095Y18068991D02*
X35214857Y18021372D01*
X35214857Y18021372D02*
X34833905Y18021372D01*
X36357714Y17545181D02*
X35786286Y17545181D01*
X36072000Y17545181D02*
X36072000Y18545181D01*
X36072000Y18545181D02*
X35976762Y18402324D01*
X35976762Y18402324D02*
X35881524Y18307086D01*
X35881524Y18307086D02*
X35786286Y18259467D01*
D11*
%TO.C,kibuzzard-66A13964*%
G36*
X61764664Y630186D02*
G01*
X61407010Y630186D01*
X60757511Y630186D01*
X60089413Y630186D01*
X59592990Y630186D01*
X59235336Y630186D01*
X59235336Y1908441D01*
X59607296Y1908441D01*
X59621602Y1809013D01*
X59960658Y1063662D01*
X60009299Y1010014D01*
X60089413Y992132D01*
X60163090Y1011445D01*
X60212446Y1063662D01*
X60472758Y1635908D01*
X60627325Y1635908D01*
X60629471Y1586552D01*
X60643062Y1547210D01*
X60683119Y1514306D01*
X60757511Y1504292D01*
X60833333Y1513591D01*
X60873391Y1543634D01*
X60886981Y1580114D01*
X60889127Y1625894D01*
X60917024Y1714950D01*
X61000715Y1744635D01*
X61072961Y1725322D01*
X61104435Y1688126D01*
X61109442Y1650215D01*
X61096745Y1595136D01*
X61058655Y1541488D01*
X61004113Y1492847D01*
X60942060Y1452790D01*
X60873033Y1412554D01*
X60797568Y1363376D01*
X60728541Y1310622D01*
X60678827Y1259657D01*
X60640200Y1193491D01*
X60627325Y1120887D01*
X60665951Y1027182D01*
X60757511Y987840D01*
X61273963Y987840D01*
X61323319Y990701D01*
X61364092Y1005007D01*
X61396996Y1044349D01*
X61407010Y1118026D01*
X61396996Y1193848D01*
X61364807Y1233906D01*
X61326180Y1248212D01*
X61276824Y1251073D01*
X61097997Y1251073D01*
X61183834Y1301860D01*
X61271102Y1376967D01*
X61312411Y1427754D01*
X61344778Y1488555D01*
X61365701Y1556509D01*
X61372675Y1628755D01*
X61360595Y1728422D01*
X61324352Y1817597D01*
X61263948Y1896280D01*
X61186218Y1957479D01*
X61097997Y1994198D01*
X60999285Y2006438D01*
X60895645Y1993721D01*
X60805993Y1955571D01*
X60730329Y1891989D01*
X60673104Y1812669D01*
X60638770Y1727309D01*
X60627325Y1635908D01*
X60472758Y1635908D01*
X60551502Y1809013D01*
X60567954Y1907725D01*
X60485694Y1976395D01*
X60379828Y1997139D01*
X60312589Y1916309D01*
X60086552Y1359800D01*
X59860515Y1916309D01*
X59794707Y1997854D01*
X59687411Y1976395D01*
X59607296Y1908441D01*
X59235336Y1908441D01*
X59235336Y2369814D01*
X59592990Y2369814D01*
X61407010Y2369814D01*
X61764664Y2369814D01*
X61764664Y630186D01*
G37*
%TO.C,kibuzzard-66A11B65*%
G36*
X68600715Y23847640D02*
G01*
X68600715Y23147210D01*
X68600715Y22197854D01*
X68600715Y21222747D01*
X68600715Y19742919D01*
X68600715Y19354936D01*
X68600715Y17808155D01*
X68600715Y16975537D01*
X68600715Y15749786D01*
X68600715Y14475966D01*
X68600715Y13835622D01*
X68600715Y12745494D01*
X68600715Y11893992D01*
X68600715Y10160086D01*
X68600715Y10003863D01*
X68600715Y9574678D01*
X68595415Y9466789D01*
X68579565Y9359939D01*
X68553319Y9255157D01*
X68516928Y9153453D01*
X68470744Y9055805D01*
X68415211Y8963154D01*
X68350864Y8876392D01*
X68278323Y8796355D01*
X68198286Y8723814D01*
X68111525Y8659467D01*
X68018874Y8603934D01*
X67921226Y8557750D01*
X67819521Y8521359D01*
X67714739Y8495113D01*
X67607889Y8479263D01*
X67500000Y8473963D01*
X67392111Y8479263D01*
X67285261Y8495113D01*
X67180479Y8521359D01*
X67078774Y8557750D01*
X66981126Y8603934D01*
X66888475Y8659467D01*
X66801714Y8723814D01*
X66721677Y8796355D01*
X66649136Y8876392D01*
X66584789Y8963154D01*
X66529256Y9055805D01*
X66483072Y9153453D01*
X66446681Y9255157D01*
X66420435Y9359939D01*
X66404585Y9466789D01*
X66399285Y9574678D01*
X66399285Y10003863D01*
X66399285Y10457082D01*
X66748927Y10457082D01*
X66748927Y10161803D01*
X66760086Y10070816D01*
X66798712Y10022747D01*
X66845923Y10006438D01*
X66903433Y10003863D01*
X67790987Y10003863D01*
X67851931Y10008155D01*
X67900000Y10026180D01*
X67936910Y10073391D01*
X67948927Y10160086D01*
X67948927Y10451931D01*
X67937822Y10572640D01*
X67904506Y10684120D01*
X67848981Y10786373D01*
X67771245Y10879399D01*
X67677843Y10956760D01*
X67575322Y11012017D01*
X67463680Y11045172D01*
X67342918Y11056223D01*
X67225322Y11045172D01*
X67116309Y11012017D01*
X67015880Y10956760D01*
X66924034Y10879399D01*
X66847425Y10786695D01*
X66792704Y10685408D01*
X66759871Y10575537D01*
X66748927Y10457082D01*
X66399285Y10457082D01*
X66399285Y11643348D01*
X66748927Y11643348D01*
X66748927Y11298283D01*
X66760944Y11207296D01*
X66800429Y11159228D01*
X66847639Y11142919D01*
X66905150Y11140343D01*
X67790987Y11140343D01*
X67850215Y11142919D01*
X67897425Y11159228D01*
X67936910Y11207296D01*
X67948927Y11296567D01*
X67936910Y11387554D01*
X67898283Y11435622D01*
X67851931Y11451931D01*
X67792704Y11454507D01*
X67626180Y11454507D01*
X67626180Y11614163D01*
X67875107Y11797854D01*
X67954936Y11893992D01*
X67907725Y12015880D01*
X67806438Y12098283D01*
X67687983Y12051931D01*
X67523176Y11928326D01*
X67429709Y12012256D01*
X67318693Y12062613D01*
X67190129Y12079399D01*
X67088197Y12068670D01*
X66995279Y12036481D01*
X66916094Y11987339D01*
X66855365Y11925751D01*
X66809871Y11856652D01*
X66776395Y11784979D01*
X66755794Y11713090D01*
X66748927Y11643348D01*
X66399285Y11643348D01*
X66399285Y12391846D01*
X66742060Y12391846D01*
X66767811Y12263090D01*
X66849356Y12166953D01*
X66968670Y12184120D01*
X67863090Y12590987D01*
X67927468Y12649356D01*
X67948927Y12745494D01*
X67925751Y12833906D01*
X67863090Y12893133D01*
X66968670Y13300000D01*
X66850215Y13319743D01*
X66767811Y13221030D01*
X66742918Y13093992D01*
X66839914Y13013305D01*
X67507725Y12742060D01*
X66839914Y12470816D01*
X66742060Y12391846D01*
X66399285Y12391846D01*
X66399285Y13835622D01*
X66724893Y13835622D01*
X66737101Y13727849D01*
X66773724Y13631140D01*
X66834764Y13545494D01*
X66913352Y13478732D01*
X67002623Y13438674D01*
X67102575Y13425322D01*
X67213305Y13447210D01*
X67305150Y13512876D01*
X67306867Y13511159D01*
X67308584Y13512876D01*
X67385265Y13445160D01*
X67468813Y13404530D01*
X67559227Y13390987D01*
X67670625Y13405198D01*
X67769051Y13447830D01*
X67854506Y13518884D01*
X67920315Y13610920D01*
X67959800Y13716500D01*
X67972961Y13835622D01*
X67960277Y13942251D01*
X67922222Y14042394D01*
X67858798Y14136052D01*
X67774773Y14211397D01*
X67674917Y14256605D01*
X67559227Y14271674D01*
X67471102Y14258322D01*
X67387554Y14218264D01*
X67308584Y14151502D01*
X67306867Y14153219D01*
X67305150Y14151502D01*
X67207296Y14215880D01*
X67109442Y14237339D01*
X67007392Y14224368D01*
X66916404Y14185456D01*
X66836481Y14120601D01*
X66774487Y14037053D01*
X66737291Y13942060D01*
X66724893Y13835622D01*
X66399285Y13835622D01*
X66399285Y14766095D01*
X66731760Y14766095D01*
X66747020Y14641726D01*
X66792799Y14534144D01*
X66869099Y14443348D01*
X66964282Y14374678D01*
X67066714Y14333476D01*
X67176395Y14319743D01*
X67235622Y14322318D01*
X67282833Y14338627D01*
X67322318Y14386695D01*
X67334335Y14475966D01*
X67323176Y14566953D01*
X67287124Y14615022D01*
X67243348Y14631331D01*
X67188412Y14633906D01*
X67081545Y14667382D01*
X67045923Y14767811D01*
X67069099Y14854507D01*
X67113734Y14892275D01*
X67159227Y14898283D01*
X67225322Y14883047D01*
X67289700Y14837339D01*
X67348069Y14771889D01*
X67396137Y14697425D01*
X67444421Y14614592D01*
X67503433Y14524034D01*
X67566738Y14441202D01*
X67627897Y14381545D01*
X67707296Y14335193D01*
X67794421Y14319743D01*
X67906867Y14366095D01*
X67954077Y14475966D01*
X67954077Y15095708D01*
X67950644Y15154936D01*
X67933476Y15203863D01*
X67886266Y15243348D01*
X67797854Y15255365D01*
X67706867Y15243348D01*
X67658798Y15204721D01*
X67641631Y15158369D01*
X67638197Y15099142D01*
X67638197Y14884549D01*
X67577253Y14987554D01*
X67487124Y15092275D01*
X67426180Y15141846D01*
X67353219Y15180687D01*
X67271674Y15205794D01*
X67184979Y15214163D01*
X67065379Y15199666D01*
X66958369Y15156176D01*
X66863948Y15083691D01*
X66790510Y14990415D01*
X66746447Y14884549D01*
X66731760Y14766095D01*
X66399285Y14766095D01*
X66399285Y15749786D01*
X66731760Y15749786D01*
X66739485Y15654507D01*
X66760086Y15575537D01*
X66790129Y15512017D01*
X66825322Y15461373D01*
X66862232Y15423605D01*
X66896567Y15396137D01*
X66924893Y15378970D01*
X66943777Y15369528D01*
X66949785Y15366953D01*
X67068240Y15342060D01*
X67162661Y15427039D01*
X67193371Y15518980D01*
X67173343Y15591083D01*
X67102575Y15643348D01*
X67051073Y15693133D01*
X67033906Y15766953D01*
X67055365Y15845064D01*
X67114592Y15873391D01*
X67158369Y15848498D01*
X67169528Y15768670D01*
X67169528Y15756652D01*
X67172103Y15701717D01*
X67186695Y15657940D01*
X67231330Y15621889D01*
X67317167Y15610730D01*
X67392704Y15621030D01*
X67437339Y15641631D01*
X67458798Y15680258D01*
X67466524Y15719743D01*
X67466524Y15766953D01*
X67491416Y15866095D01*
X67566094Y15899142D01*
X67637339Y15858798D01*
X67663948Y15751502D01*
X67654506Y15690558D01*
X67633906Y15649356D01*
X67608155Y15623605D01*
X67587554Y15610730D01*
X67578112Y15607296D01*
X67497425Y15557511D01*
X67478541Y15463090D01*
X67505579Y15334335D01*
X67586695Y15291416D01*
X67684454Y15306676D01*
X67774010Y15352456D01*
X67855365Y15428755D01*
X67919742Y15525465D01*
X67958369Y15632475D01*
X67971245Y15749786D01*
X67958369Y15875966D01*
X67919742Y15986695D01*
X67855365Y16081974D01*
X67771340Y16154936D01*
X67673772Y16198713D01*
X67562661Y16213305D01*
X67480258Y16201717D01*
X67411588Y16166953D01*
X67318884Y16070816D01*
X67233476Y16159657D01*
X67107725Y16189270D01*
X67015594Y16176013D01*
X66929185Y16136242D01*
X66848498Y16069957D01*
X66783643Y15981354D01*
X66744731Y15874631D01*
X66731760Y15749786D01*
X66399285Y15749786D01*
X66399285Y16978970D01*
X66747210Y16978970D01*
X66758369Y16887125D01*
X66795279Y16838198D01*
X66839914Y16821889D01*
X66896567Y16819313D01*
X67317167Y16819313D01*
X67317167Y16594421D01*
X66879399Y16700858D01*
X66803863Y16676824D01*
X66754077Y16577253D01*
X66752361Y16447640D01*
X66865665Y16383262D01*
X67399571Y16251073D01*
X67454506Y16245923D01*
X67513734Y16248498D01*
X67560944Y16264807D01*
X67600429Y16312876D01*
X67612446Y16402146D01*
X67612446Y16819313D01*
X67790987Y16819313D01*
X67850215Y16821889D01*
X67897425Y16838198D01*
X67936910Y16886266D01*
X67948927Y16975537D01*
X67936910Y17066524D01*
X67899142Y17114592D01*
X67851931Y17131760D01*
X67792704Y17135193D01*
X66905150Y17135193D01*
X66846781Y17131760D01*
X66798712Y17115451D01*
X66759227Y17068240D01*
X66747210Y16978970D01*
X66399285Y16978970D01*
X66399285Y18441631D01*
X66748927Y18441631D01*
X66748927Y17813305D01*
X66782403Y17687125D01*
X66905150Y17651931D01*
X67792704Y17651931D01*
X67851931Y17654507D01*
X67899142Y17670816D01*
X67938627Y17718884D01*
X67950644Y17808155D01*
X67950644Y18439914D01*
X67948069Y18499142D01*
X67931760Y18546352D01*
X67883691Y18585837D01*
X67794421Y18597854D01*
X67703433Y18585837D01*
X67655365Y18547210D01*
X67639056Y18500858D01*
X67636481Y18441631D01*
X67636481Y17966095D01*
X67483691Y17966095D01*
X67483691Y18280258D01*
X67481116Y18336910D01*
X67467382Y18379828D01*
X67427897Y18413305D01*
X67351502Y18422747D01*
X67273391Y18413305D01*
X67232189Y18380687D01*
X67218455Y18339485D01*
X67215880Y18283691D01*
X67215880Y17966095D01*
X67063090Y17966095D01*
X67063090Y18439914D01*
X67060515Y18499142D01*
X67044206Y18546352D01*
X66996137Y18585837D01*
X66906867Y18597854D01*
X66815880Y18585837D01*
X66767811Y18547210D01*
X66751502Y18500858D01*
X66748927Y18441631D01*
X66399285Y18441631D01*
X66399285Y18810730D01*
X67063948Y18810730D01*
X67126609Y18700858D01*
X67240773Y18638198D01*
X67346352Y18700858D01*
X67512876Y18865665D01*
X67681116Y18700858D01*
X67785837Y18639056D01*
X67899142Y18700858D01*
X67960944Y18811588D01*
X67899142Y18917167D01*
X67732618Y19083691D01*
X67899142Y19248498D01*
X67961803Y19354936D01*
X67899142Y19464807D01*
X67786695Y19528326D01*
X67681116Y19464807D01*
X67512876Y19300000D01*
X67346352Y19464807D01*
X67239914Y19528326D01*
X67126609Y19464807D01*
X67064807Y19356652D01*
X67126609Y19248498D01*
X67294850Y19083691D01*
X67126609Y18917167D01*
X67063948Y18810730D01*
X66399285Y18810730D01*
X66399285Y19741202D01*
X67078541Y19741202D01*
X67090558Y19654507D01*
X67129185Y19608155D01*
X67174678Y19592704D01*
X67231330Y19590129D01*
X68163519Y19590129D01*
X68209871Y19590987D01*
X68248498Y19599571D01*
X68283691Y19622747D01*
X68305150Y19668240D01*
X68314592Y19742919D01*
X68302575Y19832189D01*
X68265665Y19880258D01*
X68218455Y19896567D01*
X68161803Y19897425D01*
X67885408Y19897425D01*
X67918884Y19972532D01*
X67930043Y20060515D01*
X67916214Y20160658D01*
X67874726Y20252790D01*
X67805579Y20336910D01*
X67717549Y20403672D01*
X67619409Y20443729D01*
X67511159Y20457082D01*
X67403958Y20443538D01*
X67304387Y20402909D01*
X67212446Y20335193D01*
X67139008Y20250501D01*
X67094945Y20158941D01*
X67080258Y20060515D01*
X67093562Y19970816D01*
X67133476Y19890558D01*
X67092275Y19834335D01*
X67078541Y19741202D01*
X66399285Y19741202D01*
X66399285Y21224464D01*
X67078541Y21224464D01*
X67096137Y21120601D01*
X67148927Y21076824D01*
X67097425Y20997425D01*
X67080258Y20896567D01*
X67094945Y20798140D01*
X67139008Y20706581D01*
X67212446Y20621889D01*
X67304387Y20554173D01*
X67403958Y20513543D01*
X67511159Y20500000D01*
X67621221Y20513448D01*
X67722508Y20553791D01*
X67815021Y20621030D01*
X67888460Y20705436D01*
X67932523Y20797282D01*
X67947210Y20896567D01*
X67931760Y20994850D01*
X67885408Y21076824D01*
X67931760Y21125322D01*
X67947210Y21222747D01*
X67935193Y21312017D01*
X67896567Y21360086D01*
X67851073Y21376395D01*
X67792704Y21378970D01*
X67234764Y21378970D01*
X67177253Y21376395D01*
X67130043Y21360086D01*
X67090558Y21312876D01*
X67078541Y21224464D01*
X66399285Y21224464D01*
X66399285Y22005579D01*
X67078541Y22005579D01*
X67111159Y21881116D01*
X67184979Y21789270D01*
X67149785Y21784120D01*
X67117167Y21765236D01*
X67088841Y21718884D01*
X67078541Y21638198D01*
X67089700Y21548927D01*
X67126609Y21501717D01*
X67171245Y21485408D01*
X67227897Y21481974D01*
X67792704Y21481974D01*
X67851931Y21484549D01*
X67898283Y21500858D01*
X67936910Y21548069D01*
X67948927Y21636481D01*
X67936910Y21725751D01*
X67898283Y21773820D01*
X67851931Y21790129D01*
X67794421Y21792704D01*
X67512876Y21792704D01*
X67422747Y21827039D01*
X67389270Y21918026D01*
X67421888Y22008155D01*
X67512876Y22039914D01*
X67792704Y22039914D01*
X67850215Y22042489D01*
X67897425Y22058798D01*
X67936910Y22106867D01*
X67948927Y22197854D01*
X67936910Y22287983D01*
X67898283Y22335193D01*
X67851931Y22351502D01*
X67794421Y22354077D01*
X67512876Y22354077D01*
X67393467Y22343968D01*
X67289318Y22313639D01*
X67200429Y22263090D01*
X67132713Y22194039D01*
X67092084Y22108202D01*
X67078541Y22005579D01*
X66399285Y22005579D01*
X66399285Y23145494D01*
X66685408Y23145494D01*
X66693991Y23070816D01*
X66718026Y23026180D01*
X66754077Y23003863D01*
X66796996Y22996996D01*
X66841631Y22997854D01*
X67136910Y22997854D01*
X67094421Y22918455D01*
X67080258Y22824464D01*
X67094945Y22726037D01*
X67139008Y22634478D01*
X67212446Y22549786D01*
X67304387Y22482070D01*
X67403958Y22441440D01*
X67511159Y22427897D01*
X67621221Y22441345D01*
X67722508Y22481688D01*
X67815021Y22548927D01*
X67888460Y22633333D01*
X67932523Y22725179D01*
X67947210Y22824464D01*
X67931760Y22923176D01*
X67885408Y23006438D01*
X67933047Y23055365D01*
X67948927Y23147210D01*
X67936910Y23235622D01*
X67897425Y23282833D01*
X67850215Y23299142D01*
X67792704Y23301717D01*
X66839914Y23301717D01*
X66782403Y23299142D01*
X66736052Y23282833D01*
X66697425Y23235622D01*
X66685408Y23145494D01*
X66399285Y23145494D01*
X66399285Y23849356D01*
X67059657Y23849356D01*
X67073867Y23719361D01*
X67116500Y23606342D01*
X67187554Y23510301D01*
X67281116Y23437339D01*
X67391273Y23393562D01*
X67518026Y23378970D01*
X67596137Y23385622D01*
X67672532Y23405579D01*
X67746352Y23438627D01*
X67816738Y23484549D01*
X67878755Y23547425D01*
X67927468Y23631331D01*
X67959013Y23732618D01*
X67969528Y23847640D01*
X67959764Y24003863D01*
X67930472Y24115451D01*
X67881652Y24182404D01*
X67813305Y24204721D01*
X67734335Y24182404D01*
X67672532Y24136052D01*
X67651931Y24079399D01*
X67674249Y24000429D01*
X67696567Y23861373D01*
X67672532Y23760086D01*
X67607296Y23708584D01*
X67607296Y24074249D01*
X67594206Y24143992D01*
X67554936Y24198713D01*
X67491631Y24234120D01*
X67406438Y24245923D01*
X67285837Y24220386D01*
X67171245Y24143777D01*
X67109251Y24065665D01*
X67072055Y23967525D01*
X67059657Y23849356D01*
X66399285Y23849356D01*
X66399285Y24805579D01*
X67069957Y24805579D01*
X67089700Y24713734D01*
X67148927Y24627039D01*
X67096137Y24578970D01*
X67078541Y24479399D01*
X67090558Y24389270D01*
X67129185Y24342060D01*
X67174678Y24325751D01*
X67233047Y24323176D01*
X67792704Y24323176D01*
X67851931Y24325751D01*
X67899142Y24342060D01*
X67938627Y24389270D01*
X67950644Y24477683D01*
X67938627Y24568670D01*
X67900000Y24616738D01*
X67854506Y24633047D01*
X67796137Y24635622D01*
X67461373Y24635622D01*
X67398712Y24669099D01*
X67373820Y24754077D01*
X67386695Y24796137D01*
X67399571Y24862232D01*
X67340343Y24958369D01*
X67274034Y24986695D01*
X67193562Y24996137D01*
X67128326Y24974678D01*
X67089700Y24918884D01*
X67074249Y24857082D01*
X67069957Y24805579D01*
X66399285Y24805579D01*
X66399285Y24996137D01*
X66399285Y25425322D01*
X66404585Y25533211D01*
X66420435Y25640061D01*
X66446681Y25744843D01*
X66483072Y25846547D01*
X66529256Y25944196D01*
X66584789Y26036847D01*
X66649136Y26123608D01*
X66721677Y26203645D01*
X66801714Y26276186D01*
X66888475Y26340533D01*
X66981126Y26396066D01*
X67078775Y26442250D01*
X67180479Y26478641D01*
X67285261Y26504887D01*
X67392111Y26520737D01*
X67500000Y26526037D01*
X67607889Y26520737D01*
X67714739Y26504887D01*
X67819521Y26478641D01*
X67921225Y26442250D01*
X68018874Y26396066D01*
X68111525Y26340533D01*
X68198286Y26276186D01*
X68278323Y26203645D01*
X68350864Y26123608D01*
X68415211Y26036847D01*
X68470744Y25944196D01*
X68516928Y25846547D01*
X68553319Y25744843D01*
X68579565Y25640061D01*
X68595415Y25533211D01*
X68600715Y25425322D01*
X68600715Y24996137D01*
X68600715Y24477683D01*
X68600715Y23847640D01*
G37*
G36*
X67459442Y10721030D02*
G01*
X67551502Y10657940D01*
X67613948Y10565665D01*
X67634764Y10457082D01*
X67634764Y10318026D01*
X67063090Y10318026D01*
X67063090Y10455365D01*
X67084120Y10565236D01*
X67147210Y10657940D01*
X67239914Y10721030D01*
X67349785Y10742060D01*
X67459442Y10721030D01*
G37*
G36*
X67282833Y11725751D02*
G01*
X67313734Y11643348D01*
X67313734Y11454507D01*
X67063090Y11454507D01*
X67063090Y11639914D01*
X67099142Y11728326D01*
X67188412Y11765236D01*
X67282833Y11725751D01*
G37*
G36*
X67601288Y20106867D02*
G01*
X67638197Y20019313D01*
X67601288Y19933476D01*
X67514592Y19897425D01*
X67427039Y19933476D01*
X67390987Y20021030D01*
X67427039Y20108584D01*
X67514592Y20144635D01*
X67601288Y20106867D01*
G37*
G36*
X67601288Y22951502D02*
G01*
X67638197Y22865665D01*
X67601288Y22778112D01*
X67514592Y22740343D01*
X67427039Y22776395D01*
X67390987Y22863949D01*
X67427039Y22951502D01*
X67514592Y22987554D01*
X67601288Y22951502D01*
G37*
G36*
X67599571Y21022747D02*
G01*
X67636481Y20939485D01*
X67599571Y20849356D01*
X67514592Y20810730D01*
X67427039Y20847640D01*
X67389270Y20936052D01*
X67425322Y21022747D01*
X67512876Y21057940D01*
X67599571Y21022747D01*
G37*
G36*
X67644206Y13924893D02*
G01*
X67672532Y13833906D01*
X67644206Y13739485D01*
X67566094Y13705150D01*
X67490558Y13737768D01*
X67463090Y13830472D01*
X67489700Y13924034D01*
X67566094Y13957511D01*
X67644206Y13924893D01*
G37*
G36*
X67445923Y23900858D02*
G01*
X67445923Y23708584D01*
X67369528Y23748927D01*
X67336052Y23845923D01*
X67354077Y23919743D01*
X67404721Y23947210D01*
X67445923Y23900858D01*
G37*
G36*
X67154936Y13900858D02*
G01*
X67172961Y13833906D01*
X67154077Y13766953D01*
X67100858Y13742919D01*
X67046781Y13765236D01*
X67028755Y13832189D01*
X67047639Y13899142D01*
X67100858Y13923176D01*
X67154936Y13900858D01*
G37*
G36*
X67306867Y13514592D02*
G01*
X67313734Y13521459D01*
X67315451Y13521459D01*
X67308584Y13512876D01*
X67306867Y13514592D01*
X67305150Y13512876D01*
X67294850Y13526610D01*
X67294850Y13528326D01*
X67306867Y13514592D01*
G37*
G36*
X67306867Y14149786D02*
G01*
X67300000Y14141202D01*
X67300000Y14144635D01*
X67305150Y14151502D01*
X67306867Y14149786D01*
G37*
D12*
%TO.C,J5*%
X42449999Y11350000D02*
X42449999Y50000D01*
X42449999Y50000D02*
X51249999Y50000D01*
X51249999Y11350000D02*
X42449999Y11350000D01*
X51249999Y50000D02*
X51249999Y11350000D01*
D13*
X45239999Y11850000D02*
G75*
G02*
X44959999Y11850000I-140000J0D01*
G01*
X44959999Y11850000D02*
G75*
G02*
X45239999Y11850000I140000J0D01*
G01*
D12*
%TO.C,J1*%
X17600000Y11350000D02*
X17600000Y50000D01*
X17600000Y50000D02*
X26400000Y50000D01*
X26400000Y11350000D02*
X17600000Y11350000D01*
X26400000Y50000D02*
X26400000Y11350000D01*
D13*
X20390000Y11850000D02*
G75*
G02*
X20110000Y11850000I-140000J0D01*
G01*
X20110000Y11850000D02*
G75*
G02*
X20390000Y11850000I140000J0D01*
G01*
D12*
%TO.C,J4*%
X61550000Y23650000D02*
X45750000Y23650000D01*
X61550000Y34950000D02*
X61550000Y23650000D01*
X45750000Y23650000D02*
X45750000Y34950000D01*
X45750000Y34950000D02*
X61550000Y34950000D01*
D13*
X59040000Y23150000D02*
G75*
G02*
X58760000Y23150000I-140000J0D01*
G01*
X58760000Y23150000D02*
G75*
G02*
X59040000Y23150000I140000J0D01*
G01*
D12*
%TO.C,J3*%
X45236000Y23658900D02*
X45236000Y34958900D01*
X45236000Y34958900D02*
X32936000Y34958900D01*
X32936000Y23658900D02*
X45236000Y23658900D01*
X32936000Y34958900D02*
X32936000Y23658900D01*
D13*
X42726000Y23158900D02*
G75*
G02*
X42446000Y23158900I-140000J0D01*
G01*
X42446000Y23158900D02*
G75*
G02*
X42726000Y23158900I140000J0D01*
G01*
D12*
%TO.C,J2*%
X32449999Y23657799D02*
X32449999Y34957799D01*
X32449999Y34957799D02*
X20149999Y34957799D01*
X20149999Y23657799D02*
X32449999Y23657799D01*
X20149999Y34957799D02*
X20149999Y23657799D01*
D13*
X29939999Y23157799D02*
G75*
G02*
X29659999Y23157799I-140000J0D01*
G01*
X29659999Y23157799D02*
G75*
G02*
X29939999Y23157799I140000J0D01*
G01*
D12*
%TO.C,J6*%
X19649999Y23650000D02*
X19649999Y34950000D01*
X19649999Y34950000D02*
X7349999Y34950000D01*
X7349999Y23650000D02*
X19649999Y23650000D01*
X7349999Y34950000D02*
X7349999Y23650000D01*
D13*
X17139999Y23150000D02*
G75*
G02*
X16859999Y23150000I-140000J0D01*
G01*
X16859999Y23150000D02*
G75*
G02*
X17139999Y23150000I140000J0D01*
G01*
D14*
%TO.C,C3*%
X38238748Y12765000D02*
X38761252Y12765000D01*
X38238748Y14235000D02*
X38761252Y14235000D01*
%TO.C,C1*%
X30761252Y12765000D02*
X30238748Y12765000D01*
X30761252Y14235000D02*
X30238748Y14235000D01*
D15*
%TO.C,IC1*%
X36140000Y13900000D02*
G75*
G02*
X35860000Y13900000I-140000J0D01*
G01*
X35860000Y13900000D02*
G75*
G02*
X36140000Y13900000I140000J0D01*
G01*
D14*
%TO.C,R7*%
X58165000Y20272936D02*
X58165000Y20727064D01*
X59635000Y20272936D02*
X59635000Y20727064D01*
%TO.C,R6*%
X56135000Y20272936D02*
X56135000Y20727064D01*
X54665000Y20272936D02*
X54665000Y20727064D01*
%TO.C,R5*%
X51165000Y20272936D02*
X51165000Y20727064D01*
X52635000Y20272936D02*
X52635000Y20727064D01*
%TO.C,R4*%
X47665000Y20272936D02*
X47665000Y20727064D01*
X49135000Y20272936D02*
X49135000Y20727064D01*
%TO.C,R3*%
X38365000Y20272936D02*
X38365000Y20727064D01*
X39835000Y20272936D02*
X39835000Y20727064D01*
%TO.C,R2*%
X43335000Y20727064D02*
X43335000Y20272936D01*
X41865000Y20727064D02*
X41865000Y20272936D01*
%TO.C,R1*%
X34851000Y20272936D02*
X34851000Y20727064D01*
X36321000Y20272936D02*
X36321000Y20727064D01*
%TO.C,C2*%
X26260000Y13804437D02*
X26260000Y15690000D01*
X26260000Y13804437D02*
X25195563Y12740000D01*
X26260000Y20195563D02*
X26260000Y18310000D01*
X26260000Y20195563D02*
X25195563Y21260000D01*
X25195563Y12740000D02*
X17740000Y12740000D01*
X25195563Y21260000D02*
X17740000Y21260000D01*
X17740000Y12740000D02*
X17740000Y15690000D01*
X17740000Y21260000D02*
X17740000Y18310000D01*
D11*
%TO.C,G\u002A\u002A\u002A*%
G36*
X6876097Y8696463D02*
G01*
X6860609Y8680975D01*
X6845122Y8696463D01*
X6860609Y8711951D01*
X6876097Y8696463D01*
G37*
G36*
X2128440Y22390909D02*
G01*
X2119202Y22376831D01*
X2087784Y22374640D01*
X2054732Y22382205D01*
X2069070Y22393355D01*
X2117481Y22397048D01*
X2128440Y22390909D01*
G37*
G36*
X5007035Y8661890D02*
G01*
X5002073Y8650000D01*
X4961039Y8620181D01*
X4951953Y8619024D01*
X4935159Y8638109D01*
X4940122Y8650000D01*
X4981155Y8679819D01*
X4990241Y8680975D01*
X5007035Y8661890D01*
G37*
G36*
X8115122Y16300975D02*
G01*
X8115122Y16177073D01*
X7991219Y16177073D01*
X7867317Y16177073D01*
X7867317Y16300975D01*
X7867317Y16424878D01*
X7991219Y16424878D01*
X8115122Y16424878D01*
X8115122Y16300975D01*
G37*
G36*
X8070550Y16886230D02*
G01*
X8105804Y16865965D01*
X8114845Y16813088D01*
X8115122Y16781097D01*
X8111371Y16711683D01*
X8088210Y16680835D01*
X8027780Y16672925D01*
X7991219Y16672683D01*
X7911889Y16675965D01*
X7876634Y16696230D01*
X7867594Y16749107D01*
X7867317Y16781097D01*
X7871068Y16850512D01*
X7894228Y16881360D01*
X7954659Y16889270D01*
X7991219Y16889512D01*
X8070550Y16886230D01*
G37*
G36*
X9265553Y8900542D02*
G01*
X9270047Y8826514D01*
X9271121Y8722724D01*
X9269085Y8605202D01*
X9264247Y8489977D01*
X9256916Y8393078D01*
X9247402Y8330534D01*
X9245687Y8324756D01*
X9241132Y8340252D01*
X9237072Y8406380D01*
X9234019Y8511820D01*
X9232689Y8611280D01*
X9234132Y8743048D01*
X9239959Y8848107D01*
X9249166Y8913511D01*
X9257330Y8928780D01*
X9265553Y8900542D01*
G37*
G36*
X2900793Y9474035D02*
G01*
X2903376Y9400185D01*
X2903397Y9399382D01*
X2906611Y9202625D01*
X2907365Y8981616D01*
X2905659Y8769217D01*
X2903360Y8655967D01*
X2900762Y8586594D01*
X2898426Y8575450D01*
X2896446Y8618817D01*
X2894919Y8712972D01*
X2893939Y8854196D01*
X2893602Y9037195D01*
X2893961Y9220349D01*
X2894954Y9359118D01*
X2896488Y9449994D01*
X2898465Y9489469D01*
X2900793Y9474035D01*
G37*
G36*
X11863170Y15015488D02*
G01*
X11863170Y7658780D01*
X7015487Y7658780D01*
X2167805Y7658780D01*
X2167805Y15015488D01*
X2322683Y15015488D01*
X2322683Y7813658D01*
X7015487Y7813658D01*
X11708292Y7813658D01*
X11708292Y15015488D01*
X11708292Y22217317D01*
X7015487Y22217317D01*
X2322683Y22217317D01*
X2322683Y15015488D01*
X2167805Y15015488D01*
X2167805Y22217317D01*
X2167805Y22372195D01*
X7015487Y22372195D01*
X11863170Y22372195D01*
X11863170Y15015488D01*
G37*
G36*
X6030277Y13553392D02*
G01*
X6026605Y13520915D01*
X6011752Y13482975D01*
X5975204Y13393176D01*
X5919155Y13256818D01*
X5845801Y13079202D01*
X5757335Y12865627D01*
X5655953Y12621394D01*
X5543850Y12351804D01*
X5423220Y12062156D01*
X5330784Y11840488D01*
X5162885Y11439887D01*
X5017308Y11096449D01*
X4893816Y10809639D01*
X4792169Y10578923D01*
X4712130Y10403766D01*
X4653461Y10283633D01*
X4615924Y10217990D01*
X4602503Y10204233D01*
X4569623Y10207077D01*
X4573824Y10245982D01*
X4581416Y10266184D01*
X4608570Y10332999D01*
X4657309Y10451517D01*
X4725365Y10616269D01*
X4810468Y10821785D01*
X4910347Y11062595D01*
X5022734Y11333229D01*
X5145357Y11628218D01*
X5275948Y11942091D01*
X5412236Y12269377D01*
X5514263Y12514207D01*
X5642222Y12818336D01*
X5752175Y13073726D01*
X5843329Y13278646D01*
X5914890Y13431361D01*
X5966065Y13530139D01*
X5996059Y13573246D01*
X6000223Y13575122D01*
X6030277Y13553392D01*
G37*
G36*
X6346242Y13563928D02*
G01*
X6346788Y13531243D01*
X6326067Y13462763D01*
X6281979Y13350031D01*
X6257332Y13290657D01*
X6220813Y13203297D01*
X6163467Y13065806D01*
X6088239Y12885265D01*
X5998077Y12668749D01*
X5895927Y12423337D01*
X5784736Y12156107D01*
X5667450Y11874138D01*
X5553735Y11600663D01*
X5412930Y11264045D01*
X5287696Y10968872D01*
X5179161Y10717676D01*
X5088455Y10512988D01*
X5016706Y10357341D01*
X4965044Y10253266D01*
X4934596Y10203295D01*
X4928765Y10199017D01*
X4899616Y10221518D01*
X4902308Y10252988D01*
X4918417Y10296166D01*
X4954928Y10387660D01*
X5008247Y10518671D01*
X5074779Y10680400D01*
X5150932Y10864047D01*
X5196434Y10973171D01*
X5326474Y11284540D01*
X5473687Y11637256D01*
X5631461Y12015460D01*
X5793184Y12403296D01*
X5952242Y12784908D01*
X6102023Y13144438D01*
X6158761Y13280689D01*
X6222783Y13422442D01*
X6277654Y13519989D01*
X6319426Y13566538D01*
X6326529Y13569273D01*
X6346242Y13563928D01*
G37*
G36*
X8602001Y13536637D02*
G01*
X8610100Y13511059D01*
X8616749Y13462838D01*
X8622055Y13387396D01*
X8626125Y13280159D01*
X8629065Y13136551D01*
X8630981Y12951997D01*
X8631981Y12721921D01*
X8632170Y12441747D01*
X8631655Y12106900D01*
X8631065Y11881788D01*
X8629662Y11502083D01*
X8627772Y11180300D01*
X8625292Y10912409D01*
X8622117Y10694383D01*
X8618141Y10522193D01*
X8613260Y10391809D01*
X8607369Y10299205D01*
X8600363Y10240350D01*
X8592138Y10211216D01*
X8587500Y10206524D01*
X8578759Y10215312D01*
X8571352Y10250665D01*
X8565185Y10316631D01*
X8560162Y10417255D01*
X8556190Y10556584D01*
X8553176Y10738666D01*
X8551023Y10967546D01*
X8549638Y11247271D01*
X8548928Y11581888D01*
X8548780Y11868882D01*
X8548977Y12239821D01*
X8549648Y12553361D01*
X8550911Y12814052D01*
X8552884Y13026446D01*
X8555685Y13195094D01*
X8559434Y13324546D01*
X8564248Y13419354D01*
X8570245Y13484068D01*
X8577544Y13523240D01*
X8586264Y13541420D01*
X8592345Y13544146D01*
X8602001Y13536637D01*
G37*
G36*
X6188920Y13552304D02*
G01*
X6186943Y13520915D01*
X6173341Y13483784D01*
X6140059Y13400137D01*
X6086622Y13268822D01*
X6012552Y13088688D01*
X5917372Y12858585D01*
X5800605Y12577361D01*
X5661772Y12243866D01*
X5500397Y11856947D01*
X5316003Y11415454D01*
X5108113Y10918236D01*
X5067347Y10820786D01*
X4990618Y10640987D01*
X4919640Y10481408D01*
X4858490Y10350681D01*
X4811245Y10257440D01*
X4781981Y10210318D01*
X4777236Y10206437D01*
X4742273Y10211270D01*
X4738780Y10221814D01*
X4750069Y10256755D01*
X4781415Y10339578D01*
X4829036Y10460983D01*
X4889152Y10611669D01*
X4957979Y10782338D01*
X5031738Y10963690D01*
X5106646Y11146425D01*
X5178922Y11321243D01*
X5244784Y11478844D01*
X5300451Y11609929D01*
X5340298Y11701097D01*
X5369794Y11769305D01*
X5419064Y11886063D01*
X5484447Y12042572D01*
X5562283Y12230037D01*
X5648911Y12439657D01*
X5740670Y12662636D01*
X5762387Y12715549D01*
X5873799Y12983605D01*
X5968760Y13204702D01*
X6046173Y13376457D01*
X6104939Y13496487D01*
X6143961Y13562410D01*
X6158435Y13575122D01*
X6188920Y13552304D01*
G37*
G36*
X8419856Y13538127D02*
G01*
X8428438Y13516952D01*
X8435568Y13475941D01*
X8441376Y13410418D01*
X8445991Y13315702D01*
X8449542Y13187117D01*
X8452158Y13019984D01*
X8453968Y12809625D01*
X8455101Y12551361D01*
X8455686Y12240514D01*
X8455853Y11872406D01*
X8455853Y11871463D01*
X8455685Y11503042D01*
X8455093Y11191901D01*
X8453951Y10933372D01*
X8452129Y10722784D01*
X8449500Y10555469D01*
X8445935Y10426755D01*
X8441307Y10331974D01*
X8435486Y10266457D01*
X8428345Y10225532D01*
X8419755Y10204532D01*
X8409922Y10198780D01*
X8399805Y10204925D01*
X8391258Y10226473D01*
X8384153Y10268093D01*
X8378361Y10334454D01*
X8373754Y10430227D01*
X8370202Y10560080D01*
X8367576Y10728682D01*
X8365748Y10940704D01*
X8364589Y11200815D01*
X8363970Y11513683D01*
X8363763Y11871463D01*
X8363879Y12239708D01*
X8364421Y12550680D01*
X8365517Y12809059D01*
X8367296Y13019523D01*
X8369886Y13186750D01*
X8373416Y13315420D01*
X8378014Y13410210D01*
X8383809Y13475799D01*
X8390929Y13516866D01*
X8399502Y13538089D01*
X8409658Y13544146D01*
X8409694Y13544146D01*
X8419856Y13538127D01*
G37*
G36*
X2936887Y13569272D02*
G01*
X2945489Y13548611D01*
X2952644Y13508470D01*
X2958480Y13444181D01*
X2963124Y13351076D01*
X2966705Y13224488D01*
X2969352Y13059747D01*
X2971194Y12852186D01*
X2972358Y12597137D01*
X2972974Y12289931D01*
X2973169Y11925901D01*
X2973170Y11886951D01*
X2973009Y11517095D01*
X2972441Y11204521D01*
X2971336Y10944561D01*
X2969567Y10732548D01*
X2967004Y10563813D01*
X2963520Y10433688D01*
X2958986Y10337505D01*
X2953273Y10270596D01*
X2946253Y10228292D01*
X2937798Y10205926D01*
X2927779Y10198830D01*
X2926707Y10198780D01*
X2916527Y10204630D01*
X2907925Y10225291D01*
X2900770Y10265432D01*
X2894934Y10329721D01*
X2890290Y10422826D01*
X2886709Y10549415D01*
X2884062Y10714155D01*
X2882220Y10921716D01*
X2881056Y11176766D01*
X2880440Y11483971D01*
X2880245Y11848002D01*
X2880244Y11886951D01*
X2880405Y12256808D01*
X2880973Y12569381D01*
X2882078Y12829341D01*
X2883847Y13041354D01*
X2886410Y13210089D01*
X2889894Y13340214D01*
X2894428Y13436397D01*
X2900141Y13503307D01*
X2907161Y13545610D01*
X2915616Y13567976D01*
X2925635Y13575072D01*
X2926707Y13575122D01*
X2936887Y13569272D01*
G37*
G36*
X3091765Y13569272D02*
G01*
X3100368Y13548611D01*
X3107522Y13508470D01*
X3113358Y13444181D01*
X3118002Y13351076D01*
X3121583Y13224488D01*
X3124230Y13059747D01*
X3126072Y12852186D01*
X3127236Y12597137D01*
X3127852Y12289931D01*
X3128047Y11925901D01*
X3128048Y11886951D01*
X3127887Y11517095D01*
X3127319Y11204521D01*
X3126214Y10944561D01*
X3124445Y10732548D01*
X3121882Y10563813D01*
X3118398Y10433688D01*
X3113864Y10337505D01*
X3108151Y10270596D01*
X3101131Y10228292D01*
X3092676Y10205926D01*
X3082657Y10198830D01*
X3081585Y10198780D01*
X3071406Y10204630D01*
X3062803Y10225291D01*
X3055648Y10265432D01*
X3049812Y10329721D01*
X3045168Y10422826D01*
X3041587Y10549415D01*
X3038940Y10714155D01*
X3037098Y10921716D01*
X3035934Y11176766D01*
X3035318Y11483971D01*
X3035123Y11848002D01*
X3035122Y11886951D01*
X3035283Y12256808D01*
X3035851Y12569381D01*
X3036956Y12829341D01*
X3038725Y13041354D01*
X3041288Y13210089D01*
X3044772Y13340214D01*
X3049306Y13436397D01*
X3055019Y13503307D01*
X3062039Y13545610D01*
X3070494Y13567976D01*
X3080513Y13575072D01*
X3081585Y13575122D01*
X3091765Y13569272D01*
G37*
G36*
X3246643Y13569272D02*
G01*
X3255246Y13548611D01*
X3262400Y13508470D01*
X3268236Y13444181D01*
X3272880Y13351076D01*
X3276461Y13224488D01*
X3279108Y13059747D01*
X3280950Y12852186D01*
X3282114Y12597137D01*
X3282730Y12289931D01*
X3282925Y11925901D01*
X3282927Y11886951D01*
X3282765Y11517095D01*
X3282197Y11204521D01*
X3281092Y10944561D01*
X3279323Y10732548D01*
X3276760Y10563813D01*
X3273276Y10433688D01*
X3268742Y10337505D01*
X3263029Y10270596D01*
X3256009Y10228292D01*
X3247554Y10205926D01*
X3237535Y10198830D01*
X3236463Y10198780D01*
X3226284Y10204630D01*
X3217681Y10225291D01*
X3210526Y10265432D01*
X3204691Y10329721D01*
X3200046Y10422826D01*
X3196465Y10549415D01*
X3193818Y10714155D01*
X3191976Y10921716D01*
X3190812Y11176766D01*
X3190196Y11483971D01*
X3190001Y11848002D01*
X3190000Y11886951D01*
X3190161Y12256808D01*
X3190729Y12569381D01*
X3191834Y12829341D01*
X3193604Y13041354D01*
X3196166Y13210089D01*
X3199650Y13340214D01*
X3204184Y13436397D01*
X3209897Y13503307D01*
X3216917Y13545610D01*
X3225372Y13567976D01*
X3235391Y13575072D01*
X3236463Y13575122D01*
X3246643Y13569272D01*
G37*
G36*
X3401521Y13569272D02*
G01*
X3410124Y13548611D01*
X3417278Y13508470D01*
X3423114Y13444181D01*
X3427758Y13351076D01*
X3431339Y13224488D01*
X3433986Y13059747D01*
X3435828Y12852186D01*
X3436992Y12597137D01*
X3437608Y12289931D01*
X3437803Y11925901D01*
X3437805Y11886951D01*
X3437644Y11517095D01*
X3437075Y11204521D01*
X3435970Y10944561D01*
X3434201Y10732548D01*
X3431638Y10563813D01*
X3428154Y10433688D01*
X3423620Y10337505D01*
X3417907Y10270596D01*
X3410888Y10228292D01*
X3402432Y10205926D01*
X3392413Y10198830D01*
X3391341Y10198780D01*
X3381162Y10204630D01*
X3372559Y10225291D01*
X3365404Y10265432D01*
X3359569Y10329721D01*
X3354924Y10422826D01*
X3351343Y10549415D01*
X3348696Y10714155D01*
X3346854Y10921716D01*
X3345690Y11176766D01*
X3345074Y11483971D01*
X3344879Y11848002D01*
X3344878Y11886951D01*
X3345039Y12256808D01*
X3345607Y12569381D01*
X3346712Y12829341D01*
X3348482Y13041354D01*
X3351044Y13210089D01*
X3354528Y13340214D01*
X3359062Y13436397D01*
X3364775Y13503307D01*
X3371795Y13545610D01*
X3380250Y13567976D01*
X3390269Y13575072D01*
X3391341Y13575122D01*
X3401521Y13569272D01*
G37*
G36*
X8760345Y13538287D02*
G01*
X8768977Y13517582D01*
X8776149Y13477343D01*
X8781991Y13412881D01*
X8786633Y13319506D01*
X8790206Y13192528D01*
X8792839Y13027259D01*
X8794664Y12819010D01*
X8795809Y12563091D01*
X8796406Y12254813D01*
X8796585Y11889486D01*
X8796585Y11871463D01*
X8796422Y11503434D01*
X8795847Y11192667D01*
X8794729Y10934471D01*
X8792939Y10724158D01*
X8790345Y10557039D01*
X8786818Y10428424D01*
X8782227Y10333624D01*
X8776442Y10267950D01*
X8769334Y10226713D01*
X8760770Y10205223D01*
X8750622Y10198791D01*
X8750122Y10198780D01*
X8739899Y10204640D01*
X8731266Y10225344D01*
X8724094Y10265583D01*
X8718252Y10330046D01*
X8713610Y10423421D01*
X8710037Y10550398D01*
X8707404Y10715667D01*
X8705580Y10923916D01*
X8704434Y11179836D01*
X8703837Y11488114D01*
X8703659Y11853441D01*
X8703658Y11871463D01*
X8703821Y12239492D01*
X8704396Y12550260D01*
X8705514Y12808456D01*
X8707304Y13018768D01*
X8709898Y13185887D01*
X8713425Y13314502D01*
X8718016Y13409302D01*
X8723801Y13474976D01*
X8730910Y13516214D01*
X8739473Y13537704D01*
X8749621Y13544136D01*
X8750122Y13544146D01*
X8760345Y13538287D01*
G37*
G36*
X8915223Y13538287D02*
G01*
X8923855Y13517582D01*
X8931027Y13477343D01*
X8936869Y13412881D01*
X8941511Y13319506D01*
X8945084Y13192528D01*
X8947717Y13027259D01*
X8949542Y12819010D01*
X8950687Y12563091D01*
X8951284Y12254813D01*
X8951463Y11889486D01*
X8951463Y11871463D01*
X8951300Y11503434D01*
X8950725Y11192667D01*
X8949607Y10934471D01*
X8947817Y10724158D01*
X8945223Y10557039D01*
X8941696Y10428424D01*
X8937105Y10333624D01*
X8931320Y10267950D01*
X8924212Y10226713D01*
X8915648Y10205223D01*
X8905500Y10198791D01*
X8905000Y10198780D01*
X8894777Y10204640D01*
X8886144Y10225344D01*
X8878972Y10265583D01*
X8873130Y10330046D01*
X8868488Y10423421D01*
X8864915Y10550398D01*
X8862282Y10715667D01*
X8860458Y10923916D01*
X8859312Y11179836D01*
X8858715Y11488114D01*
X8858537Y11853441D01*
X8858536Y11871463D01*
X8858699Y12239492D01*
X8859274Y12550260D01*
X8860392Y12808456D01*
X8862183Y13018768D01*
X8864776Y13185887D01*
X8868303Y13314502D01*
X8872894Y13409302D01*
X8878679Y13474976D01*
X8885788Y13516214D01*
X8894351Y13537704D01*
X8904499Y13544136D01*
X8905000Y13544146D01*
X8915223Y13538287D01*
G37*
G36*
X6527910Y13566835D02*
G01*
X6531189Y13552699D01*
X6517504Y13519682D01*
X6482098Y13434626D01*
X6427109Y13302665D01*
X6354679Y13128930D01*
X6266948Y12918554D01*
X6166056Y12676669D01*
X6054143Y12408409D01*
X5933351Y12118905D01*
X5825966Y11861570D01*
X5655748Y11455479D01*
X5507964Y11106757D01*
X5382475Y10815084D01*
X5279135Y10580138D01*
X5197803Y10401599D01*
X5138337Y10279145D01*
X5100593Y10212455D01*
X5086982Y10198780D01*
X5055347Y10218846D01*
X5057011Y10237500D01*
X5085075Y10307688D01*
X5131345Y10421455D01*
X5191409Y10568121D01*
X5260854Y10737005D01*
X5335266Y10917427D01*
X5410231Y11098709D01*
X5481337Y11270170D01*
X5544171Y11421130D01*
X5594318Y11540909D01*
X5627367Y11618827D01*
X5635459Y11637331D01*
X5667908Y11711979D01*
X5717705Y11829469D01*
X5778756Y11975299D01*
X5844966Y12134968D01*
X5864028Y12181219D01*
X5994474Y12498011D01*
X6103586Y12762276D01*
X6193519Y12978811D01*
X6266425Y13152417D01*
X6324460Y13287890D01*
X6369778Y13390030D01*
X6404532Y13463635D01*
X6430878Y13513504D01*
X6450968Y13544435D01*
X6466959Y13561226D01*
X6481002Y13568676D01*
X6487648Y13570336D01*
X6527910Y13566835D01*
G37*
G36*
X8092912Y19506375D02*
G01*
X8270355Y19452239D01*
X8429793Y19355367D01*
X8560767Y19221674D01*
X8652816Y19057078D01*
X8689944Y18917385D01*
X8689806Y18765576D01*
X8654276Y18597495D01*
X8591160Y18440871D01*
X8529129Y18346067D01*
X8395407Y18230662D01*
X8227458Y18150264D01*
X8043817Y18109884D01*
X7863020Y18114534D01*
X7766583Y18139907D01*
X7584707Y18236491D01*
X7440040Y18371800D01*
X7339229Y18535889D01*
X7288925Y18718816D01*
X7287668Y18856188D01*
X7288518Y18860063D01*
X7515866Y18860063D01*
X7522481Y18705244D01*
X7581070Y18559698D01*
X7690875Y18436186D01*
X7704401Y18425719D01*
X7842785Y18356604D01*
X7998407Y18333594D01*
X8150131Y18357928D01*
X8229218Y18394966D01*
X8343986Y18496038D01*
X8425141Y18626845D01*
X8460284Y18766493D01*
X8460828Y18785332D01*
X8445190Y18940227D01*
X8392693Y19062104D01*
X8307551Y19160958D01*
X8172169Y19249997D01*
X8020110Y19285042D01*
X7864538Y19266386D01*
X7718618Y19194324D01*
X7661593Y19146484D01*
X7561984Y19011396D01*
X7515866Y18860063D01*
X7288518Y18860063D01*
X7334114Y19067909D01*
X7427209Y19239730D01*
X7569719Y19375477D01*
X7725855Y19462763D01*
X7907925Y19511855D01*
X8092912Y19506375D01*
G37*
G36*
X9134898Y9741974D02*
G01*
X9138227Y9703171D01*
X9143492Y9625732D01*
X9168292Y9703171D01*
X9185976Y9753816D01*
X9194366Y9749422D01*
X9200399Y9687683D01*
X9206768Y9631659D01*
X9214326Y9634130D01*
X9221128Y9664451D01*
X9243935Y9718868D01*
X9267246Y9734146D01*
X9286004Y9707363D01*
X9280579Y9637347D01*
X9271198Y9562488D01*
X9262898Y9446431D01*
X9257037Y9309930D01*
X9255749Y9257896D01*
X9250279Y8975244D01*
X9230244Y9192073D01*
X9222976Y9256106D01*
X9216846Y9274175D01*
X9211545Y9242993D01*
X9206762Y9159276D01*
X9202189Y9019738D01*
X9198162Y8851341D01*
X9186116Y8293780D01*
X9168292Y8804878D01*
X9150469Y9315975D01*
X9143893Y8819211D01*
X9137317Y8322446D01*
X9044390Y8315365D01*
X8951463Y8308284D01*
X8951463Y8866829D01*
X9080256Y8866829D01*
X9085124Y8822855D01*
X9095880Y8828110D01*
X9099971Y8891527D01*
X9095880Y8905549D01*
X9084574Y8909440D01*
X9080256Y8866829D01*
X8951463Y8866829D01*
X8951463Y9017602D01*
X8951679Y9244941D01*
X8952762Y9417967D01*
X8955364Y9544317D01*
X8960137Y9631631D01*
X8967734Y9687545D01*
X8978806Y9719697D01*
X8994006Y9735727D01*
X9013414Y9743121D01*
X9064947Y9740602D01*
X9077543Y9708015D01*
X9083661Y9679588D01*
X9101411Y9707442D01*
X9106341Y9718658D01*
X9126226Y9758032D01*
X9134898Y9741974D01*
G37*
G36*
X8607650Y9726134D02*
G01*
X8733138Y9722137D01*
X8810974Y9715768D01*
X8835304Y9707393D01*
X8827561Y9703171D01*
X8777240Y9685651D01*
X8782218Y9678212D01*
X8843048Y9674808D01*
X8901235Y9667038D01*
X8900756Y9649416D01*
X8893751Y9644495D01*
X8868398Y9618950D01*
X8890899Y9604619D01*
X8916254Y9565935D01*
X8909302Y9507942D01*
X8889472Y9455845D01*
X8851796Y9431452D01*
X8776781Y9424570D01*
X8749531Y9424390D01*
X8610731Y9424390D01*
X8610731Y8861667D01*
X8609764Y8684272D01*
X8607076Y8531887D01*
X8602985Y8413815D01*
X8597812Y8339360D01*
X8592059Y8317616D01*
X8552411Y8321963D01*
X8499132Y8308057D01*
X8441135Y8295224D01*
X8424403Y8317779D01*
X8413106Y8332270D01*
X8393902Y8309268D01*
X8370260Y8282863D01*
X8361844Y8313023D01*
X8361224Y8324756D01*
X8358572Y8386707D01*
X8331951Y8324756D01*
X8322572Y8331520D01*
X8314724Y8395383D01*
X8308675Y8511505D01*
X8304695Y8675046D01*
X8303152Y8843597D01*
X8301265Y9346951D01*
X8337990Y9346951D01*
X8341338Y9294050D01*
X8351034Y9289393D01*
X8352269Y9292154D01*
X8358397Y9353647D01*
X8353417Y9385081D01*
X8343557Y9397713D01*
X8338194Y9356570D01*
X8337990Y9346951D01*
X8301265Y9346951D01*
X8300975Y9424390D01*
X8151729Y9424390D01*
X8062185Y9426634D01*
X8018310Y9440121D01*
X8003836Y9474982D01*
X8002483Y9517317D01*
X8012074Y9582720D01*
X8035179Y9610706D01*
X8035571Y9610718D01*
X8042890Y9623820D01*
X8022195Y9641219D01*
X8002357Y9662711D01*
X8035344Y9673120D01*
X8068658Y9675386D01*
X8161585Y9679525D01*
X8068658Y9703171D01*
X8061754Y9711890D01*
X8111261Y9719004D01*
X8211649Y9724152D01*
X8357390Y9726973D01*
X8440366Y9727394D01*
X8607650Y9726134D01*
G37*
G36*
X3854975Y13567470D02*
G01*
X4017041Y13556649D01*
X4137658Y13540685D01*
X4237318Y13515294D01*
X4336517Y13476189D01*
X4373816Y13458991D01*
X4563238Y13345208D01*
X4730383Y13198514D01*
X4858666Y13034491D01*
X4894036Y12970317D01*
X4977334Y12732304D01*
X5003947Y12489591D01*
X4976881Y12251103D01*
X4899140Y12025767D01*
X4773730Y11822510D01*
X4603656Y11650258D01*
X4407644Y11525519D01*
X4295863Y11474606D01*
X4197352Y11442591D01*
X4088520Y11424063D01*
X3945773Y11413609D01*
X3913334Y11412109D01*
X3623658Y11399440D01*
X3623658Y11129173D01*
X3621565Y10950436D01*
X3615790Y10769407D01*
X3607088Y10596631D01*
X3596215Y10442658D01*
X3583927Y10318035D01*
X3570979Y10233310D01*
X3558127Y10199031D01*
X3557000Y10198780D01*
X3548101Y10228092D01*
X3539772Y10309370D01*
X3532618Y10432629D01*
X3527246Y10587884D01*
X3524582Y10733110D01*
X3522564Y10926578D01*
X3520973Y11114825D01*
X3519916Y11282179D01*
X3519498Y11412968D01*
X3519607Y11468780D01*
X3519915Y11523955D01*
X3520065Y11550826D01*
X3520755Y11678123D01*
X3592683Y11678123D01*
X3622385Y11664444D01*
X3707060Y11657535D01*
X3840056Y11657790D01*
X3901042Y11659814D01*
X4043845Y11666610D01*
X4143041Y11676676D01*
X4216948Y11695100D01*
X4283883Y11726969D01*
X4362165Y11777372D01*
X4387977Y11795063D01*
X4553474Y11943189D01*
X4673425Y12123022D01*
X4743980Y12323700D01*
X4761288Y12534359D01*
X4722876Y12740034D01*
X4641397Y12907585D01*
X4519205Y13063439D01*
X4373215Y13188530D01*
X4276683Y13242939D01*
X4193230Y13270312D01*
X4082088Y13293886D01*
X3957903Y13312267D01*
X3835324Y13324059D01*
X3728999Y13327868D01*
X3653574Y13322299D01*
X3623699Y13305956D01*
X3623658Y13305134D01*
X3652132Y13288638D01*
X3727646Y13272595D01*
X3835338Y13259933D01*
X3864267Y13257726D01*
X4082167Y13229444D01*
X4255850Y13174701D01*
X4399273Y13088345D01*
X4456159Y13039223D01*
X4580441Y12881345D01*
X4656492Y12697337D01*
X4684121Y12499919D01*
X4663140Y12301811D01*
X4593361Y12115734D01*
X4474595Y11954407D01*
X4472294Y11952095D01*
X4324083Y11840004D01*
X4138581Y11765822D01*
X3908772Y11726971D01*
X3848231Y11722724D01*
X3731195Y11712924D01*
X3642350Y11698954D01*
X3596126Y11683332D01*
X3592683Y11678123D01*
X3520755Y11678123D01*
X3520793Y11685119D01*
X3521622Y11840488D01*
X3608170Y11840488D01*
X3626203Y11823846D01*
X3701229Y11813304D01*
X3828528Y11809515D01*
X3832578Y11809512D01*
X3975770Y11813772D01*
X4083180Y11829989D01*
X4180600Y11863317D01*
X4239169Y11890758D01*
X4399338Y12001164D01*
X4513708Y12143112D01*
X4582200Y12306342D01*
X4604736Y12480592D01*
X4581238Y12655602D01*
X4511627Y12821110D01*
X4395824Y12966855D01*
X4248209Y13074784D01*
X4164942Y13108722D01*
X4055214Y13137364D01*
X3933722Y13159039D01*
X3815162Y13172071D01*
X3714230Y13174789D01*
X3645624Y13165519D01*
X3623658Y13145890D01*
X3652179Y13122932D01*
X3728940Y13111276D01*
X3761524Y13110488D01*
X3993870Y13088648D01*
X4190520Y13025144D01*
X4346720Y12923000D01*
X4457722Y12785243D01*
X4515690Y12630351D01*
X4530082Y12433854D01*
X4489529Y12257583D01*
X4399366Y12107478D01*
X4264932Y11989480D01*
X4091561Y11909528D01*
X3884590Y11873564D01*
X3834572Y11872144D01*
X3726742Y11867486D01*
X3645175Y11855950D01*
X3608170Y11840488D01*
X3521622Y11840488D01*
X3521737Y11861956D01*
X3522443Y11995366D01*
X3608170Y11995366D01*
X3623298Y11977946D01*
X3684501Y11967702D01*
X3776360Y11964314D01*
X3883454Y11967458D01*
X3990364Y11976811D01*
X4081670Y11992053D01*
X4128491Y12006240D01*
X4272048Y12096573D01*
X4376139Y12223904D01*
X4435400Y12375163D01*
X4444465Y12537284D01*
X4405539Y12681082D01*
X4320394Y12823674D01*
X4207434Y12923263D01*
X4057964Y12984791D01*
X3863287Y13013199D01*
X3817256Y13015372D01*
X3697380Y13014009D01*
X3636750Y13002630D01*
X3634341Y12985557D01*
X3689129Y12967111D01*
X3800091Y12951616D01*
X3832991Y12948956D01*
X4039231Y12915154D01*
X4194639Y12846453D01*
X4300058Y12742125D01*
X4356330Y12601443D01*
X4366957Y12487812D01*
X4340488Y12323297D01*
X4263549Y12191521D01*
X4140279Y12095971D01*
X3974819Y12040132D01*
X3819084Y12026389D01*
X3715467Y12021714D01*
X3638539Y12009602D01*
X3608170Y11995366D01*
X3522443Y11995366D01*
X3522847Y12071634D01*
X3524072Y12304449D01*
X3525050Y12491752D01*
X3623658Y12491752D01*
X3623658Y12112497D01*
X3854015Y12124129D01*
X3982468Y12133962D01*
X4067580Y12151134D01*
X4127924Y12180836D01*
X4164292Y12210843D01*
X4252320Y12328322D01*
X4292099Y12461380D01*
X4279595Y12593239D01*
X4265107Y12629924D01*
X4198989Y12731297D01*
X4107351Y12798768D01*
X3977884Y12838863D01*
X3839505Y12855563D01*
X3623658Y12871007D01*
X3623658Y12491752D01*
X3525050Y12491752D01*
X3525358Y12550697D01*
X3525756Y12627070D01*
X3527024Y12871007D01*
X3530064Y13455820D01*
X3623658Y13455820D01*
X3652230Y13441887D01*
X3728478Y13427391D01*
X3838198Y13414759D01*
X3886794Y13410876D01*
X4121485Y13379249D01*
X4313671Y13317326D01*
X4477732Y13219344D01*
X4574358Y13135298D01*
X4715675Y12957327D01*
X4804195Y12758929D01*
X4841551Y12549263D01*
X4829378Y12337487D01*
X4769308Y12132759D01*
X4662975Y11944238D01*
X4512014Y11781082D01*
X4318056Y11652449D01*
X4309064Y11647973D01*
X4203075Y11606407D01*
X4078715Y11580900D01*
X3915533Y11567434D01*
X3894695Y11566529D01*
X3767169Y11557980D01*
X3673998Y11544982D01*
X3627012Y11529393D01*
X3623658Y11523955D01*
X3653591Y11509013D01*
X3740195Y11502139D01*
X3878674Y11503649D01*
X3911528Y11504957D01*
X4064727Y11514794D01*
X4177688Y11531674D01*
X4272082Y11560338D01*
X4368418Y11604928D01*
X4513426Y11687837D01*
X4620030Y11772115D01*
X4709254Y11876638D01*
X4766776Y11962603D01*
X4868080Y12177046D01*
X4913245Y12399360D01*
X4905905Y12621127D01*
X4849693Y12833932D01*
X4748242Y13029358D01*
X4605185Y13198988D01*
X4424156Y13334406D01*
X4208787Y13427196D01*
X4125487Y13448144D01*
X4010228Y13466647D01*
X3887791Y13477786D01*
X3773478Y13481328D01*
X3682593Y13477037D01*
X3630440Y13464680D01*
X3623658Y13455820D01*
X3530064Y13455820D01*
X3530731Y13584019D01*
X3854975Y13567470D01*
G37*
G36*
X3316732Y9752178D02*
G01*
X3321305Y9751576D01*
X3435192Y9726555D01*
X3543667Y9686266D01*
X3630626Y9638605D01*
X3679967Y9591467D01*
X3685609Y9572949D01*
X3666208Y9562126D01*
X3631402Y9581725D01*
X3595470Y9607196D01*
X3604142Y9592878D01*
X3617463Y9577774D01*
X3668803Y9539765D01*
X3694767Y9532805D01*
X3727368Y9506255D01*
X3761481Y9440498D01*
X3768399Y9421098D01*
X3788095Y9283012D01*
X3764809Y9145574D01*
X3703415Y9031986D01*
X3681882Y9009287D01*
X3636387Y8968306D01*
X3630795Y8969458D01*
X3655909Y9006219D01*
X3684229Y9047560D01*
X3676568Y9047290D01*
X3630868Y9009162D01*
X3579655Y8960652D01*
X3561707Y8933950D01*
X3582448Y8938274D01*
X3592683Y8944268D01*
X3621290Y8943284D01*
X3623658Y8933190D01*
X3599610Y8895965D01*
X3591317Y8892187D01*
X3589118Y8861230D01*
X3611197Y8786226D01*
X3653856Y8678397D01*
X3684243Y8610263D01*
X3746892Y8473471D01*
X3785748Y8384303D01*
X3803623Y8334437D01*
X3803325Y8315547D01*
X3787665Y8319310D01*
X3781182Y8323121D01*
X3746928Y8320953D01*
X3742462Y8313617D01*
X3709598Y8301049D01*
X3670122Y8309137D01*
X3601951Y8321392D01*
X3569451Y8317155D01*
X3534634Y8327330D01*
X3530257Y8344674D01*
X3523719Y8370065D01*
X3504757Y8347275D01*
X3479846Y8353132D01*
X3456185Y8386707D01*
X3716585Y8386707D01*
X3732073Y8371219D01*
X3747561Y8386707D01*
X3732073Y8402195D01*
X3716585Y8386707D01*
X3456185Y8386707D01*
X3434949Y8416840D01*
X3434500Y8417683D01*
X3468780Y8417683D01*
X3484268Y8402195D01*
X3499756Y8417683D01*
X3484268Y8433171D01*
X3468780Y8417683D01*
X3434500Y8417683D01*
X3417986Y8448658D01*
X3685609Y8448658D01*
X3701097Y8433171D01*
X3716585Y8448658D01*
X3701097Y8464146D01*
X3685609Y8448658D01*
X3417986Y8448658D01*
X3370484Y8537757D01*
X3342609Y8595080D01*
X3231037Y8828796D01*
X3284416Y8828796D01*
X3295705Y8790150D01*
X3325983Y8720249D01*
X3366459Y8636550D01*
X3408343Y8556508D01*
X3442842Y8497581D01*
X3461167Y8477224D01*
X3461384Y8477401D01*
X3454201Y8508511D01*
X3440094Y8541585D01*
X3654634Y8541585D01*
X3670122Y8526097D01*
X3685609Y8541585D01*
X3670122Y8557073D01*
X3654634Y8541585D01*
X3440094Y8541585D01*
X3424228Y8578785D01*
X3379407Y8670133D01*
X3332280Y8758009D01*
X3332037Y8758415D01*
X3468780Y8758415D01*
X3484268Y8742927D01*
X3499756Y8758415D01*
X3484268Y8773902D01*
X3468780Y8758415D01*
X3332037Y8758415D01*
X3313511Y8789390D01*
X3375853Y8789390D01*
X3391341Y8773902D01*
X3406829Y8789390D01*
X3397627Y8798592D01*
X3531972Y8798592D01*
X3542068Y8755505D01*
X3567396Y8697143D01*
X3595838Y8647691D01*
X3615274Y8631335D01*
X3615626Y8631643D01*
X3611405Y8664571D01*
X3583708Y8727120D01*
X3580859Y8732444D01*
X3548509Y8785854D01*
X3532333Y8800328D01*
X3531972Y8798592D01*
X3397627Y8798592D01*
X3391341Y8804878D01*
X3375853Y8789390D01*
X3313511Y8789390D01*
X3298188Y8815009D01*
X3292899Y8820366D01*
X3437805Y8820366D01*
X3453292Y8804878D01*
X3468780Y8820366D01*
X3453292Y8835854D01*
X3437805Y8820366D01*
X3292899Y8820366D01*
X3284429Y8828946D01*
X3284416Y8828796D01*
X3231037Y8828796D01*
X3220274Y8851341D01*
X3344878Y8851341D01*
X3360366Y8835854D01*
X3375853Y8851341D01*
X3499756Y8851341D01*
X3515244Y8835854D01*
X3530731Y8851341D01*
X3515244Y8866829D01*
X3499756Y8851341D01*
X3375853Y8851341D01*
X3360366Y8866829D01*
X3344878Y8851341D01*
X3220274Y8851341D01*
X3205487Y8882317D01*
X3190381Y8588049D01*
X3185113Y8497770D01*
X3180506Y8451461D01*
X3176229Y8452326D01*
X3171952Y8503569D01*
X3167343Y8608391D01*
X3162072Y8769996D01*
X3158391Y8897805D01*
X3148713Y9244047D01*
X3190000Y9244047D01*
X3195611Y9125375D01*
X3210351Y9016466D01*
X3231077Y8930794D01*
X3254650Y8881832D01*
X3274980Y8879533D01*
X3272471Y8913270D01*
X3254461Y8955067D01*
X3224520Y9022911D01*
X3229494Y9043386D01*
X3266431Y9013119D01*
X3285694Y8990732D01*
X3325333Y8944471D01*
X3331847Y8945868D01*
X3315981Y8980951D01*
X3286898Y9052299D01*
X3291246Y9074644D01*
X3327128Y9045545D01*
X3347645Y9021707D01*
X3387284Y8975447D01*
X3393798Y8976844D01*
X3377932Y9011927D01*
X3349958Y9080969D01*
X3350967Y9107793D01*
X3379275Y9086151D01*
X3393229Y9068760D01*
X3427063Y9027801D01*
X3434976Y9040964D01*
X3430963Y9083419D01*
X3432571Y9099146D01*
X3685609Y9099146D01*
X3701097Y9083658D01*
X3716585Y9099146D01*
X3701097Y9114634D01*
X3685609Y9099146D01*
X3432571Y9099146D01*
X3436843Y9140943D01*
X3458455Y9160269D01*
X3512172Y9181716D01*
X3520406Y9189295D01*
X3522306Y9194654D01*
X3719030Y9194654D01*
X3724726Y9154479D01*
X3735299Y9153999D01*
X3742694Y9195456D01*
X3737745Y9213369D01*
X3723991Y9225102D01*
X3719030Y9194654D01*
X3522306Y9194654D01*
X3525715Y9204270D01*
X3512662Y9198402D01*
X3487890Y9209486D01*
X3479105Y9271907D01*
X3477319Y9285000D01*
X3530731Y9285000D01*
X3546219Y9269512D01*
X3561707Y9285000D01*
X3546219Y9300488D01*
X3530731Y9285000D01*
X3477319Y9285000D01*
X3467321Y9358295D01*
X3423240Y9409904D01*
X3333773Y9439641D01*
X3303485Y9445055D01*
X3190000Y9463472D01*
X3190000Y9244047D01*
X3148713Y9244047D01*
X3142580Y9463472D01*
X3142433Y9468721D01*
X3426568Y9468721D01*
X3444001Y9433533D01*
X3460033Y9411349D01*
X3507024Y9356404D01*
X3525967Y9352639D01*
X3519101Y9380508D01*
X3719030Y9380508D01*
X3724726Y9340332D01*
X3735299Y9339853D01*
X3742694Y9381310D01*
X3737745Y9399222D01*
X3723991Y9410955D01*
X3719030Y9380508D01*
X3519101Y9380508D01*
X3514171Y9400521D01*
X3513578Y9402074D01*
X3471871Y9455104D01*
X3449894Y9467871D01*
X3426568Y9468721D01*
X3142433Y9468721D01*
X3142373Y9470854D01*
X3685609Y9470854D01*
X3701097Y9455366D01*
X3716585Y9470854D01*
X3701097Y9486341D01*
X3685609Y9470854D01*
X3142373Y9470854D01*
X3141508Y9501829D01*
X3134778Y8905057D01*
X3128048Y8308284D01*
X3035122Y8315365D01*
X2942195Y8322446D01*
X2944372Y9051528D01*
X2944980Y9130122D01*
X2985206Y9130122D01*
X2985888Y8999779D01*
X2987832Y8913793D01*
X2990770Y8877331D01*
X2994436Y8895557D01*
X2996071Y8919748D01*
X3000302Y9060732D01*
X2999621Y9220854D01*
X2996170Y9322431D01*
X2992323Y9370663D01*
X2989061Y9361602D01*
X2986649Y9299908D01*
X2985353Y9190239D01*
X2985206Y9130122D01*
X2944980Y9130122D01*
X2946096Y9274202D01*
X2949684Y9457689D01*
X2954914Y9596862D01*
X2959351Y9656707D01*
X3499756Y9656707D01*
X3515244Y9641219D01*
X3530731Y9656707D01*
X3515244Y9672195D01*
X3499756Y9656707D01*
X2959351Y9656707D01*
X2961048Y9679601D01*
X3389288Y9679601D01*
X3419735Y9674640D01*
X3459911Y9680336D01*
X3460391Y9690909D01*
X3418933Y9698304D01*
X3401021Y9693355D01*
X3389288Y9679601D01*
X2961048Y9679601D01*
X2961566Y9686590D01*
X2969416Y9721745D01*
X2973170Y9718658D01*
X2993721Y9680722D01*
X3001531Y9699666D01*
X3001969Y9707473D01*
X3027038Y9745040D01*
X3078990Y9751837D01*
X3129653Y9725500D01*
X3135318Y9718658D01*
X3155320Y9711556D01*
X3158550Y9730393D01*
X3172205Y9754385D01*
X3220767Y9761104D01*
X3316732Y9752178D01*
G37*
G36*
X6669234Y13569029D02*
G01*
X6690505Y13557822D01*
X6716785Y13526425D01*
X6750552Y13469575D01*
X6794281Y13382008D01*
X6850451Y13258462D01*
X6921538Y13093674D01*
X7010019Y12882382D01*
X7118371Y12619323D01*
X7132877Y12583902D01*
X7245022Y12309936D01*
X7365162Y12016433D01*
X7487256Y11718149D01*
X7605265Y11429841D01*
X7713149Y11166265D01*
X7804867Y10942176D01*
X7821459Y10901637D01*
X7916541Y10666622D01*
X7987671Y10484321D01*
X8036173Y10350887D01*
X8063370Y10262474D01*
X8070587Y10215236D01*
X8061389Y10204685D01*
X8028403Y10237731D01*
X7978467Y10324094D01*
X7914393Y10458379D01*
X7846470Y10616951D01*
X7770304Y10801671D01*
X7687268Y11002394D01*
X7607675Y11194223D01*
X7544925Y11344878D01*
X7497763Y11458209D01*
X7431455Y11618167D01*
X7350411Y11814081D01*
X7259041Y12035280D01*
X7161755Y12271092D01*
X7062963Y12510847D01*
X7042743Y12559958D01*
X6951877Y12778072D01*
X6867657Y12975249D01*
X6793091Y13144833D01*
X6731191Y13280165D01*
X6684964Y13374588D01*
X6657421Y13421444D01*
X6651681Y13425047D01*
X6656846Y13391314D01*
X6683273Y13307584D01*
X6728307Y13181009D01*
X6789296Y13018740D01*
X6863585Y12827931D01*
X6948519Y12615732D01*
X6987640Y12519723D01*
X7167384Y12080853D01*
X7324771Y11696413D01*
X7460972Y11363523D01*
X7577163Y11079304D01*
X7674514Y10840878D01*
X7754200Y10645364D01*
X7817394Y10489885D01*
X7865268Y10371560D01*
X7898996Y10287511D01*
X7919750Y10234859D01*
X7928703Y10210724D01*
X7929268Y10208527D01*
X7904345Y10199554D01*
X7888455Y10198780D01*
X7876226Y10204527D01*
X7859642Y10224504D01*
X7836914Y10262820D01*
X7806251Y10323580D01*
X7765864Y10410893D01*
X7713961Y10528866D01*
X7648753Y10681605D01*
X7568449Y10873217D01*
X7471261Y11107810D01*
X7355396Y11389491D01*
X7219066Y11722366D01*
X7139137Y11917927D01*
X7012924Y12226611D01*
X6907904Y12482661D01*
X6821994Y12690855D01*
X6753113Y12855971D01*
X6699176Y12982787D01*
X6658104Y13076081D01*
X6627812Y13140633D01*
X6606218Y13181219D01*
X6591241Y13202619D01*
X6580798Y13209610D01*
X6576440Y13209127D01*
X6565924Y13203109D01*
X6560746Y13190602D01*
X6563066Y13165647D01*
X6575048Y13122282D01*
X6598853Y13054545D01*
X6636643Y12956475D01*
X6690581Y12822112D01*
X6762829Y12645493D01*
X6855548Y12420658D01*
X6911510Y12285272D01*
X7075574Y11888299D01*
X7217337Y11544736D01*
X7338279Y11250785D01*
X7439877Y11002648D01*
X7523607Y10796529D01*
X7590947Y10628630D01*
X7643375Y10495154D01*
X7682368Y10392303D01*
X7709404Y10316280D01*
X7725960Y10263287D01*
X7733513Y10229528D01*
X7733540Y10211205D01*
X7727520Y10204520D01*
X7721015Y10204627D01*
X7686041Y10237633D01*
X7636520Y10320625D01*
X7577405Y10444785D01*
X7550310Y10508536D01*
X7491891Y10650063D01*
X7418390Y10827694D01*
X7338541Y11020342D01*
X7261077Y11206922D01*
X7248797Y11236463D01*
X7180807Y11400614D01*
X7096336Y11605512D01*
X7002227Y11834508D01*
X6905317Y12070954D01*
X6812449Y12298202D01*
X6796994Y12336097D01*
X6718614Y12526928D01*
X6646845Y12698960D01*
X6585309Y12843726D01*
X6537630Y12952761D01*
X6507430Y13017596D01*
X6499453Y13031500D01*
X6473315Y13047917D01*
X6473137Y13009144D01*
X6498622Y12916101D01*
X6549471Y12769710D01*
X6625388Y12570891D01*
X6726076Y12320566D01*
X6739855Y12286998D01*
X6913183Y11865342D01*
X7068396Y11487330D01*
X7204787Y11154693D01*
X7321649Y10869160D01*
X7418278Y10632459D01*
X7493966Y10446321D01*
X7548008Y10312473D01*
X7579698Y10232647D01*
X7588536Y10208493D01*
X7563613Y10199551D01*
X7547723Y10198780D01*
X7534873Y10205317D01*
X7517093Y10227690D01*
X7492573Y10270050D01*
X7459498Y10336543D01*
X7416057Y10431319D01*
X7360437Y10558524D01*
X7290825Y10722307D01*
X7205410Y10926817D01*
X7102378Y11176201D01*
X6979916Y11474608D01*
X6836214Y11826185D01*
X6830376Y11840488D01*
X6718041Y12114783D01*
X6626427Y12336078D01*
X6553423Y12508967D01*
X6496922Y12638042D01*
X6454816Y12727895D01*
X6424995Y12783119D01*
X6405351Y12808307D01*
X6393775Y12808050D01*
X6390201Y12799213D01*
X6399341Y12760979D01*
X6430717Y12670184D01*
X6482517Y12531362D01*
X6552933Y12349047D01*
X6640154Y12127772D01*
X6742370Y11872072D01*
X6857771Y11586479D01*
X6984548Y11275527D01*
X7120889Y10943751D01*
X7264986Y10595684D01*
X7382854Y10312800D01*
X7411849Y10238607D01*
X7415038Y10206590D01*
X7392133Y10202475D01*
X7380671Y10204442D01*
X7342691Y10239253D01*
X7290606Y10328929D01*
X7227067Y10468693D01*
X7207511Y10516337D01*
X7085964Y10818293D01*
X6319998Y10818293D01*
X5554033Y10818293D01*
X5421768Y10508536D01*
X5353344Y10358338D01*
X5296871Y10255044D01*
X5255240Y10203671D01*
X5243145Y10198780D01*
X5210777Y10218358D01*
X5212389Y10237500D01*
X5231873Y10284599D01*
X5274340Y10386294D01*
X5338740Y10540079D01*
X5424022Y10743450D01*
X5507434Y10942195D01*
X5507441Y10942211D01*
X5606097Y10942211D01*
X5606097Y10942195D01*
X5636561Y10931391D01*
X5725970Y10922763D01*
X5871355Y10916438D01*
X6069744Y10912547D01*
X6318165Y10911219D01*
X6318536Y10911219D01*
X6567023Y10912544D01*
X6765482Y10916431D01*
X6910941Y10922752D01*
X7000429Y10931378D01*
X7030975Y10942179D01*
X7030975Y10942195D01*
X7000512Y10952999D01*
X6911102Y10961627D01*
X6765717Y10967952D01*
X6567329Y10971843D01*
X6318908Y10973171D01*
X6318536Y10973171D01*
X6070049Y10971846D01*
X5871590Y10967959D01*
X5726131Y10961638D01*
X5636643Y10953012D01*
X5606097Y10942211D01*
X5507441Y10942211D01*
X5529135Y10993901D01*
X5572461Y11097073D01*
X5668048Y11097073D01*
X5698444Y11085891D01*
X5787385Y11077048D01*
X5931506Y11070704D01*
X6127440Y11067021D01*
X6318536Y11066097D01*
X6553369Y11067545D01*
X6739073Y11071780D01*
X6872282Y11078643D01*
X6949629Y11087973D01*
X6969024Y11097073D01*
X6938629Y11108256D01*
X6849687Y11117099D01*
X6705566Y11123442D01*
X6509633Y11127125D01*
X6318536Y11128049D01*
X6083704Y11126601D01*
X5898000Y11122366D01*
X5764791Y11115503D01*
X5687443Y11106173D01*
X5668048Y11097073D01*
X5572461Y11097073D01*
X5637501Y11251951D01*
X5730000Y11251951D01*
X5760313Y11240359D01*
X5848692Y11231291D01*
X5991294Y11224949D01*
X6184277Y11221535D01*
X6320364Y11220975D01*
X6548639Y11222540D01*
X6720266Y11227181D01*
X6833756Y11234817D01*
X6887619Y11245367D01*
X6891585Y11251951D01*
X6854108Y11263201D01*
X6761038Y11272230D01*
X6618705Y11278705D01*
X6433438Y11282295D01*
X6301220Y11282927D01*
X6084860Y11281285D01*
X5916253Y11276503D01*
X5799415Y11268801D01*
X5738365Y11258395D01*
X5730000Y11251951D01*
X5637501Y11251951D01*
X5653030Y11288930D01*
X5702563Y11406829D01*
X5791951Y11406829D01*
X5822123Y11394619D01*
X5909529Y11385226D01*
X6049503Y11378934D01*
X6237380Y11376024D01*
X6303048Y11375854D01*
X6504518Y11377682D01*
X6659497Y11382979D01*
X6763322Y11391463D01*
X6811327Y11402849D01*
X6814146Y11406829D01*
X6783974Y11419039D01*
X6696568Y11428432D01*
X6556594Y11434725D01*
X6368717Y11437634D01*
X6303048Y11437805D01*
X6101579Y11435976D01*
X5946600Y11430679D01*
X5842775Y11422196D01*
X5794770Y11410809D01*
X5791951Y11406829D01*
X5702563Y11406829D01*
X5773978Y11576812D01*
X5884878Y11576812D01*
X5893770Y11558268D01*
X5926313Y11545326D01*
X5991309Y11537059D01*
X6097559Y11532537D01*
X6253864Y11530834D01*
X6321894Y11530732D01*
X6758911Y11530732D01*
X6737607Y11615915D01*
X6716714Y11681462D01*
X6678724Y11784389D01*
X6628314Y11913470D01*
X6570163Y12057481D01*
X6508950Y12205199D01*
X6449351Y12345400D01*
X6396047Y12466859D01*
X6353715Y12558352D01*
X6327033Y12608656D01*
X6321218Y12614878D01*
X6302883Y12587901D01*
X6266513Y12514352D01*
X6216764Y12405308D01*
X6158291Y12271843D01*
X6095750Y12125032D01*
X6033795Y11975952D01*
X5977083Y11835677D01*
X5930268Y11715283D01*
X5898006Y11625844D01*
X5884953Y11578436D01*
X5884878Y11576812D01*
X5773978Y11576812D01*
X5793660Y11623658D01*
X5879753Y11829162D01*
X5969057Y12043413D01*
X6054456Y12249265D01*
X6128834Y12429572D01*
X6177521Y12548576D01*
X6287917Y12819544D01*
X6377873Y13038449D01*
X6450010Y13210728D01*
X6506946Y13341817D01*
X6551302Y13437154D01*
X6585697Y13502175D01*
X6612751Y13542316D01*
X6635084Y13563015D01*
X6655316Y13569707D01*
X6669234Y13569029D01*
G37*
G36*
X10180267Y9754692D02*
G01*
X10197716Y9711687D01*
X10202782Y9649081D01*
X10195396Y9595632D01*
X10180692Y9578794D01*
X10168957Y9566538D01*
X10190487Y9548293D01*
X10216892Y9524651D01*
X10186732Y9516235D01*
X10175000Y9515614D01*
X10113048Y9512963D01*
X10175000Y9486341D01*
X10211429Y9467394D01*
X10194209Y9459538D01*
X10150773Y9457543D01*
X10001973Y9427402D01*
X9867292Y9352581D01*
X9762755Y9245069D01*
X9706283Y9124885D01*
X9700835Y8996980D01*
X9736550Y8860627D01*
X9800762Y8751582D01*
X9847478Y8689744D01*
X9869082Y8648508D01*
X9869225Y8644837D01*
X9884690Y8607650D01*
X9893441Y8598374D01*
X9906436Y8594859D01*
X9896104Y8616544D01*
X9887700Y8645967D01*
X9924491Y8638841D01*
X9929857Y8636724D01*
X9998976Y8616478D01*
X10093699Y8596963D01*
X10113048Y8593811D01*
X10236951Y8574703D01*
X10128536Y8554478D01*
X10020122Y8534253D01*
X10128536Y8529701D01*
X10195184Y8522825D01*
X10206172Y8508024D01*
X10190487Y8495122D01*
X10167356Y8470409D01*
X10180003Y8464621D01*
X10205382Y8439664D01*
X10205604Y8409939D01*
X10195093Y8340723D01*
X10192857Y8317012D01*
X10176063Y8283215D01*
X10167256Y8281686D01*
X10124905Y8289297D01*
X10045789Y8304437D01*
X10009180Y8311593D01*
X9877469Y8355732D01*
X9973658Y8355732D01*
X9989146Y8340244D01*
X10004634Y8355732D01*
X9989146Y8371219D01*
X9973658Y8355732D01*
X9877469Y8355732D01*
X9804848Y8380069D01*
X9672472Y8469594D01*
X9725853Y8469594D01*
X9750821Y8438551D01*
X9808209Y8402757D01*
X9871745Y8377286D01*
X9893638Y8373316D01*
X9911362Y8378449D01*
X9909126Y8380594D01*
X9830920Y8431967D01*
X9798597Y8448658D01*
X9911707Y8448658D01*
X9927195Y8433171D01*
X9942683Y8448658D01*
X9927195Y8464146D01*
X9911707Y8448658D01*
X9798597Y8448658D01*
X9765505Y8465746D01*
X9728897Y8474157D01*
X9725853Y8469594D01*
X9672472Y8469594D01*
X9637100Y8493516D01*
X9558352Y8587813D01*
X9603980Y8587813D01*
X9611672Y8571773D01*
X9628975Y8549329D01*
X9674188Y8501172D01*
X9694369Y8501381D01*
X9694878Y8506817D01*
X9687547Y8515772D01*
X9922032Y8515772D01*
X9926284Y8497357D01*
X9942683Y8495122D01*
X9968179Y8506455D01*
X9963333Y8515772D01*
X9926572Y8519479D01*
X9922032Y8515772D01*
X9687547Y8515772D01*
X9673710Y8532673D01*
X9663324Y8541585D01*
X9849756Y8541585D01*
X9865244Y8526097D01*
X9880731Y8541585D01*
X9865244Y8557073D01*
X9849756Y8541585D01*
X9663324Y8541585D01*
X9640670Y8561024D01*
X9603980Y8587813D01*
X9558352Y8587813D01*
X9539702Y8610145D01*
X9668895Y8610145D01*
X9676432Y8592835D01*
X9707621Y8559581D01*
X9725552Y8566402D01*
X9725853Y8570733D01*
X9719983Y8577723D01*
X9953008Y8577723D01*
X9957260Y8559309D01*
X9973658Y8557073D01*
X9999155Y8568407D01*
X9994309Y8577723D01*
X9957548Y8581431D01*
X9953008Y8577723D01*
X9719983Y8577723D01*
X9703852Y8596932D01*
X9690092Y8606494D01*
X9668895Y8610145D01*
X9539702Y8610145D01*
X9513834Y8641121D01*
X9730846Y8641121D01*
X9738383Y8623810D01*
X9769572Y8590557D01*
X9787503Y8597378D01*
X9787805Y8601708D01*
X9765803Y8627908D01*
X9752043Y8637470D01*
X9730846Y8641121D01*
X9513834Y8641121D01*
X9511241Y8644226D01*
X9461825Y8757476D01*
X9486060Y8757476D01*
X9492263Y8744988D01*
X9521799Y8712963D01*
X9527232Y8735547D01*
X9525013Y8742691D01*
X9727882Y8742691D01*
X9735574Y8726651D01*
X9752878Y8704207D01*
X9798090Y8656050D01*
X9818272Y8656260D01*
X9818780Y8661695D01*
X9797612Y8687551D01*
X9764573Y8715902D01*
X9727882Y8742691D01*
X9525013Y8742691D01*
X9519713Y8759750D01*
X9496908Y8793484D01*
X9486608Y8792787D01*
X9486060Y8757476D01*
X9461825Y8757476D01*
X9434792Y8819427D01*
X9671914Y8819427D01*
X9678116Y8806939D01*
X9707652Y8774914D01*
X9713086Y8797498D01*
X9705567Y8821702D01*
X9682762Y8855436D01*
X9672461Y8854738D01*
X9671914Y8819427D01*
X9434792Y8819427D01*
X9432580Y8824497D01*
X9421089Y8913293D01*
X9453111Y8913293D01*
X9456460Y8860392D01*
X9466156Y8855734D01*
X9467391Y8858496D01*
X9473109Y8915874D01*
X9511470Y8915874D01*
X9517165Y8875698D01*
X9527738Y8875218D01*
X9535133Y8916676D01*
X9530184Y8934588D01*
X9516430Y8946321D01*
X9511470Y8915874D01*
X9473109Y8915874D01*
X9473519Y8919988D01*
X9468539Y8951423D01*
X9458679Y8964054D01*
X9453316Y8922912D01*
X9453111Y8913293D01*
X9421089Y8913293D01*
X9406423Y9026621D01*
X9407464Y9037195D01*
X9578787Y9037195D01*
X9581280Y8973445D01*
X9588300Y8956991D01*
X9592258Y8967139D01*
X9597692Y9037195D01*
X9640738Y9037195D01*
X9643231Y8973445D01*
X9650251Y8956991D01*
X9654209Y8967139D01*
X9659979Y9041525D01*
X9654834Y9091041D01*
X9646675Y9108209D01*
X9641542Y9070978D01*
X9640738Y9037195D01*
X9597692Y9037195D01*
X9598028Y9041525D01*
X9592883Y9091041D01*
X9584723Y9108209D01*
X9579590Y9070978D01*
X9578787Y9037195D01*
X9407464Y9037195D01*
X9418133Y9145610D01*
X9451964Y9145610D01*
X9456832Y9101636D01*
X9467587Y9106890D01*
X9468087Y9114634D01*
X9513915Y9114634D01*
X9518783Y9070660D01*
X9529539Y9075915D01*
X9533630Y9139332D01*
X9529539Y9153354D01*
X9518233Y9157245D01*
X9513915Y9114634D01*
X9468087Y9114634D01*
X9471679Y9170308D01*
X9467587Y9184329D01*
X9456282Y9188220D01*
X9451964Y9145610D01*
X9418133Y9145610D01*
X9420209Y9166706D01*
X9430907Y9207561D01*
X9601951Y9207561D01*
X9613284Y9182064D01*
X9622601Y9186910D01*
X9626308Y9223671D01*
X9622601Y9228211D01*
X9604186Y9223959D01*
X9601951Y9207561D01*
X9430907Y9207561D01*
X9439018Y9238536D01*
X9540000Y9238536D01*
X9551333Y9213040D01*
X9560650Y9217886D01*
X9564357Y9254647D01*
X9560650Y9259187D01*
X9542235Y9254935D01*
X9540000Y9238536D01*
X9439018Y9238536D01*
X9444227Y9258429D01*
X9478048Y9258429D01*
X9484100Y9238920D01*
X9505149Y9267143D01*
X9514134Y9285000D01*
X9632927Y9285000D01*
X9648414Y9269512D01*
X9663902Y9285000D01*
X9648414Y9300488D01*
X9632927Y9285000D01*
X9514134Y9285000D01*
X9529720Y9315975D01*
X9570975Y9315975D01*
X9586463Y9300488D01*
X9601951Y9315975D01*
X9648858Y9315975D01*
X9728071Y9385671D01*
X9799262Y9441624D01*
X9829856Y9451744D01*
X9817556Y9418886D01*
X9760069Y9345908D01*
X9760038Y9345873D01*
X9702978Y9273138D01*
X9669203Y9215063D01*
X9665142Y9198739D01*
X9678032Y9195581D01*
X9707886Y9237758D01*
X9712233Y9245590D01*
X9767096Y9317006D01*
X9847782Y9391660D01*
X9873615Y9410966D01*
X9935555Y9457546D01*
X9946112Y9475536D01*
X9915572Y9470289D01*
X9864893Y9461923D01*
X9863482Y9483396D01*
X9865103Y9486113D01*
X9868147Y9501829D01*
X10066585Y9501829D01*
X10082073Y9486341D01*
X10097561Y9501829D01*
X10082073Y9517317D01*
X10066585Y9501829D01*
X9868147Y9501829D01*
X9869442Y9508512D01*
X9840629Y9499004D01*
X9792361Y9466220D01*
X9738336Y9418790D01*
X9710241Y9388540D01*
X9648858Y9315975D01*
X9601951Y9315975D01*
X9586463Y9331463D01*
X9570975Y9315975D01*
X9529720Y9315975D01*
X9537513Y9331463D01*
X9560829Y9382894D01*
X9554218Y9382702D01*
X9526221Y9348775D01*
X9488976Y9291178D01*
X9478048Y9258429D01*
X9444227Y9258429D01*
X9449173Y9277316D01*
X9488038Y9369224D01*
X9504839Y9393415D01*
X9638813Y9393415D01*
X9668688Y9413771D01*
X9710366Y9455366D01*
X9746138Y9500238D01*
X9750943Y9517317D01*
X9721068Y9496961D01*
X9679390Y9455366D01*
X9643618Y9410494D01*
X9638813Y9393415D01*
X9504839Y9393415D01*
X9529453Y9428857D01*
X9566071Y9442644D01*
X9568826Y9441206D01*
X9606505Y9448739D01*
X9637161Y9476214D01*
X9692989Y9527988D01*
X9769603Y9582502D01*
X9772317Y9584172D01*
X9787045Y9594756D01*
X9911707Y9594756D01*
X9927195Y9579268D01*
X9942683Y9594756D01*
X9927195Y9610244D01*
X9911707Y9594756D01*
X9787045Y9594756D01*
X9823224Y9620756D01*
X9832837Y9640165D01*
X9827602Y9641104D01*
X9783835Y9622059D01*
X9714935Y9573509D01*
X9675306Y9540552D01*
X9613711Y9492212D01*
X9578759Y9476264D01*
X9575674Y9486345D01*
X9615661Y9536148D01*
X9697126Y9595872D01*
X9802739Y9655963D01*
X9804382Y9656707D01*
X9880731Y9656707D01*
X9896219Y9641219D01*
X9911707Y9656707D01*
X9896219Y9672195D01*
X9880731Y9656707D01*
X9804382Y9656707D01*
X9854945Y9679601D01*
X9987093Y9679601D01*
X10017540Y9674640D01*
X10057716Y9680336D01*
X10058196Y9690909D01*
X10016738Y9698304D01*
X9998826Y9693355D01*
X9987093Y9679601D01*
X9854945Y9679601D01*
X9915167Y9706868D01*
X10017080Y9739033D01*
X10042178Y9743489D01*
X10123988Y9752926D01*
X10173951Y9755764D01*
X10180267Y9754692D01*
G37*
G36*
X7777340Y21720540D02*
G01*
X8198167Y21610518D01*
X8593205Y21447485D01*
X8958917Y21234462D01*
X9291765Y20974472D01*
X9588213Y20670538D01*
X9844722Y20325682D01*
X10057755Y19942926D01*
X10223776Y19525295D01*
X10304879Y19236242D01*
X10330906Y19081272D01*
X10348409Y18883922D01*
X10357188Y18663199D01*
X10357042Y18438114D01*
X10347769Y18227674D01*
X10329168Y18050890D01*
X10318080Y17989146D01*
X10203256Y17560266D01*
X10049411Y17174555D01*
X9852203Y16823845D01*
X9607292Y16499972D01*
X9419799Y16299319D01*
X9289216Y16176567D01*
X9146973Y16053864D01*
X9012852Y15947779D01*
X8931601Y15890454D01*
X8746899Y15782416D01*
X8528319Y15673466D01*
X8298522Y15573648D01*
X8080171Y15493011D01*
X7944756Y15452971D01*
X7810873Y15425435D01*
X7635475Y15398352D01*
X7438973Y15374061D01*
X7241772Y15354903D01*
X7064283Y15343217D01*
X6965742Y15340732D01*
X6814146Y15340732D01*
X6814146Y15460663D01*
X6814146Y15580595D01*
X7240061Y15596684D01*
X7521875Y15614159D01*
X7753339Y15643987D01*
X7913780Y15678775D01*
X8308697Y15815240D01*
X8677554Y16004762D01*
X9015673Y16242255D01*
X9318376Y16522634D01*
X9580985Y16840814D01*
X9798823Y17191710D01*
X9967212Y17570235D01*
X10081474Y17971306D01*
X10097174Y18052403D01*
X10118853Y18242025D01*
X10126254Y18471082D01*
X10120325Y18718963D01*
X10102017Y18965058D01*
X10072280Y19188759D01*
X10037296Y19351148D01*
X9901642Y19734470D01*
X9713518Y20100463D01*
X9479678Y20439346D01*
X9206873Y20741340D01*
X8901855Y20996667D01*
X8900400Y20997709D01*
X8688005Y21131796D01*
X8438020Y21260865D01*
X8174518Y21373887D01*
X7921567Y21459832D01*
X7849969Y21479027D01*
X7585287Y21526250D01*
X7286825Y21548772D01*
X6977609Y21546607D01*
X6680667Y21519767D01*
X6457927Y21478250D01*
X6218864Y21404523D01*
X5959046Y21298445D01*
X5701565Y21171006D01*
X5469511Y21033197D01*
X5358292Y20954846D01*
X5058864Y20693429D01*
X4794985Y20394647D01*
X4571720Y20067188D01*
X4394134Y19719742D01*
X4267294Y19360998D01*
X4196263Y18999645D01*
X4191412Y18953130D01*
X4188234Y18822951D01*
X4208653Y18703906D01*
X4258153Y18580859D01*
X4342220Y18438673D01*
X4417239Y18329878D01*
X4478821Y18238328D01*
X4510392Y18166752D01*
X4519862Y18087274D01*
X4515809Y17982494D01*
X4508588Y17909937D01*
X4493983Y17837335D01*
X4468242Y17754991D01*
X4427613Y17653209D01*
X4368343Y17522292D01*
X4286683Y17352543D01*
X4218540Y17214209D01*
X4132609Y17037899D01*
X4057058Y16877563D01*
X3996041Y16742460D01*
X3953713Y16641849D01*
X3934229Y16584990D01*
X3933414Y16578831D01*
X3945317Y16533943D01*
X3986544Y16490829D01*
X4065374Y16444204D01*
X4190087Y16388781D01*
X4297378Y16346416D01*
X4521951Y16260212D01*
X4521951Y15444253D01*
X4521951Y14628293D01*
X5087256Y14628595D01*
X5290400Y14629202D01*
X5442528Y14631510D01*
X5554572Y14636622D01*
X5637464Y14645640D01*
X5702137Y14659668D01*
X5759524Y14679809D01*
X5808088Y14701322D01*
X6009211Y14828199D01*
X6170058Y15000581D01*
X6234550Y15104250D01*
X6248652Y15131589D01*
X6260716Y15160071D01*
X6270945Y15194588D01*
X6279543Y15240030D01*
X6286714Y15301288D01*
X6292660Y15383254D01*
X6297586Y15490817D01*
X6301694Y15628868D01*
X6305188Y15802300D01*
X6308271Y16016002D01*
X6311148Y16274866D01*
X6314021Y16583782D01*
X6317094Y16947642D01*
X6318536Y17123236D01*
X6321758Y17524992D01*
X6324686Y17869441D01*
X6327830Y18161220D01*
X6331698Y18404968D01*
X6336800Y18605323D01*
X6343644Y18766922D01*
X6352740Y18894405D01*
X6364597Y18992409D01*
X6379723Y19065572D01*
X6398628Y19118533D01*
X6421820Y19155930D01*
X6449810Y19182401D01*
X6483104Y19202584D01*
X6522214Y19221117D01*
X6550191Y19234093D01*
X6644311Y19299070D01*
X6678006Y19376082D01*
X6651388Y19466175D01*
X6583969Y19551223D01*
X6474184Y19663653D01*
X6807298Y19995734D01*
X7140412Y20327815D01*
X7254510Y20213717D01*
X7325037Y20147665D01*
X7373398Y20120260D01*
X7418564Y20123828D01*
X7447596Y20135609D01*
X7495399Y20165228D01*
X7518880Y20210254D01*
X7526272Y20290650D01*
X7526585Y20327141D01*
X7526585Y20482683D01*
X7991219Y20482683D01*
X8455853Y20482683D01*
X8455853Y20315675D01*
X8458433Y20218155D01*
X8471240Y20165156D01*
X8501876Y20139301D01*
X8537933Y20128066D01*
X8597974Y20123845D01*
X8656650Y20150946D01*
X8732443Y20217250D01*
X8844872Y20327035D01*
X9176953Y19993921D01*
X9509034Y19660807D01*
X9398693Y19550465D01*
X9331539Y19475462D01*
X9304670Y19417976D01*
X9308908Y19358223D01*
X9309119Y19357379D01*
X9326324Y19309397D01*
X9358317Y19284736D01*
X9422495Y19275729D01*
X9496894Y19274634D01*
X9663902Y19274634D01*
X9663902Y18810000D01*
X9663902Y18345366D01*
X9494126Y18345366D01*
X9395538Y18342815D01*
X9341712Y18330362D01*
X9315518Y18300800D01*
X9304316Y18265541D01*
X9301000Y18206487D01*
X9329620Y18146955D01*
X9396268Y18071031D01*
X9508254Y17956347D01*
X9175140Y17624266D01*
X8842026Y17292185D01*
X8731685Y17402526D01*
X8656682Y17469681D01*
X8599196Y17496549D01*
X8539443Y17492311D01*
X8538598Y17492100D01*
X8490617Y17474895D01*
X8465955Y17442902D01*
X8456949Y17378725D01*
X8455853Y17304325D01*
X8455853Y17137317D01*
X7991219Y17137317D01*
X7526585Y17137317D01*
X7526585Y17304325D01*
X7523985Y17401877D01*
X7511157Y17454891D01*
X7480557Y17480725D01*
X7445106Y17491783D01*
X7361364Y17491476D01*
X7296001Y17448701D01*
X7228374Y17385169D01*
X7145280Y17471901D01*
X7062186Y17558632D01*
X7179533Y17673218D01*
X7277161Y17755340D01*
X7352116Y17785923D01*
X7411714Y17767638D01*
X7419719Y17760902D01*
X7464309Y17735051D01*
X7544980Y17699280D01*
X7596280Y17679255D01*
X7683425Y17643635D01*
X7726909Y17609673D01*
X7741848Y17559446D01*
X7743414Y17504816D01*
X7743414Y17385122D01*
X7991219Y17385122D01*
X8239024Y17385122D01*
X8239024Y17502131D01*
X8241729Y17564041D01*
X8258070Y17606120D01*
X8300388Y17640857D01*
X8381024Y17680736D01*
X8442097Y17707609D01*
X8645170Y17796077D01*
X8737189Y17707918D01*
X8829207Y17619759D01*
X9005334Y17795885D01*
X9181460Y17972012D01*
X9093301Y18064030D01*
X9005142Y18156049D01*
X9093610Y18359122D01*
X9141085Y18464522D01*
X9176934Y18525197D01*
X9213642Y18553487D01*
X9263696Y18561732D01*
X9299088Y18562195D01*
X9416097Y18562195D01*
X9416097Y18808219D01*
X9416097Y19054243D01*
X9290411Y19063768D01*
X9221314Y19071975D01*
X9176394Y19092800D01*
X9141396Y19140085D01*
X9102067Y19227671D01*
X9089213Y19259146D01*
X9044000Y19372942D01*
X9021956Y19446054D01*
X9023150Y19495280D01*
X9047651Y19537420D01*
X9090540Y19584063D01*
X9167665Y19664565D01*
X8998071Y19832053D01*
X8828476Y19999541D01*
X8736823Y19911731D01*
X8645170Y19823922D01*
X8442097Y19912390D01*
X8336697Y19959866D01*
X8276022Y19995715D01*
X8247732Y20032423D01*
X8239487Y20082477D01*
X8239024Y20117868D01*
X8239024Y20234878D01*
X7991219Y20234878D01*
X7743414Y20234878D01*
X7743414Y20117868D01*
X7740710Y20055959D01*
X7724368Y20013879D01*
X7682050Y19979143D01*
X7601414Y19939263D01*
X7540341Y19912390D01*
X7337268Y19823922D01*
X7245250Y19912082D01*
X7153231Y20000241D01*
X6977105Y19824114D01*
X6800978Y19647988D01*
X6883658Y19561689D01*
X6966338Y19475389D01*
X6884294Y19266597D01*
X6836229Y19153658D01*
X6797362Y19088982D01*
X6759681Y19061321D01*
X6735560Y19057805D01*
X6665697Y19035755D01*
X6609861Y18992631D01*
X6597642Y18976815D01*
X6587164Y18955254D01*
X6578245Y18923201D01*
X6570704Y18875910D01*
X6564359Y18808632D01*
X6559027Y18716622D01*
X6554528Y18595132D01*
X6550678Y18439416D01*
X6547296Y18244727D01*
X6544200Y18006317D01*
X6541208Y17719441D01*
X6538139Y17379351D01*
X6535366Y17048911D01*
X6519878Y15170366D01*
X6433135Y14993724D01*
X6314380Y14810995D01*
X6154039Y14648398D01*
X5970022Y14522334D01*
X5866730Y14475080D01*
X5805420Y14454122D01*
X5742087Y14438301D01*
X5667107Y14426909D01*
X5570856Y14419238D01*
X5443711Y14414581D01*
X5276047Y14412232D01*
X5058242Y14411484D01*
X5000911Y14411463D01*
X4305122Y14411463D01*
X4305122Y15244012D01*
X4304387Y15510122D01*
X4302022Y15719666D01*
X4297785Y15878016D01*
X4291435Y15990540D01*
X4282731Y16062611D01*
X4271432Y16099597D01*
X4266402Y16105573D01*
X4219545Y16131638D01*
X4133740Y16172205D01*
X4027470Y16218540D01*
X4026341Y16219013D01*
X3899403Y16277770D01*
X3804668Y16338447D01*
X3742017Y16407648D01*
X3711330Y16491973D01*
X3712489Y16598025D01*
X3745375Y16732406D01*
X3809869Y16901717D01*
X3905851Y17112561D01*
X4006531Y17318186D01*
X4095103Y17499804D01*
X4173234Y17667515D01*
X4236784Y17811813D01*
X4281616Y17923195D01*
X4303591Y17992153D01*
X4305122Y18004011D01*
X4286262Y18080776D01*
X4236692Y18180671D01*
X4197148Y18241313D01*
X4101451Y18380431D01*
X4038346Y18490323D01*
X4000163Y18588847D01*
X3979230Y18693860D01*
X3971895Y18765710D01*
X3975989Y19034211D01*
X4025975Y19327936D01*
X4117694Y19635602D01*
X4246989Y19945922D01*
X4409700Y20247613D01*
X4601671Y20529390D01*
X4639708Y20577995D01*
X4939602Y20904575D01*
X5275940Y21182772D01*
X5643980Y21410478D01*
X6038981Y21585590D01*
X6456202Y21706001D01*
X6890901Y21769606D01*
X7334262Y21774527D01*
X7777340Y21720540D01*
G37*
G36*
X5923597Y9746054D02*
G01*
X6094872Y9695965D01*
X6229028Y9605862D01*
X6295305Y9522421D01*
X6330382Y9426184D01*
X6347560Y9303663D01*
X6345254Y9182420D01*
X6321883Y9090013D01*
X6320314Y9086979D01*
X6310079Y9004706D01*
X6333770Y8908617D01*
X6360916Y8748646D01*
X6327585Y8600053D01*
X6233354Y8461344D01*
X6197539Y8425510D01*
X6128479Y8364292D01*
X6071543Y8329857D01*
X6004734Y8314902D01*
X5906054Y8312127D01*
X5857677Y8312716D01*
X5744941Y8311553D01*
X5655620Y8305358D01*
X5608834Y8295468D01*
X5608584Y8295317D01*
X5581665Y8303289D01*
X5572944Y8346160D01*
X5571845Y8360894D01*
X5957154Y8360894D01*
X5961406Y8342479D01*
X5977805Y8340244D01*
X6003301Y8351577D01*
X5998455Y8360894D01*
X5961694Y8364601D01*
X5957154Y8360894D01*
X5571845Y8360894D01*
X5569921Y8386707D01*
X6070731Y8386707D01*
X6086219Y8371219D01*
X6101707Y8386707D01*
X6086219Y8402195D01*
X6070731Y8386707D01*
X5569921Y8386707D01*
X5569286Y8395218D01*
X5557345Y8385223D01*
X5544146Y8355732D01*
X5536058Y8365759D01*
X5531731Y8407648D01*
X6135206Y8407648D01*
X6141717Y8407389D01*
X6173445Y8431448D01*
X6229169Y8491357D01*
X6274115Y8561023D01*
X6305495Y8634580D01*
X6317324Y8687181D01*
X6306322Y8688668D01*
X6280277Y8643657D01*
X6269487Y8619946D01*
X6223288Y8529577D01*
X6173737Y8454611D01*
X6170029Y8450114D01*
X6135206Y8407648D01*
X5531731Y8407648D01*
X5529171Y8432431D01*
X5526741Y8484797D01*
X5864227Y8484797D01*
X5868479Y8466382D01*
X5884878Y8464146D01*
X5910374Y8475480D01*
X5905528Y8484797D01*
X5868767Y8488504D01*
X5864227Y8484797D01*
X5526741Y8484797D01*
X5525543Y8510610D01*
X6008780Y8510610D01*
X6024268Y8495122D01*
X6039756Y8510610D01*
X6024268Y8526097D01*
X6008780Y8510610D01*
X5525543Y8510610D01*
X5523866Y8546748D01*
X5833252Y8546748D01*
X5837504Y8528333D01*
X5853902Y8526097D01*
X5879399Y8537431D01*
X5874553Y8546748D01*
X5837792Y8550455D01*
X5833252Y8546748D01*
X5523866Y8546748D01*
X5523694Y8550448D01*
X5519833Y8714510D01*
X5519088Y8789390D01*
X5770574Y8789390D01*
X5772190Y8707104D01*
X5776729Y8670911D01*
X5783108Y8688165D01*
X5787129Y8758415D01*
X5822927Y8758415D01*
X5826120Y8655366D01*
X5842763Y8604041D01*
X5883448Y8594276D01*
X5958771Y8615910D01*
X5968044Y8619205D01*
X6025022Y8638096D01*
X6029548Y8631915D01*
X5995116Y8603717D01*
X5961247Y8569314D01*
X5967083Y8557073D01*
X6009044Y8578298D01*
X6035977Y8603536D01*
X6194634Y8603536D01*
X6210122Y8588049D01*
X6225609Y8603536D01*
X6210122Y8619024D01*
X6194634Y8603536D01*
X6035977Y8603536D01*
X6058187Y8624349D01*
X6087692Y8664037D01*
X6079645Y8669564D01*
X6077234Y8668217D01*
X6051127Y8665034D01*
X6053611Y8709256D01*
X6056686Y8722159D01*
X6051997Y8773902D01*
X6101707Y8773902D01*
X6113040Y8748406D01*
X6122357Y8753252D01*
X6126065Y8790013D01*
X6124466Y8791971D01*
X6166104Y8791971D01*
X6171799Y8751796D01*
X6182373Y8751316D01*
X6186401Y8773902D01*
X6232796Y8773902D01*
X6236025Y8717548D01*
X6244066Y8710906D01*
X6246962Y8719695D01*
X6251779Y8798256D01*
X6246962Y8828110D01*
X6237984Y8837750D01*
X6233095Y8794919D01*
X6232796Y8773902D01*
X6186401Y8773902D01*
X6189767Y8792773D01*
X6184818Y8810686D01*
X6171064Y8822419D01*
X6166104Y8791971D01*
X6124466Y8791971D01*
X6122357Y8794553D01*
X6103942Y8790301D01*
X6101707Y8773902D01*
X6051997Y8773902D01*
X6049219Y8804556D01*
X6015369Y8853923D01*
X6290006Y8853923D01*
X6295701Y8813747D01*
X6306275Y8813267D01*
X6313669Y8854725D01*
X6308721Y8872637D01*
X6294966Y8884370D01*
X6290006Y8853923D01*
X6015369Y8853923D01*
X5998414Y8878651D01*
X5921602Y8923602D01*
X5884878Y8928780D01*
X5849076Y8921386D01*
X5830426Y8889414D01*
X5823587Y8818184D01*
X5822927Y8758415D01*
X5787129Y8758415D01*
X5788499Y8782349D01*
X5783424Y8874018D01*
X5777093Y8899552D01*
X5772481Y8869634D01*
X5770576Y8790757D01*
X5770574Y8789390D01*
X5519088Y8789390D01*
X5517795Y8919319D01*
X5517525Y9037195D01*
X5517811Y9099146D01*
X5555971Y9099146D01*
X5556718Y8974693D01*
X5558843Y8894749D01*
X5562039Y8864708D01*
X5566002Y8889967D01*
X5567000Y8904335D01*
X5569561Y8983764D01*
X5843850Y8983764D01*
X5852215Y8975337D01*
X5915853Y8958928D01*
X5996982Y8929224D01*
X6051002Y8890531D01*
X6054148Y8886146D01*
X6086586Y8854157D01*
X6100611Y8855493D01*
X6091333Y8884017D01*
X6046002Y8929869D01*
X6044068Y8931447D01*
X6019825Y8944268D01*
X6101707Y8944268D01*
X6117195Y8928780D01*
X6132683Y8944268D01*
X6117195Y8959756D01*
X6101707Y8944268D01*
X6019825Y8944268D01*
X5963172Y8974230D01*
X5920867Y8981853D01*
X6168651Y8981853D01*
X6176188Y8964542D01*
X6207377Y8931288D01*
X6225308Y8938110D01*
X6225609Y8942440D01*
X6203608Y8968640D01*
X6189848Y8978202D01*
X6168651Y8981853D01*
X5920867Y8981853D01*
X5889190Y8987561D01*
X5843850Y8983764D01*
X5569561Y8983764D01*
X5570010Y8997708D01*
X6241313Y8997708D01*
X6243861Y8982988D01*
X6264984Y8934186D01*
X6278221Y8946602D01*
X6282538Y8998475D01*
X6288829Y9078069D01*
X6301900Y9173843D01*
X6302359Y9176585D01*
X6320649Y9285000D01*
X6273806Y9161097D01*
X6248129Y9071022D01*
X6241313Y8997708D01*
X5570010Y8997708D01*
X5571366Y9039770D01*
X5571239Y9059024D01*
X5807439Y9059024D01*
X5905861Y9055854D01*
X5999467Y9073359D01*
X6021138Y9092494D01*
X6111303Y9092494D01*
X6119017Y9094855D01*
X6146462Y9128298D01*
X6147342Y9130122D01*
X6194634Y9130122D01*
X6210122Y9114634D01*
X6225609Y9130122D01*
X6210122Y9145610D01*
X6194634Y9130122D01*
X6147342Y9130122D01*
X6184493Y9207152D01*
X6194159Y9267689D01*
X6182508Y9347505D01*
X6164062Y9393415D01*
X6147186Y9405955D01*
X6147552Y9361793D01*
X6152412Y9327968D01*
X6154864Y9230951D01*
X6136485Y9146791D01*
X6134337Y9142114D01*
X6111303Y9092494D01*
X6021138Y9092494D01*
X6068483Y9134299D01*
X6121836Y9225747D01*
X6122103Y9311055D01*
X6082982Y9393415D01*
X6055804Y9432332D01*
X6055378Y9418252D01*
X6058709Y9408902D01*
X6078133Y9317070D01*
X6076571Y9221842D01*
X6055239Y9151044D01*
X6046978Y9140442D01*
X5995960Y9111306D01*
X5916386Y9084815D01*
X5910979Y9083504D01*
X5807439Y9059024D01*
X5571239Y9059024D01*
X5570358Y9192929D01*
X5568577Y9238536D01*
X5770890Y9238536D01*
X5772476Y9153437D01*
X5776660Y9115546D01*
X5782579Y9131807D01*
X5783383Y9137866D01*
X5788509Y9246482D01*
X5786380Y9285000D01*
X5822927Y9285000D01*
X5824961Y9187410D01*
X5835614Y9136594D01*
X5861709Y9117401D01*
X5899651Y9114634D01*
X5981308Y9143143D01*
X6026123Y9190556D01*
X6058900Y9284346D01*
X6036115Y9367094D01*
X5961929Y9424484D01*
X5957650Y9426165D01*
X5884429Y9449144D01*
X5843964Y9440821D01*
X5826662Y9391141D01*
X5822929Y9290055D01*
X5822927Y9285000D01*
X5786380Y9285000D01*
X5783383Y9339207D01*
X5777309Y9362586D01*
X5772866Y9330961D01*
X5770916Y9251277D01*
X5770890Y9238536D01*
X5568577Y9238536D01*
X5567112Y9276042D01*
X5563058Y9321453D01*
X5559658Y9309743D01*
X5557215Y9245742D01*
X5556034Y9134278D01*
X5555971Y9099146D01*
X5517811Y9099146D01*
X5518558Y9260662D01*
X5521519Y9446073D01*
X5522506Y9476016D01*
X5957154Y9476016D01*
X5961406Y9457601D01*
X5977805Y9455366D01*
X6003301Y9466699D01*
X5998455Y9476016D01*
X5961694Y9479723D01*
X5957154Y9476016D01*
X5522506Y9476016D01*
X5522703Y9481987D01*
X6174831Y9481987D01*
X6175289Y9471525D01*
X6192925Y9434170D01*
X6217208Y9352332D01*
X6225609Y9271548D01*
X6230015Y9205376D01*
X6240658Y9176623D01*
X6241097Y9176585D01*
X6251572Y9203747D01*
X6256525Y9270046D01*
X6256585Y9279080D01*
X6243359Y9362439D01*
X6292452Y9362439D01*
X6297319Y9318465D01*
X6308075Y9323719D01*
X6312166Y9387137D01*
X6308075Y9401158D01*
X6296769Y9405050D01*
X6292452Y9362439D01*
X6243359Y9362439D01*
X6242142Y9370110D01*
X6208413Y9441701D01*
X6174831Y9481987D01*
X5522703Y9481987D01*
X5523527Y9506992D01*
X5864227Y9506992D01*
X5868479Y9488577D01*
X5884878Y9486341D01*
X5910374Y9497675D01*
X5905528Y9506992D01*
X5868767Y9510699D01*
X5864227Y9506992D01*
X5523527Y9506992D01*
X5524378Y9532805D01*
X6008780Y9532805D01*
X6024268Y9517317D01*
X6039756Y9532805D01*
X6132683Y9532805D01*
X6148170Y9517317D01*
X6163658Y9532805D01*
X6148170Y9548293D01*
X6132683Y9532805D01*
X6039756Y9532805D01*
X6024268Y9548293D01*
X6008780Y9532805D01*
X5524378Y9532805D01*
X5526202Y9588128D01*
X5526642Y9594756D01*
X6039756Y9594756D01*
X6055244Y9579268D01*
X6065877Y9589902D01*
X6182252Y9589902D01*
X6204927Y9545260D01*
X6210471Y9536619D01*
X6254751Y9476136D01*
X6278046Y9457077D01*
X6273690Y9482422D01*
X6257508Y9515592D01*
X6216524Y9573945D01*
X6191254Y9596845D01*
X6182252Y9589902D01*
X6065877Y9589902D01*
X6070731Y9594756D01*
X6055244Y9610244D01*
X6039756Y9594756D01*
X5526642Y9594756D01*
X5530751Y9656707D01*
X6070731Y9656707D01*
X6086219Y9641219D01*
X6101707Y9656707D01*
X6086219Y9672195D01*
X6070731Y9656707D01*
X5530751Y9656707D01*
X5532270Y9679601D01*
X5960264Y9679601D01*
X5990711Y9674640D01*
X6030887Y9680336D01*
X6031367Y9690909D01*
X5989909Y9698304D01*
X5971997Y9693355D01*
X5960264Y9679601D01*
X5532270Y9679601D01*
X5532398Y9681529D01*
X5539902Y9720976D01*
X5544146Y9718658D01*
X5565025Y9682342D01*
X5572924Y9704454D01*
X5572944Y9704896D01*
X5600135Y9737783D01*
X5660026Y9751751D01*
X5725755Y9744907D01*
X5768245Y9718658D01*
X5788546Y9709868D01*
X5791477Y9726768D01*
X5811137Y9750149D01*
X5875642Y9752077D01*
X5923597Y9746054D01*
G37*
G36*
X9078642Y13538557D02*
G01*
X9107051Y13520414D01*
X9152089Y13469940D01*
X9216204Y13383546D01*
X9301843Y13257644D01*
X9411451Y13088646D01*
X9547477Y12872965D01*
X9697967Y12630366D01*
X9830158Y12416161D01*
X9952861Y12217525D01*
X10062066Y12040933D01*
X10153766Y11892856D01*
X10223953Y11779767D01*
X10268621Y11708141D01*
X10282906Y11685610D01*
X10317939Y11630497D01*
X10367718Y11549679D01*
X10383763Y11523226D01*
X10441499Y11439070D01*
X10478976Y11412929D01*
X10497657Y11444801D01*
X10499611Y11522988D01*
X10498360Y11582664D01*
X10497409Y11695548D01*
X10496777Y11852895D01*
X10496484Y12045963D01*
X10496549Y12266008D01*
X10496991Y12504286D01*
X10497242Y12591646D01*
X10498399Y12862171D01*
X10500196Y13076963D01*
X10502963Y13242240D01*
X10507033Y13364219D01*
X10512736Y13449118D01*
X10520402Y13503154D01*
X10530363Y13532546D01*
X10542950Y13543511D01*
X10547934Y13544146D01*
X10561658Y13538152D01*
X10572460Y13515948D01*
X10580650Y13471207D01*
X10586539Y13397598D01*
X10590436Y13288791D01*
X10592652Y13138458D01*
X10593498Y12940268D01*
X10593284Y12687892D01*
X10593121Y12622622D01*
X10592251Y12283646D01*
X10591722Y12001431D01*
X10591643Y11770786D01*
X10592124Y11586521D01*
X10593275Y11443447D01*
X10595207Y11336373D01*
X10598028Y11260108D01*
X10601850Y11209463D01*
X10606782Y11179248D01*
X10612934Y11164272D01*
X10620416Y11159346D01*
X10624146Y11159024D01*
X10632935Y11189752D01*
X10640317Y11280974D01*
X10646253Y11431249D01*
X10650706Y11639135D01*
X10653639Y11903191D01*
X10655015Y12221974D01*
X10655122Y12351585D01*
X10655366Y12658100D01*
X10656243Y12908196D01*
X10657968Y13107405D01*
X10660757Y13261256D01*
X10664825Y13375283D01*
X10670388Y13455014D01*
X10677660Y13505983D01*
X10686858Y13533719D01*
X10698197Y13543754D01*
X10701585Y13544146D01*
X10713007Y13538004D01*
X10722426Y13516060D01*
X10730028Y13473040D01*
X10735999Y13403668D01*
X10740528Y13302669D01*
X10743798Y13164768D01*
X10745998Y12984690D01*
X10747314Y12757160D01*
X10747931Y12476903D01*
X10748048Y12229511D01*
X10748779Y11877728D01*
X10750939Y11576385D01*
X10754482Y11327492D01*
X10759361Y11133059D01*
X10765530Y10995097D01*
X10772942Y10915618D01*
X10779024Y10895732D01*
X10787562Y10920928D01*
X10794743Y11007588D01*
X10800557Y11155240D01*
X10804993Y11363411D01*
X10808040Y11631629D01*
X10809686Y11959420D01*
X10810000Y12210367D01*
X10810213Y12536076D01*
X10810975Y12805073D01*
X10812467Y13022595D01*
X10814873Y13193882D01*
X10818374Y13324172D01*
X10823154Y13418701D01*
X10829394Y13482709D01*
X10837277Y13521434D01*
X10846986Y13540113D01*
X10856463Y13544146D01*
X10867422Y13538117D01*
X10876544Y13516662D01*
X10883990Y13474734D01*
X10889925Y13407285D01*
X10894511Y13309265D01*
X10897912Y13175627D01*
X10900290Y13001322D01*
X10901808Y12781302D01*
X10902630Y12510518D01*
X10902918Y12183921D01*
X10902927Y12105608D01*
X10903594Y11734600D01*
X10905573Y11414904D01*
X10908824Y11148287D01*
X10913311Y10936518D01*
X10918996Y10781366D01*
X10925841Y10684600D01*
X10933809Y10647988D01*
X10933902Y10647927D01*
X10942112Y10673370D01*
X10949074Y10760336D01*
X10954782Y10908409D01*
X10959225Y11117175D01*
X10962394Y11386216D01*
X10964281Y11715117D01*
X10964878Y12086464D01*
X10965069Y12428202D01*
X10965751Y12713006D01*
X10967083Y12945890D01*
X10969224Y13131873D01*
X10972335Y13275968D01*
X10976575Y13383193D01*
X10982105Y13458563D01*
X10989084Y13507094D01*
X10997672Y13533802D01*
X11008029Y13543703D01*
X11011341Y13544146D01*
X11021891Y13538213D01*
X11030743Y13517179D01*
X11038041Y13476198D01*
X11043930Y13410419D01*
X11048553Y13314995D01*
X11052054Y13185078D01*
X11054579Y13015818D01*
X11056270Y12802367D01*
X11057273Y12539877D01*
X11057731Y12223499D01*
X11057805Y11981706D01*
X11058420Y11592314D01*
X11060244Y11254981D01*
X11063248Y10971278D01*
X11067400Y10742777D01*
X11072669Y10571049D01*
X11079025Y10457665D01*
X11086437Y10404197D01*
X11088780Y10400122D01*
X11095496Y10400985D01*
X11101283Y10415167D01*
X11106199Y10446707D01*
X11110299Y10499646D01*
X11113641Y10578024D01*
X11116279Y10685882D01*
X11118272Y10827259D01*
X11119674Y11006195D01*
X11120543Y11226732D01*
X11120934Y11492910D01*
X11120905Y11808768D01*
X11120511Y12178347D01*
X11119809Y12605687D01*
X11119778Y12622622D01*
X11119607Y12888349D01*
X11120392Y13098439D01*
X11122444Y13259201D01*
X11126076Y13376947D01*
X11131601Y13457986D01*
X11139330Y13508628D01*
X11149577Y13535185D01*
X11162652Y13543966D01*
X11165382Y13544146D01*
X11175773Y13538703D01*
X11184546Y13519230D01*
X11191834Y13481010D01*
X11197771Y13419326D01*
X11202489Y13329463D01*
X11206122Y13206703D01*
X11208803Y13046331D01*
X11210666Y12843630D01*
X11211844Y12593883D01*
X11212471Y12292374D01*
X11212679Y11934386D01*
X11212683Y11871463D01*
X11212620Y11507198D01*
X11212320Y11200024D01*
X11211609Y10945079D01*
X11210316Y10737504D01*
X11208270Y10572438D01*
X11205300Y10445020D01*
X11201234Y10350390D01*
X11195900Y10283687D01*
X11189127Y10240051D01*
X11180744Y10214620D01*
X11170579Y10202535D01*
X11158460Y10198935D01*
X11153675Y10198780D01*
X11097438Y10227731D01*
X11030803Y10310726D01*
X11009276Y10345915D01*
X10966350Y10417695D01*
X10897004Y10531103D01*
X10807886Y10675378D01*
X10705646Y10839760D01*
X10596932Y11013491D01*
X10583350Y11035122D01*
X10477075Y11204705D01*
X10379018Y11361945D01*
X10295113Y11497264D01*
X10231295Y11601086D01*
X10193497Y11663835D01*
X10189861Y11670122D01*
X10143416Y11749003D01*
X10073187Y11864913D01*
X9984138Y12009941D01*
X9881239Y12176172D01*
X9769454Y12355694D01*
X9653752Y12540596D01*
X9539099Y12722963D01*
X9430463Y12894884D01*
X9332809Y13048446D01*
X9251105Y13175735D01*
X9190318Y13268840D01*
X9155414Y13319848D01*
X9150311Y13326211D01*
X9114113Y13358097D01*
X9105222Y13350358D01*
X9124655Y13301116D01*
X9173431Y13208494D01*
X9252569Y13070615D01*
X9363085Y12885601D01*
X9505999Y12651576D01*
X9590607Y12514492D01*
X9721018Y12303975D01*
X9847916Y12099470D01*
X9965641Y11910072D01*
X10068534Y11744877D01*
X10150935Y11612981D01*
X10207183Y11523479D01*
X10212399Y11515244D01*
X10415059Y11194251D01*
X10584523Y10922534D01*
X10722071Y10697895D01*
X10828981Y10518136D01*
X10906531Y10381059D01*
X10956000Y10284467D01*
X10978666Y10226161D01*
X10975808Y10203944D01*
X10975229Y10203786D01*
X10930434Y10200173D01*
X10922258Y10203786D01*
X10900637Y10238285D01*
X10850567Y10318761D01*
X10776201Y10438515D01*
X10681692Y10590844D01*
X10571191Y10769048D01*
X10448851Y10966424D01*
X10318824Y11176272D01*
X10185262Y11391889D01*
X10052318Y11606575D01*
X9924144Y11813628D01*
X9804892Y12006348D01*
X9698714Y12178031D01*
X9609764Y12321978D01*
X9601044Y12336097D01*
X9460197Y12563566D01*
X9348248Y12742597D01*
X9262038Y12877760D01*
X9198406Y12973629D01*
X9154188Y13034774D01*
X9126226Y13065767D01*
X9111357Y13071180D01*
X9106421Y13055585D01*
X9106341Y13051526D01*
X9110000Y13037110D01*
X9122331Y13009841D01*
X9145369Y12966375D01*
X9181147Y12903366D01*
X9231698Y12817469D01*
X9299055Y12705339D01*
X9385253Y12563631D01*
X9492324Y12388999D01*
X9622302Y12178099D01*
X9777221Y11927585D01*
X9959113Y11634113D01*
X10170012Y11294336D01*
X10378137Y10959324D01*
X10496710Y10767344D01*
X10603060Y10592894D01*
X10693177Y10442736D01*
X10763049Y10323634D01*
X10808667Y10242349D01*
X10826019Y10205645D01*
X10825883Y10204339D01*
X10809129Y10197158D01*
X10785532Y10206666D01*
X10752410Y10236758D01*
X10707083Y10291330D01*
X10646869Y10374278D01*
X10569087Y10489498D01*
X10471056Y10640885D01*
X10350094Y10832335D01*
X10203521Y11067745D01*
X10028655Y11351010D01*
X9960813Y11461298D01*
X9750974Y11801524D01*
X9571982Y12089261D01*
X9423257Y12325409D01*
X9304217Y12510865D01*
X9214282Y12646529D01*
X9152869Y12733298D01*
X9119399Y12772073D01*
X9112570Y12772955D01*
X9110214Y12761965D01*
X9111774Y12746996D01*
X9119775Y12723793D01*
X9136741Y12688105D01*
X9165197Y12635676D01*
X9207666Y12562255D01*
X9266675Y12463587D01*
X9344747Y12335420D01*
X9444406Y12173499D01*
X9568178Y11973572D01*
X9718587Y11731385D01*
X9898157Y11442684D01*
X9984183Y11304443D01*
X10128930Y11071527D01*
X10262955Y10855237D01*
X10382826Y10661158D01*
X10485110Y10494879D01*
X10566374Y10361984D01*
X10623185Y10268060D01*
X10652112Y10218694D01*
X10655122Y10212553D01*
X10630082Y10200030D01*
X10612312Y10198780D01*
X10583443Y10225306D01*
X10524055Y10304068D01*
X10434935Y10433843D01*
X10316869Y10613408D01*
X10170645Y10841541D01*
X9997048Y11117018D01*
X9796867Y11438615D01*
X9570887Y11805112D01*
X9412399Y12063788D01*
X9303661Y12239431D01*
X9222235Y12365229D01*
X9164971Y12445280D01*
X9128717Y12483683D01*
X9110321Y12484536D01*
X9106341Y12461750D01*
X9108752Y12450914D01*
X9117629Y12430730D01*
X9135442Y12397137D01*
X9164659Y12346074D01*
X9207746Y12273483D01*
X9267174Y12175301D01*
X9345410Y12047468D01*
X9444922Y11885925D01*
X9568179Y11686610D01*
X9717649Y11445464D01*
X9895800Y11158425D01*
X10027866Y10945770D01*
X10144407Y10757415D01*
X10249410Y10586310D01*
X10338637Y10439477D01*
X10407847Y10323939D01*
X10452801Y10246717D01*
X10469258Y10214834D01*
X10469268Y10214682D01*
X10460508Y10191610D01*
X10433051Y10204772D01*
X10385131Y10256641D01*
X10314981Y10349689D01*
X10220836Y10486386D01*
X10100928Y10669206D01*
X9953492Y10900620D01*
X9776761Y11183100D01*
X9773221Y11188796D01*
X9634797Y11411051D01*
X9505858Y11617140D01*
X9390228Y11801021D01*
X9291732Y11956651D01*
X9214197Y12077987D01*
X9161447Y12158985D01*
X9137307Y12193602D01*
X9136972Y12193955D01*
X9127497Y12173429D01*
X9119744Y12091633D01*
X9113734Y11949225D01*
X9109485Y11746865D01*
X9107020Y11485208D01*
X9106341Y11211683D01*
X9106042Y10931287D01*
X9104961Y10706856D01*
X9102824Y10532402D01*
X9099356Y10401940D01*
X9094283Y10309486D01*
X9087330Y10249052D01*
X9078223Y10214654D01*
X9066686Y10200306D01*
X9059878Y10198780D01*
X9049661Y10204638D01*
X9041032Y10225337D01*
X9033863Y10265562D01*
X9028022Y10330000D01*
X9023379Y10423338D01*
X9019805Y10550261D01*
X9017170Y10715456D01*
X9015343Y10923609D01*
X9014195Y11179406D01*
X9013596Y11487534D01*
X9013415Y11852679D01*
X9013414Y11873618D01*
X9013414Y13548455D01*
X9078642Y13538557D01*
G37*
G36*
X10980500Y9726785D02*
G01*
X11097032Y9647033D01*
X11133478Y9603365D01*
X11159210Y9560035D01*
X11153640Y9529502D01*
X11107636Y9496741D01*
X11050175Y9466337D01*
X10957863Y9427712D01*
X10898675Y9421645D01*
X10888987Y9426930D01*
X10827517Y9452563D01*
X10747358Y9450850D01*
X10679685Y9424851D01*
X10660711Y9404503D01*
X10642988Y9332633D01*
X10645626Y9288344D01*
X10650902Y9249641D01*
X10636683Y9261192D01*
X10611697Y9300488D01*
X10578771Y9345425D01*
X10563834Y9348174D01*
X10563767Y9346951D01*
X10579874Y9292608D01*
X10616164Y9240075D01*
X10646248Y9220647D01*
X10752529Y9202805D01*
X10872803Y9172409D01*
X10975292Y9137929D01*
X11002679Y9125661D01*
X11078538Y9070478D01*
X11128434Y9003015D01*
X11140111Y8941725D01*
X11134374Y8927373D01*
X11139198Y8904445D01*
X11156173Y8904781D01*
X11187008Y8885243D01*
X11203961Y8822555D01*
X11206625Y8734034D01*
X11194594Y8636997D01*
X11167461Y8548762D01*
X11164672Y8542700D01*
X11077366Y8425547D01*
X10953797Y8346598D01*
X10809571Y8310180D01*
X10660295Y8320625D01*
X10540940Y8369678D01*
X10465450Y8426703D01*
X10412571Y8485783D01*
X10409294Y8491428D01*
X10404664Y8501932D01*
X10438828Y8501932D01*
X10462207Y8471611D01*
X10519654Y8423926D01*
X10539062Y8409939D01*
X10662266Y8354564D01*
X10801185Y8339072D01*
X10932648Y8363710D01*
X11007783Y8404930D01*
X11112310Y8520844D01*
X11169773Y8659707D01*
X11177830Y8749132D01*
X11174731Y8809844D01*
X11169767Y8816530D01*
X11159563Y8766253D01*
X11152902Y8727439D01*
X11113712Y8580371D01*
X11050150Y8479773D01*
X10965498Y8418003D01*
X10818410Y8374668D01*
X10668274Y8390843D01*
X10629198Y8409801D01*
X10699016Y8409801D01*
X10743522Y8406596D01*
X10765360Y8405757D01*
X10854446Y8418917D01*
X10920238Y8450955D01*
X10949499Y8478653D01*
X10934954Y8475967D01*
X10874509Y8454006D01*
X10788300Y8432421D01*
X10780076Y8430769D01*
X10710377Y8416460D01*
X10699016Y8409801D01*
X10629198Y8409801D01*
X10551030Y8447725D01*
X10549509Y8448658D01*
X10624146Y8448658D01*
X10639634Y8433171D01*
X10655122Y8448658D01*
X10639634Y8464146D01*
X10624146Y8448658D01*
X10549509Y8448658D01*
X10512199Y8471552D01*
X10730508Y8471552D01*
X10760955Y8466592D01*
X10801131Y8472287D01*
X10801610Y8482861D01*
X10760153Y8490255D01*
X10742241Y8485306D01*
X10730508Y8471552D01*
X10512199Y8471552D01*
X10483826Y8488962D01*
X10443783Y8505088D01*
X10438828Y8501932D01*
X10404664Y8501932D01*
X10400839Y8510610D01*
X10655122Y8510610D01*
X10670609Y8495122D01*
X10686097Y8510610D01*
X10683787Y8512920D01*
X10845447Y8512920D01*
X10852751Y8496757D01*
X10870123Y8495122D01*
X10899040Y8510610D01*
X10995853Y8510610D01*
X11011341Y8495122D01*
X11026829Y8510610D01*
X11011341Y8526097D01*
X10995853Y8510610D01*
X10899040Y8510610D01*
X10912126Y8517619D01*
X10918195Y8525743D01*
X10913209Y8543345D01*
X10889047Y8537916D01*
X10845447Y8512920D01*
X10683787Y8512920D01*
X10670609Y8526097D01*
X10655122Y8510610D01*
X10400839Y8510610D01*
X10383539Y8549854D01*
X10378218Y8582393D01*
X10393729Y8575839D01*
X10407317Y8557073D01*
X10431221Y8529111D01*
X10437712Y8559193D01*
X10437818Y8566544D01*
X10443450Y8598985D01*
X10467474Y8589397D01*
X10507987Y8549538D01*
X10543792Y8514425D01*
X10544578Y8519442D01*
X10538963Y8527018D01*
X10505196Y8585516D01*
X10501704Y8622107D01*
X10525563Y8623288D01*
X10554451Y8598569D01*
X10586260Y8565919D01*
X10585427Y8570357D01*
X10564720Y8626659D01*
X10563137Y8648451D01*
X10569361Y8675929D01*
X10591485Y8649207D01*
X10596613Y8640539D01*
X10666222Y8573520D01*
X10760206Y8544629D01*
X10836877Y8559090D01*
X11034424Y8559090D01*
X11038661Y8557073D01*
X11066928Y8578879D01*
X11073292Y8588049D01*
X11081186Y8617007D01*
X11076949Y8619024D01*
X11048681Y8597218D01*
X11042317Y8588049D01*
X11034424Y8559090D01*
X10836877Y8559090D01*
X10850747Y8561706D01*
X10888082Y8590065D01*
X10972472Y8590065D01*
X10976709Y8588049D01*
X11004977Y8609855D01*
X11011341Y8619024D01*
X11019234Y8647983D01*
X11014997Y8650000D01*
X10986729Y8628194D01*
X10980366Y8619024D01*
X10972472Y8590065D01*
X10888082Y8590065D01*
X10935580Y8626144D01*
X10963461Y8696463D01*
X10951005Y8700108D01*
X10931634Y8673611D01*
X10857066Y8596894D01*
X10761124Y8574526D01*
X10703613Y8587278D01*
X10645147Y8621817D01*
X10624146Y8655428D01*
X10633250Y8677618D01*
X10661317Y8656195D01*
X10727415Y8622297D01*
X10805160Y8621627D01*
X10868153Y8651293D01*
X10887439Y8680975D01*
X10895805Y8779203D01*
X10887272Y8791971D01*
X10936348Y8791971D01*
X10942043Y8751796D01*
X10952617Y8751316D01*
X10953883Y8758415D01*
X11088780Y8758415D01*
X11104268Y8742927D01*
X11119756Y8758415D01*
X11104268Y8773902D01*
X11088780Y8758415D01*
X10953883Y8758415D01*
X10960011Y8792773D01*
X10955062Y8810686D01*
X10941308Y8822419D01*
X10936348Y8791971D01*
X10887272Y8791971D01*
X10857947Y8835854D01*
X10995853Y8835854D01*
X11007187Y8810357D01*
X11016504Y8815203D01*
X11020211Y8851964D01*
X11016504Y8856504D01*
X10998089Y8852252D01*
X10995853Y8835854D01*
X10857947Y8835854D01*
X10850309Y8847283D01*
X10797492Y8866829D01*
X11057805Y8866829D01*
X11069138Y8841333D01*
X11078455Y8846179D01*
X11082162Y8882940D01*
X11078455Y8887480D01*
X11060040Y8883228D01*
X11057805Y8866829D01*
X10797492Y8866829D01*
X10754047Y8882907D01*
X10635354Y8910981D01*
X10573790Y8944268D01*
X10686097Y8944268D01*
X10701585Y8928780D01*
X10717073Y8944268D01*
X10701585Y8959756D01*
X10686097Y8944268D01*
X10573790Y8944268D01*
X10567025Y8947926D01*
X10556618Y8975244D01*
X10593170Y8975244D01*
X10608658Y8959756D01*
X10624146Y8975244D01*
X10608658Y8990732D01*
X10593170Y8975244D01*
X10556618Y8975244D01*
X10553221Y8984161D01*
X10536715Y9023877D01*
X10491270Y9072226D01*
X10478029Y9083423D01*
X10997882Y9083423D01*
X11005574Y9067383D01*
X11022878Y9044939D01*
X11068090Y8996782D01*
X11088272Y8996991D01*
X11088780Y9002427D01*
X11067612Y9028283D01*
X11034573Y9056634D01*
X10997882Y9083423D01*
X10478029Y9083423D01*
X10422805Y9130122D01*
X10810000Y9130122D01*
X10825487Y9114634D01*
X10840975Y9130122D01*
X10825487Y9145610D01*
X10810000Y9130122D01*
X10422805Y9130122D01*
X10481813Y9060427D01*
X10512851Y9012159D01*
X10507146Y8990790D01*
X10505758Y8990732D01*
X10460364Y9017768D01*
X10409287Y9087686D01*
X10363505Y9183696D01*
X10349917Y9224306D01*
X10381554Y9224306D01*
X10395840Y9169879D01*
X10417537Y9145610D01*
X10419744Y9161097D01*
X10686097Y9161097D01*
X10701585Y9145610D01*
X10717073Y9161097D01*
X10701585Y9176585D01*
X10686097Y9161097D01*
X10419744Y9161097D01*
X10421273Y9171822D01*
X10418564Y9192073D01*
X10469268Y9192073D01*
X10484756Y9176585D01*
X10500244Y9192073D01*
X10484756Y9207561D01*
X10469268Y9192073D01*
X10418564Y9192073D01*
X10414419Y9223049D01*
X10531219Y9223049D01*
X10546707Y9207561D01*
X10562195Y9223049D01*
X10546707Y9238536D01*
X10531219Y9223049D01*
X10414419Y9223049D01*
X10413383Y9230793D01*
X10398229Y9278854D01*
X10384157Y9277305D01*
X10383781Y9276234D01*
X10381554Y9224306D01*
X10349917Y9224306D01*
X10346626Y9234142D01*
X10338853Y9331463D01*
X10443183Y9331463D01*
X10448051Y9287489D01*
X10458807Y9292744D01*
X10461305Y9331463D01*
X10505134Y9331463D01*
X10510002Y9287489D01*
X10520758Y9292744D01*
X10524849Y9356162D01*
X10520758Y9370183D01*
X10509452Y9374074D01*
X10505134Y9331463D01*
X10461305Y9331463D01*
X10462898Y9356162D01*
X10458807Y9370183D01*
X10447501Y9374074D01*
X10443183Y9331463D01*
X10338853Y9331463D01*
X10337013Y9354500D01*
X10348121Y9411484D01*
X10378787Y9411484D01*
X10384482Y9371308D01*
X10395056Y9370828D01*
X10402123Y9410451D01*
X10593645Y9410451D01*
X10604098Y9396390D01*
X10616876Y9411550D01*
X10660873Y9453248D01*
X10701585Y9480303D01*
X10731534Y9501829D01*
X10840975Y9501829D01*
X10856463Y9486341D01*
X10871951Y9501829D01*
X10964878Y9501829D01*
X10980366Y9486341D01*
X10995853Y9501829D01*
X10980366Y9517317D01*
X10964878Y9501829D01*
X10871951Y9501829D01*
X10856463Y9517317D01*
X10840975Y9501829D01*
X10731534Y9501829D01*
X10738751Y9507016D01*
X10720327Y9516216D01*
X10715524Y9516375D01*
X10650875Y9494880D01*
X10602834Y9444161D01*
X10593645Y9410451D01*
X10402123Y9410451D01*
X10402450Y9412286D01*
X10397501Y9430198D01*
X10386154Y9439878D01*
X10531219Y9439878D01*
X10546707Y9424390D01*
X10562195Y9439878D01*
X10546707Y9455366D01*
X10531219Y9439878D01*
X10386154Y9439878D01*
X10383747Y9441931D01*
X10378787Y9411484D01*
X10348121Y9411484D01*
X10362871Y9487146D01*
X10372259Y9506755D01*
X10407317Y9506755D01*
X10412919Y9486556D01*
X10415061Y9488923D01*
X10438070Y9518846D01*
X10474719Y9563780D01*
X10531219Y9563780D01*
X10546707Y9548293D01*
X10562195Y9563780D01*
X10871951Y9563780D01*
X10887439Y9548293D01*
X10902927Y9563780D01*
X10995853Y9563780D01*
X11011341Y9548293D01*
X11026829Y9563780D01*
X11011341Y9579268D01*
X10995853Y9563780D01*
X10902927Y9563780D01*
X10887439Y9579268D01*
X10871951Y9563780D01*
X10562195Y9563780D01*
X10546707Y9579268D01*
X10531219Y9563780D01*
X10474719Y9563780D01*
X10485541Y9577049D01*
X10500244Y9594756D01*
X10551870Y9656707D01*
X10748048Y9656707D01*
X10763536Y9641219D01*
X10779024Y9656707D01*
X10810000Y9656707D01*
X10825487Y9641219D01*
X10840975Y9656707D01*
X10825722Y9671960D01*
X10997882Y9671960D01*
X11005574Y9655919D01*
X11022878Y9633475D01*
X11068090Y9585318D01*
X11088272Y9585528D01*
X11088780Y9590963D01*
X11067612Y9616820D01*
X11034573Y9645171D01*
X10997882Y9671960D01*
X10825722Y9671960D01*
X10825487Y9672195D01*
X10810000Y9656707D01*
X10779024Y9656707D01*
X10763536Y9672195D01*
X10748048Y9656707D01*
X10551870Y9656707D01*
X10577683Y9687683D01*
X10593170Y9687683D01*
X10608658Y9672195D01*
X10624146Y9687683D01*
X10933902Y9687683D01*
X10949390Y9672195D01*
X10964878Y9687683D01*
X10949390Y9703171D01*
X10933902Y9687683D01*
X10624146Y9687683D01*
X10608658Y9703171D01*
X10593170Y9687683D01*
X10577683Y9687683D01*
X10492500Y9612588D01*
X10436306Y9555364D01*
X10408093Y9511582D01*
X10407317Y9506755D01*
X10372259Y9506755D01*
X10417072Y9600353D01*
X10433554Y9621159D01*
X10550827Y9712064D01*
X10585571Y9723821D01*
X10665447Y9723821D01*
X10669699Y9705406D01*
X10686097Y9703171D01*
X10702757Y9710576D01*
X10823434Y9710576D01*
X10853882Y9705616D01*
X10894058Y9711311D01*
X10894537Y9721885D01*
X10853080Y9729279D01*
X10835167Y9724330D01*
X10823434Y9710576D01*
X10702757Y9710576D01*
X10711594Y9714504D01*
X10706748Y9723821D01*
X10669987Y9727528D01*
X10665447Y9723821D01*
X10585571Y9723821D01*
X10691604Y9759702D01*
X10840093Y9764475D01*
X10980500Y9726785D01*
G37*
G36*
X4809585Y9769182D02*
G01*
X4993938Y9709569D01*
X5167527Y9595541D01*
X5181450Y9583274D01*
X5316436Y9425014D01*
X5398616Y9248726D01*
X5430920Y9063426D01*
X5416278Y8878130D01*
X5357622Y8701856D01*
X5257881Y8543619D01*
X5119985Y8412437D01*
X4946864Y8317325D01*
X4754268Y8268820D01*
X4658139Y8262168D01*
X4579245Y8265728D01*
X4568414Y8267758D01*
X4404658Y8315779D01*
X4323658Y8355732D01*
X4924634Y8355732D01*
X4940122Y8340244D01*
X4955609Y8355732D01*
X4940122Y8371219D01*
X4924634Y8355732D01*
X4323658Y8355732D01*
X4278690Y8377912D01*
X4267299Y8386707D01*
X4986585Y8386707D01*
X5002073Y8371219D01*
X5017561Y8386707D01*
X5002073Y8402195D01*
X4986585Y8386707D01*
X4267299Y8386707D01*
X4187063Y8448658D01*
X4243170Y8448658D01*
X4258658Y8433171D01*
X4274146Y8448658D01*
X4955609Y8448658D01*
X4971097Y8433171D01*
X4975060Y8437134D01*
X5087753Y8437134D01*
X5100161Y8436289D01*
X5104561Y8439167D01*
X5170568Y8496940D01*
X5240720Y8576084D01*
X5251695Y8590512D01*
X5298943Y8657782D01*
X5325324Y8701610D01*
X5327317Y8707644D01*
X5317109Y8709370D01*
X5292727Y8681352D01*
X5238844Y8620577D01*
X5169975Y8543392D01*
X5112524Y8475225D01*
X5087753Y8437134D01*
X4975060Y8437134D01*
X4986585Y8448658D01*
X4986455Y8448788D01*
X5002073Y8448788D01*
X5105409Y8541650D01*
X5177118Y8613408D01*
X5230882Y8680008D01*
X5240847Y8696463D01*
X5255694Y8732341D01*
X5245839Y8727439D01*
X5210947Y8687559D01*
X5151404Y8619498D01*
X5110402Y8572626D01*
X5002073Y8448788D01*
X4986455Y8448788D01*
X4971097Y8464146D01*
X4955609Y8448658D01*
X4274146Y8448658D01*
X4258658Y8464146D01*
X4243170Y8448658D01*
X4187063Y8448658D01*
X4174927Y8458028D01*
X4124398Y8515772D01*
X4687154Y8515772D01*
X4691406Y8497357D01*
X4707805Y8495122D01*
X4733301Y8506455D01*
X4728455Y8515772D01*
X4691694Y8519479D01*
X4687154Y8515772D01*
X4124398Y8515772D01*
X4101811Y8541585D01*
X4831707Y8541585D01*
X4847195Y8526097D01*
X4856888Y8535790D01*
X4986585Y8535790D01*
X4996252Y8527844D01*
X5030169Y8555688D01*
X5095715Y8625404D01*
X5096948Y8626768D01*
X5187927Y8727439D01*
X5087256Y8636461D01*
X5026237Y8579320D01*
X4990478Y8541973D01*
X4986585Y8535790D01*
X4856888Y8535790D01*
X4862683Y8541585D01*
X4847195Y8557073D01*
X4831707Y8541585D01*
X4101811Y8541585D01*
X4033181Y8620015D01*
X3990377Y8711951D01*
X4036438Y8711951D01*
X4036868Y8690519D01*
X4066798Y8637665D01*
X4096908Y8595793D01*
X4131661Y8558365D01*
X4137007Y8568016D01*
X4134692Y8572561D01*
X4429024Y8572561D01*
X4444512Y8557073D01*
X4460000Y8572561D01*
X4444512Y8588049D01*
X4429024Y8572561D01*
X4134692Y8572561D01*
X4112127Y8616862D01*
X4100932Y8634512D01*
X4150244Y8634512D01*
X4165731Y8619024D01*
X4181219Y8634512D01*
X4165731Y8650000D01*
X4150244Y8634512D01*
X4100932Y8634512D01*
X4078336Y8665488D01*
X4212195Y8665488D01*
X4227683Y8650000D01*
X4243170Y8665488D01*
X4227683Y8680975D01*
X4212195Y8665488D01*
X4078336Y8665488D01*
X4060896Y8689396D01*
X4036438Y8711951D01*
X3990377Y8711951D01*
X3983166Y8727439D01*
X4088292Y8727439D01*
X4103780Y8711951D01*
X4119268Y8727439D01*
X4103780Y8742927D01*
X4088292Y8727439D01*
X3983166Y8727439D01*
X3949827Y8799047D01*
X3938842Y8877106D01*
X3966353Y8877106D01*
X3973190Y8824588D01*
X3991649Y8773738D01*
X4011391Y8750833D01*
X4015345Y8752581D01*
X4015203Y8758415D01*
X4150244Y8758415D01*
X4165731Y8742927D01*
X4181219Y8758415D01*
X4165731Y8773902D01*
X4150244Y8758415D01*
X4015203Y8758415D01*
X4014507Y8787000D01*
X4013749Y8789390D01*
X4057317Y8789390D01*
X4072805Y8773902D01*
X4088292Y8789390D01*
X4072805Y8804878D01*
X4057317Y8789390D01*
X4013749Y8789390D01*
X4004229Y8819427D01*
X4189231Y8819427D01*
X4195433Y8806939D01*
X4224970Y8774914D01*
X4230403Y8797498D01*
X4222884Y8821702D01*
X4200079Y8855436D01*
X4189779Y8854738D01*
X4189231Y8819427D01*
X4004229Y8819427D01*
X3997994Y8839100D01*
X3976023Y8881380D01*
X3966353Y8877106D01*
X3938842Y8877106D01*
X3924668Y8977825D01*
X4090738Y8977825D01*
X4096433Y8937649D01*
X4107007Y8937170D01*
X4114401Y8978627D01*
X4109452Y8996540D01*
X4095698Y9008272D01*
X4090738Y8977825D01*
X3924668Y8977825D01*
X3922507Y8993183D01*
X3924708Y9011947D01*
X4153887Y9011947D01*
X4157760Y8965531D01*
X4165303Y8973109D01*
X4178408Y9038007D01*
X4182572Y9062369D01*
X4208530Y9169566D01*
X4244298Y9263418D01*
X4258843Y9289630D01*
X4302872Y9345939D01*
X4323150Y9352037D01*
X4317217Y9315889D01*
X4282614Y9245462D01*
X4275931Y9234286D01*
X4220965Y9096100D01*
X4224666Y8952750D01*
X4274146Y8820366D01*
X4317714Y8732079D01*
X4332641Y8690753D01*
X4319986Y8688978D01*
X4289634Y8711951D01*
X4248898Y8741385D01*
X4245072Y8734530D01*
X4272839Y8700429D01*
X4326885Y8648129D01*
X4327416Y8647655D01*
X4370565Y8612894D01*
X4377668Y8615835D01*
X4370087Y8626768D01*
X4343174Y8665787D01*
X4348400Y8676871D01*
X4393320Y8659330D01*
X4476682Y8617071D01*
X4633018Y8569346D01*
X4799789Y8581232D01*
X4875508Y8605748D01*
X4916241Y8615425D01*
X4910489Y8590222D01*
X4905565Y8566810D01*
X4934012Y8575523D01*
X4982305Y8608001D01*
X5036922Y8655889D01*
X5064371Y8685317D01*
X5103201Y8732103D01*
X5101598Y8737386D01*
X5066731Y8711417D01*
X5027731Y8687652D01*
X5021901Y8696463D01*
X5049997Y8758415D01*
X5172439Y8758415D01*
X5187927Y8742927D01*
X5203414Y8758415D01*
X5187927Y8773902D01*
X5327317Y8773902D01*
X5338650Y8748406D01*
X5347967Y8753252D01*
X5351674Y8790013D01*
X5347967Y8794553D01*
X5329552Y8790301D01*
X5327317Y8773902D01*
X5187927Y8773902D01*
X5172439Y8758415D01*
X5049997Y8758415D01*
X5064044Y8789390D01*
X5110487Y8789390D01*
X5125975Y8773902D01*
X5141463Y8789390D01*
X5125975Y8804878D01*
X5110487Y8789390D01*
X5064044Y8789390D01*
X5080360Y8825367D01*
X5096532Y8866829D01*
X5141463Y8866829D01*
X5152797Y8841333D01*
X5162113Y8846179D01*
X5165821Y8882940D01*
X5162113Y8887480D01*
X5143699Y8883228D01*
X5141463Y8866829D01*
X5096532Y8866829D01*
X5108615Y8897805D01*
X5363183Y8897805D01*
X5368051Y8853831D01*
X5378807Y8859085D01*
X5382898Y8922503D01*
X5378807Y8936524D01*
X5367501Y8940416D01*
X5363183Y8897805D01*
X5108615Y8897805D01*
X5115315Y8914983D01*
X5122231Y8944268D01*
X5296341Y8944268D01*
X5311829Y8928780D01*
X5327317Y8944268D01*
X5311829Y8959756D01*
X5296341Y8944268D01*
X5122231Y8944268D01*
X5131004Y8981415D01*
X5131665Y9040767D01*
X5125129Y9088665D01*
X5104151Y9145610D01*
X5363183Y9145610D01*
X5368051Y9101636D01*
X5378807Y9106890D01*
X5382898Y9170308D01*
X5378807Y9184329D01*
X5367501Y9188220D01*
X5363183Y9145610D01*
X5104151Y9145610D01*
X5073143Y9229784D01*
X5029267Y9285000D01*
X5327317Y9285000D01*
X5342805Y9269512D01*
X5358292Y9285000D01*
X5342805Y9300488D01*
X5327317Y9285000D01*
X5029267Y9285000D01*
X5004653Y9315975D01*
X5079512Y9315975D01*
X5095000Y9300488D01*
X5110487Y9315975D01*
X5095000Y9331463D01*
X5079512Y9315975D01*
X5004653Y9315975D01*
X4980039Y9346951D01*
X5296341Y9346951D01*
X5311829Y9331463D01*
X5327317Y9346951D01*
X5311829Y9362439D01*
X5296341Y9346951D01*
X4980039Y9346951D01*
X4976582Y9351301D01*
X4850225Y9440333D01*
X4802319Y9455130D01*
X4957638Y9455130D01*
X4965330Y9439090D01*
X4982634Y9416646D01*
X5027846Y9368489D01*
X5048028Y9368699D01*
X5048536Y9374134D01*
X5027368Y9399990D01*
X4994329Y9428341D01*
X4978528Y9439878D01*
X5234390Y9439878D01*
X5249878Y9424390D01*
X5265366Y9439878D01*
X5249878Y9455366D01*
X5234390Y9439878D01*
X4978528Y9439878D01*
X4957638Y9455130D01*
X4802319Y9455130D01*
X4708854Y9483999D01*
X4668886Y9486341D01*
X4596309Y9472421D01*
X4503278Y9437701D01*
X4475487Y9424390D01*
X4382336Y9379428D01*
X4341085Y9366419D01*
X4350535Y9385408D01*
X4398048Y9427158D01*
X4439979Y9464756D01*
X4431667Y9468433D01*
X4413536Y9460289D01*
X4293900Y9370040D01*
X4205118Y9240109D01*
X4158195Y9089503D01*
X4153887Y9011947D01*
X3924708Y9011947D01*
X3931304Y9068171D01*
X4088292Y9068171D01*
X4103780Y9052683D01*
X4119268Y9068171D01*
X4103780Y9083658D01*
X4088292Y9068171D01*
X3931304Y9068171D01*
X3934938Y9099146D01*
X3965460Y9099146D01*
X3983333Y9161097D01*
X4026341Y9161097D01*
X4041829Y9145610D01*
X4057317Y9161097D01*
X4041829Y9176585D01*
X4026341Y9161097D01*
X3983333Y9161097D01*
X3999001Y9215403D01*
X4002514Y9223049D01*
X4119268Y9223049D01*
X4134756Y9207561D01*
X4150244Y9223049D01*
X4134756Y9238536D01*
X4119268Y9223049D01*
X4002514Y9223049D01*
X4016745Y9254024D01*
X4057317Y9254024D01*
X4072805Y9238536D01*
X4088292Y9254024D01*
X4072805Y9269512D01*
X4057317Y9254024D01*
X4016745Y9254024D01*
X4030977Y9285000D01*
X4150244Y9285000D01*
X4165731Y9269512D01*
X4181219Y9285000D01*
X4165731Y9300488D01*
X4150244Y9285000D01*
X4030977Y9285000D01*
X4037635Y9299492D01*
X4048355Y9315975D01*
X4088292Y9315975D01*
X4103780Y9300488D01*
X4119268Y9315975D01*
X4103780Y9331463D01*
X4088292Y9315975D01*
X4048355Y9315975D01*
X4064732Y9341156D01*
X4181219Y9341156D01*
X4190886Y9333210D01*
X4224803Y9361054D01*
X4290349Y9430770D01*
X4291582Y9432134D01*
X4354567Y9501829D01*
X4490975Y9501829D01*
X4506463Y9486341D01*
X4521951Y9501829D01*
X4831707Y9501829D01*
X4847195Y9486341D01*
X4862683Y9501829D01*
X4847195Y9517317D01*
X4831707Y9501829D01*
X4521951Y9501829D01*
X4506463Y9517317D01*
X4490975Y9501829D01*
X4354567Y9501829D01*
X4382561Y9532805D01*
X4398048Y9532805D01*
X4413536Y9517317D01*
X4429024Y9532805D01*
X4423862Y9537967D01*
X4656179Y9537967D01*
X4660431Y9519552D01*
X4676829Y9517317D01*
X4702325Y9528650D01*
X4697479Y9537967D01*
X4660719Y9541675D01*
X4656179Y9537967D01*
X4423862Y9537967D01*
X4413536Y9548293D01*
X4398048Y9532805D01*
X4382561Y9532805D01*
X4281890Y9441827D01*
X4220871Y9384686D01*
X4185112Y9347339D01*
X4181219Y9341156D01*
X4064732Y9341156D01*
X4086179Y9374134D01*
X4119268Y9374134D01*
X4134336Y9364862D01*
X4175514Y9404653D01*
X4185170Y9416646D01*
X4211959Y9453337D01*
X4195919Y9445645D01*
X4173475Y9428341D01*
X4130575Y9390130D01*
X4119268Y9374134D01*
X4086179Y9374134D01*
X4104961Y9403013D01*
X4176576Y9492084D01*
X4181699Y9498036D01*
X4243170Y9498036D01*
X4258238Y9488765D01*
X4299416Y9528556D01*
X4309073Y9540549D01*
X4335862Y9577239D01*
X4319821Y9569547D01*
X4297378Y9552244D01*
X4254478Y9514032D01*
X4243170Y9498036D01*
X4181699Y9498036D01*
X4245170Y9571778D01*
X4270063Y9609702D01*
X4252037Y9607203D01*
X4238621Y9598931D01*
X4139170Y9509086D01*
X4051738Y9387212D01*
X3993294Y9259147D01*
X3981033Y9206791D01*
X3965460Y9099146D01*
X3934938Y9099146D01*
X3947282Y9204364D01*
X4020023Y9388659D01*
X4132342Y9542133D01*
X4270833Y9656707D01*
X4336097Y9656707D01*
X4351585Y9641219D01*
X4367073Y9656707D01*
X4986585Y9656707D01*
X5002073Y9641219D01*
X5017561Y9656707D01*
X5002073Y9672195D01*
X4986585Y9656707D01*
X4367073Y9656707D01*
X4351585Y9672195D01*
X4336097Y9656707D01*
X4270833Y9656707D01*
X4275848Y9660856D01*
X4342315Y9692845D01*
X4408374Y9692845D01*
X4412626Y9674430D01*
X4429024Y9672195D01*
X4454520Y9683529D01*
X4452359Y9687683D01*
X4924634Y9687683D01*
X4940122Y9672195D01*
X4955609Y9687683D01*
X4940122Y9703171D01*
X4924634Y9687683D01*
X4452359Y9687683D01*
X4449674Y9692845D01*
X4412914Y9696553D01*
X4408374Y9692845D01*
X4342315Y9692845D01*
X4406677Y9723821D01*
X4501300Y9723821D01*
X4505552Y9705406D01*
X4521951Y9703171D01*
X4547447Y9714504D01*
X4542601Y9723821D01*
X4505840Y9727528D01*
X4501300Y9723821D01*
X4406677Y9723821D01*
X4442150Y9740893D01*
X4622859Y9778313D01*
X4809585Y9769182D01*
G37*
G36*
X7441190Y9740331D02*
G01*
X7622096Y9657462D01*
X7776736Y9525401D01*
X7776904Y9525209D01*
X7884281Y9375636D01*
X7942496Y9218747D01*
X7959943Y9031848D01*
X7959941Y9030446D01*
X7930926Y8817425D01*
X7848960Y8627239D01*
X7720539Y8468382D01*
X7552160Y8349346D01*
X7392300Y8288301D01*
X7277911Y8261126D01*
X7195262Y8252176D01*
X7116777Y8261797D01*
X7014881Y8290333D01*
X7005885Y8293133D01*
X6936390Y8324756D01*
X7061951Y8324756D01*
X7077439Y8309268D01*
X7092927Y8324756D01*
X7077439Y8340244D01*
X7061951Y8324756D01*
X6936390Y8324756D01*
X6856973Y8360894D01*
X7443983Y8360894D01*
X7448235Y8342479D01*
X7464634Y8340244D01*
X7490130Y8351577D01*
X7485284Y8360894D01*
X7448523Y8364601D01*
X7443983Y8360894D01*
X6856973Y8360894D01*
X6807683Y8383323D01*
X6803547Y8386707D01*
X6876097Y8386707D01*
X6891585Y8371219D01*
X7536408Y8371219D01*
X7569216Y8390372D01*
X7631398Y8439668D01*
X7683379Y8485050D01*
X7787399Y8593671D01*
X7861341Y8700499D01*
X7895780Y8791154D01*
X7897080Y8811084D01*
X7886126Y8813406D01*
X7860432Y8769031D01*
X7852112Y8750671D01*
X7814890Y8679095D01*
X7788508Y8651967D01*
X7780112Y8672812D01*
X7789269Y8719695D01*
X7800937Y8767505D01*
X7790243Y8758097D01*
X7771790Y8727439D01*
X7728742Y8666237D01*
X7664225Y8586442D01*
X7638665Y8557073D01*
X7542073Y8448658D01*
X7658231Y8555406D01*
X7723077Y8609057D01*
X7765240Y8632544D01*
X7774390Y8627514D01*
X7752500Y8589565D01*
X7696183Y8528782D01*
X7644912Y8482048D01*
X7578007Y8421884D01*
X7539725Y8381634D01*
X7536408Y8371219D01*
X6891585Y8371219D01*
X6907073Y8386707D01*
X6891585Y8402195D01*
X6876097Y8386707D01*
X6803547Y8386707D01*
X6765688Y8417683D01*
X6814146Y8417683D01*
X6829634Y8402195D01*
X6845122Y8417683D01*
X7433658Y8417683D01*
X7449146Y8402195D01*
X7464634Y8417683D01*
X7449146Y8433171D01*
X7433658Y8417683D01*
X6845122Y8417683D01*
X6829634Y8433171D01*
X6814146Y8417683D01*
X6765688Y8417683D01*
X6727830Y8448658D01*
X7495609Y8448658D01*
X7511097Y8433171D01*
X7526585Y8448658D01*
X7511097Y8464146D01*
X7495609Y8448658D01*
X6727830Y8448658D01*
X6689971Y8479634D01*
X7402683Y8479634D01*
X7418170Y8464146D01*
X7433658Y8479634D01*
X7418170Y8495122D01*
X7402683Y8479634D01*
X6689971Y8479634D01*
X6652112Y8510610D01*
X6690244Y8510610D01*
X6705731Y8495122D01*
X6721219Y8510610D01*
X7154878Y8510610D01*
X7170366Y8495122D01*
X7185853Y8510610D01*
X7216829Y8510610D01*
X7232317Y8495122D01*
X7247805Y8510610D01*
X7464634Y8510610D01*
X7480122Y8495122D01*
X7495609Y8510610D01*
X7480122Y8526097D01*
X7464634Y8510610D01*
X7247805Y8510610D01*
X7232317Y8526097D01*
X7216829Y8510610D01*
X7185853Y8510610D01*
X7170366Y8526097D01*
X7154878Y8510610D01*
X6721219Y8510610D01*
X6705731Y8526097D01*
X6690244Y8510610D01*
X6652112Y8510610D01*
X6650813Y8511673D01*
X6629282Y8541585D01*
X7030975Y8541585D01*
X7046463Y8526097D01*
X7061951Y8541585D01*
X7046463Y8557073D01*
X7030975Y8541585D01*
X6629282Y8541585D01*
X6537481Y8669117D01*
X6501109Y8764620D01*
X6535481Y8764620D01*
X6548069Y8719773D01*
X6577963Y8657462D01*
X6612957Y8599267D01*
X6640842Y8566768D01*
X6647733Y8566189D01*
X6646767Y8572561D01*
X6969024Y8572561D01*
X6984512Y8557073D01*
X7000000Y8572561D01*
X6984512Y8588049D01*
X6969024Y8572561D01*
X6646767Y8572561D01*
X6642721Y8599259D01*
X6611931Y8663330D01*
X6610667Y8665488D01*
X6659268Y8665488D01*
X6674756Y8650000D01*
X6690244Y8665488D01*
X6674756Y8680975D01*
X6659268Y8665488D01*
X6610667Y8665488D01*
X6599102Y8685226D01*
X6591624Y8696463D01*
X6721219Y8696463D01*
X6736707Y8680975D01*
X6752195Y8696463D01*
X6736707Y8711951D01*
X6721219Y8696463D01*
X6591624Y8696463D01*
X6559651Y8744507D01*
X6537337Y8767515D01*
X6535481Y8764620D01*
X6501109Y8764620D01*
X6473980Y8835854D01*
X6504390Y8835854D01*
X6515723Y8810357D01*
X6525040Y8815203D01*
X6528747Y8851964D01*
X6525040Y8856504D01*
X6506625Y8852252D01*
X6504390Y8835854D01*
X6473980Y8835854D01*
X6469891Y8846590D01*
X6451637Y9021707D01*
X6478305Y9021707D01*
X6483173Y8977733D01*
X6493929Y8982988D01*
X6494429Y8990732D01*
X6690244Y8990732D01*
X6701577Y8965235D01*
X6710894Y8970081D01*
X6714601Y9006842D01*
X6710894Y9011382D01*
X6692479Y9007130D01*
X6690244Y8990732D01*
X6494429Y8990732D01*
X6498020Y9046406D01*
X6493929Y9060427D01*
X6482623Y9064318D01*
X6478305Y9021707D01*
X6451637Y9021707D01*
X6450249Y9035026D01*
X6460528Y9099146D01*
X6690244Y9099146D01*
X6705731Y9083658D01*
X6721219Y9099146D01*
X6705731Y9114634D01*
X6690244Y9099146D01*
X6460528Y9099146D01*
X6475839Y9194654D01*
X6506835Y9194654D01*
X6512530Y9154479D01*
X6523104Y9153999D01*
X6530499Y9195456D01*
X6529168Y9200272D01*
X6721335Y9200272D01*
X6734833Y9197540D01*
X6768328Y9238853D01*
X6780776Y9258388D01*
X6830824Y9329965D01*
X6875204Y9377041D01*
X6879678Y9380140D01*
X6888948Y9374179D01*
X6865563Y9330318D01*
X6848071Y9304630D01*
X6776171Y9153627D01*
X6761671Y8990905D01*
X6795876Y8853221D01*
X6826363Y8767602D01*
X6831620Y8724337D01*
X6813924Y8728891D01*
X6775553Y8786728D01*
X6771347Y8794396D01*
X6739420Y8842802D01*
X6722982Y8847331D01*
X6722459Y8843143D01*
X6741946Y8800078D01*
X6793143Y8732823D01*
X6833823Y8688265D01*
X6888418Y8634427D01*
X6913239Y8614770D01*
X6907470Y8626768D01*
X6882462Y8665646D01*
X6888322Y8676882D01*
X6933175Y8659893D01*
X7015487Y8619024D01*
X7174992Y8566704D01*
X7325147Y8574408D01*
X7461314Y8640393D01*
X7578855Y8762910D01*
X7632664Y8851410D01*
X7664072Y8900453D01*
X7680474Y8904223D01*
X7681156Y8897805D01*
X7656780Y8813673D01*
X7593610Y8719015D01*
X7506940Y8633517D01*
X7442718Y8590833D01*
X7379421Y8553575D01*
X7354569Y8530710D01*
X7359382Y8527466D01*
X7405058Y8542712D01*
X7476235Y8582307D01*
X7489628Y8591032D01*
X7588284Y8591032D01*
X7608211Y8606546D01*
X7642744Y8640367D01*
X7703027Y8709337D01*
X7738454Y8765566D01*
X7742472Y8781191D01*
X7730156Y8789505D01*
X7707351Y8758415D01*
X7662535Y8689489D01*
X7607622Y8617590D01*
X7588284Y8591032D01*
X7489628Y8591032D01*
X7497098Y8595898D01*
X7582663Y8669622D01*
X7653502Y8756556D01*
X7658953Y8765484D01*
X7686639Y8820366D01*
X7805366Y8820366D01*
X7820853Y8804878D01*
X7836341Y8820366D01*
X7820853Y8835854D01*
X7805366Y8820366D01*
X7686639Y8820366D01*
X7690964Y8828939D01*
X7695143Y8851341D01*
X7743414Y8851341D01*
X7758902Y8835854D01*
X7774390Y8851341D01*
X7758902Y8866829D01*
X7743414Y8851341D01*
X7695143Y8851341D01*
X7701950Y8887829D01*
X7695876Y8944268D01*
X7904331Y8944268D01*
X7907679Y8891367D01*
X7917376Y8886710D01*
X7918610Y8889471D01*
X7924738Y8950964D01*
X7919758Y8982398D01*
X7909898Y8995030D01*
X7904535Y8953887D01*
X7904331Y8944268D01*
X7695876Y8944268D01*
X7693523Y8966128D01*
X7685147Y9006219D01*
X7712439Y9006219D01*
X7727927Y8990732D01*
X7743414Y9006219D01*
X7727927Y9021707D01*
X7712439Y9006219D01*
X7685147Y9006219D01*
X7677567Y9042503D01*
X7668312Y9068171D01*
X7898292Y9068171D01*
X7913780Y9052683D01*
X7929268Y9068171D01*
X7913780Y9083658D01*
X7898292Y9068171D01*
X7668312Y9068171D01*
X7640390Y9145610D01*
X7898292Y9145610D01*
X7909626Y9120113D01*
X7918943Y9124959D01*
X7922650Y9161720D01*
X7918943Y9166260D01*
X7900528Y9162008D01*
X7898292Y9145610D01*
X7640390Y9145610D01*
X7613220Y9220962D01*
X7588675Y9254024D01*
X7867317Y9254024D01*
X7882805Y9238536D01*
X7898292Y9254024D01*
X7882805Y9269512D01*
X7867317Y9254024D01*
X7588675Y9254024D01*
X7511997Y9357307D01*
X7410852Y9424155D01*
X7528614Y9424155D01*
X7536306Y9408114D01*
X7553610Y9385671D01*
X7598822Y9337513D01*
X7619003Y9337723D01*
X7619512Y9343158D01*
X7598344Y9369015D01*
X7565305Y9397366D01*
X7528614Y9424155D01*
X7410852Y9424155D01*
X7379106Y9445136D01*
X7337859Y9459886D01*
X7280255Y9470854D01*
X7433658Y9470854D01*
X7449146Y9455366D01*
X7464634Y9470854D01*
X7458026Y9477462D01*
X7748407Y9477462D01*
X7755944Y9460152D01*
X7787133Y9426898D01*
X7805064Y9433720D01*
X7805366Y9438050D01*
X7783364Y9464250D01*
X7769604Y9473811D01*
X7748407Y9477462D01*
X7458026Y9477462D01*
X7449146Y9486341D01*
X7433658Y9470854D01*
X7280255Y9470854D01*
X7244468Y9477668D01*
X7147193Y9470549D01*
X7026858Y9435770D01*
X6941481Y9402871D01*
X6913296Y9402662D01*
X6921005Y9428116D01*
X6915103Y9432513D01*
X6876222Y9399045D01*
X6832390Y9355150D01*
X6768869Y9281940D01*
X6728684Y9221973D01*
X6721335Y9200272D01*
X6529168Y9200272D01*
X6525550Y9213369D01*
X6511796Y9225102D01*
X6506835Y9194654D01*
X6475839Y9194654D01*
X6480761Y9225360D01*
X6515664Y9302504D01*
X6542960Y9302504D01*
X6547197Y9300488D01*
X6575465Y9322294D01*
X6581829Y9331463D01*
X6582379Y9333480D01*
X6728814Y9333480D01*
X6733051Y9331463D01*
X6761319Y9353270D01*
X6767683Y9362439D01*
X6775576Y9391398D01*
X6771339Y9393415D01*
X6743071Y9371608D01*
X6736707Y9362439D01*
X6728814Y9333480D01*
X6582379Y9333480D01*
X6589722Y9360422D01*
X6585485Y9362439D01*
X6557217Y9340633D01*
X6550853Y9331463D01*
X6542960Y9302504D01*
X6515664Y9302504D01*
X6557707Y9395431D01*
X6604911Y9395431D01*
X6609148Y9393415D01*
X6637416Y9415221D01*
X6643780Y9424390D01*
X6651673Y9453349D01*
X6647436Y9455366D01*
X6619168Y9433560D01*
X6612805Y9424390D01*
X6604911Y9395431D01*
X6557707Y9395431D01*
X6563632Y9408526D01*
X6614459Y9470854D01*
X6969024Y9470854D01*
X6984512Y9455366D01*
X7000000Y9470854D01*
X6984512Y9486341D01*
X6969024Y9470854D01*
X6614459Y9470854D01*
X6636625Y9498036D01*
X6659268Y9498036D01*
X6674336Y9488765D01*
X6687855Y9501829D01*
X6876097Y9501829D01*
X6891585Y9486341D01*
X6907073Y9501829D01*
X6901910Y9506992D01*
X7041300Y9506992D01*
X7045552Y9488577D01*
X7061951Y9486341D01*
X7087447Y9497675D01*
X7082601Y9506992D01*
X7351057Y9506992D01*
X7355309Y9488577D01*
X7371707Y9486341D01*
X7397203Y9497675D01*
X7392357Y9506992D01*
X7355597Y9510699D01*
X7351057Y9506992D01*
X7082601Y9506992D01*
X7045840Y9510699D01*
X7041300Y9506992D01*
X6901910Y9506992D01*
X6891585Y9517317D01*
X6876097Y9501829D01*
X6687855Y9501829D01*
X6715514Y9528556D01*
X6715809Y9528923D01*
X7181555Y9528923D01*
X7222698Y9523560D01*
X7232317Y9523356D01*
X7285218Y9526704D01*
X7289875Y9536401D01*
X7287114Y9537635D01*
X7225621Y9543763D01*
X7194187Y9538783D01*
X7181555Y9528923D01*
X6715809Y9528923D01*
X6725170Y9540549D01*
X6751959Y9577239D01*
X6735919Y9569547D01*
X6713475Y9552244D01*
X6670575Y9514032D01*
X6659268Y9498036D01*
X6636625Y9498036D01*
X6695273Y9569954D01*
X6711077Y9581285D01*
X6790765Y9581285D01*
X6795002Y9579268D01*
X6821773Y9599919D01*
X7165203Y9599919D01*
X7169455Y9581504D01*
X7185853Y9579268D01*
X7211350Y9590602D01*
X7206504Y9599919D01*
X7192165Y9601365D01*
X7624505Y9601365D01*
X7632042Y9584054D01*
X7663231Y9550800D01*
X7681162Y9557622D01*
X7681463Y9561952D01*
X7659462Y9588152D01*
X7645701Y9597714D01*
X7624505Y9601365D01*
X7192165Y9601365D01*
X7169743Y9603626D01*
X7165203Y9599919D01*
X6821773Y9599919D01*
X6823270Y9601074D01*
X6829634Y9610244D01*
X6837527Y9639203D01*
X6833290Y9641219D01*
X6805022Y9619413D01*
X6798658Y9610244D01*
X6790765Y9581285D01*
X6711077Y9581285D01*
X6816269Y9656707D01*
X6876097Y9656707D01*
X6891585Y9641219D01*
X6898991Y9648625D01*
X7075386Y9648625D01*
X7105833Y9643665D01*
X7146009Y9649360D01*
X7146488Y9659934D01*
X7105031Y9667328D01*
X7087119Y9662379D01*
X7075386Y9648625D01*
X6898991Y9648625D01*
X6907073Y9656707D01*
X6891585Y9672195D01*
X6876097Y9656707D01*
X6816269Y9656707D01*
X6859472Y9687683D01*
X6938048Y9687683D01*
X6953536Y9672195D01*
X6969024Y9687683D01*
X6953536Y9703171D01*
X6938048Y9687683D01*
X6859472Y9687683D01*
X6861059Y9688821D01*
X6921352Y9710576D01*
X7044410Y9710576D01*
X7074857Y9705616D01*
X7115033Y9711311D01*
X7115367Y9718658D01*
X7309756Y9718658D01*
X7325244Y9703171D01*
X7340731Y9718658D01*
X7371707Y9718658D01*
X7387195Y9703171D01*
X7402683Y9718658D01*
X7387195Y9734146D01*
X7371707Y9718658D01*
X7340731Y9718658D01*
X7325244Y9734146D01*
X7309756Y9718658D01*
X7115367Y9718658D01*
X7115513Y9721885D01*
X7074055Y9729279D01*
X7056143Y9724330D01*
X7044410Y9710576D01*
X6921352Y9710576D01*
X7048652Y9756509D01*
X7246036Y9773513D01*
X7441190Y9740331D01*
G37*
%TD*%
M02*
