%TF.GenerationSoftware,KiCad,Pcbnew,8.0.2*%
%TF.CreationDate,2024-07-24T20:27:57+03:00*%
%TF.ProjectId,DRV8234 DC Motor Driver Expander,44525638-3233-4342-9044-43204d6f746f,rev?*%
%TF.SameCoordinates,PX5f5e100PY5f5e100*%
%TF.FileFunction,Copper,L4,Bot*%
%TF.FilePolarity,Positive*%
%FSLAX46Y46*%
G04 Gerber Fmt 4.6, Leading zero omitted, Abs format (unit mm)*
G04 Created by KiCad (PCBNEW 8.0.2) date 2024-07-24 20:27:57*
%MOMM*%
%LPD*%
G01*
G04 APERTURE LIST*
%TA.AperFunction,ComponentPad*%
%ADD10C,1.600200*%
%TD*%
%TA.AperFunction,ComponentPad*%
%ADD11C,1.650000*%
%TD*%
%TA.AperFunction,ComponentPad*%
%ADD12C,0.800000*%
%TD*%
%TA.AperFunction,ComponentPad*%
%ADD13C,6.400000*%
%TD*%
%TA.AperFunction,ViaPad*%
%ADD14C,0.550000*%
%TD*%
%TA.AperFunction,Conductor*%
%ADD15C,0.500000*%
%TD*%
%TA.AperFunction,Conductor*%
%ADD16C,0.250000*%
%TD*%
G04 APERTURE END LIST*
D10*
%TO.P,J5,1,1*%
%TO.N,OUT1*%
X45099997Y8200000D03*
%TO.P,J5,2,2*%
X45099997Y3200000D03*
%TO.P,J5,3,3*%
%TO.N,OUT2*%
X48600000Y8200000D03*
%TO.P,J5,4,4*%
X48600000Y3200000D03*
%TD*%
%TO.P,J1,1,1*%
%TO.N,GND*%
X20249998Y8200000D03*
%TO.P,J1,2,2*%
X20249998Y3200000D03*
%TO.P,J1,3,3*%
%TO.N,VM*%
X23750001Y8200000D03*
%TO.P,J1,4,4*%
X23750001Y3200000D03*
%TD*%
D11*
%TO.P,J4,1,1*%
%TO.N,A1*%
X58900000Y26800000D03*
%TO.P,J4,2,2*%
X58900000Y31800000D03*
%TO.P,J4,3,3*%
%TO.N,A0*%
X55400000Y26800000D03*
%TO.P,J4,4,4*%
X55400000Y31800000D03*
%TO.P,J4,5,5*%
%TO.N,SDA*%
X51900000Y26800000D03*
%TO.P,J4,6,6*%
X51900000Y31800000D03*
%TO.P,J4,7,7*%
%TO.N,SCL*%
X48400000Y26800000D03*
%TO.P,J4,8,8*%
X48400000Y31800000D03*
%TD*%
D10*
%TO.P,J3,1,1*%
%TO.N,IPROPI*%
X42586001Y26808900D03*
%TO.P,J3,2,2*%
X42586001Y31808900D03*
%TO.P,J3,3,3*%
%TO.N,RC_OUT*%
X39086001Y26808900D03*
%TO.P,J3,4,4*%
X39086001Y31808900D03*
%TO.P,J3,5,5*%
%TO.N,NFAULT*%
X35586000Y26808900D03*
%TO.P,J3,6,6*%
X35586000Y31808900D03*
%TD*%
%TO.P,J2,1,1*%
%TO.N,NSLEEP*%
X29800000Y26807799D03*
%TO.P,J2,2,2*%
X29800000Y31807799D03*
%TO.P,J2,3,3*%
%TO.N,IN1*%
X26300000Y26807799D03*
%TO.P,J2,4,4*%
X26300000Y31807799D03*
%TO.P,J2,5,5*%
%TO.N,IN2*%
X22799999Y26807799D03*
%TO.P,J2,6,6*%
X22799999Y31807799D03*
%TD*%
%TO.P,J6,1,1*%
%TO.N,VCC_MCU*%
X17000000Y26800000D03*
%TO.P,J6,2,2*%
X17000000Y31800000D03*
%TO.P,J6,3,3*%
%TO.N,GND*%
X13500000Y26800000D03*
%TO.P,J6,4,4*%
X13500000Y31800000D03*
%TO.P,J6,5,5*%
%TO.N,+3V3*%
X9999999Y26800000D03*
%TO.P,J6,6,6*%
X9999999Y31800000D03*
%TD*%
D12*
%TO.P,H2,1*%
%TO.N,N/C*%
X63000000Y31500000D03*
X63702944Y33197056D03*
X63702944Y29802944D03*
X65400000Y33900000D03*
D13*
X65400000Y31500000D03*
D12*
X65400000Y29100000D03*
X67097056Y33197056D03*
X67097056Y29802944D03*
X67800000Y31500000D03*
%TD*%
%TO.P,H3,1*%
%TO.N,N/C*%
X1100000Y3500000D03*
X1802944Y5197056D03*
X1802944Y1802944D03*
X3500000Y5900000D03*
D13*
X3500000Y3500000D03*
D12*
X3500000Y1100000D03*
X5197056Y5197056D03*
X5197056Y1802944D03*
X5900000Y3500000D03*
%TD*%
%TO.P,H1,1*%
%TO.N,N/C*%
X5900000Y31500000D03*
X5197056Y29802944D03*
X5197056Y33197056D03*
X3500000Y29100000D03*
D13*
X3500000Y31500000D03*
D12*
X3500000Y33900000D03*
X1802944Y29802944D03*
X1802944Y33197056D03*
X1100000Y31500000D03*
%TD*%
%TO.P,H4,1*%
%TO.N,N/C*%
X67800000Y3500000D03*
X67097056Y1802944D03*
X67097056Y5197056D03*
X65400000Y1100000D03*
D13*
X65400000Y3500000D03*
D12*
X65400000Y5900000D03*
X63702944Y1802944D03*
X63702944Y5197056D03*
X63000000Y3500000D03*
%TD*%
D14*
%TO.N,VCC_MCU*%
X32000000Y20000000D03*
X60000000Y19600000D03*
X51200000Y17100000D03*
X47400000Y18800000D03*
X57200000Y22300000D03*
X50000000Y23000000D03*
X32100000Y17400000D03*
X53800000Y24500000D03*
X37400000Y25300000D03*
X40900000Y25300000D03*
X33500000Y31100000D03*
X19900000Y25000000D03*
X19900000Y32300000D03*
X17000000Y29300000D03*
X2100000Y26600000D03*
X13000000Y8900000D03*
X17900000Y5400000D03*
X21961802Y14305583D03*
X27400000Y2300000D03*
X55400000Y4700000D03*
X60200000Y9300000D03*
X64500000Y26500000D03*
X64226699Y22114594D03*
X65400000Y15700000D03*
X57000000Y15000000D03*
X53800000Y16100000D03*
%TO.N,GND*%
X67500000Y8000000D03*
X57000000Y8000000D03*
X62400000Y13400000D03*
X54700000Y12600000D03*
X59500000Y15800000D03*
X59500000Y3500000D03*
X56500000Y2700000D03*
X52100000Y1700000D03*
X4500000Y26600000D03*
X5900000Y23200000D03*
X1300000Y9800000D03*
X1500000Y14300000D03*
X1200000Y18200000D03*
X1800000Y23800000D03*
X14372395Y19244029D03*
X12900000Y17600000D03*
X14400000Y15300000D03*
X16500000Y13200000D03*
X13200000Y12000000D03*
X15900000Y10300000D03*
X8800000Y6100000D03*
X12100000Y5100000D03*
X14600000Y6400000D03*
X14400000Y2500000D03*
X9400000Y2500000D03*
X35100000Y17400000D03*
X42100000Y5500000D03*
X41400000Y1400000D03*
X38100000Y1700000D03*
X33200000Y2000000D03*
X29800000Y3200000D03*
X27900000Y6300000D03*
X27400000Y9700000D03*
X12400000Y21300000D03*
X11100000Y23200000D03*
X7900000Y28900000D03*
X8300000Y33500000D03*
X11500000Y33500000D03*
X15300000Y33500000D03*
X37300000Y33400000D03*
X40500000Y33500000D03*
X45400000Y22000000D03*
X45800000Y26200000D03*
X57200000Y29200000D03*
X49700000Y29500000D03*
X46200000Y29600000D03*
X46600000Y33400000D03*
X50100000Y33500000D03*
X53800000Y33500000D03*
X56900000Y33600000D03*
X61200000Y29900000D03*
X61900000Y26100000D03*
X65700000Y25000000D03*
X66000000Y19100000D03*
X61400000Y22300000D03*
X63200000Y8600000D03*
X63100000Y17600000D03*
X65500000Y11000000D03*
X59900000Y5800000D03*
X58100000Y12100000D03*
X53400000Y5400000D03*
X53200000Y9100000D03*
X49762796Y11610135D03*
X49700000Y15600000D03*
X46500000Y17700000D03*
X40900000Y22900000D03*
X37400000Y23100000D03*
X33500000Y26000000D03*
X32100000Y29500000D03*
X32000000Y33300000D03*
X21300000Y33600000D03*
X19500000Y29100000D03*
X19900000Y23000000D03*
X23600000Y23100000D03*
X25700000Y22100000D03*
X28400000Y19700000D03*
%TO.N,+3V3*%
X36600000Y14500000D03*
X36600000Y13400000D03*
%TO.N,GND*%
X43700000Y19600000D03*
X40300000Y13500000D03*
X39500000Y14600000D03*
X20000000Y15500000D03*
X17600000Y15500000D03*
X16800000Y15500000D03*
X19200000Y15500000D03*
X18400000Y15500000D03*
X16800000Y18500000D03*
X17600000Y18500000D03*
X20000000Y18500000D03*
X19200000Y18500000D03*
X18400000Y18500000D03*
X34000000Y11500000D03*
X35000000Y12500000D03*
X29500000Y14600000D03*
X29500000Y12400000D03*
X28600000Y13100000D03*
X28600000Y13900000D03*
X32118916Y11602801D03*
%TO.N,NSLEEP*%
X35200000Y9300000D03*
%TO.N,IN2*%
X36200000Y10000000D03*
%TO.N,IN1*%
X37200000Y10900000D03*
%TD*%
D15*
%TO.N,+3V3*%
X9999999Y31800000D02*
X9999999Y26800000D01*
X24000000Y21000000D02*
X15799999Y21000000D01*
X29000000Y16000000D02*
X24000000Y21000000D01*
X35100000Y16000000D02*
X29000000Y16000000D01*
X15799999Y21000000D02*
X9999999Y26800000D01*
X36600000Y14500000D02*
X35100000Y16000000D01*
X36600000Y13400000D02*
X36600000Y14500000D01*
D16*
%TO.N,IN1*%
X26300000Y24300000D02*
X26300000Y26807799D01*
X31900000Y18700000D02*
X26300000Y24300000D01*
X38800000Y18700000D02*
X31900000Y18700000D01*
X42500000Y15000000D02*
X38800000Y18700000D01*
X42500000Y13200000D02*
X42500000Y15000000D01*
X39800000Y10500000D02*
X42500000Y13200000D01*
X37600000Y10500000D02*
X39800000Y10500000D01*
X37200000Y10900000D02*
X37600000Y10500000D01*
%TO.N,IN2*%
X22799999Y32899999D02*
X22799999Y31807799D01*
X22800000Y32900000D02*
X22799999Y32899999D01*
X22800000Y33100000D02*
X22800000Y32900000D01*
X23500000Y33800000D02*
X22800000Y33100000D01*
X27200000Y33800000D02*
X23500000Y33800000D01*
X33100000Y20500000D02*
X28000000Y25600000D01*
X39100000Y20500000D02*
X33100000Y20500000D01*
X44000000Y15600000D02*
X39100000Y20500000D01*
X44000000Y12700000D02*
X44000000Y15600000D01*
X40500000Y9200000D02*
X44000000Y12700000D01*
X37000000Y9200000D02*
X40500000Y9200000D01*
X36200000Y10000000D02*
X37000000Y9200000D01*
X28000000Y25600000D02*
X28000000Y33000000D01*
X28000000Y33000000D02*
X27200000Y33800000D01*
%TO.N,NSLEEP*%
X45700000Y12500000D02*
X41200000Y8000000D01*
X41200000Y8000000D02*
X36500000Y8000000D01*
X39600000Y22000000D02*
X45700000Y15900000D01*
X34607800Y22000000D02*
X39600000Y22000000D01*
X45700000Y15900000D02*
X45700000Y12500000D01*
X33203900Y23403900D02*
X34607800Y22000000D01*
X29800000Y26807799D02*
X33203900Y23403900D01*
X36500000Y8000000D02*
X35200000Y9300000D01*
%TD*%
%TA.AperFunction,Conductor*%
%TO.N,VCC_MCU*%
G36*
X64029078Y34685148D02*
G01*
X64043430Y34650500D01*
X64029078Y34615852D01*
X64015005Y34606029D01*
X63804838Y34508796D01*
X63488882Y34318692D01*
X63195330Y34095538D01*
X63195322Y34095532D01*
X62927629Y33841959D01*
X62927619Y33841949D01*
X62688906Y33560913D01*
X62481982Y33255725D01*
X62481978Y33255717D01*
X62309257Y32929932D01*
X62309255Y32929927D01*
X62172773Y32587381D01*
X62172770Y32587372D01*
X62074122Y32232074D01*
X62014471Y31868214D01*
X62014468Y31868192D01*
X61994506Y31500002D01*
X61994506Y31499999D01*
X62014468Y31131809D01*
X62014471Y31131787D01*
X62074122Y30767927D01*
X62172770Y30412629D01*
X62172773Y30412620D01*
X62309255Y30070074D01*
X62309257Y30070069D01*
X62481978Y29744284D01*
X62481982Y29744276D01*
X62688906Y29439088D01*
X62927619Y29158052D01*
X62927629Y29158042D01*
X63195322Y28904469D01*
X63195326Y28904465D01*
X63488882Y28681309D01*
X63557070Y28640282D01*
X63804838Y28491205D01*
X63929845Y28433371D01*
X64139491Y28336377D01*
X64139497Y28336375D01*
X64488934Y28218636D01*
X64677087Y28177221D01*
X64849042Y28139370D01*
X64849043Y28139370D01*
X64849052Y28139368D01*
X65215630Y28099500D01*
X65215635Y28099500D01*
X65584365Y28099500D01*
X65584370Y28099500D01*
X65950948Y28139368D01*
X66311066Y28218636D01*
X66660503Y28336375D01*
X66660505Y28336377D01*
X66660508Y28336377D01*
X66745147Y28375536D01*
X66995162Y28491205D01*
X67311119Y28681310D01*
X67604670Y28904462D01*
X67872373Y29158044D01*
X67876602Y29163022D01*
X67938029Y29235340D01*
X68111090Y29439083D01*
X68311958Y29735340D01*
X68318017Y29744276D01*
X68318018Y29744279D01*
X68318022Y29744284D01*
X68490743Y30070070D01*
X68504980Y30105802D01*
X68531137Y30132677D01*
X68568637Y30133185D01*
X68595512Y30107028D01*
X68599500Y30087665D01*
X68599500Y4912336D01*
X68585148Y4877688D01*
X68550500Y4863336D01*
X68515852Y4877688D01*
X68504980Y4894199D01*
X68490744Y4929927D01*
X68490742Y4929932D01*
X68440605Y5024500D01*
X68318022Y5255716D01*
X68318020Y5255719D01*
X68318017Y5255725D01*
X68111093Y5560913D01*
X67872380Y5841949D01*
X67872370Y5841959D01*
X67604677Y6095532D01*
X67604673Y6095536D01*
X67311117Y6318692D01*
X66995160Y6508796D01*
X66660508Y6663624D01*
X66311064Y6781365D01*
X65950957Y6860631D01*
X65950948Y6860632D01*
X65584370Y6900500D01*
X65215630Y6900500D01*
X64910471Y6867312D01*
X64849042Y6860631D01*
X64488936Y6781365D01*
X64488933Y6781365D01*
X64139491Y6663624D01*
X63804839Y6508796D01*
X63488882Y6318692D01*
X63195326Y6095536D01*
X63195322Y6095532D01*
X62927629Y5841959D01*
X62927619Y5841949D01*
X62688906Y5560913D01*
X62481982Y5255725D01*
X62481978Y5255717D01*
X62309257Y4929932D01*
X62309255Y4929927D01*
X62172773Y4587381D01*
X62172770Y4587372D01*
X62074122Y4232074D01*
X62014471Y3868214D01*
X62014468Y3868192D01*
X61994506Y3500002D01*
X61994506Y3499999D01*
X62014468Y3131809D01*
X62014471Y3131787D01*
X62074122Y2767927D01*
X62172770Y2412629D01*
X62172773Y2412620D01*
X62309255Y2070074D01*
X62309257Y2070069D01*
X62481978Y1744284D01*
X62481982Y1744276D01*
X62688906Y1439088D01*
X62927619Y1158052D01*
X62927629Y1158042D01*
X63195322Y904469D01*
X63195326Y904465D01*
X63488882Y681309D01*
X63804838Y491205D01*
X64015005Y393971D01*
X64040424Y366397D01*
X64038901Y328925D01*
X64011327Y303506D01*
X63994430Y300500D01*
X4905570Y300500D01*
X4870922Y314852D01*
X4856570Y349500D01*
X4870922Y384148D01*
X4884995Y393971D01*
X4954554Y426153D01*
X5095162Y491205D01*
X5411119Y681310D01*
X5704670Y904462D01*
X5972373Y1158044D01*
X6211090Y1439083D01*
X6360685Y1659718D01*
X6418017Y1744276D01*
X6418018Y1744279D01*
X6418022Y1744284D01*
X6553596Y2000003D01*
X32719610Y2000003D01*
X32719610Y1999998D01*
X32739067Y1864661D01*
X32795870Y1740282D01*
X32830771Y1700003D01*
X32885411Y1636945D01*
X33000439Y1563022D01*
X33073438Y1541588D01*
X33131628Y1524501D01*
X33131631Y1524501D01*
X33131633Y1524500D01*
X33131634Y1524500D01*
X33268366Y1524500D01*
X33268367Y1524500D01*
X33268369Y1524501D01*
X33268371Y1524501D01*
X33290062Y1530871D01*
X33399561Y1563022D01*
X33514589Y1636945D01*
X33569228Y1700003D01*
X37619610Y1700003D01*
X37619610Y1699998D01*
X37639067Y1564661D01*
X37695870Y1440282D01*
X37730771Y1400003D01*
X37785411Y1336945D01*
X37900439Y1263022D01*
X37973438Y1241588D01*
X38031628Y1224501D01*
X38031631Y1224501D01*
X38031633Y1224500D01*
X38031634Y1224500D01*
X38168366Y1224500D01*
X38168367Y1224500D01*
X38168369Y1224501D01*
X38168371Y1224501D01*
X38190062Y1230871D01*
X38299561Y1263022D01*
X38414589Y1336945D01*
X38469228Y1400003D01*
X40919610Y1400003D01*
X40919610Y1399998D01*
X40939067Y1264661D01*
X40987755Y1158052D01*
X40995870Y1140282D01*
X41085411Y1036945D01*
X41200439Y963022D01*
X41273438Y941588D01*
X41331628Y924501D01*
X41331631Y924501D01*
X41331633Y924500D01*
X41331634Y924500D01*
X41468366Y924500D01*
X41468367Y924500D01*
X41468369Y924501D01*
X41468371Y924501D01*
X41490062Y930871D01*
X41599561Y963022D01*
X41714589Y1036945D01*
X41804130Y1140282D01*
X41860931Y1264658D01*
X41860931Y1264660D01*
X41860932Y1264661D01*
X41880390Y1399998D01*
X41880390Y1400003D01*
X41860932Y1535340D01*
X41814529Y1636947D01*
X41804130Y1659718D01*
X41769223Y1700003D01*
X51619610Y1700003D01*
X51619610Y1699998D01*
X51639067Y1564661D01*
X51695870Y1440282D01*
X51730771Y1400003D01*
X51785411Y1336945D01*
X51900439Y1263022D01*
X51973438Y1241588D01*
X52031628Y1224501D01*
X52031631Y1224501D01*
X52031633Y1224500D01*
X52031634Y1224500D01*
X52168366Y1224500D01*
X52168367Y1224500D01*
X52168369Y1224501D01*
X52168371Y1224501D01*
X52190062Y1230871D01*
X52299561Y1263022D01*
X52414589Y1336945D01*
X52504130Y1440282D01*
X52560931Y1564658D01*
X52560931Y1564660D01*
X52560932Y1564661D01*
X52580390Y1699998D01*
X52580390Y1700003D01*
X52560932Y1835340D01*
X52542591Y1875500D01*
X52504130Y1959718D01*
X52414589Y2063055D01*
X52299561Y2136978D01*
X52299558Y2136979D01*
X52168371Y2175500D01*
X52168367Y2175500D01*
X52031633Y2175500D01*
X52031628Y2175500D01*
X51900441Y2136979D01*
X51900439Y2136979D01*
X51900439Y2136978D01*
X51877620Y2122313D01*
X51785409Y2063054D01*
X51695870Y1959719D01*
X51639067Y1835340D01*
X51619610Y1700003D01*
X41769223Y1700003D01*
X41714589Y1763055D01*
X41599561Y1836978D01*
X41599558Y1836979D01*
X41468371Y1875500D01*
X41468367Y1875500D01*
X41331633Y1875500D01*
X41331628Y1875500D01*
X41200441Y1836979D01*
X41200439Y1836979D01*
X41200439Y1836978D01*
X41142925Y1800017D01*
X41085409Y1763054D01*
X40995870Y1659719D01*
X40939067Y1535340D01*
X40919610Y1400003D01*
X38469228Y1400003D01*
X38504130Y1440282D01*
X38560931Y1564658D01*
X38560931Y1564660D01*
X38560932Y1564661D01*
X38580390Y1699998D01*
X38580390Y1700003D01*
X38560932Y1835340D01*
X38542591Y1875500D01*
X38504130Y1959718D01*
X38414589Y2063055D01*
X38299561Y2136978D01*
X38299558Y2136979D01*
X38168371Y2175500D01*
X38168367Y2175500D01*
X38031633Y2175500D01*
X38031628Y2175500D01*
X37900441Y2136979D01*
X37900439Y2136979D01*
X37900439Y2136978D01*
X37877620Y2122313D01*
X37785409Y2063054D01*
X37695870Y1959719D01*
X37639067Y1835340D01*
X37619610Y1700003D01*
X33569228Y1700003D01*
X33604130Y1740282D01*
X33660931Y1864658D01*
X33660931Y1864660D01*
X33660932Y1864661D01*
X33680390Y1999998D01*
X33680390Y2000003D01*
X33660932Y2135340D01*
X33633887Y2194559D01*
X33604130Y2259718D01*
X33537213Y2336945D01*
X33514590Y2363054D01*
X33514589Y2363055D01*
X33399561Y2436978D01*
X33388309Y2440282D01*
X33268371Y2475500D01*
X33268367Y2475500D01*
X33131633Y2475500D01*
X33131628Y2475500D01*
X33000441Y2436979D01*
X32885409Y2363054D01*
X32795870Y2259719D01*
X32739067Y2135340D01*
X32719610Y2000003D01*
X6553596Y2000003D01*
X6590743Y2070070D01*
X6727227Y2412621D01*
X6751488Y2500003D01*
X8919610Y2500003D01*
X8919610Y2499998D01*
X8939067Y2364661D01*
X8995870Y2240282D01*
X9085381Y2136979D01*
X9085411Y2136945D01*
X9200439Y2063022D01*
X9273438Y2041588D01*
X9331628Y2024501D01*
X9331631Y2024501D01*
X9331633Y2024500D01*
X9331634Y2024500D01*
X9468366Y2024500D01*
X9468367Y2024500D01*
X9468369Y2024501D01*
X9468371Y2024501D01*
X9490062Y2030871D01*
X9599561Y2063022D01*
X9714589Y2136945D01*
X9804130Y2240282D01*
X9860931Y2364658D01*
X9860931Y2364660D01*
X9860932Y2364661D01*
X9880390Y2499998D01*
X9880390Y2500003D01*
X13919610Y2500003D01*
X13919610Y2499998D01*
X13939067Y2364661D01*
X13995870Y2240282D01*
X14085381Y2136979D01*
X14085411Y2136945D01*
X14200439Y2063022D01*
X14273438Y2041588D01*
X14331628Y2024501D01*
X14331631Y2024501D01*
X14331633Y2024500D01*
X14331634Y2024500D01*
X14468366Y2024500D01*
X14468367Y2024500D01*
X14468369Y2024501D01*
X14468371Y2024501D01*
X14490062Y2030871D01*
X14599561Y2063022D01*
X14714589Y2136945D01*
X14804130Y2240282D01*
X14860931Y2364658D01*
X14860931Y2364660D01*
X14860932Y2364661D01*
X14880390Y2499998D01*
X14880390Y2500003D01*
X14860932Y2635340D01*
X14831401Y2700003D01*
X14804130Y2759718D01*
X14737213Y2836945D01*
X14714590Y2863054D01*
X14714589Y2863055D01*
X14599561Y2936978D01*
X14588309Y2940282D01*
X14468371Y2975500D01*
X14468367Y2975500D01*
X14331633Y2975500D01*
X14331628Y2975500D01*
X14200441Y2936979D01*
X14085409Y2863054D01*
X13995870Y2759719D01*
X13939067Y2635340D01*
X13919610Y2500003D01*
X9880390Y2500003D01*
X9860932Y2635340D01*
X9831401Y2700003D01*
X9804130Y2759718D01*
X9737213Y2836945D01*
X9714590Y2863054D01*
X9714589Y2863055D01*
X9599561Y2936978D01*
X9588309Y2940282D01*
X9468371Y2975500D01*
X9468367Y2975500D01*
X9331633Y2975500D01*
X9331628Y2975500D01*
X9200441Y2936979D01*
X9085409Y2863054D01*
X8995870Y2759719D01*
X8939067Y2635340D01*
X8919610Y2500003D01*
X6751488Y2500003D01*
X6825875Y2767919D01*
X6825875Y2767921D01*
X6825877Y2767927D01*
X6857319Y2959719D01*
X6885531Y3131801D01*
X6889229Y3200001D01*
X19244557Y3200001D01*
X19244557Y3200000D01*
X19263876Y3003848D01*
X19263876Y3003847D01*
X19321092Y2815233D01*
X19414003Y2641408D01*
X19414008Y2641401D01*
X19476988Y2564661D01*
X19539044Y2489046D01*
X19598463Y2440282D01*
X19691398Y2364011D01*
X19691405Y2364006D01*
X19865232Y2271094D01*
X20053846Y2213878D01*
X20249998Y2194559D01*
X20446150Y2213878D01*
X20634764Y2271094D01*
X20808591Y2364006D01*
X20960952Y2489046D01*
X21085992Y2641407D01*
X21178904Y2815234D01*
X21236120Y3003848D01*
X21255439Y3200000D01*
X21255439Y3200001D01*
X22744560Y3200001D01*
X22744560Y3200000D01*
X22763879Y3003848D01*
X22763879Y3003847D01*
X22821095Y2815233D01*
X22914006Y2641408D01*
X22914011Y2641401D01*
X22976991Y2564661D01*
X23039047Y2489046D01*
X23098466Y2440282D01*
X23191401Y2364011D01*
X23191408Y2364006D01*
X23365235Y2271094D01*
X23553849Y2213878D01*
X23750001Y2194559D01*
X23946153Y2213878D01*
X24134767Y2271094D01*
X24308594Y2364006D01*
X24460955Y2489046D01*
X24585995Y2641407D01*
X24678907Y2815234D01*
X24736123Y3003848D01*
X24755442Y3200000D01*
X24755442Y3200003D01*
X29319610Y3200003D01*
X29319610Y3199998D01*
X29339067Y3064661D01*
X29395870Y2940282D01*
X29462787Y2863054D01*
X29485411Y2836945D01*
X29600439Y2763022D01*
X29673438Y2741588D01*
X29731628Y2724501D01*
X29731631Y2724501D01*
X29731633Y2724500D01*
X29731634Y2724500D01*
X29868366Y2724500D01*
X29868367Y2724500D01*
X29868369Y2724501D01*
X29868371Y2724501D01*
X29890062Y2730871D01*
X29999561Y2763022D01*
X30114589Y2836945D01*
X30204130Y2940282D01*
X30260931Y3064658D01*
X30260931Y3064660D01*
X30260932Y3064661D01*
X30280390Y3199998D01*
X30280390Y3200001D01*
X44094556Y3200001D01*
X44094556Y3200000D01*
X44113875Y3003848D01*
X44113875Y3003847D01*
X44171091Y2815233D01*
X44264002Y2641408D01*
X44264007Y2641401D01*
X44326987Y2564661D01*
X44389043Y2489046D01*
X44448462Y2440282D01*
X44541397Y2364011D01*
X44541404Y2364006D01*
X44715231Y2271094D01*
X44903845Y2213878D01*
X45099997Y2194559D01*
X45296149Y2213878D01*
X45484763Y2271094D01*
X45658590Y2364006D01*
X45810951Y2489046D01*
X45935991Y2641407D01*
X46028903Y2815234D01*
X46086119Y3003848D01*
X46105438Y3200000D01*
X46105438Y3200001D01*
X47594559Y3200001D01*
X47594559Y3200000D01*
X47613878Y3003848D01*
X47613878Y3003847D01*
X47671094Y2815233D01*
X47764005Y2641408D01*
X47764010Y2641401D01*
X47826990Y2564661D01*
X47889046Y2489046D01*
X47948465Y2440282D01*
X48041400Y2364011D01*
X48041407Y2364006D01*
X48215234Y2271094D01*
X48403848Y2213878D01*
X48600000Y2194559D01*
X48796152Y2213878D01*
X48984766Y2271094D01*
X49158593Y2364006D01*
X49310954Y2489046D01*
X49435994Y2641407D01*
X49467314Y2700003D01*
X56019610Y2700003D01*
X56019610Y2699998D01*
X56039067Y2564661D01*
X56095870Y2440282D01*
X56180136Y2343032D01*
X56185411Y2336945D01*
X56300439Y2263022D01*
X56373438Y2241588D01*
X56431628Y2224501D01*
X56431631Y2224501D01*
X56431633Y2224500D01*
X56431634Y2224500D01*
X56568366Y2224500D01*
X56568367Y2224500D01*
X56568369Y2224501D01*
X56568371Y2224501D01*
X56590062Y2230871D01*
X56699561Y2263022D01*
X56814589Y2336945D01*
X56904130Y2440282D01*
X56960931Y2564658D01*
X56960931Y2564660D01*
X56960932Y2564661D01*
X56980390Y2699998D01*
X56980390Y2700003D01*
X56960932Y2835340D01*
X56914515Y2936978D01*
X56904130Y2959718D01*
X56814589Y3063055D01*
X56699561Y3136978D01*
X56699558Y3136979D01*
X56568371Y3175500D01*
X56568367Y3175500D01*
X56431633Y3175500D01*
X56431628Y3175500D01*
X56300441Y3136979D01*
X56300439Y3136979D01*
X56300439Y3136978D01*
X56292362Y3131787D01*
X56185409Y3063054D01*
X56095870Y2959719D01*
X56039067Y2835340D01*
X56019610Y2700003D01*
X49467314Y2700003D01*
X49528906Y2815234D01*
X49586122Y3003848D01*
X49605441Y3200000D01*
X49586122Y3396152D01*
X49554619Y3500003D01*
X59019610Y3500003D01*
X59019610Y3499998D01*
X59039067Y3364661D01*
X59095870Y3240282D01*
X59185381Y3136979D01*
X59185411Y3136945D01*
X59300439Y3063022D01*
X59373438Y3041588D01*
X59431628Y3024501D01*
X59431631Y3024501D01*
X59431633Y3024500D01*
X59431634Y3024500D01*
X59568366Y3024500D01*
X59568367Y3024500D01*
X59568369Y3024501D01*
X59568371Y3024501D01*
X59590062Y3030871D01*
X59699561Y3063022D01*
X59814589Y3136945D01*
X59904130Y3240282D01*
X59960931Y3364658D01*
X59960931Y3364660D01*
X59960932Y3364661D01*
X59980390Y3499998D01*
X59980390Y3500003D01*
X59960932Y3635340D01*
X59942591Y3675500D01*
X59904130Y3759718D01*
X59814589Y3863055D01*
X59699561Y3936978D01*
X59699558Y3936979D01*
X59568371Y3975500D01*
X59568367Y3975500D01*
X59431633Y3975500D01*
X59431628Y3975500D01*
X59300441Y3936979D01*
X59185409Y3863054D01*
X59095870Y3759719D01*
X59039067Y3635340D01*
X59019610Y3500003D01*
X49554619Y3500003D01*
X49528906Y3584766D01*
X49435994Y3758593D01*
X49435989Y3758600D01*
X49382616Y3823634D01*
X49310954Y3910954D01*
X49232305Y3975500D01*
X49158599Y4035990D01*
X49158592Y4035995D01*
X48984767Y4128906D01*
X48796152Y4186122D01*
X48600000Y4205441D01*
X48403847Y4186122D01*
X48403846Y4186122D01*
X48215232Y4128906D01*
X48041407Y4035995D01*
X48041400Y4035990D01*
X47889046Y3910954D01*
X47764010Y3758600D01*
X47764005Y3758593D01*
X47671094Y3584768D01*
X47613878Y3396154D01*
X47613878Y3396153D01*
X47594559Y3200001D01*
X46105438Y3200001D01*
X46086119Y3396152D01*
X46028903Y3584766D01*
X45935991Y3758593D01*
X45935986Y3758600D01*
X45882613Y3823634D01*
X45810951Y3910954D01*
X45732302Y3975500D01*
X45658596Y4035990D01*
X45658589Y4035995D01*
X45484764Y4128906D01*
X45296149Y4186122D01*
X45099997Y4205441D01*
X44903844Y4186122D01*
X44903843Y4186122D01*
X44715229Y4128906D01*
X44541404Y4035995D01*
X44541397Y4035990D01*
X44389043Y3910954D01*
X44264007Y3758600D01*
X44264002Y3758593D01*
X44171091Y3584768D01*
X44113875Y3396154D01*
X44113875Y3396153D01*
X44094556Y3200001D01*
X30280390Y3200001D01*
X30280390Y3200003D01*
X30260932Y3335340D01*
X30233159Y3396154D01*
X30204130Y3459718D01*
X30114589Y3563055D01*
X29999561Y3636978D01*
X29999558Y3636979D01*
X29868371Y3675500D01*
X29868367Y3675500D01*
X29731633Y3675500D01*
X29731628Y3675500D01*
X29600441Y3636979D01*
X29600439Y3636979D01*
X29600439Y3636978D01*
X29542925Y3600017D01*
X29485409Y3563054D01*
X29395870Y3459719D01*
X29339067Y3335340D01*
X29319610Y3200003D01*
X24755442Y3200003D01*
X24736123Y3396152D01*
X24678907Y3584766D01*
X24585995Y3758593D01*
X24585990Y3758600D01*
X24532617Y3823634D01*
X24460955Y3910954D01*
X24382306Y3975500D01*
X24308600Y4035990D01*
X24308593Y4035995D01*
X24134768Y4128906D01*
X23946153Y4186122D01*
X23750001Y4205441D01*
X23553848Y4186122D01*
X23553847Y4186122D01*
X23365233Y4128906D01*
X23191408Y4035995D01*
X23191401Y4035990D01*
X23039047Y3910954D01*
X22914011Y3758600D01*
X22914006Y3758593D01*
X22821095Y3584768D01*
X22763879Y3396154D01*
X22763879Y3396153D01*
X22744560Y3200001D01*
X21255439Y3200001D01*
X21236120Y3396152D01*
X21178904Y3584766D01*
X21085992Y3758593D01*
X21085987Y3758600D01*
X21032614Y3823634D01*
X20960952Y3910954D01*
X20882303Y3975500D01*
X20808597Y4035990D01*
X20808590Y4035995D01*
X20634765Y4128906D01*
X20446150Y4186122D01*
X20249998Y4205441D01*
X20053845Y4186122D01*
X20053844Y4186122D01*
X19865230Y4128906D01*
X19691405Y4035995D01*
X19691398Y4035990D01*
X19539044Y3910954D01*
X19414008Y3758600D01*
X19414003Y3758593D01*
X19321092Y3584768D01*
X19263876Y3396154D01*
X19263876Y3396153D01*
X19244557Y3200001D01*
X6889229Y3200001D01*
X6905494Y3500000D01*
X6885531Y3868199D01*
X6833410Y4186122D01*
X6825877Y4232074D01*
X6727229Y4587372D01*
X6727226Y4587381D01*
X6590744Y4929927D01*
X6590742Y4929932D01*
X6540605Y5024500D01*
X6500576Y5100003D01*
X11619610Y5100003D01*
X11619610Y5099998D01*
X11639067Y4964661D01*
X11695870Y4840282D01*
X11785411Y4736945D01*
X11900439Y4663022D01*
X11973438Y4641588D01*
X12031628Y4624501D01*
X12031631Y4624501D01*
X12031633Y4624500D01*
X12031634Y4624500D01*
X12168366Y4624500D01*
X12168367Y4624500D01*
X12168369Y4624501D01*
X12168371Y4624501D01*
X12190062Y4630871D01*
X12299561Y4663022D01*
X12414589Y4736945D01*
X12504130Y4840282D01*
X12560931Y4964658D01*
X12560931Y4964660D01*
X12560932Y4964661D01*
X12580390Y5099998D01*
X12580390Y5100003D01*
X12560932Y5235340D01*
X12547541Y5264661D01*
X12504130Y5359718D01*
X12437213Y5436945D01*
X12414590Y5463054D01*
X12414589Y5463055D01*
X12357096Y5500003D01*
X41619610Y5500003D01*
X41619610Y5499998D01*
X41639067Y5364661D01*
X41695870Y5240282D01*
X41782519Y5140282D01*
X41785411Y5136945D01*
X41900439Y5063022D01*
X41973438Y5041588D01*
X42031628Y5024501D01*
X42031631Y5024501D01*
X42031633Y5024500D01*
X42031634Y5024500D01*
X42168366Y5024500D01*
X42168367Y5024500D01*
X42168369Y5024501D01*
X42168371Y5024501D01*
X42190062Y5030871D01*
X42299561Y5063022D01*
X42414589Y5136945D01*
X42504130Y5240282D01*
X42560931Y5364658D01*
X42560931Y5364660D01*
X42560932Y5364661D01*
X42566013Y5400003D01*
X52919610Y5400003D01*
X52919610Y5399998D01*
X52939067Y5264661D01*
X52995870Y5140282D01*
X53030771Y5100003D01*
X53085411Y5036945D01*
X53200439Y4963022D01*
X53273438Y4941588D01*
X53331628Y4924501D01*
X53331631Y4924501D01*
X53331633Y4924500D01*
X53331634Y4924500D01*
X53468366Y4924500D01*
X53468367Y4924500D01*
X53468369Y4924501D01*
X53468371Y4924501D01*
X53490062Y4930871D01*
X53599561Y4963022D01*
X53714589Y5036945D01*
X53804130Y5140282D01*
X53860931Y5264658D01*
X53860931Y5264660D01*
X53860932Y5264661D01*
X53880390Y5399998D01*
X53880390Y5400003D01*
X53860932Y5535340D01*
X53842591Y5575500D01*
X53804130Y5659718D01*
X53737213Y5736945D01*
X53714590Y5763054D01*
X53714589Y5763055D01*
X53657096Y5800003D01*
X59419610Y5800003D01*
X59419610Y5799998D01*
X59439067Y5664661D01*
X59495870Y5540282D01*
X59562787Y5463054D01*
X59585411Y5436945D01*
X59700439Y5363022D01*
X59773438Y5341588D01*
X59831628Y5324501D01*
X59831631Y5324501D01*
X59831633Y5324500D01*
X59831634Y5324500D01*
X59968366Y5324500D01*
X59968367Y5324500D01*
X59968369Y5324501D01*
X59968371Y5324501D01*
X59990062Y5330871D01*
X60099561Y5363022D01*
X60214589Y5436945D01*
X60304130Y5540282D01*
X60360931Y5664658D01*
X60360931Y5664660D01*
X60360932Y5664661D01*
X60380390Y5799998D01*
X60380390Y5800003D01*
X60360932Y5935340D01*
X60313006Y6040282D01*
X60304130Y6059718D01*
X60214589Y6163055D01*
X60099561Y6236978D01*
X60099558Y6236979D01*
X59968371Y6275500D01*
X59968367Y6275500D01*
X59831633Y6275500D01*
X59831628Y6275500D01*
X59700441Y6236979D01*
X59700439Y6236979D01*
X59700439Y6236978D01*
X59642925Y6200017D01*
X59585409Y6163054D01*
X59495870Y6059719D01*
X59439067Y5935340D01*
X59419610Y5800003D01*
X53657096Y5800003D01*
X53599561Y5836978D01*
X53588309Y5840282D01*
X53468371Y5875500D01*
X53468367Y5875500D01*
X53331633Y5875500D01*
X53331628Y5875500D01*
X53200441Y5836979D01*
X53085409Y5763054D01*
X52995870Y5659719D01*
X52939067Y5535340D01*
X52919610Y5400003D01*
X42566013Y5400003D01*
X42580390Y5499998D01*
X42580390Y5500003D01*
X42560932Y5635340D01*
X42514529Y5736947D01*
X42504130Y5759718D01*
X42414589Y5863055D01*
X42299561Y5936978D01*
X42299558Y5936979D01*
X42168371Y5975500D01*
X42168367Y5975500D01*
X42031633Y5975500D01*
X42031628Y5975500D01*
X41900441Y5936979D01*
X41900439Y5936979D01*
X41900439Y5936978D01*
X41881024Y5924501D01*
X41785409Y5863054D01*
X41695870Y5759719D01*
X41639067Y5635340D01*
X41619610Y5500003D01*
X12357096Y5500003D01*
X12299561Y5536978D01*
X12288309Y5540282D01*
X12168371Y5575500D01*
X12168367Y5575500D01*
X12031633Y5575500D01*
X12031628Y5575500D01*
X11900441Y5536979D01*
X11900439Y5536979D01*
X11900439Y5536978D01*
X11842925Y5500017D01*
X11785409Y5463054D01*
X11695870Y5359719D01*
X11639067Y5235340D01*
X11619610Y5100003D01*
X6500576Y5100003D01*
X6418022Y5255716D01*
X6418020Y5255719D01*
X6418017Y5255725D01*
X6211093Y5560913D01*
X5972380Y5841949D01*
X5972370Y5841959D01*
X5704677Y6095532D01*
X5704673Y6095536D01*
X5698797Y6100003D01*
X8319610Y6100003D01*
X8319610Y6099998D01*
X8339067Y5964661D01*
X8395870Y5840282D01*
X8462787Y5763054D01*
X8485411Y5736945D01*
X8600439Y5663022D01*
X8673438Y5641588D01*
X8731628Y5624501D01*
X8731631Y5624501D01*
X8731633Y5624500D01*
X8731634Y5624500D01*
X8868366Y5624500D01*
X8868367Y5624500D01*
X8868369Y5624501D01*
X8868371Y5624501D01*
X8890062Y5630871D01*
X8999561Y5663022D01*
X9114589Y5736945D01*
X9204130Y5840282D01*
X9260931Y5964658D01*
X9260931Y5964660D01*
X9260932Y5964661D01*
X9280390Y6099998D01*
X9280390Y6100003D01*
X9260932Y6235340D01*
X9222866Y6318692D01*
X9204130Y6359718D01*
X9169223Y6400003D01*
X14119610Y6400003D01*
X14119610Y6399998D01*
X14139067Y6264661D01*
X14195870Y6140282D01*
X14282519Y6040282D01*
X14285411Y6036945D01*
X14400439Y5963022D01*
X14473438Y5941588D01*
X14531628Y5924501D01*
X14531631Y5924501D01*
X14531633Y5924500D01*
X14531634Y5924500D01*
X14668366Y5924500D01*
X14668367Y5924500D01*
X14668369Y5924501D01*
X14668371Y5924501D01*
X14690062Y5930871D01*
X14799561Y5963022D01*
X14914589Y6036945D01*
X15004130Y6140282D01*
X15060931Y6264658D01*
X15060931Y6264660D01*
X15060932Y6264661D01*
X15066013Y6300003D01*
X27419610Y6300003D01*
X27419610Y6299998D01*
X27439067Y6164661D01*
X27495870Y6040282D01*
X27585381Y5936979D01*
X27585411Y5936945D01*
X27700439Y5863022D01*
X27772173Y5841959D01*
X27831628Y5824501D01*
X27831631Y5824501D01*
X27831633Y5824500D01*
X27831634Y5824500D01*
X27968366Y5824500D01*
X27968367Y5824500D01*
X27968369Y5824501D01*
X27968371Y5824501D01*
X28010863Y5836978D01*
X28099561Y5863022D01*
X28214589Y5936945D01*
X28304130Y6040282D01*
X28360931Y6164658D01*
X28360931Y6164660D01*
X28360932Y6164661D01*
X28380390Y6299998D01*
X28380390Y6300003D01*
X28360932Y6435340D01*
X28314515Y6536978D01*
X28304130Y6559718D01*
X28259359Y6611387D01*
X28214590Y6663054D01*
X28214589Y6663055D01*
X28099561Y6736978D01*
X28099558Y6736979D01*
X27968371Y6775500D01*
X27968367Y6775500D01*
X27831633Y6775500D01*
X27831628Y6775500D01*
X27700441Y6736979D01*
X27585409Y6663054D01*
X27495870Y6559719D01*
X27439067Y6435340D01*
X27419610Y6300003D01*
X15066013Y6300003D01*
X15080390Y6399998D01*
X15080390Y6400003D01*
X15060932Y6535340D01*
X15042591Y6575500D01*
X15004130Y6659718D01*
X14914589Y6763055D01*
X14799561Y6836978D01*
X14799558Y6836979D01*
X14668371Y6875500D01*
X14668367Y6875500D01*
X14531633Y6875500D01*
X14531628Y6875500D01*
X14400441Y6836979D01*
X14285409Y6763054D01*
X14195870Y6659719D01*
X14139067Y6535340D01*
X14119610Y6400003D01*
X9169223Y6400003D01*
X9114589Y6463055D01*
X8999561Y6536978D01*
X8999558Y6536979D01*
X8868371Y6575500D01*
X8868367Y6575500D01*
X8731633Y6575500D01*
X8731628Y6575500D01*
X8600441Y6536979D01*
X8600439Y6536979D01*
X8600439Y6536978D01*
X8556586Y6508796D01*
X8485409Y6463054D01*
X8395870Y6359719D01*
X8339067Y6235340D01*
X8319610Y6100003D01*
X5698797Y6100003D01*
X5411117Y6318692D01*
X5095160Y6508796D01*
X4760508Y6663624D01*
X4411064Y6781365D01*
X4050957Y6860631D01*
X4050948Y6860632D01*
X3684370Y6900500D01*
X3315630Y6900500D01*
X3010471Y6867312D01*
X2949042Y6860631D01*
X2588936Y6781365D01*
X2588933Y6781365D01*
X2239491Y6663624D01*
X1904839Y6508796D01*
X1588882Y6318692D01*
X1295326Y6095536D01*
X1295322Y6095532D01*
X1027629Y5841959D01*
X1027619Y5841949D01*
X788906Y5560913D01*
X581982Y5255725D01*
X581978Y5255717D01*
X409257Y4929932D01*
X409255Y4929927D01*
X395020Y4894199D01*
X368863Y4867324D01*
X331363Y4866816D01*
X304488Y4892973D01*
X300500Y4912336D01*
X300500Y8200001D01*
X19244557Y8200001D01*
X19244557Y8200000D01*
X19263876Y8003848D01*
X19263876Y8003847D01*
X19321092Y7815233D01*
X19414003Y7641408D01*
X19414008Y7641401D01*
X19478333Y7563022D01*
X19539044Y7489046D01*
X19626364Y7417384D01*
X19691398Y7364011D01*
X19691405Y7364006D01*
X19865232Y7271094D01*
X20053846Y7213878D01*
X20249998Y7194559D01*
X20446150Y7213878D01*
X20634764Y7271094D01*
X20808591Y7364006D01*
X20960952Y7489046D01*
X21085992Y7641407D01*
X21178904Y7815234D01*
X21236120Y8003848D01*
X21255439Y8200000D01*
X21255439Y8200001D01*
X22744560Y8200001D01*
X22744560Y8200000D01*
X22763879Y8003848D01*
X22763879Y8003847D01*
X22821095Y7815233D01*
X22914006Y7641408D01*
X22914011Y7641401D01*
X22978336Y7563022D01*
X23039047Y7489046D01*
X23126367Y7417384D01*
X23191401Y7364011D01*
X23191408Y7364006D01*
X23365235Y7271094D01*
X23553849Y7213878D01*
X23750001Y7194559D01*
X23946153Y7213878D01*
X24134767Y7271094D01*
X24308594Y7364006D01*
X24460955Y7489046D01*
X24585995Y7641407D01*
X24678907Y7815234D01*
X24736123Y8003848D01*
X24755442Y8200000D01*
X24736123Y8396152D01*
X24678907Y8584766D01*
X24585995Y8758593D01*
X24585990Y8758600D01*
X24503003Y8859718D01*
X24460955Y8910954D01*
X24389291Y8969767D01*
X24308600Y9035990D01*
X24308593Y9035995D01*
X24134768Y9128906D01*
X23946153Y9186122D01*
X23750001Y9205441D01*
X23553848Y9186122D01*
X23553847Y9186122D01*
X23365233Y9128906D01*
X23191408Y9035995D01*
X23191401Y9035990D01*
X23039047Y8910954D01*
X22914011Y8758600D01*
X22914006Y8758593D01*
X22821095Y8584768D01*
X22763879Y8396154D01*
X22763879Y8396153D01*
X22744560Y8200001D01*
X21255439Y8200001D01*
X21236120Y8396152D01*
X21178904Y8584766D01*
X21085992Y8758593D01*
X21085987Y8758600D01*
X21003000Y8859718D01*
X20960952Y8910954D01*
X20889288Y8969767D01*
X20808597Y9035990D01*
X20808590Y9035995D01*
X20634765Y9128906D01*
X20446150Y9186122D01*
X20249998Y9205441D01*
X20053845Y9186122D01*
X20053844Y9186122D01*
X19865230Y9128906D01*
X19691405Y9035995D01*
X19691398Y9035990D01*
X19539044Y8910954D01*
X19414008Y8758600D01*
X19414003Y8758593D01*
X19321092Y8584768D01*
X19263876Y8396154D01*
X19263876Y8396153D01*
X19244557Y8200001D01*
X300500Y8200001D01*
X300500Y9800003D01*
X819610Y9800003D01*
X819610Y9799998D01*
X839067Y9664661D01*
X895870Y9540282D01*
X982519Y9440282D01*
X985411Y9436945D01*
X1100439Y9363022D01*
X1173438Y9341588D01*
X1231628Y9324501D01*
X1231631Y9324501D01*
X1231633Y9324500D01*
X1231634Y9324500D01*
X1368366Y9324500D01*
X1368367Y9324500D01*
X1368369Y9324501D01*
X1368371Y9324501D01*
X1390062Y9330871D01*
X1499561Y9363022D01*
X1614589Y9436945D01*
X1704130Y9540282D01*
X1760931Y9664658D01*
X1760931Y9664660D01*
X1760932Y9664661D01*
X1766013Y9700003D01*
X26919610Y9700003D01*
X26919610Y9699998D01*
X26939067Y9564661D01*
X26963963Y9510148D01*
X26995870Y9440282D01*
X27085411Y9336945D01*
X27200439Y9263022D01*
X27273438Y9241588D01*
X27331628Y9224501D01*
X27331631Y9224501D01*
X27331633Y9224500D01*
X27331634Y9224500D01*
X27468366Y9224500D01*
X27468367Y9224500D01*
X27468369Y9224501D01*
X27468371Y9224501D01*
X27490062Y9230871D01*
X27599561Y9263022D01*
X27714589Y9336945D01*
X27804130Y9440282D01*
X27860931Y9564658D01*
X27860931Y9564660D01*
X27860932Y9564661D01*
X27880390Y9699998D01*
X27880390Y9700003D01*
X27860932Y9835340D01*
X27814529Y9936947D01*
X27804130Y9959718D01*
X27734322Y10040282D01*
X27714590Y10063054D01*
X27714589Y10063055D01*
X27599561Y10136978D01*
X27599558Y10136979D01*
X27468371Y10175500D01*
X27468367Y10175500D01*
X27331633Y10175500D01*
X27331628Y10175500D01*
X27200441Y10136979D01*
X27200439Y10136979D01*
X27200439Y10136978D01*
X27142925Y10100017D01*
X27085409Y10063054D01*
X26995870Y9959719D01*
X26939067Y9835340D01*
X26919610Y9700003D01*
X1766013Y9700003D01*
X1780390Y9799998D01*
X1780390Y9800003D01*
X1760932Y9935340D01*
X1713006Y10040282D01*
X1704130Y10059718D01*
X1614589Y10163055D01*
X1499561Y10236978D01*
X1490853Y10239535D01*
X1368371Y10275500D01*
X1368367Y10275500D01*
X1231633Y10275500D01*
X1231628Y10275500D01*
X1100441Y10236979D01*
X985409Y10163054D01*
X895870Y10059719D01*
X839067Y9935340D01*
X819610Y9800003D01*
X300500Y9800003D01*
X300500Y10300003D01*
X15419610Y10300003D01*
X15419610Y10299998D01*
X15439067Y10164661D01*
X15495870Y10040282D01*
X15560594Y9965585D01*
X15585411Y9936945D01*
X15700439Y9863022D01*
X15773438Y9841588D01*
X15831628Y9824501D01*
X15831631Y9824501D01*
X15831633Y9824500D01*
X15831634Y9824500D01*
X15968366Y9824500D01*
X15968367Y9824500D01*
X15968369Y9824501D01*
X15968371Y9824501D01*
X15990062Y9830871D01*
X16099561Y9863022D01*
X16214589Y9936945D01*
X16304130Y10040282D01*
X16360931Y10164658D01*
X16360931Y10164660D01*
X16360932Y10164661D01*
X16380390Y10299998D01*
X16380390Y10300003D01*
X16360932Y10435340D01*
X16342591Y10475500D01*
X16304130Y10559718D01*
X16237213Y10636945D01*
X16214590Y10663054D01*
X16214589Y10663055D01*
X16099561Y10736978D01*
X16088309Y10740282D01*
X15968371Y10775500D01*
X15968367Y10775500D01*
X15831633Y10775500D01*
X15831628Y10775500D01*
X15700441Y10736979D01*
X15585409Y10663054D01*
X15495870Y10559719D01*
X15439067Y10435340D01*
X15419610Y10300003D01*
X300500Y10300003D01*
X300500Y12000003D01*
X12719610Y12000003D01*
X12719610Y11999998D01*
X12739067Y11864661D01*
X12793498Y11745475D01*
X12795870Y11740282D01*
X12885411Y11636945D01*
X13000439Y11563022D01*
X13073438Y11541588D01*
X13131628Y11524501D01*
X13131631Y11524501D01*
X13131633Y11524500D01*
X13131634Y11524500D01*
X13268366Y11524500D01*
X13268367Y11524500D01*
X13268369Y11524501D01*
X13268371Y11524501D01*
X13290062Y11530871D01*
X13399561Y11563022D01*
X13461464Y11602804D01*
X31638526Y11602804D01*
X31638526Y11602799D01*
X31657983Y11467462D01*
X31714786Y11343083D01*
X31803862Y11240282D01*
X31804327Y11239746D01*
X31919355Y11165823D01*
X31992354Y11144389D01*
X32050544Y11127302D01*
X32050547Y11127302D01*
X32050549Y11127301D01*
X32050550Y11127301D01*
X32187282Y11127301D01*
X32187283Y11127301D01*
X32187285Y11127302D01*
X32187287Y11127302D01*
X32220134Y11136947D01*
X32318477Y11165823D01*
X32433505Y11239746D01*
X32523046Y11343083D01*
X32579847Y11467459D01*
X32579847Y11467461D01*
X32579848Y11467462D01*
X32584527Y11500003D01*
X33519610Y11500003D01*
X33519610Y11499998D01*
X33539067Y11364661D01*
X33592765Y11247080D01*
X33595870Y11240282D01*
X33685411Y11136945D01*
X33800439Y11063022D01*
X33873438Y11041588D01*
X33931628Y11024501D01*
X33931631Y11024501D01*
X33931633Y11024500D01*
X33931634Y11024500D01*
X34068366Y11024500D01*
X34068367Y11024500D01*
X34068369Y11024501D01*
X34068371Y11024501D01*
X34090062Y11030871D01*
X34199561Y11063022D01*
X34314589Y11136945D01*
X34404130Y11240282D01*
X34460931Y11364658D01*
X34460931Y11364660D01*
X34460932Y11364661D01*
X34480390Y11499998D01*
X34480390Y11500003D01*
X34460932Y11635340D01*
X34413006Y11740282D01*
X34404130Y11759718D01*
X34334322Y11840282D01*
X34314590Y11863054D01*
X34314589Y11863055D01*
X34199561Y11936978D01*
X34199558Y11936979D01*
X34068371Y11975500D01*
X34068367Y11975500D01*
X33931633Y11975500D01*
X33931628Y11975500D01*
X33800441Y11936979D01*
X33685409Y11863054D01*
X33595870Y11759719D01*
X33539067Y11635340D01*
X33519610Y11500003D01*
X32584527Y11500003D01*
X32599306Y11602799D01*
X32599306Y11602804D01*
X32579848Y11738141D01*
X32569994Y11759718D01*
X32523046Y11862519D01*
X32434543Y11964658D01*
X32433506Y11965855D01*
X32433505Y11965856D01*
X32318477Y12039779D01*
X32318474Y12039780D01*
X32187287Y12078301D01*
X32187283Y12078301D01*
X32050549Y12078301D01*
X32050544Y12078301D01*
X31919357Y12039780D01*
X31919355Y12039780D01*
X31919355Y12039779D01*
X31895582Y12024501D01*
X31804325Y11965855D01*
X31714786Y11862520D01*
X31657983Y11738141D01*
X31638526Y11602804D01*
X13461464Y11602804D01*
X13514589Y11636945D01*
X13604130Y11740282D01*
X13660931Y11864658D01*
X13660931Y11864660D01*
X13660932Y11864661D01*
X13680390Y11999998D01*
X13680390Y12000003D01*
X13660932Y12135340D01*
X13613006Y12240282D01*
X13604130Y12259718D01*
X13534322Y12340282D01*
X13514590Y12363054D01*
X13514589Y12363055D01*
X13457096Y12400003D01*
X29019610Y12400003D01*
X29019610Y12399998D01*
X29039067Y12264661D01*
X29095870Y12140282D01*
X29176599Y12047114D01*
X29185411Y12036945D01*
X29300439Y11963022D01*
X29373438Y11941588D01*
X29431628Y11924501D01*
X29431631Y11924501D01*
X29431633Y11924500D01*
X29431634Y11924500D01*
X29568366Y11924500D01*
X29568367Y11924500D01*
X29568369Y11924501D01*
X29568371Y11924501D01*
X29610863Y11936978D01*
X29699561Y11963022D01*
X29814589Y12036945D01*
X29904130Y12140282D01*
X29960931Y12264658D01*
X29960931Y12264660D01*
X29960932Y12264661D01*
X29980390Y12399998D01*
X29980390Y12400003D01*
X29966013Y12500003D01*
X34519610Y12500003D01*
X34519610Y12499998D01*
X34539067Y12364661D01*
X34595870Y12240282D01*
X34682519Y12140282D01*
X34685411Y12136945D01*
X34800439Y12063022D01*
X34873438Y12041588D01*
X34931628Y12024501D01*
X34931631Y12024501D01*
X34931633Y12024500D01*
X34931634Y12024500D01*
X35068366Y12024500D01*
X35068367Y12024500D01*
X35068369Y12024501D01*
X35068371Y12024501D01*
X35090062Y12030871D01*
X35199561Y12063022D01*
X35314589Y12136945D01*
X35404130Y12240282D01*
X35460931Y12364658D01*
X35460931Y12364660D01*
X35460932Y12364661D01*
X35480390Y12499998D01*
X35480390Y12500003D01*
X35460932Y12635340D01*
X35448290Y12663022D01*
X35404130Y12759718D01*
X35337213Y12836945D01*
X35314590Y12863054D01*
X35314589Y12863055D01*
X35199561Y12936978D01*
X35199558Y12936979D01*
X35068371Y12975500D01*
X35068367Y12975500D01*
X34931633Y12975500D01*
X34931628Y12975500D01*
X34800441Y12936979D01*
X34800439Y12936979D01*
X34800439Y12936978D01*
X34798136Y12935498D01*
X34685409Y12863054D01*
X34595870Y12759719D01*
X34539067Y12635340D01*
X34519610Y12500003D01*
X29966013Y12500003D01*
X29960932Y12535340D01*
X29931401Y12600003D01*
X29904130Y12659718D01*
X29837213Y12736945D01*
X29814590Y12763054D01*
X29814589Y12763055D01*
X29699561Y12836978D01*
X29688309Y12840282D01*
X29568371Y12875500D01*
X29568367Y12875500D01*
X29431633Y12875500D01*
X29431628Y12875500D01*
X29300441Y12836979D01*
X29300439Y12836979D01*
X29300439Y12836978D01*
X29242925Y12800017D01*
X29185409Y12763054D01*
X29095870Y12659719D01*
X29039067Y12535340D01*
X29019610Y12400003D01*
X13457096Y12400003D01*
X13399561Y12436978D01*
X13399558Y12436979D01*
X13268371Y12475500D01*
X13268367Y12475500D01*
X13131633Y12475500D01*
X13131628Y12475500D01*
X13000441Y12436979D01*
X12885409Y12363054D01*
X12795870Y12259719D01*
X12739067Y12135340D01*
X12719610Y12000003D01*
X300500Y12000003D01*
X300500Y13200003D01*
X16019610Y13200003D01*
X16019610Y13199998D01*
X16039067Y13064661D01*
X16095870Y12940282D01*
X16185381Y12836979D01*
X16185411Y12836945D01*
X16300439Y12763022D01*
X16373438Y12741588D01*
X16431628Y12724501D01*
X16431631Y12724501D01*
X16431633Y12724500D01*
X16431634Y12724500D01*
X16568366Y12724500D01*
X16568367Y12724500D01*
X16568369Y12724501D01*
X16568371Y12724501D01*
X16590062Y12730871D01*
X16699561Y12763022D01*
X16814589Y12836945D01*
X16904130Y12940282D01*
X16960931Y13064658D01*
X16960931Y13064660D01*
X16960932Y13064661D01*
X16980390Y13199998D01*
X16980390Y13200003D01*
X16960932Y13335340D01*
X16931401Y13400003D01*
X16904130Y13459718D01*
X16814589Y13563055D01*
X16699561Y13636978D01*
X16688309Y13640282D01*
X16568371Y13675500D01*
X16568367Y13675500D01*
X16431633Y13675500D01*
X16431628Y13675500D01*
X16300441Y13636979D01*
X16300439Y13636979D01*
X16300439Y13636978D01*
X16242925Y13600017D01*
X16185409Y13563054D01*
X16095870Y13459719D01*
X16039067Y13335340D01*
X16019610Y13200003D01*
X300500Y13200003D01*
X300500Y14300003D01*
X1019610Y14300003D01*
X1019610Y14299998D01*
X1039067Y14164661D01*
X1095870Y14040282D01*
X1185381Y13936979D01*
X1185411Y13936945D01*
X1300439Y13863022D01*
X1373438Y13841588D01*
X1431628Y13824501D01*
X1431631Y13824501D01*
X1431633Y13824500D01*
X1431634Y13824500D01*
X1568366Y13824500D01*
X1568367Y13824500D01*
X1568369Y13824501D01*
X1568371Y13824501D01*
X1610863Y13836978D01*
X1699561Y13863022D01*
X1757105Y13900003D01*
X28119610Y13900003D01*
X28119610Y13899998D01*
X28139067Y13764661D01*
X28195870Y13640282D01*
X28287706Y13534296D01*
X28286990Y13533676D01*
X28302097Y13503494D01*
X28290253Y13467911D01*
X28285499Y13463158D01*
X28195870Y13359719D01*
X28139067Y13235340D01*
X28119610Y13100003D01*
X28119610Y13100000D01*
X28139067Y12964661D01*
X28195870Y12840282D01*
X28262787Y12763054D01*
X28285411Y12736945D01*
X28400439Y12663022D01*
X28473438Y12641588D01*
X28531628Y12624501D01*
X28531631Y12624501D01*
X28531633Y12624500D01*
X28531634Y12624500D01*
X28668366Y12624500D01*
X28668367Y12624500D01*
X28668369Y12624501D01*
X28668371Y12624501D01*
X28690062Y12630871D01*
X28799561Y12663022D01*
X28914589Y12736945D01*
X29004130Y12840282D01*
X29060931Y12964658D01*
X29060931Y12964660D01*
X29060932Y12964661D01*
X29080390Y13100000D01*
X29080390Y13100003D01*
X29060932Y13235340D01*
X29047541Y13264661D01*
X29004130Y13359718D01*
X28969223Y13400003D01*
X28912294Y13465704D01*
X28913011Y13466326D01*
X28897902Y13496496D01*
X28909740Y13532082D01*
X28914500Y13536843D01*
X28914587Y13536945D01*
X28914589Y13536945D01*
X29004130Y13640282D01*
X29060931Y13764658D01*
X29060931Y13764660D01*
X29060932Y13764661D01*
X29080390Y13899998D01*
X29080390Y13900003D01*
X29060932Y14035340D01*
X29053120Y14052444D01*
X29004130Y14159718D01*
X28937213Y14236945D01*
X28914590Y14263054D01*
X28914589Y14263055D01*
X28799561Y14336978D01*
X28788309Y14340282D01*
X28668371Y14375500D01*
X28668367Y14375500D01*
X28531633Y14375500D01*
X28531628Y14375500D01*
X28400441Y14336979D01*
X28400439Y14336979D01*
X28400439Y14336978D01*
X28363746Y14313397D01*
X28285409Y14263054D01*
X28195870Y14159719D01*
X28139067Y14035340D01*
X28119610Y13900003D01*
X1757105Y13900003D01*
X1814589Y13936945D01*
X1904130Y14040282D01*
X1960931Y14164658D01*
X1960931Y14164660D01*
X1960932Y14164661D01*
X1980390Y14299998D01*
X1980390Y14300003D01*
X1960932Y14435340D01*
X1931401Y14500003D01*
X1904130Y14559718D01*
X1869223Y14600003D01*
X29019610Y14600003D01*
X29019610Y14599998D01*
X29039067Y14464661D01*
X29095870Y14340282D01*
X29162787Y14263054D01*
X29185411Y14236945D01*
X29300439Y14163022D01*
X29373438Y14141588D01*
X29431628Y14124501D01*
X29431631Y14124501D01*
X29431633Y14124500D01*
X29431634Y14124500D01*
X29568366Y14124500D01*
X29568367Y14124500D01*
X29568369Y14124501D01*
X29568371Y14124501D01*
X29590062Y14130871D01*
X29699561Y14163022D01*
X29814589Y14236945D01*
X29904130Y14340282D01*
X29960931Y14464658D01*
X29960931Y14464660D01*
X29960932Y14464661D01*
X29980390Y14599998D01*
X29980390Y14600003D01*
X29960932Y14735340D01*
X29942591Y14775500D01*
X29904130Y14859718D01*
X29837213Y14936945D01*
X29814590Y14963054D01*
X29814589Y14963055D01*
X29699561Y15036978D01*
X29688309Y15040282D01*
X29568371Y15075500D01*
X29568367Y15075500D01*
X29431633Y15075500D01*
X29431628Y15075500D01*
X29300441Y15036979D01*
X29185409Y14963054D01*
X29095870Y14859719D01*
X29039067Y14735340D01*
X29019610Y14600003D01*
X1869223Y14600003D01*
X1814589Y14663055D01*
X1699561Y14736978D01*
X1699558Y14736979D01*
X1568371Y14775500D01*
X1568367Y14775500D01*
X1431633Y14775500D01*
X1431628Y14775500D01*
X1300441Y14736979D01*
X1300439Y14736979D01*
X1300439Y14736978D01*
X1242925Y14700017D01*
X1185409Y14663054D01*
X1095870Y14559719D01*
X1039067Y14435340D01*
X1019610Y14300003D01*
X300500Y14300003D01*
X300500Y15300003D01*
X13919610Y15300003D01*
X13919610Y15299998D01*
X13939067Y15164661D01*
X13995870Y15040282D01*
X14083030Y14939692D01*
X14085411Y14936945D01*
X14200439Y14863022D01*
X14273438Y14841588D01*
X14331628Y14824501D01*
X14331631Y14824501D01*
X14331633Y14824500D01*
X14331634Y14824500D01*
X14468366Y14824500D01*
X14468367Y14824500D01*
X14468369Y14824501D01*
X14468371Y14824501D01*
X14490062Y14830871D01*
X14599561Y14863022D01*
X14714589Y14936945D01*
X14804130Y15040282D01*
X14860931Y15164658D01*
X14860931Y15164660D01*
X14860932Y15164661D01*
X14880390Y15299998D01*
X14880390Y15300003D01*
X14860932Y15435340D01*
X14847541Y15464661D01*
X14831401Y15500003D01*
X16319610Y15500003D01*
X16319610Y15499998D01*
X16339067Y15364661D01*
X16368598Y15299998D01*
X16395870Y15240282D01*
X16485411Y15136945D01*
X16600439Y15063022D01*
X16669118Y15042856D01*
X16731628Y15024501D01*
X16731631Y15024501D01*
X16731633Y15024500D01*
X16731634Y15024500D01*
X16868366Y15024500D01*
X16868367Y15024500D01*
X16868369Y15024501D01*
X16868371Y15024501D01*
X16910863Y15036978D01*
X16999561Y15063022D01*
X17114589Y15136945D01*
X17162968Y15192778D01*
X17196504Y15209565D01*
X17232088Y15197722D01*
X17237032Y15192778D01*
X17285411Y15136945D01*
X17400439Y15063022D01*
X17469118Y15042856D01*
X17531628Y15024501D01*
X17531631Y15024501D01*
X17531633Y15024500D01*
X17531634Y15024500D01*
X17668366Y15024500D01*
X17668367Y15024500D01*
X17668369Y15024501D01*
X17668371Y15024501D01*
X17710863Y15036978D01*
X17799561Y15063022D01*
X17914589Y15136945D01*
X17962968Y15192778D01*
X17996504Y15209565D01*
X18032088Y15197722D01*
X18037032Y15192778D01*
X18085411Y15136945D01*
X18200439Y15063022D01*
X18269118Y15042856D01*
X18331628Y15024501D01*
X18331631Y15024501D01*
X18331633Y15024500D01*
X18331634Y15024500D01*
X18468366Y15024500D01*
X18468367Y15024500D01*
X18468369Y15024501D01*
X18468371Y15024501D01*
X18510863Y15036978D01*
X18599561Y15063022D01*
X18714589Y15136945D01*
X18762968Y15192778D01*
X18796504Y15209565D01*
X18832088Y15197722D01*
X18837032Y15192778D01*
X18885411Y15136945D01*
X19000439Y15063022D01*
X19069118Y15042856D01*
X19131628Y15024501D01*
X19131631Y15024501D01*
X19131633Y15024500D01*
X19131634Y15024500D01*
X19268366Y15024500D01*
X19268367Y15024500D01*
X19268369Y15024501D01*
X19268371Y15024501D01*
X19310863Y15036978D01*
X19399561Y15063022D01*
X19514589Y15136945D01*
X19562968Y15192778D01*
X19596504Y15209565D01*
X19632088Y15197722D01*
X19637032Y15192778D01*
X19685411Y15136945D01*
X19800439Y15063022D01*
X19869118Y15042856D01*
X19931628Y15024501D01*
X19931631Y15024501D01*
X19931633Y15024500D01*
X19931634Y15024500D01*
X20068366Y15024500D01*
X20068367Y15024500D01*
X20068369Y15024501D01*
X20068371Y15024501D01*
X20110863Y15036978D01*
X20199561Y15063022D01*
X20314589Y15136945D01*
X20404130Y15240282D01*
X20460931Y15364658D01*
X20460931Y15364660D01*
X20460932Y15364661D01*
X20480390Y15499998D01*
X20480390Y15500003D01*
X20460932Y15635340D01*
X20419694Y15725638D01*
X20404130Y15759718D01*
X20319708Y15857147D01*
X20314590Y15863054D01*
X20314589Y15863055D01*
X20199561Y15936978D01*
X20199558Y15936979D01*
X20068371Y15975500D01*
X20068367Y15975500D01*
X19931633Y15975500D01*
X19931628Y15975500D01*
X19800441Y15936979D01*
X19800439Y15936979D01*
X19800439Y15936978D01*
X19742925Y15900017D01*
X19685409Y15863054D01*
X19637032Y15807223D01*
X19603496Y15790436D01*
X19567912Y15802279D01*
X19562968Y15807223D01*
X19514590Y15863054D01*
X19514589Y15863055D01*
X19399561Y15936978D01*
X19399558Y15936979D01*
X19268371Y15975500D01*
X19268367Y15975500D01*
X19131633Y15975500D01*
X19131628Y15975500D01*
X19000441Y15936979D01*
X19000439Y15936979D01*
X19000439Y15936978D01*
X18942925Y15900017D01*
X18885409Y15863054D01*
X18837032Y15807223D01*
X18803496Y15790436D01*
X18767912Y15802279D01*
X18762968Y15807223D01*
X18714590Y15863054D01*
X18714589Y15863055D01*
X18599561Y15936978D01*
X18599558Y15936979D01*
X18468371Y15975500D01*
X18468367Y15975500D01*
X18331633Y15975500D01*
X18331628Y15975500D01*
X18200441Y15936979D01*
X18200439Y15936979D01*
X18200439Y15936978D01*
X18142925Y15900017D01*
X18085409Y15863054D01*
X18037032Y15807223D01*
X18003496Y15790436D01*
X17967912Y15802279D01*
X17962968Y15807223D01*
X17914590Y15863054D01*
X17914589Y15863055D01*
X17799561Y15936978D01*
X17799558Y15936979D01*
X17668371Y15975500D01*
X17668367Y15975500D01*
X17531633Y15975500D01*
X17531628Y15975500D01*
X17400441Y15936979D01*
X17400439Y15936979D01*
X17400439Y15936978D01*
X17342925Y15900017D01*
X17285409Y15863054D01*
X17237032Y15807223D01*
X17203496Y15790436D01*
X17167912Y15802279D01*
X17162968Y15807223D01*
X17114590Y15863054D01*
X17114589Y15863055D01*
X16999561Y15936978D01*
X16999558Y15936979D01*
X16868371Y15975500D01*
X16868367Y15975500D01*
X16731633Y15975500D01*
X16731628Y15975500D01*
X16600441Y15936979D01*
X16600439Y15936979D01*
X16600439Y15936978D01*
X16542925Y15900017D01*
X16485409Y15863054D01*
X16395870Y15759719D01*
X16339067Y15635340D01*
X16319610Y15500003D01*
X14831401Y15500003D01*
X14804130Y15559718D01*
X14732091Y15642856D01*
X14714590Y15663054D01*
X14714589Y15663055D01*
X14599561Y15736978D01*
X14599558Y15736979D01*
X14468371Y15775500D01*
X14468367Y15775500D01*
X14331633Y15775500D01*
X14331628Y15775500D01*
X14200441Y15736979D01*
X14200439Y15736979D01*
X14200439Y15736978D01*
X14182792Y15725637D01*
X14085409Y15663054D01*
X13995870Y15559719D01*
X13939067Y15435340D01*
X13919610Y15300003D01*
X300500Y15300003D01*
X300500Y17600003D01*
X12419610Y17600003D01*
X12419610Y17599998D01*
X12439067Y17464661D01*
X12468598Y17399998D01*
X12495870Y17340282D01*
X12585411Y17236945D01*
X12700439Y17163022D01*
X12773438Y17141588D01*
X12831628Y17124501D01*
X12831631Y17124501D01*
X12831633Y17124500D01*
X12831634Y17124500D01*
X12968366Y17124500D01*
X12968367Y17124500D01*
X12968369Y17124501D01*
X12968371Y17124501D01*
X12990062Y17130871D01*
X13099561Y17163022D01*
X13214589Y17236945D01*
X13304130Y17340282D01*
X13360931Y17464658D01*
X13360931Y17464660D01*
X13360932Y17464661D01*
X13380390Y17599998D01*
X13380390Y17600003D01*
X13360932Y17735340D01*
X13314515Y17836978D01*
X13304130Y17859718D01*
X13234322Y17940282D01*
X13214590Y17963054D01*
X13214589Y17963055D01*
X13099561Y18036978D01*
X13099558Y18036979D01*
X12968371Y18075500D01*
X12968367Y18075500D01*
X12831633Y18075500D01*
X12831628Y18075500D01*
X12700441Y18036979D01*
X12585409Y17963054D01*
X12495870Y17859719D01*
X12439067Y17735340D01*
X12419610Y17600003D01*
X300500Y17600003D01*
X300500Y18200003D01*
X719610Y18200003D01*
X719610Y18199998D01*
X739067Y18064661D01*
X795870Y17940282D01*
X885381Y17836979D01*
X885411Y17836945D01*
X1000439Y17763022D01*
X1073438Y17741588D01*
X1131628Y17724501D01*
X1131631Y17724501D01*
X1131633Y17724500D01*
X1131634Y17724500D01*
X1268366Y17724500D01*
X1268367Y17724500D01*
X1268369Y17724501D01*
X1268371Y17724501D01*
X1290062Y17730871D01*
X1399561Y17763022D01*
X1514589Y17836945D01*
X1604130Y17940282D01*
X1660931Y18064658D01*
X1660931Y18064660D01*
X1660932Y18064661D01*
X1680390Y18199998D01*
X1680390Y18200003D01*
X1660932Y18335340D01*
X1643048Y18374500D01*
X1604130Y18459718D01*
X1569223Y18500003D01*
X16319610Y18500003D01*
X16319610Y18499998D01*
X16339067Y18364661D01*
X16395870Y18240282D01*
X16485381Y18136979D01*
X16485411Y18136945D01*
X16600439Y18063022D01*
X16673438Y18041588D01*
X16731628Y18024501D01*
X16731631Y18024501D01*
X16731633Y18024500D01*
X16731634Y18024500D01*
X16868366Y18024500D01*
X16868367Y18024500D01*
X16868369Y18024501D01*
X16868371Y18024501D01*
X16910863Y18036978D01*
X16999561Y18063022D01*
X17114589Y18136945D01*
X17162968Y18192778D01*
X17196504Y18209565D01*
X17232088Y18197722D01*
X17237032Y18192778D01*
X17285382Y18136978D01*
X17285411Y18136945D01*
X17400439Y18063022D01*
X17473438Y18041588D01*
X17531628Y18024501D01*
X17531631Y18024501D01*
X17531633Y18024500D01*
X17531634Y18024500D01*
X17668366Y18024500D01*
X17668367Y18024500D01*
X17668369Y18024501D01*
X17668371Y18024501D01*
X17710863Y18036978D01*
X17799561Y18063022D01*
X17914589Y18136945D01*
X17962968Y18192778D01*
X17996504Y18209565D01*
X18032088Y18197722D01*
X18037032Y18192778D01*
X18085382Y18136978D01*
X18085411Y18136945D01*
X18200439Y18063022D01*
X18273438Y18041588D01*
X18331628Y18024501D01*
X18331631Y18024501D01*
X18331633Y18024500D01*
X18331634Y18024500D01*
X18468366Y18024500D01*
X18468367Y18024500D01*
X18468369Y18024501D01*
X18468371Y18024501D01*
X18510863Y18036978D01*
X18599561Y18063022D01*
X18714589Y18136945D01*
X18762968Y18192778D01*
X18796504Y18209565D01*
X18832088Y18197722D01*
X18837032Y18192778D01*
X18885382Y18136978D01*
X18885411Y18136945D01*
X19000439Y18063022D01*
X19073438Y18041588D01*
X19131628Y18024501D01*
X19131631Y18024501D01*
X19131633Y18024500D01*
X19131634Y18024500D01*
X19268366Y18024500D01*
X19268367Y18024500D01*
X19268369Y18024501D01*
X19268371Y18024501D01*
X19310863Y18036978D01*
X19399561Y18063022D01*
X19514589Y18136945D01*
X19562968Y18192778D01*
X19596504Y18209565D01*
X19632088Y18197722D01*
X19637032Y18192778D01*
X19685382Y18136978D01*
X19685411Y18136945D01*
X19800439Y18063022D01*
X19873438Y18041588D01*
X19931628Y18024501D01*
X19931631Y18024501D01*
X19931633Y18024500D01*
X19931634Y18024500D01*
X20068366Y18024500D01*
X20068367Y18024500D01*
X20068369Y18024501D01*
X20068371Y18024501D01*
X20110863Y18036978D01*
X20199561Y18063022D01*
X20314589Y18136945D01*
X20404130Y18240282D01*
X20460931Y18364658D01*
X20460931Y18364660D01*
X20460932Y18364661D01*
X20480390Y18499998D01*
X20480390Y18500003D01*
X20460932Y18635340D01*
X20414529Y18736947D01*
X20404130Y18759718D01*
X20314589Y18863055D01*
X20199561Y18936978D01*
X20199558Y18936979D01*
X20068371Y18975500D01*
X20068367Y18975500D01*
X19931633Y18975500D01*
X19931628Y18975500D01*
X19800441Y18936979D01*
X19685409Y18863054D01*
X19637032Y18807223D01*
X19603496Y18790436D01*
X19567912Y18802279D01*
X19562968Y18807223D01*
X19514590Y18863054D01*
X19514589Y18863055D01*
X19399561Y18936978D01*
X19399558Y18936979D01*
X19268371Y18975500D01*
X19268367Y18975500D01*
X19131633Y18975500D01*
X19131628Y18975500D01*
X19000441Y18936979D01*
X18885409Y18863054D01*
X18837032Y18807223D01*
X18803496Y18790436D01*
X18767912Y18802279D01*
X18762968Y18807223D01*
X18714590Y18863054D01*
X18714589Y18863055D01*
X18599561Y18936978D01*
X18599558Y18936979D01*
X18468371Y18975500D01*
X18468367Y18975500D01*
X18331633Y18975500D01*
X18331628Y18975500D01*
X18200441Y18936979D01*
X18085409Y18863054D01*
X18037032Y18807223D01*
X18003496Y18790436D01*
X17967912Y18802279D01*
X17962968Y18807223D01*
X17914590Y18863054D01*
X17914589Y18863055D01*
X17799561Y18936978D01*
X17799558Y18936979D01*
X17668371Y18975500D01*
X17668367Y18975500D01*
X17531633Y18975500D01*
X17531628Y18975500D01*
X17400441Y18936979D01*
X17285409Y18863054D01*
X17237032Y18807223D01*
X17203496Y18790436D01*
X17167912Y18802279D01*
X17162968Y18807223D01*
X17114590Y18863054D01*
X17114589Y18863055D01*
X16999561Y18936978D01*
X16999558Y18936979D01*
X16868371Y18975500D01*
X16868367Y18975500D01*
X16731633Y18975500D01*
X16731628Y18975500D01*
X16600441Y18936979D01*
X16485409Y18863054D01*
X16395870Y18759719D01*
X16339067Y18635340D01*
X16319610Y18500003D01*
X1569223Y18500003D01*
X1514589Y18563055D01*
X1399561Y18636978D01*
X1399558Y18636979D01*
X1268371Y18675500D01*
X1268367Y18675500D01*
X1131633Y18675500D01*
X1131628Y18675500D01*
X1000441Y18636979D01*
X1000439Y18636979D01*
X1000439Y18636978D01*
X981024Y18624501D01*
X885409Y18563054D01*
X795870Y18459719D01*
X739067Y18335340D01*
X719610Y18200003D01*
X300500Y18200003D01*
X300500Y19244032D01*
X13892005Y19244032D01*
X13892005Y19244027D01*
X13911462Y19108690D01*
X13915431Y19100000D01*
X13968265Y18984311D01*
X14057806Y18880974D01*
X14172834Y18807051D01*
X14229420Y18790436D01*
X14304023Y18768530D01*
X14304026Y18768530D01*
X14304028Y18768529D01*
X14304029Y18768529D01*
X14440761Y18768529D01*
X14440762Y18768529D01*
X14440764Y18768530D01*
X14440766Y18768530D01*
X14462457Y18774900D01*
X14571956Y18807051D01*
X14686984Y18880974D01*
X14776525Y18984311D01*
X14833326Y19108687D01*
X14833326Y19108689D01*
X14833327Y19108690D01*
X14852785Y19244027D01*
X14852785Y19244032D01*
X14833327Y19379369D01*
X14825515Y19396473D01*
X14776525Y19503747D01*
X14686984Y19607084D01*
X14571956Y19681007D01*
X14571953Y19681008D01*
X14440766Y19719529D01*
X14440762Y19719529D01*
X14304028Y19719529D01*
X14304023Y19719529D01*
X14172836Y19681008D01*
X14057804Y19607083D01*
X13968265Y19503748D01*
X13911462Y19379369D01*
X13892005Y19244032D01*
X300500Y19244032D01*
X300500Y21300003D01*
X11919610Y21300003D01*
X11919610Y21299998D01*
X11939067Y21164661D01*
X11995870Y21040282D01*
X12085411Y20936945D01*
X12200439Y20863022D01*
X12273438Y20841588D01*
X12331628Y20824501D01*
X12331631Y20824501D01*
X12331633Y20824500D01*
X12331634Y20824500D01*
X12468366Y20824500D01*
X12468367Y20824500D01*
X12468369Y20824501D01*
X12468371Y20824501D01*
X12490062Y20830871D01*
X12599561Y20863022D01*
X12714589Y20936945D01*
X12804130Y21040282D01*
X12860931Y21164658D01*
X12860931Y21164660D01*
X12860932Y21164661D01*
X12880390Y21299998D01*
X12880390Y21300003D01*
X12860932Y21435340D01*
X12847454Y21464852D01*
X12804130Y21559718D01*
X12737213Y21636945D01*
X12714590Y21663054D01*
X12714589Y21663055D01*
X12599561Y21736978D01*
X12590853Y21739535D01*
X12468371Y21775500D01*
X12468367Y21775500D01*
X12331633Y21775500D01*
X12331628Y21775500D01*
X12200441Y21736979D01*
X12085409Y21663054D01*
X11995870Y21559719D01*
X11939067Y21435340D01*
X11919610Y21300003D01*
X300500Y21300003D01*
X300500Y23200003D01*
X5419610Y23200003D01*
X5419610Y23199998D01*
X5439067Y23064661D01*
X5495870Y22940282D01*
X5582519Y22840282D01*
X5585411Y22836945D01*
X5700439Y22763022D01*
X5773438Y22741588D01*
X5831628Y22724501D01*
X5831631Y22724501D01*
X5831633Y22724500D01*
X5831634Y22724500D01*
X5968366Y22724500D01*
X5968367Y22724500D01*
X5968369Y22724501D01*
X5968371Y22724501D01*
X5990062Y22730871D01*
X6099561Y22763022D01*
X6214589Y22836945D01*
X6304130Y22940282D01*
X6360931Y23064658D01*
X6360931Y23064660D01*
X6360932Y23064661D01*
X6380390Y23199998D01*
X6380390Y23200003D01*
X10619610Y23200003D01*
X10619610Y23199998D01*
X10639067Y23064661D01*
X10695870Y22940282D01*
X10782519Y22840282D01*
X10785411Y22836945D01*
X10900439Y22763022D01*
X10973438Y22741588D01*
X11031628Y22724501D01*
X11031631Y22724501D01*
X11031633Y22724500D01*
X11031634Y22724500D01*
X11168366Y22724500D01*
X11168367Y22724500D01*
X11168369Y22724501D01*
X11168371Y22724501D01*
X11190062Y22730871D01*
X11299561Y22763022D01*
X11414589Y22836945D01*
X11504130Y22940282D01*
X11560931Y23064658D01*
X11560931Y23064660D01*
X11560932Y23064661D01*
X11580390Y23199998D01*
X11580390Y23200003D01*
X11560932Y23335340D01*
X11514515Y23436978D01*
X11504130Y23459718D01*
X11414589Y23563055D01*
X11299561Y23636978D01*
X11299558Y23636979D01*
X11168371Y23675500D01*
X11168367Y23675500D01*
X11031633Y23675500D01*
X11031628Y23675500D01*
X10900441Y23636979D01*
X10785409Y23563054D01*
X10695870Y23459719D01*
X10639067Y23335340D01*
X10619610Y23200003D01*
X6380390Y23200003D01*
X6360932Y23335340D01*
X6314515Y23436978D01*
X6304130Y23459718D01*
X6214589Y23563055D01*
X6099561Y23636978D01*
X6099558Y23636979D01*
X5968371Y23675500D01*
X5968367Y23675500D01*
X5831633Y23675500D01*
X5831628Y23675500D01*
X5700441Y23636979D01*
X5585409Y23563054D01*
X5495870Y23459719D01*
X5439067Y23335340D01*
X5419610Y23200003D01*
X300500Y23200003D01*
X300500Y23800003D01*
X1319610Y23800003D01*
X1319610Y23799998D01*
X1339067Y23664661D01*
X1395870Y23540282D01*
X1485381Y23436979D01*
X1485411Y23436945D01*
X1600439Y23363022D01*
X1673438Y23341588D01*
X1731628Y23324501D01*
X1731631Y23324501D01*
X1731633Y23324500D01*
X1731634Y23324500D01*
X1868366Y23324500D01*
X1868367Y23324500D01*
X1868369Y23324501D01*
X1868371Y23324501D01*
X1890062Y23330871D01*
X1999561Y23363022D01*
X2114589Y23436945D01*
X2204130Y23540282D01*
X2260931Y23664658D01*
X2260931Y23664660D01*
X2260932Y23664661D01*
X2280390Y23799998D01*
X2280390Y23800003D01*
X2260932Y23935340D01*
X2253120Y23952444D01*
X2204130Y24059718D01*
X2114589Y24163055D01*
X1999561Y24236978D01*
X1999558Y24236979D01*
X1868371Y24275500D01*
X1868367Y24275500D01*
X1731633Y24275500D01*
X1731628Y24275500D01*
X1600441Y24236979D01*
X1485409Y24163054D01*
X1395870Y24059719D01*
X1339067Y23935340D01*
X1319610Y23800003D01*
X300500Y23800003D01*
X300500Y26600003D01*
X4019610Y26600003D01*
X4019610Y26599998D01*
X4039067Y26464661D01*
X4095870Y26340282D01*
X4181544Y26241407D01*
X4185411Y26236945D01*
X4300439Y26163022D01*
X4373438Y26141588D01*
X4431628Y26124501D01*
X4431631Y26124501D01*
X4431633Y26124500D01*
X4431634Y26124500D01*
X4568366Y26124500D01*
X4568367Y26124500D01*
X4568369Y26124501D01*
X4568371Y26124501D01*
X4590062Y26130871D01*
X4699561Y26163022D01*
X4814589Y26236945D01*
X4904130Y26340282D01*
X4960931Y26464658D01*
X4960931Y26464660D01*
X4960932Y26464661D01*
X4980390Y26599998D01*
X4980390Y26600003D01*
X4960932Y26735340D01*
X4931402Y26800001D01*
X4904130Y26859718D01*
X4814589Y26963055D01*
X4699561Y27036978D01*
X4699558Y27036979D01*
X4568371Y27075500D01*
X4568367Y27075500D01*
X4431633Y27075500D01*
X4431628Y27075500D01*
X4300441Y27036979D01*
X4300439Y27036979D01*
X4300439Y27036978D01*
X4249050Y27003953D01*
X4185409Y26963054D01*
X4095870Y26859719D01*
X4039067Y26735340D01*
X4019610Y26600003D01*
X300500Y26600003D01*
X300500Y30087665D01*
X314852Y30122313D01*
X349500Y30136665D01*
X384148Y30122313D01*
X395020Y30105802D01*
X409255Y30070074D01*
X409257Y30070069D01*
X581978Y29744284D01*
X581982Y29744276D01*
X788906Y29439088D01*
X1027619Y29158052D01*
X1027629Y29158042D01*
X1295322Y28904469D01*
X1295326Y28904465D01*
X1588882Y28681309D01*
X1657070Y28640282D01*
X1904838Y28491205D01*
X2029845Y28433371D01*
X2239491Y28336377D01*
X2239497Y28336375D01*
X2588934Y28218636D01*
X2777087Y28177221D01*
X2949042Y28139370D01*
X2949043Y28139370D01*
X2949052Y28139368D01*
X3315630Y28099500D01*
X3315635Y28099500D01*
X3684365Y28099500D01*
X3684370Y28099500D01*
X4050948Y28139368D01*
X4411066Y28218636D01*
X4760503Y28336375D01*
X4760505Y28336377D01*
X4760508Y28336377D01*
X4845147Y28375536D01*
X5095162Y28491205D01*
X5411119Y28681310D01*
X5698804Y28900003D01*
X7419610Y28900003D01*
X7419610Y28899998D01*
X7439067Y28764661D01*
X7477133Y28681310D01*
X7495870Y28640282D01*
X7585411Y28536945D01*
X7700439Y28463022D01*
X7773438Y28441588D01*
X7831628Y28424501D01*
X7831631Y28424501D01*
X7831633Y28424500D01*
X7831634Y28424500D01*
X7968366Y28424500D01*
X7968367Y28424500D01*
X7968369Y28424501D01*
X7968371Y28424501D01*
X7990062Y28430871D01*
X8099561Y28463022D01*
X8214589Y28536945D01*
X8304130Y28640282D01*
X8360931Y28764658D01*
X8360931Y28764660D01*
X8360932Y28764661D01*
X8380390Y28899998D01*
X8380390Y28900003D01*
X8360932Y29035340D01*
X8331401Y29100003D01*
X8304130Y29159718D01*
X8237213Y29236945D01*
X8214590Y29263054D01*
X8214589Y29263055D01*
X8099561Y29336978D01*
X8088309Y29340282D01*
X7968371Y29375500D01*
X7968367Y29375500D01*
X7831633Y29375500D01*
X7831628Y29375500D01*
X7700441Y29336979D01*
X7700439Y29336979D01*
X7700439Y29336978D01*
X7642925Y29300017D01*
X7585409Y29263054D01*
X7495870Y29159719D01*
X7439067Y29035340D01*
X7419610Y28900003D01*
X5698804Y28900003D01*
X5704670Y28904462D01*
X5972373Y29158044D01*
X5976602Y29163022D01*
X6038029Y29235340D01*
X6211090Y29439083D01*
X6411958Y29735340D01*
X6418017Y29744276D01*
X6418018Y29744279D01*
X6418022Y29744284D01*
X6590743Y30070070D01*
X6727227Y30412621D01*
X6825875Y30767919D01*
X6825875Y30767921D01*
X6825877Y30767927D01*
X6859301Y30971805D01*
X6885531Y31131801D01*
X6905494Y31500000D01*
X6889229Y31800001D01*
X8994558Y31800001D01*
X8994558Y31800000D01*
X9013877Y31603848D01*
X9013877Y31603847D01*
X9071093Y31415233D01*
X9164004Y31241408D01*
X9164009Y31241401D01*
X9253950Y31131809D01*
X9289044Y31089047D01*
X9289047Y31089044D01*
X9310604Y31071353D01*
X9441406Y30964006D01*
X9523598Y30920074D01*
X9547389Y30891086D01*
X9549499Y30876861D01*
X9549499Y27723141D01*
X9535147Y27688493D01*
X9523598Y27679927D01*
X9441402Y27635992D01*
X9441399Y27635990D01*
X9289045Y27510954D01*
X9164009Y27358600D01*
X9164004Y27358593D01*
X9071093Y27184768D01*
X9013877Y26996154D01*
X9013877Y26996153D01*
X8994558Y26800001D01*
X8994558Y26800000D01*
X9013877Y26603848D01*
X9013877Y26603847D01*
X9071093Y26415233D01*
X9164004Y26241408D01*
X9164009Y26241401D01*
X9228334Y26163022D01*
X9289045Y26089046D01*
X9376365Y26017384D01*
X9441399Y25964011D01*
X9441406Y25964006D01*
X9615233Y25871094D01*
X9803847Y25813878D01*
X9999999Y25794559D01*
X10196151Y25813878D01*
X10285334Y25840933D01*
X10322654Y25837258D01*
X10334204Y25828692D01*
X15523385Y20639510D01*
X15523388Y20639509D01*
X15523391Y20639506D01*
X15572841Y20610957D01*
X15626112Y20580201D01*
X15650325Y20573714D01*
X15695507Y20561607D01*
X15740688Y20549500D01*
X15740690Y20549500D01*
X23793101Y20549500D01*
X23827748Y20535149D01*
X28723386Y15639510D01*
X28723389Y15639509D01*
X28723392Y15639506D01*
X28763247Y15616497D01*
X28826113Y15580201D01*
X28847394Y15574499D01*
X28878493Y15566166D01*
X28940689Y15549500D01*
X28940691Y15549500D01*
X34893101Y15549500D01*
X34927749Y15535148D01*
X36135148Y14327749D01*
X36149500Y14293101D01*
X36149500Y13568842D01*
X36145072Y13548487D01*
X36139067Y13535340D01*
X36119610Y13400003D01*
X36119610Y13399998D01*
X36139067Y13264661D01*
X36195870Y13140282D01*
X36285381Y13036979D01*
X36285411Y13036945D01*
X36400439Y12963022D01*
X36473438Y12941588D01*
X36531628Y12924501D01*
X36531631Y12924501D01*
X36531633Y12924500D01*
X36531634Y12924500D01*
X36668366Y12924500D01*
X36668367Y12924500D01*
X36668369Y12924501D01*
X36668371Y12924501D01*
X36690062Y12930871D01*
X36799561Y12963022D01*
X36914589Y13036945D01*
X37004130Y13140282D01*
X37060931Y13264658D01*
X37060931Y13264660D01*
X37060932Y13264661D01*
X37080390Y13399998D01*
X37080390Y13400003D01*
X37066013Y13500003D01*
X39819610Y13500003D01*
X39819610Y13499998D01*
X39839067Y13364661D01*
X39895870Y13240282D01*
X39982519Y13140282D01*
X39985411Y13136945D01*
X40100439Y13063022D01*
X40173438Y13041588D01*
X40231628Y13024501D01*
X40231631Y13024501D01*
X40231633Y13024500D01*
X40231634Y13024500D01*
X40368366Y13024500D01*
X40368367Y13024500D01*
X40368369Y13024501D01*
X40368371Y13024501D01*
X40390062Y13030871D01*
X40499561Y13063022D01*
X40614589Y13136945D01*
X40704130Y13240282D01*
X40760931Y13364658D01*
X40760931Y13364660D01*
X40760932Y13364661D01*
X40780390Y13499998D01*
X40780390Y13500003D01*
X40760932Y13635340D01*
X40742591Y13675500D01*
X40704130Y13759718D01*
X40614589Y13863055D01*
X40499561Y13936978D01*
X40499558Y13936979D01*
X40368371Y13975500D01*
X40368367Y13975500D01*
X40231633Y13975500D01*
X40231628Y13975500D01*
X40100441Y13936979D01*
X39985409Y13863054D01*
X39895870Y13759719D01*
X39839067Y13635340D01*
X39819610Y13500003D01*
X37066013Y13500003D01*
X37060932Y13535340D01*
X37054928Y13548487D01*
X37050500Y13568842D01*
X37050500Y14331158D01*
X37054928Y14351514D01*
X37060931Y14364658D01*
X37080390Y14500000D01*
X37080390Y14500003D01*
X37066013Y14600003D01*
X39019610Y14600003D01*
X39019610Y14599998D01*
X39039067Y14464661D01*
X39095870Y14340282D01*
X39162787Y14263054D01*
X39185411Y14236945D01*
X39300439Y14163022D01*
X39373438Y14141588D01*
X39431628Y14124501D01*
X39431631Y14124501D01*
X39431633Y14124500D01*
X39431634Y14124500D01*
X39568366Y14124500D01*
X39568367Y14124500D01*
X39568369Y14124501D01*
X39568371Y14124501D01*
X39590062Y14130871D01*
X39699561Y14163022D01*
X39814589Y14236945D01*
X39904130Y14340282D01*
X39960931Y14464658D01*
X39960931Y14464660D01*
X39960932Y14464661D01*
X39980390Y14599998D01*
X39980390Y14600003D01*
X39960932Y14735340D01*
X39942591Y14775500D01*
X39904130Y14859718D01*
X39837213Y14936945D01*
X39814590Y14963054D01*
X39814589Y14963055D01*
X39699561Y15036978D01*
X39688309Y15040282D01*
X39568371Y15075500D01*
X39568367Y15075500D01*
X39431633Y15075500D01*
X39431628Y15075500D01*
X39300441Y15036979D01*
X39185409Y14963054D01*
X39095870Y14859719D01*
X39039067Y14735340D01*
X39019610Y14600003D01*
X37066013Y14600003D01*
X37060932Y14635340D01*
X37014515Y14736978D01*
X37004130Y14759718D01*
X36914589Y14863055D01*
X36805568Y14933118D01*
X36797411Y14939692D01*
X35376614Y16360489D01*
X35273888Y16419799D01*
X35273886Y16419800D01*
X35249673Y16426287D01*
X35219551Y16434358D01*
X35159311Y16450500D01*
X35159309Y16450500D01*
X29206900Y16450500D01*
X29172252Y16464852D01*
X28237101Y17400003D01*
X34619610Y17400003D01*
X34619610Y17399998D01*
X34639067Y17264661D01*
X34685485Y17163022D01*
X34695870Y17140282D01*
X34785411Y17036945D01*
X34900439Y16963022D01*
X34973438Y16941588D01*
X35031628Y16924501D01*
X35031631Y16924501D01*
X35031633Y16924500D01*
X35031634Y16924500D01*
X35168366Y16924500D01*
X35168367Y16924500D01*
X35168369Y16924501D01*
X35168371Y16924501D01*
X35190062Y16930871D01*
X35299561Y16963022D01*
X35414589Y17036945D01*
X35504130Y17140282D01*
X35560931Y17264658D01*
X35560931Y17264660D01*
X35560932Y17264661D01*
X35580390Y17399998D01*
X35580390Y17400003D01*
X35560932Y17535340D01*
X35531401Y17600003D01*
X35504130Y17659718D01*
X35414589Y17763055D01*
X35299561Y17836978D01*
X35299558Y17836979D01*
X35168371Y17875500D01*
X35168367Y17875500D01*
X35031633Y17875500D01*
X35031628Y17875500D01*
X34900441Y17836979D01*
X34900439Y17836979D01*
X34900439Y17836978D01*
X34842925Y17800017D01*
X34785409Y17763054D01*
X34695870Y17659719D01*
X34639067Y17535340D01*
X34619610Y17400003D01*
X28237101Y17400003D01*
X25937100Y19700003D01*
X27919610Y19700003D01*
X27919610Y19699998D01*
X27939067Y19564661D01*
X27995870Y19440282D01*
X28082519Y19340282D01*
X28085411Y19336945D01*
X28200439Y19263022D01*
X28265130Y19244027D01*
X28331628Y19224501D01*
X28331631Y19224501D01*
X28331633Y19224500D01*
X28331634Y19224500D01*
X28468366Y19224500D01*
X28468367Y19224500D01*
X28468369Y19224501D01*
X28468371Y19224501D01*
X28490062Y19230871D01*
X28599561Y19263022D01*
X28714589Y19336945D01*
X28804130Y19440282D01*
X28860931Y19564658D01*
X28860931Y19564660D01*
X28860932Y19564661D01*
X28880390Y19699998D01*
X28880390Y19700003D01*
X28860932Y19835340D01*
X28849798Y19859719D01*
X28804130Y19959718D01*
X28714589Y20063055D01*
X28599561Y20136978D01*
X28599558Y20136979D01*
X28468371Y20175500D01*
X28468367Y20175500D01*
X28331633Y20175500D01*
X28331628Y20175500D01*
X28200441Y20136979D01*
X28085409Y20063054D01*
X27995870Y19959719D01*
X27939067Y19835340D01*
X27919610Y19700003D01*
X25937100Y19700003D01*
X24276615Y21360488D01*
X24276614Y21360489D01*
X24173888Y21419799D01*
X24173886Y21419800D01*
X24149673Y21426287D01*
X24115879Y21435342D01*
X24059311Y21450500D01*
X24059309Y21450500D01*
X16006899Y21450500D01*
X15972251Y21464852D01*
X15337100Y22100003D01*
X25219610Y22100003D01*
X25219610Y22099998D01*
X25239067Y21964661D01*
X25295870Y21840282D01*
X25385381Y21736979D01*
X25385411Y21736945D01*
X25500439Y21663022D01*
X25573438Y21641588D01*
X25631628Y21624501D01*
X25631631Y21624501D01*
X25631633Y21624500D01*
X25631634Y21624500D01*
X25768366Y21624500D01*
X25768367Y21624500D01*
X25768369Y21624501D01*
X25768371Y21624501D01*
X25790062Y21630871D01*
X25899561Y21663022D01*
X26014589Y21736945D01*
X26104130Y21840282D01*
X26160931Y21964658D01*
X26160931Y21964660D01*
X26160932Y21964661D01*
X26180390Y22099998D01*
X26180390Y22100003D01*
X26160932Y22235340D01*
X26129887Y22303318D01*
X26104130Y22359718D01*
X26014589Y22463055D01*
X25899561Y22536978D01*
X25899558Y22536979D01*
X25768371Y22575500D01*
X25768367Y22575500D01*
X25631633Y22575500D01*
X25631628Y22575500D01*
X25500441Y22536979D01*
X25385409Y22463054D01*
X25295870Y22359719D01*
X25239067Y22235340D01*
X25219610Y22100003D01*
X15337100Y22100003D01*
X14437100Y23000003D01*
X19419610Y23000003D01*
X19419610Y22999998D01*
X19439067Y22864661D01*
X19495870Y22740282D01*
X19582519Y22640282D01*
X19585411Y22636945D01*
X19700439Y22563022D01*
X19773438Y22541588D01*
X19831628Y22524501D01*
X19831631Y22524501D01*
X19831633Y22524500D01*
X19831634Y22524500D01*
X19968366Y22524500D01*
X19968367Y22524500D01*
X19968369Y22524501D01*
X19968371Y22524501D01*
X19990062Y22530871D01*
X20099561Y22563022D01*
X20214589Y22636945D01*
X20304130Y22740282D01*
X20360931Y22864658D01*
X20360931Y22864660D01*
X20360932Y22864661D01*
X20380390Y22999998D01*
X20380390Y23000003D01*
X20366013Y23100003D01*
X23119610Y23100003D01*
X23119610Y23099998D01*
X23139067Y22964661D01*
X23195870Y22840282D01*
X23285381Y22736979D01*
X23285411Y22736945D01*
X23400439Y22663022D01*
X23473438Y22641588D01*
X23531628Y22624501D01*
X23531631Y22624501D01*
X23531633Y22624500D01*
X23531634Y22624500D01*
X23668366Y22624500D01*
X23668367Y22624500D01*
X23668369Y22624501D01*
X23668371Y22624501D01*
X23690062Y22630871D01*
X23799561Y22663022D01*
X23914589Y22736945D01*
X24004130Y22840282D01*
X24060931Y22964658D01*
X24060931Y22964660D01*
X24060932Y22964661D01*
X24080390Y23099998D01*
X24080390Y23100003D01*
X24060932Y23235340D01*
X24048275Y23263055D01*
X24004130Y23359718D01*
X23937213Y23436945D01*
X23914590Y23463054D01*
X23914589Y23463055D01*
X23799561Y23536978D01*
X23788309Y23540282D01*
X23668371Y23575500D01*
X23668367Y23575500D01*
X23531633Y23575500D01*
X23531628Y23575500D01*
X23400441Y23536979D01*
X23285409Y23463054D01*
X23195870Y23359719D01*
X23139067Y23235340D01*
X23119610Y23100003D01*
X20366013Y23100003D01*
X20360932Y23135340D01*
X20315262Y23235342D01*
X20304130Y23259718D01*
X20237184Y23336979D01*
X20214590Y23363054D01*
X20214589Y23363055D01*
X20099561Y23436978D01*
X20099558Y23436979D01*
X19968371Y23475500D01*
X19968367Y23475500D01*
X19831633Y23475500D01*
X19831628Y23475500D01*
X19700441Y23436979D01*
X19585409Y23363054D01*
X19495870Y23259719D01*
X19439067Y23135340D01*
X19419610Y23000003D01*
X14437100Y23000003D01*
X10971308Y26465794D01*
X10956956Y26500442D01*
X10959064Y26514660D01*
X10986121Y26603848D01*
X11005440Y26800000D01*
X11005440Y26800001D01*
X12494559Y26800001D01*
X12494559Y26800000D01*
X12513878Y26603848D01*
X12513878Y26603847D01*
X12571094Y26415233D01*
X12664005Y26241408D01*
X12664010Y26241401D01*
X12728335Y26163022D01*
X12789046Y26089046D01*
X12876366Y26017384D01*
X12941400Y25964011D01*
X12941407Y25964006D01*
X13115234Y25871094D01*
X13303848Y25813878D01*
X13500000Y25794559D01*
X13696152Y25813878D01*
X13884766Y25871094D01*
X14058593Y25964006D01*
X14210954Y26089046D01*
X14335994Y26241407D01*
X14428906Y26415234D01*
X14486122Y26603848D01*
X14505441Y26800000D01*
X14498360Y26871895D01*
X16453900Y26871895D01*
X16453900Y26728105D01*
X16491116Y26589213D01*
X16563011Y26464687D01*
X16664687Y26363011D01*
X16789213Y26291116D01*
X16928105Y26253900D01*
X17071895Y26253900D01*
X17210787Y26291116D01*
X17335313Y26363011D01*
X17436989Y26464687D01*
X17508884Y26589213D01*
X17546100Y26728105D01*
X17546100Y26807800D01*
X21794558Y26807800D01*
X21794558Y26807799D01*
X21813877Y26611647D01*
X21813877Y26611646D01*
X21871093Y26423032D01*
X21964004Y26249207D01*
X21964009Y26249200D01*
X22004389Y26199998D01*
X22089045Y26096845D01*
X22128265Y26064658D01*
X22241399Y25971810D01*
X22241406Y25971805D01*
X22415233Y25878893D01*
X22603847Y25821677D01*
X22799999Y25802358D01*
X22996151Y25821677D01*
X23184765Y25878893D01*
X23358592Y25971805D01*
X23510953Y26096845D01*
X23635993Y26249206D01*
X23728905Y26423033D01*
X23786121Y26611647D01*
X23805440Y26807799D01*
X23805440Y26807800D01*
X25294559Y26807800D01*
X25294559Y26807799D01*
X25313878Y26611647D01*
X25313878Y26611646D01*
X25371094Y26423032D01*
X25464005Y26249207D01*
X25464010Y26249200D01*
X25504390Y26199998D01*
X25589046Y26096845D01*
X25628266Y26064658D01*
X25741400Y25971810D01*
X25741407Y25971805D01*
X25915234Y25878893D01*
X25939724Y25871465D01*
X25968714Y25847674D01*
X25974500Y25824575D01*
X25974500Y24257144D01*
X25996681Y24174363D01*
X25996682Y24174360D01*
X26003210Y24163054D01*
X26039535Y24100138D01*
X31700138Y18439535D01*
X31774361Y18396682D01*
X31839653Y18379188D01*
X31857143Y18374501D01*
X31857144Y18374500D01*
X31857147Y18374500D01*
X38644877Y18374500D01*
X38679525Y18360148D01*
X42160148Y14879525D01*
X42174500Y14844877D01*
X42174500Y13355123D01*
X42160148Y13320475D01*
X39679525Y10839852D01*
X39644877Y10825500D01*
X37755123Y10825500D01*
X37720475Y10839852D01*
X37694742Y10865585D01*
X37681865Y10896672D01*
X37680889Y10896531D01*
X37660932Y11035340D01*
X37615585Y11134635D01*
X37604130Y11159718D01*
X37528430Y11247082D01*
X37514590Y11263054D01*
X37514589Y11263055D01*
X37399561Y11336978D01*
X37399558Y11336979D01*
X37268371Y11375500D01*
X37268367Y11375500D01*
X37131633Y11375500D01*
X37131628Y11375500D01*
X37000441Y11336979D01*
X36885409Y11263054D01*
X36795870Y11159719D01*
X36739067Y11035340D01*
X36719610Y10900003D01*
X36719610Y10899998D01*
X36739067Y10764661D01*
X36751710Y10736978D01*
X36795870Y10640282D01*
X36885411Y10536945D01*
X37000439Y10463022D01*
X37073438Y10441588D01*
X37131628Y10424501D01*
X37131631Y10424501D01*
X37131633Y10424500D01*
X37194877Y10424500D01*
X37229525Y10410148D01*
X37339534Y10300139D01*
X37339535Y10300138D01*
X37400138Y10239535D01*
X37404567Y10236978D01*
X37474359Y10196683D01*
X37474361Y10196683D01*
X37474362Y10196682D01*
X37539651Y10179188D01*
X37557143Y10174501D01*
X37557144Y10174500D01*
X37557147Y10174500D01*
X39842856Y10174500D01*
X39842856Y10174501D01*
X39925639Y10196682D01*
X39999862Y10239535D01*
X42695827Y12935503D01*
X42695832Y12935506D01*
X42699860Y12939535D01*
X42699862Y12939535D01*
X42760465Y13000138D01*
X42803318Y13074362D01*
X42810188Y13100000D01*
X42825501Y13157147D01*
X42825501Y13242853D01*
X42825501Y13245849D01*
X42825500Y13245867D01*
X42825500Y15042856D01*
X42804988Y15119406D01*
X42804987Y15119410D01*
X42804987Y15119409D01*
X42803318Y15125638D01*
X42803318Y15125639D01*
X42760465Y15199862D01*
X38999862Y18960465D01*
X38958560Y18984311D01*
X38925640Y19003318D01*
X38925637Y19003319D01*
X38842856Y19025500D01*
X38842853Y19025500D01*
X32055123Y19025500D01*
X32020475Y19039852D01*
X26639852Y24420475D01*
X26625500Y24455123D01*
X26625500Y25824575D01*
X26639852Y25859223D01*
X26660274Y25871464D01*
X26684766Y25878893D01*
X26858593Y25971805D01*
X27010954Y26096845D01*
X27135994Y26249206D01*
X27228906Y26423033D01*
X27286122Y26611647D01*
X27305441Y26807799D01*
X27305332Y26808901D01*
X27303538Y26827119D01*
X27286122Y27003951D01*
X27228906Y27192565D01*
X27228316Y27193668D01*
X27135994Y27366392D01*
X27135989Y27366399D01*
X27082616Y27431433D01*
X27010954Y27518753D01*
X26939290Y27577566D01*
X26858599Y27643789D01*
X26858592Y27643794D01*
X26684767Y27736705D01*
X26496152Y27793921D01*
X26300000Y27813240D01*
X26103847Y27793921D01*
X26103846Y27793921D01*
X25915232Y27736705D01*
X25741407Y27643794D01*
X25741400Y27643789D01*
X25589046Y27518753D01*
X25464010Y27366399D01*
X25464005Y27366392D01*
X25371094Y27192567D01*
X25313878Y27003953D01*
X25313878Y27003952D01*
X25294559Y26807800D01*
X23805440Y26807800D01*
X23805331Y26808901D01*
X23803537Y26827119D01*
X23786121Y27003951D01*
X23728905Y27192565D01*
X23728315Y27193668D01*
X23635993Y27366392D01*
X23635988Y27366399D01*
X23582615Y27431433D01*
X23510953Y27518753D01*
X23439289Y27577566D01*
X23358598Y27643789D01*
X23358591Y27643794D01*
X23184766Y27736705D01*
X22996151Y27793921D01*
X22799999Y27813240D01*
X22603846Y27793921D01*
X22603845Y27793921D01*
X22415231Y27736705D01*
X22241406Y27643794D01*
X22241399Y27643789D01*
X22089045Y27518753D01*
X21964009Y27366399D01*
X21964004Y27366392D01*
X21871093Y27192567D01*
X21813877Y27003953D01*
X21813877Y27003952D01*
X21794558Y26807800D01*
X17546100Y26807800D01*
X17546100Y26871895D01*
X17508884Y27010787D01*
X17436989Y27135313D01*
X17335313Y27236989D01*
X17210787Y27308884D01*
X17071895Y27346100D01*
X16928105Y27346100D01*
X16789213Y27308884D01*
X16664687Y27236989D01*
X16563011Y27135313D01*
X16491116Y27010787D01*
X16453900Y26871895D01*
X14498360Y26871895D01*
X14486122Y26996152D01*
X14428906Y27184766D01*
X14335994Y27358593D01*
X14335989Y27358600D01*
X14282616Y27423634D01*
X14210954Y27510954D01*
X14139290Y27569767D01*
X14058599Y27635990D01*
X14058592Y27635995D01*
X13884767Y27728906D01*
X13696152Y27786122D01*
X13500000Y27805441D01*
X13303847Y27786122D01*
X13303846Y27786122D01*
X13115232Y27728906D01*
X12941407Y27635995D01*
X12941400Y27635990D01*
X12789046Y27510954D01*
X12664010Y27358600D01*
X12664005Y27358593D01*
X12571094Y27184768D01*
X12513878Y26996154D01*
X12513878Y26996153D01*
X12494559Y26800001D01*
X11005440Y26800001D01*
X10986121Y26996152D01*
X10928905Y27184766D01*
X10835993Y27358593D01*
X10835988Y27358600D01*
X10782615Y27423634D01*
X10710953Y27510954D01*
X10639289Y27569767D01*
X10558598Y27635990D01*
X10558595Y27635992D01*
X10558593Y27635993D01*
X10558592Y27635994D01*
X10517367Y27658029D01*
X10476400Y27679927D01*
X10452609Y27708918D01*
X10450499Y27723141D01*
X10450499Y29100003D01*
X19019610Y29100003D01*
X19019610Y29099998D01*
X19039067Y28964661D01*
X19068598Y28899998D01*
X19095870Y28840282D01*
X19185411Y28736945D01*
X19300439Y28663022D01*
X19373438Y28641588D01*
X19431628Y28624501D01*
X19431631Y28624501D01*
X19431633Y28624500D01*
X19431634Y28624500D01*
X19568366Y28624500D01*
X19568367Y28624500D01*
X19568369Y28624501D01*
X19568371Y28624501D01*
X19590062Y28630871D01*
X19699561Y28663022D01*
X19814589Y28736945D01*
X19904130Y28840282D01*
X19960931Y28964658D01*
X19960931Y28964660D01*
X19960932Y28964661D01*
X19980390Y29099998D01*
X19980390Y29100003D01*
X19960932Y29235340D01*
X19914515Y29336978D01*
X19904130Y29359718D01*
X19835356Y29439088D01*
X19814590Y29463054D01*
X19814589Y29463055D01*
X19699561Y29536978D01*
X19699558Y29536979D01*
X19568371Y29575500D01*
X19568367Y29575500D01*
X19431633Y29575500D01*
X19431628Y29575500D01*
X19300441Y29536979D01*
X19185409Y29463054D01*
X19095870Y29359719D01*
X19039067Y29235340D01*
X19019610Y29100003D01*
X10450499Y29100003D01*
X10450499Y30876861D01*
X10464851Y30911509D01*
X10476394Y30920072D01*
X10558592Y30964006D01*
X10710953Y31089046D01*
X10835993Y31241407D01*
X10928905Y31415234D01*
X10986121Y31603848D01*
X11005440Y31800000D01*
X11005440Y31800001D01*
X12494559Y31800001D01*
X12494559Y31800000D01*
X12513878Y31603848D01*
X12513878Y31603847D01*
X12571094Y31415233D01*
X12664005Y31241408D01*
X12664010Y31241401D01*
X12730233Y31160710D01*
X12789046Y31089046D01*
X12876366Y31017384D01*
X12941400Y30964011D01*
X12941406Y30964007D01*
X12941407Y30964006D01*
X13115234Y30871094D01*
X13303848Y30813878D01*
X13500000Y30794559D01*
X13696152Y30813878D01*
X13884766Y30871094D01*
X14058593Y30964006D01*
X14210954Y31089046D01*
X14335994Y31241407D01*
X14428906Y31415234D01*
X14486122Y31603848D01*
X14505441Y31800000D01*
X14498360Y31871895D01*
X16453900Y31871895D01*
X16453900Y31728105D01*
X16491116Y31589213D01*
X16563011Y31464687D01*
X16664687Y31363011D01*
X16789213Y31291116D01*
X16928105Y31253900D01*
X17071895Y31253900D01*
X17210787Y31291116D01*
X17335313Y31363011D01*
X17436989Y31464687D01*
X17508884Y31589213D01*
X17546100Y31728105D01*
X17546100Y31807800D01*
X21794558Y31807800D01*
X21794558Y31807799D01*
X21813877Y31611647D01*
X21813877Y31611646D01*
X21871093Y31423032D01*
X21964004Y31249207D01*
X21964009Y31249200D01*
X22030232Y31168509D01*
X22089045Y31096845D01*
X22176365Y31025183D01*
X22241399Y30971810D01*
X22241406Y30971805D01*
X22415233Y30878893D01*
X22603847Y30821677D01*
X22799999Y30802358D01*
X22996151Y30821677D01*
X23184765Y30878893D01*
X23358592Y30971805D01*
X23510953Y31096845D01*
X23635993Y31249206D01*
X23728905Y31423033D01*
X23786121Y31611647D01*
X23805440Y31807799D01*
X23805440Y31807800D01*
X25294559Y31807800D01*
X25294559Y31807799D01*
X25313878Y31611647D01*
X25313878Y31611646D01*
X25371094Y31423032D01*
X25464005Y31249207D01*
X25464010Y31249200D01*
X25530233Y31168509D01*
X25589046Y31096845D01*
X25676366Y31025183D01*
X25741400Y30971810D01*
X25741407Y30971805D01*
X25915234Y30878893D01*
X26103848Y30821677D01*
X26300000Y30802358D01*
X26496152Y30821677D01*
X26684766Y30878893D01*
X26858593Y30971805D01*
X27010954Y31096845D01*
X27135994Y31249206D01*
X27228906Y31423033D01*
X27286122Y31611647D01*
X27305441Y31807799D01*
X27305332Y31808901D01*
X27299128Y31871895D01*
X27286122Y32003951D01*
X27228906Y32192565D01*
X27228316Y32193668D01*
X27135994Y32366392D01*
X27135989Y32366399D01*
X27082616Y32431433D01*
X27010954Y32518753D01*
X26927342Y32587372D01*
X26858599Y32643789D01*
X26858592Y32643794D01*
X26684767Y32736705D01*
X26496152Y32793921D01*
X26300000Y32813240D01*
X26103847Y32793921D01*
X26103846Y32793921D01*
X25915232Y32736705D01*
X25741407Y32643794D01*
X25741400Y32643789D01*
X25589046Y32518753D01*
X25464010Y32366399D01*
X25464005Y32366392D01*
X25371094Y32192567D01*
X25313878Y32003953D01*
X25313878Y32003952D01*
X25294559Y31807800D01*
X23805440Y31807800D01*
X23805331Y31808901D01*
X23799127Y31871895D01*
X23786121Y32003951D01*
X23728905Y32192565D01*
X23728315Y32193668D01*
X23635993Y32366392D01*
X23635988Y32366399D01*
X23582615Y32431433D01*
X23510953Y32518753D01*
X23427341Y32587372D01*
X23358598Y32643789D01*
X23358595Y32643791D01*
X23358593Y32643792D01*
X23358592Y32643793D01*
X23184765Y32736705D01*
X23160273Y32744135D01*
X23131284Y32767928D01*
X23125499Y32791025D01*
X23125499Y32853191D01*
X23125500Y32853204D01*
X23125500Y32944877D01*
X23139852Y32979525D01*
X23620475Y33460148D01*
X23655123Y33474500D01*
X27044877Y33474500D01*
X27079525Y33460148D01*
X27660148Y32879525D01*
X27674500Y32844877D01*
X27674500Y25557144D01*
X27696681Y25474363D01*
X27696682Y25474360D01*
X27718265Y25436978D01*
X27739535Y25400138D01*
X32900138Y20239535D01*
X32974361Y20196682D01*
X33039653Y20179188D01*
X33057143Y20174501D01*
X33057144Y20174500D01*
X33057147Y20174500D01*
X38944877Y20174500D01*
X38979525Y20160148D01*
X43660148Y15479525D01*
X43674500Y15444877D01*
X43674500Y12855123D01*
X43660148Y12820475D01*
X40379525Y9539852D01*
X40344877Y9525500D01*
X37155123Y9525500D01*
X37120475Y9539852D01*
X36694742Y9965585D01*
X36681864Y9996673D01*
X36680889Y9996532D01*
X36660932Y10135340D01*
X36643048Y10174500D01*
X36604130Y10259718D01*
X36514589Y10363055D01*
X36399561Y10436978D01*
X36399558Y10436979D01*
X36268371Y10475500D01*
X36268367Y10475500D01*
X36131633Y10475500D01*
X36131628Y10475500D01*
X36000441Y10436979D01*
X36000439Y10436979D01*
X36000439Y10436978D01*
X35981024Y10424501D01*
X35885409Y10363054D01*
X35795870Y10259719D01*
X35739067Y10135340D01*
X35719610Y10000003D01*
X35719610Y9999998D01*
X35739067Y9864661D01*
X35795870Y9740282D01*
X35862787Y9663054D01*
X35885411Y9636945D01*
X36000439Y9563022D01*
X36073438Y9541588D01*
X36131628Y9524501D01*
X36131631Y9524501D01*
X36131633Y9524500D01*
X36194877Y9524500D01*
X36229525Y9510148D01*
X36800138Y8939535D01*
X36874361Y8896682D01*
X36939653Y8879188D01*
X36957143Y8874501D01*
X36957144Y8874500D01*
X36957147Y8874500D01*
X40542856Y8874500D01*
X40542856Y8874501D01*
X40625639Y8896682D01*
X40699862Y8939535D01*
X44260465Y12500138D01*
X44303317Y12574361D01*
X44303318Y12574362D01*
X44310189Y12600003D01*
X44319657Y12635342D01*
X44325499Y12657144D01*
X44325500Y12657144D01*
X44325500Y15642856D01*
X44325499Y15642857D01*
X44303318Y15725637D01*
X44303317Y15725641D01*
X44260464Y15799863D01*
X39299862Y20760465D01*
X39225640Y20803318D01*
X39225637Y20803319D01*
X39142856Y20825500D01*
X39142853Y20825500D01*
X33255123Y20825500D01*
X33220475Y20839852D01*
X28339852Y25720475D01*
X28325500Y25755123D01*
X28325500Y26807800D01*
X28794559Y26807800D01*
X28794559Y26807799D01*
X28813878Y26611647D01*
X28813878Y26611646D01*
X28871094Y26423032D01*
X28964005Y26249207D01*
X28964010Y26249200D01*
X29004390Y26199998D01*
X29089046Y26096845D01*
X29128266Y26064658D01*
X29241400Y25971810D01*
X29241407Y25971805D01*
X29415234Y25878893D01*
X29603848Y25821677D01*
X29800000Y25802358D01*
X29996152Y25821677D01*
X30184766Y25878893D01*
X30207336Y25890958D01*
X30244657Y25894633D01*
X30265082Y25882391D01*
X32941719Y23205755D01*
X32941724Y23205749D01*
X32943435Y23204038D01*
X34347334Y21800139D01*
X34347335Y21800138D01*
X34407938Y21739535D01*
X34435104Y21723851D01*
X34482159Y21696683D01*
X34482161Y21696683D01*
X34482162Y21696682D01*
X34547451Y21679188D01*
X34564943Y21674501D01*
X34564944Y21674500D01*
X34564947Y21674500D01*
X34650652Y21674500D01*
X39444877Y21674500D01*
X39479525Y21660148D01*
X45360148Y15779526D01*
X45374500Y15744878D01*
X45374500Y12655123D01*
X45360148Y12620475D01*
X41079525Y8339852D01*
X41044877Y8325500D01*
X36655122Y8325500D01*
X36620474Y8339852D01*
X35694742Y9265584D01*
X35681864Y9296672D01*
X35680889Y9296531D01*
X35660932Y9435340D01*
X35626768Y9510148D01*
X35604130Y9559718D01*
X35537213Y9636945D01*
X35514590Y9663054D01*
X35514589Y9663055D01*
X35399561Y9736978D01*
X35388309Y9740282D01*
X35268371Y9775500D01*
X35268367Y9775500D01*
X35131633Y9775500D01*
X35131628Y9775500D01*
X35000441Y9736979D01*
X34885409Y9663054D01*
X34795870Y9559719D01*
X34739067Y9435340D01*
X34719610Y9300003D01*
X34719610Y9299998D01*
X34739067Y9164661D01*
X34795870Y9040282D01*
X34862787Y8963054D01*
X34885411Y8936945D01*
X35000439Y8863022D01*
X35073438Y8841588D01*
X35131628Y8824501D01*
X35131631Y8824501D01*
X35131633Y8824500D01*
X35194877Y8824500D01*
X35229525Y8810148D01*
X36237819Y7801855D01*
X36237824Y7801849D01*
X36239535Y7800138D01*
X36300138Y7739535D01*
X36327304Y7723851D01*
X36374359Y7696683D01*
X36374361Y7696683D01*
X36374362Y7696682D01*
X36401957Y7689288D01*
X36457145Y7674499D01*
X36457147Y7674499D01*
X36545850Y7674499D01*
X36545866Y7674500D01*
X41242856Y7674500D01*
X41242856Y7674501D01*
X41325639Y7696682D01*
X41399862Y7739535D01*
X41860328Y8200001D01*
X44094556Y8200001D01*
X44094556Y8200000D01*
X44113875Y8003848D01*
X44113875Y8003847D01*
X44171091Y7815233D01*
X44264002Y7641408D01*
X44264007Y7641401D01*
X44328332Y7563022D01*
X44389043Y7489046D01*
X44476363Y7417384D01*
X44541397Y7364011D01*
X44541404Y7364006D01*
X44715231Y7271094D01*
X44903845Y7213878D01*
X45099997Y7194559D01*
X45296149Y7213878D01*
X45484763Y7271094D01*
X45658590Y7364006D01*
X45810951Y7489046D01*
X45935991Y7641407D01*
X46028903Y7815234D01*
X46086119Y8003848D01*
X46105438Y8200000D01*
X46105438Y8200001D01*
X47594559Y8200001D01*
X47594559Y8200000D01*
X47613878Y8003848D01*
X47613878Y8003847D01*
X47671094Y7815233D01*
X47764005Y7641408D01*
X47764010Y7641401D01*
X47828335Y7563022D01*
X47889046Y7489046D01*
X47976366Y7417384D01*
X48041400Y7364011D01*
X48041407Y7364006D01*
X48215234Y7271094D01*
X48403848Y7213878D01*
X48600000Y7194559D01*
X48796152Y7213878D01*
X48984766Y7271094D01*
X49158593Y7364006D01*
X49310954Y7489046D01*
X49435994Y7641407D01*
X49528906Y7815234D01*
X49584956Y8000003D01*
X56519610Y8000003D01*
X56519610Y7999998D01*
X56539067Y7864661D01*
X56595870Y7740282D01*
X56681544Y7641407D01*
X56685411Y7636945D01*
X56800439Y7563022D01*
X56873438Y7541588D01*
X56931628Y7524501D01*
X56931631Y7524501D01*
X56931633Y7524500D01*
X56931634Y7524500D01*
X57068366Y7524500D01*
X57068367Y7524500D01*
X57068369Y7524501D01*
X57068371Y7524501D01*
X57090062Y7530871D01*
X57199561Y7563022D01*
X57314589Y7636945D01*
X57404130Y7740282D01*
X57460931Y7864658D01*
X57460931Y7864660D01*
X57460932Y7864661D01*
X57480390Y7999998D01*
X57480390Y8000003D01*
X67019610Y8000003D01*
X67019610Y7999998D01*
X67039067Y7864661D01*
X67095870Y7740282D01*
X67181544Y7641407D01*
X67185411Y7636945D01*
X67300439Y7563022D01*
X67373438Y7541588D01*
X67431628Y7524501D01*
X67431631Y7524501D01*
X67431633Y7524500D01*
X67431634Y7524500D01*
X67568366Y7524500D01*
X67568367Y7524500D01*
X67568369Y7524501D01*
X67568371Y7524501D01*
X67590062Y7530871D01*
X67699561Y7563022D01*
X67814589Y7636945D01*
X67904130Y7740282D01*
X67960931Y7864658D01*
X67960931Y7864660D01*
X67960932Y7864661D01*
X67980390Y7999998D01*
X67980390Y8000003D01*
X67960932Y8135340D01*
X67914529Y8236947D01*
X67904130Y8259718D01*
X67814589Y8363055D01*
X67699561Y8436978D01*
X67699558Y8436979D01*
X67568371Y8475500D01*
X67568367Y8475500D01*
X67431633Y8475500D01*
X67431628Y8475500D01*
X67300441Y8436979D01*
X67185409Y8363054D01*
X67095870Y8259719D01*
X67039067Y8135340D01*
X67019610Y8000003D01*
X57480390Y8000003D01*
X57460932Y8135340D01*
X57414529Y8236947D01*
X57404130Y8259718D01*
X57314589Y8363055D01*
X57199561Y8436978D01*
X57199558Y8436979D01*
X57068371Y8475500D01*
X57068367Y8475500D01*
X56931633Y8475500D01*
X56931628Y8475500D01*
X56800441Y8436979D01*
X56685409Y8363054D01*
X56595870Y8259719D01*
X56539067Y8135340D01*
X56519610Y8000003D01*
X49584956Y8000003D01*
X49586122Y8003848D01*
X49605441Y8200000D01*
X49586122Y8396152D01*
X49528906Y8584766D01*
X49520762Y8600003D01*
X62719610Y8600003D01*
X62719610Y8599998D01*
X62739067Y8464661D01*
X62795870Y8340282D01*
X62808678Y8325500D01*
X62885411Y8236945D01*
X63000439Y8163022D01*
X63073438Y8141588D01*
X63131628Y8124501D01*
X63131631Y8124501D01*
X63131633Y8124500D01*
X63131634Y8124500D01*
X63268366Y8124500D01*
X63268367Y8124500D01*
X63268369Y8124501D01*
X63268371Y8124501D01*
X63290062Y8130871D01*
X63399561Y8163022D01*
X63514589Y8236945D01*
X63604130Y8340282D01*
X63660931Y8464658D01*
X63660931Y8464660D01*
X63660932Y8464661D01*
X63680390Y8599998D01*
X63680390Y8600003D01*
X63660932Y8735340D01*
X63626768Y8810148D01*
X63604130Y8859718D01*
X63537213Y8936945D01*
X63514590Y8963054D01*
X63514589Y8963055D01*
X63399561Y9036978D01*
X63388309Y9040282D01*
X63268371Y9075500D01*
X63268367Y9075500D01*
X63131633Y9075500D01*
X63131628Y9075500D01*
X63000441Y9036979D01*
X63000439Y9036979D01*
X63000439Y9036978D01*
X62998908Y9035994D01*
X62885409Y8963054D01*
X62795870Y8859719D01*
X62739067Y8735340D01*
X62719610Y8600003D01*
X49520762Y8600003D01*
X49435994Y8758593D01*
X49435989Y8758600D01*
X49353002Y8859718D01*
X49310954Y8910954D01*
X49239290Y8969767D01*
X49158599Y9035990D01*
X49158592Y9035995D01*
X49038841Y9100003D01*
X52719610Y9100003D01*
X52719610Y9099998D01*
X52739067Y8964661D01*
X52780243Y8874500D01*
X52795870Y8840282D01*
X52885411Y8736945D01*
X53000439Y8663022D01*
X53073438Y8641588D01*
X53131628Y8624501D01*
X53131631Y8624501D01*
X53131633Y8624500D01*
X53131634Y8624500D01*
X53268366Y8624500D01*
X53268367Y8624500D01*
X53268369Y8624501D01*
X53268371Y8624501D01*
X53290062Y8630871D01*
X53399561Y8663022D01*
X53514589Y8736945D01*
X53604130Y8840282D01*
X53660931Y8964658D01*
X53660931Y8964660D01*
X53660932Y8964661D01*
X53680390Y9099998D01*
X53680390Y9100003D01*
X53660932Y9235340D01*
X53631401Y9300003D01*
X53604130Y9359718D01*
X53537213Y9436945D01*
X53514590Y9463054D01*
X53514589Y9463055D01*
X53399561Y9536978D01*
X53399558Y9536979D01*
X53268371Y9575500D01*
X53268367Y9575500D01*
X53131633Y9575500D01*
X53131628Y9575500D01*
X53000441Y9536979D01*
X52885409Y9463054D01*
X52795870Y9359719D01*
X52739067Y9235340D01*
X52719610Y9100003D01*
X49038841Y9100003D01*
X48984767Y9128906D01*
X48796152Y9186122D01*
X48600000Y9205441D01*
X48403847Y9186122D01*
X48403846Y9186122D01*
X48215232Y9128906D01*
X48041407Y9035995D01*
X48041400Y9035990D01*
X47889046Y8910954D01*
X47764010Y8758600D01*
X47764005Y8758593D01*
X47671094Y8584768D01*
X47613878Y8396154D01*
X47613878Y8396153D01*
X47594559Y8200001D01*
X46105438Y8200001D01*
X46086119Y8396152D01*
X46028903Y8584766D01*
X45935991Y8758593D01*
X45935986Y8758600D01*
X45852999Y8859718D01*
X45810951Y8910954D01*
X45739287Y8969767D01*
X45658596Y9035990D01*
X45658589Y9035995D01*
X45484764Y9128906D01*
X45296149Y9186122D01*
X45099997Y9205441D01*
X44903844Y9186122D01*
X44903843Y9186122D01*
X44715229Y9128906D01*
X44541404Y9035995D01*
X44541397Y9035990D01*
X44389043Y8910954D01*
X44264007Y8758600D01*
X44264002Y8758593D01*
X44171091Y8584768D01*
X44113875Y8396154D01*
X44113875Y8396153D01*
X44094556Y8200001D01*
X41860328Y8200001D01*
X44660330Y11000003D01*
X65019610Y11000003D01*
X65019610Y10999998D01*
X65039067Y10864661D01*
X65095870Y10740282D01*
X65182519Y10640282D01*
X65185411Y10636945D01*
X65300439Y10563022D01*
X65373438Y10541588D01*
X65431628Y10524501D01*
X65431631Y10524501D01*
X65431633Y10524500D01*
X65431634Y10524500D01*
X65568366Y10524500D01*
X65568367Y10524500D01*
X65568369Y10524501D01*
X65568371Y10524501D01*
X65590062Y10530871D01*
X65699561Y10563022D01*
X65814589Y10636945D01*
X65904130Y10740282D01*
X65960931Y10864658D01*
X65960931Y10864660D01*
X65960932Y10864661D01*
X65980390Y10999998D01*
X65980390Y11000003D01*
X65960932Y11135340D01*
X65913006Y11240282D01*
X65904130Y11259718D01*
X65814589Y11363055D01*
X65699561Y11436978D01*
X65699558Y11436979D01*
X65568371Y11475500D01*
X65568367Y11475500D01*
X65431633Y11475500D01*
X65431628Y11475500D01*
X65300441Y11436979D01*
X65185409Y11363054D01*
X65095870Y11259719D01*
X65039067Y11135340D01*
X65019610Y11000003D01*
X44660330Y11000003D01*
X45270465Y11610138D01*
X49282406Y11610138D01*
X49282406Y11610133D01*
X49301863Y11474796D01*
X49358666Y11350417D01*
X49434365Y11263054D01*
X49448207Y11247080D01*
X49563235Y11173157D01*
X49636234Y11151723D01*
X49694424Y11134636D01*
X49694427Y11134636D01*
X49694429Y11134635D01*
X49694430Y11134635D01*
X49831162Y11134635D01*
X49831163Y11134635D01*
X49831165Y11134636D01*
X49831167Y11134636D01*
X49852858Y11141006D01*
X49962357Y11173157D01*
X50077385Y11247080D01*
X50166926Y11350417D01*
X50223727Y11474793D01*
X50223727Y11474795D01*
X50223728Y11474796D01*
X50243186Y11610133D01*
X50243186Y11610138D01*
X50223728Y11745475D01*
X50215916Y11762579D01*
X50166926Y11869853D01*
X50077385Y11973190D01*
X49962357Y12047113D01*
X49962354Y12047114D01*
X49831167Y12085635D01*
X49831163Y12085635D01*
X49694429Y12085635D01*
X49694424Y12085635D01*
X49563237Y12047114D01*
X49563235Y12047114D01*
X49563235Y12047113D01*
X49547413Y12036945D01*
X49448205Y11973189D01*
X49358666Y11869854D01*
X49301863Y11745475D01*
X49282406Y11610138D01*
X45270465Y11610138D01*
X45760330Y12100003D01*
X57619610Y12100003D01*
X57619610Y12099998D01*
X57639067Y11964661D01*
X57695870Y11840282D01*
X57784374Y11738141D01*
X57785411Y11736945D01*
X57900439Y11663022D01*
X57973438Y11641588D01*
X58031628Y11624501D01*
X58031631Y11624501D01*
X58031633Y11624500D01*
X58031634Y11624500D01*
X58168366Y11624500D01*
X58168367Y11624500D01*
X58168369Y11624501D01*
X58168371Y11624501D01*
X58190062Y11630871D01*
X58299561Y11663022D01*
X58414589Y11736945D01*
X58504130Y11840282D01*
X58560931Y11964658D01*
X58560931Y11964660D01*
X58560932Y11964661D01*
X58580390Y12099998D01*
X58580390Y12100003D01*
X58560932Y12235340D01*
X58513006Y12340282D01*
X58504130Y12359718D01*
X58414589Y12463055D01*
X58299561Y12536978D01*
X58299558Y12536979D01*
X58168371Y12575500D01*
X58168367Y12575500D01*
X58031633Y12575500D01*
X58031628Y12575500D01*
X57900441Y12536979D01*
X57900439Y12536979D01*
X57900439Y12536978D01*
X57843120Y12500142D01*
X57785409Y12463054D01*
X57695870Y12359719D01*
X57639067Y12235340D01*
X57619610Y12100003D01*
X45760330Y12100003D01*
X45960465Y12300138D01*
X46003318Y12374361D01*
X46025499Y12457144D01*
X46025500Y12457144D01*
X46025500Y12600003D01*
X54219610Y12600003D01*
X54219610Y12599998D01*
X54239067Y12464661D01*
X54295870Y12340282D01*
X54382519Y12240282D01*
X54385411Y12236945D01*
X54500439Y12163022D01*
X54573438Y12141588D01*
X54631628Y12124501D01*
X54631631Y12124501D01*
X54631633Y12124500D01*
X54631634Y12124500D01*
X54768366Y12124500D01*
X54768367Y12124500D01*
X54768369Y12124501D01*
X54768371Y12124501D01*
X54790062Y12130871D01*
X54899561Y12163022D01*
X55014589Y12236945D01*
X55104130Y12340282D01*
X55160931Y12464658D01*
X55160931Y12464660D01*
X55160932Y12464661D01*
X55180390Y12599998D01*
X55180390Y12600003D01*
X55160932Y12735340D01*
X55148275Y12763055D01*
X55104130Y12859718D01*
X55014589Y12963055D01*
X54899561Y13036978D01*
X54899558Y13036979D01*
X54768371Y13075500D01*
X54768367Y13075500D01*
X54631633Y13075500D01*
X54631628Y13075500D01*
X54500441Y13036979D01*
X54385409Y12963054D01*
X54295870Y12859719D01*
X54239067Y12735340D01*
X54219610Y12600003D01*
X46025500Y12600003D01*
X46025500Y13400003D01*
X61919610Y13400003D01*
X61919610Y13399998D01*
X61939067Y13264661D01*
X61995870Y13140282D01*
X62085381Y13036979D01*
X62085411Y13036945D01*
X62200439Y12963022D01*
X62273438Y12941588D01*
X62331628Y12924501D01*
X62331631Y12924501D01*
X62331633Y12924500D01*
X62331634Y12924500D01*
X62468366Y12924500D01*
X62468367Y12924500D01*
X62468369Y12924501D01*
X62468371Y12924501D01*
X62490062Y12930871D01*
X62599561Y12963022D01*
X62714589Y13036945D01*
X62804130Y13140282D01*
X62860931Y13264658D01*
X62860931Y13264660D01*
X62860932Y13264661D01*
X62880390Y13399998D01*
X62880390Y13400003D01*
X62860932Y13535340D01*
X62814515Y13636978D01*
X62804130Y13659718D01*
X62759359Y13711387D01*
X62714590Y13763054D01*
X62714589Y13763055D01*
X62599561Y13836978D01*
X62599558Y13836979D01*
X62468371Y13875500D01*
X62468367Y13875500D01*
X62331633Y13875500D01*
X62331628Y13875500D01*
X62200441Y13836979D01*
X62085409Y13763054D01*
X61995870Y13659719D01*
X61939067Y13535340D01*
X61919610Y13400003D01*
X46025500Y13400003D01*
X46025500Y15600003D01*
X49219610Y15600003D01*
X49219610Y15599998D01*
X49239067Y15464661D01*
X49295870Y15340282D01*
X49382519Y15240282D01*
X49385411Y15236945D01*
X49500439Y15163022D01*
X49573438Y15141588D01*
X49631628Y15124501D01*
X49631631Y15124501D01*
X49631633Y15124500D01*
X49631634Y15124500D01*
X49768366Y15124500D01*
X49768367Y15124500D01*
X49768369Y15124501D01*
X49768371Y15124501D01*
X49790062Y15130871D01*
X49899561Y15163022D01*
X50014589Y15236945D01*
X50104130Y15340282D01*
X50160931Y15464658D01*
X50160931Y15464660D01*
X50160932Y15464661D01*
X50180390Y15599998D01*
X50180390Y15600003D01*
X50160932Y15735340D01*
X50135770Y15790436D01*
X50131401Y15800003D01*
X59019610Y15800003D01*
X59019610Y15799998D01*
X59039067Y15664661D01*
X59095870Y15540282D01*
X59160951Y15465173D01*
X59185411Y15436945D01*
X59300439Y15363022D01*
X59373438Y15341588D01*
X59431628Y15324501D01*
X59431631Y15324501D01*
X59431633Y15324500D01*
X59431634Y15324500D01*
X59568366Y15324500D01*
X59568367Y15324500D01*
X59568369Y15324501D01*
X59568371Y15324501D01*
X59590062Y15330871D01*
X59699561Y15363022D01*
X59814589Y15436945D01*
X59904130Y15540282D01*
X59960931Y15664658D01*
X59960931Y15664660D01*
X59960932Y15664661D01*
X59980390Y15799998D01*
X59980390Y15800003D01*
X59960932Y15935340D01*
X59914515Y16036978D01*
X59904130Y16059718D01*
X59816833Y16160465D01*
X59814590Y16163054D01*
X59814589Y16163055D01*
X59699561Y16236978D01*
X59699558Y16236979D01*
X59568371Y16275500D01*
X59568367Y16275500D01*
X59431633Y16275500D01*
X59431628Y16275500D01*
X59300441Y16236979D01*
X59185409Y16163054D01*
X59095870Y16059719D01*
X59039067Y15935340D01*
X59019610Y15800003D01*
X50131401Y15800003D01*
X50104130Y15859718D01*
X50014589Y15963055D01*
X49899561Y16036978D01*
X49899558Y16036979D01*
X49768371Y16075500D01*
X49768367Y16075500D01*
X49631633Y16075500D01*
X49631628Y16075500D01*
X49500441Y16036979D01*
X49500439Y16036979D01*
X49500439Y16036978D01*
X49442925Y16000017D01*
X49385409Y15963054D01*
X49295870Y15859719D01*
X49239067Y15735340D01*
X49219610Y15600003D01*
X46025500Y15600003D01*
X46025500Y15853191D01*
X46025501Y15853204D01*
X46025501Y15942855D01*
X46003318Y16025638D01*
X46003318Y16025639D01*
X45974530Y16075500D01*
X45960465Y16099862D01*
X45899862Y16160465D01*
X45898156Y16162171D01*
X45898145Y16162181D01*
X44360323Y17700003D01*
X46019610Y17700003D01*
X46019610Y17699998D01*
X46039067Y17564661D01*
X46095870Y17440282D01*
X46182519Y17340282D01*
X46185411Y17336945D01*
X46300439Y17263022D01*
X46373438Y17241588D01*
X46431628Y17224501D01*
X46431631Y17224501D01*
X46431633Y17224500D01*
X46431634Y17224500D01*
X46568366Y17224500D01*
X46568367Y17224500D01*
X46568369Y17224501D01*
X46568371Y17224501D01*
X46590062Y17230871D01*
X46699561Y17263022D01*
X46814589Y17336945D01*
X46904130Y17440282D01*
X46960931Y17564658D01*
X46960931Y17564660D01*
X46960932Y17564661D01*
X46966013Y17600003D01*
X62619610Y17600003D01*
X62619610Y17599998D01*
X62639067Y17464661D01*
X62668598Y17399998D01*
X62695870Y17340282D01*
X62785411Y17236945D01*
X62900439Y17163022D01*
X62973438Y17141588D01*
X63031628Y17124501D01*
X63031631Y17124501D01*
X63031633Y17124500D01*
X63031634Y17124500D01*
X63168366Y17124500D01*
X63168367Y17124500D01*
X63168369Y17124501D01*
X63168371Y17124501D01*
X63190062Y17130871D01*
X63299561Y17163022D01*
X63414589Y17236945D01*
X63504130Y17340282D01*
X63560931Y17464658D01*
X63560931Y17464660D01*
X63560932Y17464661D01*
X63580390Y17599998D01*
X63580390Y17600003D01*
X63560932Y17735340D01*
X63514515Y17836978D01*
X63504130Y17859718D01*
X63434322Y17940282D01*
X63414590Y17963054D01*
X63414589Y17963055D01*
X63299561Y18036978D01*
X63299558Y18036979D01*
X63168371Y18075500D01*
X63168367Y18075500D01*
X63031633Y18075500D01*
X63031628Y18075500D01*
X62900441Y18036979D01*
X62785409Y17963054D01*
X62695870Y17859719D01*
X62639067Y17735340D01*
X62619610Y17600003D01*
X46966013Y17600003D01*
X46980390Y17699998D01*
X46980390Y17700003D01*
X46960932Y17835340D01*
X46913006Y17940282D01*
X46904130Y17959718D01*
X46814589Y18063055D01*
X46699561Y18136978D01*
X46699558Y18136979D01*
X46568371Y18175500D01*
X46568367Y18175500D01*
X46431633Y18175500D01*
X46431628Y18175500D01*
X46300441Y18136979D01*
X46300439Y18136979D01*
X46300439Y18136978D01*
X46300388Y18136945D01*
X46185409Y18063054D01*
X46095870Y17959719D01*
X46039067Y17835340D01*
X46019610Y17700003D01*
X44360323Y17700003D01*
X42960324Y19100003D01*
X65519610Y19100003D01*
X65519610Y19099998D01*
X65539067Y18964661D01*
X65595870Y18840282D01*
X65658043Y18768529D01*
X65685411Y18736945D01*
X65800439Y18663022D01*
X65873438Y18641588D01*
X65931628Y18624501D01*
X65931631Y18624501D01*
X65931633Y18624500D01*
X65931634Y18624500D01*
X66068366Y18624500D01*
X66068367Y18624500D01*
X66068369Y18624501D01*
X66068371Y18624501D01*
X66090062Y18630871D01*
X66199561Y18663022D01*
X66314589Y18736945D01*
X66404130Y18840282D01*
X66460931Y18964658D01*
X66460931Y18964660D01*
X66460932Y18964661D01*
X66480390Y19099998D01*
X66480390Y19100003D01*
X66460932Y19235340D01*
X66413006Y19340282D01*
X66404130Y19359718D01*
X66314589Y19463055D01*
X66199561Y19536978D01*
X66199558Y19536979D01*
X66068371Y19575500D01*
X66068367Y19575500D01*
X65931633Y19575500D01*
X65931628Y19575500D01*
X65800441Y19536979D01*
X65685409Y19463054D01*
X65595870Y19359719D01*
X65539067Y19235340D01*
X65519610Y19100003D01*
X42960324Y19100003D01*
X42460324Y19600003D01*
X43219610Y19600003D01*
X43219610Y19599998D01*
X43239067Y19464661D01*
X43278019Y19379369D01*
X43295870Y19340282D01*
X43385411Y19236945D01*
X43500439Y19163022D01*
X43573438Y19141588D01*
X43631628Y19124501D01*
X43631631Y19124501D01*
X43631633Y19124500D01*
X43631634Y19124500D01*
X43768366Y19124500D01*
X43768367Y19124500D01*
X43768369Y19124501D01*
X43768371Y19124501D01*
X43790062Y19130871D01*
X43899561Y19163022D01*
X44014589Y19236945D01*
X44104130Y19340282D01*
X44160931Y19464658D01*
X44160931Y19464660D01*
X44160932Y19464661D01*
X44180390Y19599998D01*
X44180390Y19600003D01*
X44160932Y19735340D01*
X44115262Y19835342D01*
X44104130Y19859718D01*
X44059359Y19911387D01*
X44014590Y19963054D01*
X44014589Y19963055D01*
X43899561Y20036978D01*
X43899558Y20036979D01*
X43768371Y20075500D01*
X43768367Y20075500D01*
X43631633Y20075500D01*
X43631628Y20075500D01*
X43500441Y20036979D01*
X43385409Y19963054D01*
X43295870Y19859719D01*
X43239067Y19735340D01*
X43219610Y19600003D01*
X42460324Y19600003D01*
X40060324Y22000003D01*
X44919610Y22000003D01*
X44919610Y21999998D01*
X44939067Y21864661D01*
X44995870Y21740282D01*
X45062787Y21663054D01*
X45085411Y21636945D01*
X45200439Y21563022D01*
X45273438Y21541588D01*
X45331628Y21524501D01*
X45331631Y21524501D01*
X45331633Y21524500D01*
X45331634Y21524500D01*
X45468366Y21524500D01*
X45468367Y21524500D01*
X45468369Y21524501D01*
X45468371Y21524501D01*
X45490062Y21530871D01*
X45599561Y21563022D01*
X45714589Y21636945D01*
X45804130Y21740282D01*
X45860931Y21864658D01*
X45860931Y21864660D01*
X45860932Y21864661D01*
X45880390Y21999998D01*
X45880390Y22000003D01*
X45860932Y22135340D01*
X45815262Y22235342D01*
X45804130Y22259718D01*
X45769223Y22300003D01*
X60919610Y22300003D01*
X60919610Y22299998D01*
X60939067Y22164661D01*
X60995870Y22040282D01*
X61030771Y22000003D01*
X61085411Y21936945D01*
X61200439Y21863022D01*
X61273438Y21841588D01*
X61331628Y21824501D01*
X61331631Y21824501D01*
X61331633Y21824500D01*
X61331634Y21824500D01*
X61468366Y21824500D01*
X61468367Y21824500D01*
X61468369Y21824501D01*
X61468371Y21824501D01*
X61490062Y21830871D01*
X61599561Y21863022D01*
X61714589Y21936945D01*
X61804130Y22040282D01*
X61860931Y22164658D01*
X61860931Y22164660D01*
X61860932Y22164661D01*
X61880390Y22299998D01*
X61880390Y22300003D01*
X61860932Y22435340D01*
X61842591Y22475500D01*
X61804130Y22559718D01*
X61737213Y22636945D01*
X61714590Y22663054D01*
X61714589Y22663055D01*
X61599561Y22736978D01*
X61588309Y22740282D01*
X61468371Y22775500D01*
X61468367Y22775500D01*
X61331633Y22775500D01*
X61331628Y22775500D01*
X61200441Y22736979D01*
X61085409Y22663054D01*
X60995870Y22559719D01*
X60939067Y22435340D01*
X60919610Y22300003D01*
X45769223Y22300003D01*
X45734694Y22339852D01*
X45714590Y22363054D01*
X45714589Y22363055D01*
X45599561Y22436978D01*
X45599558Y22436979D01*
X45468371Y22475500D01*
X45468367Y22475500D01*
X45331633Y22475500D01*
X45331628Y22475500D01*
X45200441Y22436979D01*
X45200439Y22436979D01*
X45200439Y22436978D01*
X45181024Y22424501D01*
X45085409Y22363054D01*
X44995870Y22259719D01*
X44939067Y22135340D01*
X44919610Y22000003D01*
X40060324Y22000003D01*
X39799862Y22260465D01*
X39725640Y22303318D01*
X39725637Y22303319D01*
X39642856Y22325500D01*
X39642853Y22325500D01*
X34762923Y22325500D01*
X34728275Y22339852D01*
X33968124Y23100003D01*
X36919610Y23100003D01*
X36919610Y23099998D01*
X36939067Y22964661D01*
X36995870Y22840282D01*
X37085381Y22736979D01*
X37085411Y22736945D01*
X37200439Y22663022D01*
X37273438Y22641588D01*
X37331628Y22624501D01*
X37331631Y22624501D01*
X37331633Y22624500D01*
X37331634Y22624500D01*
X37468366Y22624500D01*
X37468367Y22624500D01*
X37468369Y22624501D01*
X37468371Y22624501D01*
X37490062Y22630871D01*
X37599561Y22663022D01*
X37714589Y22736945D01*
X37804130Y22840282D01*
X37831404Y22900003D01*
X40419610Y22900003D01*
X40419610Y22899998D01*
X40439067Y22764661D01*
X40495870Y22640282D01*
X40585381Y22536979D01*
X40585411Y22536945D01*
X40700439Y22463022D01*
X40773438Y22441588D01*
X40831628Y22424501D01*
X40831631Y22424501D01*
X40831633Y22424500D01*
X40831634Y22424500D01*
X40968366Y22424500D01*
X40968367Y22424500D01*
X40968369Y22424501D01*
X40968371Y22424501D01*
X40990062Y22430871D01*
X41099561Y22463022D01*
X41214589Y22536945D01*
X41304130Y22640282D01*
X41360931Y22764658D01*
X41360931Y22764660D01*
X41360932Y22764661D01*
X41380390Y22899998D01*
X41380390Y22900003D01*
X41360932Y23035340D01*
X41315262Y23135342D01*
X41304130Y23159718D01*
X41238602Y23235342D01*
X41214590Y23263054D01*
X41214589Y23263055D01*
X41099561Y23336978D01*
X41099558Y23336979D01*
X40968371Y23375500D01*
X40968367Y23375500D01*
X40831633Y23375500D01*
X40831628Y23375500D01*
X40700441Y23336979D01*
X40700439Y23336979D01*
X40700439Y23336978D01*
X40681024Y23324501D01*
X40585409Y23263054D01*
X40495870Y23159719D01*
X40439067Y23035340D01*
X40419610Y22900003D01*
X37831404Y22900003D01*
X37860931Y22964658D01*
X37860931Y22964660D01*
X37860932Y22964661D01*
X37880390Y23099998D01*
X37880390Y23100003D01*
X37860932Y23235340D01*
X37848275Y23263055D01*
X37804130Y23359718D01*
X37737213Y23436945D01*
X37714590Y23463054D01*
X37714589Y23463055D01*
X37599561Y23536978D01*
X37588309Y23540282D01*
X37468371Y23575500D01*
X37468367Y23575500D01*
X37331633Y23575500D01*
X37331628Y23575500D01*
X37200441Y23536979D01*
X37085409Y23463054D01*
X36995870Y23359719D01*
X36939067Y23235340D01*
X36919610Y23100003D01*
X33968124Y23100003D01*
X33403761Y23664366D01*
X32068123Y25000003D01*
X65219610Y25000003D01*
X65219610Y24999998D01*
X65239067Y24864661D01*
X65295870Y24740282D01*
X65385411Y24636945D01*
X65500439Y24563022D01*
X65573438Y24541588D01*
X65631628Y24524501D01*
X65631631Y24524501D01*
X65631633Y24524500D01*
X65631634Y24524500D01*
X65768366Y24524500D01*
X65768367Y24524500D01*
X65768369Y24524501D01*
X65768371Y24524501D01*
X65790062Y24530871D01*
X65899561Y24563022D01*
X66014589Y24636945D01*
X66104130Y24740282D01*
X66160931Y24864658D01*
X66160931Y24864660D01*
X66160932Y24864661D01*
X66180390Y24999998D01*
X66180390Y25000003D01*
X66160932Y25135340D01*
X66153120Y25152444D01*
X66104130Y25259718D01*
X66014589Y25363055D01*
X65899561Y25436978D01*
X65899558Y25436979D01*
X65768371Y25475500D01*
X65768367Y25475500D01*
X65631633Y25475500D01*
X65631628Y25475500D01*
X65500441Y25436979D01*
X65385409Y25363054D01*
X65295870Y25259719D01*
X65239067Y25135340D01*
X65219610Y25000003D01*
X32068123Y25000003D01*
X31068123Y26000003D01*
X33019610Y26000003D01*
X33019610Y25999998D01*
X33039067Y25864661D01*
X33095870Y25740282D01*
X33180291Y25642853D01*
X33185411Y25636945D01*
X33300439Y25563022D01*
X33373438Y25541588D01*
X33431628Y25524501D01*
X33431631Y25524501D01*
X33431633Y25524500D01*
X33431634Y25524500D01*
X33568366Y25524500D01*
X33568367Y25524500D01*
X33568369Y25524501D01*
X33568371Y25524501D01*
X33590062Y25530871D01*
X33699561Y25563022D01*
X33814589Y25636945D01*
X33904130Y25740282D01*
X33960931Y25864658D01*
X33960931Y25864660D01*
X33960932Y25864661D01*
X33980390Y25999998D01*
X33980390Y26000003D01*
X33960932Y26135340D01*
X33918841Y26227505D01*
X33904130Y26259718D01*
X33832211Y26342718D01*
X33814590Y26363054D01*
X33814589Y26363055D01*
X33699561Y26436978D01*
X33699558Y26436979D01*
X33568371Y26475500D01*
X33568367Y26475500D01*
X33431633Y26475500D01*
X33431628Y26475500D01*
X33300441Y26436979D01*
X33300439Y26436979D01*
X33300439Y26436978D01*
X33278729Y26423026D01*
X33185409Y26363054D01*
X33095870Y26259719D01*
X33039067Y26135340D01*
X33019610Y26000003D01*
X31068123Y26000003D01*
X30725408Y26342718D01*
X30711056Y26377366D01*
X30716843Y26400466D01*
X30719621Y26405663D01*
X30728906Y26423033D01*
X30786122Y26611647D01*
X30805441Y26807799D01*
X30805332Y26808901D01*
X34580559Y26808901D01*
X34580559Y26808900D01*
X34599878Y26612748D01*
X34599878Y26612747D01*
X34657094Y26424133D01*
X34750005Y26250308D01*
X34750010Y26250301D01*
X34816233Y26169610D01*
X34875046Y26097946D01*
X34962366Y26026284D01*
X35027400Y25972911D01*
X35027407Y25972906D01*
X35196749Y25882391D01*
X35201234Y25879994D01*
X35389848Y25822778D01*
X35586000Y25803459D01*
X35782152Y25822778D01*
X35970766Y25879994D01*
X36144593Y25972906D01*
X36296954Y26097946D01*
X36421994Y26250307D01*
X36514906Y26424134D01*
X36572122Y26612748D01*
X36591441Y26808900D01*
X36591441Y26808901D01*
X38080560Y26808901D01*
X38080560Y26808900D01*
X38099879Y26612748D01*
X38099879Y26612747D01*
X38157095Y26424133D01*
X38250006Y26250308D01*
X38250011Y26250301D01*
X38316234Y26169610D01*
X38375047Y26097946D01*
X38462367Y26026284D01*
X38527401Y25972911D01*
X38527408Y25972906D01*
X38696750Y25882391D01*
X38701235Y25879994D01*
X38889849Y25822778D01*
X39086001Y25803459D01*
X39282153Y25822778D01*
X39470767Y25879994D01*
X39644594Y25972906D01*
X39796955Y26097946D01*
X39921995Y26250307D01*
X40014907Y26424134D01*
X40072123Y26612748D01*
X40091442Y26808900D01*
X40091442Y26808901D01*
X41580560Y26808901D01*
X41580560Y26808900D01*
X41599879Y26612748D01*
X41599879Y26612747D01*
X41657095Y26424133D01*
X41750006Y26250308D01*
X41750011Y26250301D01*
X41816234Y26169610D01*
X41875047Y26097946D01*
X41962367Y26026284D01*
X42027401Y25972911D01*
X42027408Y25972906D01*
X42196750Y25882391D01*
X42201235Y25879994D01*
X42389849Y25822778D01*
X42586001Y25803459D01*
X42782153Y25822778D01*
X42970767Y25879994D01*
X43144594Y25972906D01*
X43296955Y26097946D01*
X43380711Y26200003D01*
X45319610Y26200003D01*
X45319610Y26199998D01*
X45339067Y26064661D01*
X45395870Y25940282D01*
X45482519Y25840282D01*
X45485411Y25836945D01*
X45600439Y25763022D01*
X45673438Y25741588D01*
X45731628Y25724501D01*
X45731631Y25724501D01*
X45731633Y25724500D01*
X45731634Y25724500D01*
X45868366Y25724500D01*
X45868367Y25724500D01*
X45868369Y25724501D01*
X45868371Y25724501D01*
X45890062Y25730871D01*
X45999561Y25763022D01*
X46114589Y25836945D01*
X46204130Y25940282D01*
X46260931Y26064658D01*
X46260931Y26064660D01*
X46260932Y26064661D01*
X46280390Y26199998D01*
X46280390Y26200003D01*
X46260932Y26335340D01*
X46241739Y26377366D01*
X46204130Y26459718D01*
X46114589Y26563055D01*
X45999561Y26636978D01*
X45999558Y26636979D01*
X45868371Y26675500D01*
X45868367Y26675500D01*
X45731633Y26675500D01*
X45731628Y26675500D01*
X45600441Y26636979D01*
X45600439Y26636979D01*
X45600439Y26636978D01*
X45542925Y26600017D01*
X45485409Y26563054D01*
X45395870Y26459719D01*
X45339067Y26335340D01*
X45319610Y26200003D01*
X43380711Y26200003D01*
X43421995Y26250307D01*
X43514907Y26424134D01*
X43572123Y26612748D01*
X43590566Y26800001D01*
X47369538Y26800001D01*
X47369538Y26800000D01*
X47389338Y26598967D01*
X47389338Y26598966D01*
X47400232Y26563055D01*
X47447977Y26405659D01*
X47543202Y26227506D01*
X47671353Y26071353D01*
X47827506Y25943202D01*
X48005659Y25847977D01*
X48198967Y25789338D01*
X48400000Y25769538D01*
X48601033Y25789338D01*
X48794341Y25847977D01*
X48972494Y25943202D01*
X49128647Y26071353D01*
X49256798Y26227506D01*
X49352023Y26405659D01*
X49410662Y26598967D01*
X49430462Y26800000D01*
X49430462Y26800001D01*
X50869538Y26800001D01*
X50869538Y26800000D01*
X50889338Y26598967D01*
X50889338Y26598966D01*
X50900232Y26563055D01*
X50947977Y26405659D01*
X51043202Y26227506D01*
X51171353Y26071353D01*
X51327506Y25943202D01*
X51505659Y25847977D01*
X51698967Y25789338D01*
X51900000Y25769538D01*
X52101033Y25789338D01*
X52294341Y25847977D01*
X52472494Y25943202D01*
X52628647Y26071353D01*
X52756798Y26227506D01*
X52852023Y26405659D01*
X52910662Y26598967D01*
X52930462Y26800000D01*
X52930462Y26800001D01*
X54369538Y26800001D01*
X54369538Y26800000D01*
X54389338Y26598967D01*
X54389338Y26598966D01*
X54400232Y26563055D01*
X54447977Y26405659D01*
X54543202Y26227506D01*
X54671353Y26071353D01*
X54827506Y25943202D01*
X55005659Y25847977D01*
X55198967Y25789338D01*
X55400000Y25769538D01*
X55601033Y25789338D01*
X55794341Y25847977D01*
X55972494Y25943202D01*
X56128647Y26071353D01*
X56256798Y26227506D01*
X56352023Y26405659D01*
X56410662Y26598967D01*
X56430462Y26800000D01*
X56430462Y26800001D01*
X57869538Y26800001D01*
X57869538Y26800000D01*
X57889338Y26598967D01*
X57889338Y26598966D01*
X57900232Y26563055D01*
X57947977Y26405659D01*
X58043202Y26227506D01*
X58171353Y26071353D01*
X58327506Y25943202D01*
X58505659Y25847977D01*
X58698967Y25789338D01*
X58900000Y25769538D01*
X59101033Y25789338D01*
X59294341Y25847977D01*
X59472494Y25943202D01*
X59628647Y26071353D01*
X59652159Y26100003D01*
X61419610Y26100003D01*
X61419610Y26099998D01*
X61439067Y25964661D01*
X61495870Y25840282D01*
X61582519Y25740282D01*
X61585411Y25736945D01*
X61700439Y25663022D01*
X61769128Y25642853D01*
X61831628Y25624501D01*
X61831631Y25624501D01*
X61831633Y25624500D01*
X61831634Y25624500D01*
X61968366Y25624500D01*
X61968367Y25624500D01*
X61968369Y25624501D01*
X61968371Y25624501D01*
X61990062Y25630871D01*
X62099561Y25663022D01*
X62214589Y25736945D01*
X62304130Y25840282D01*
X62360931Y25964658D01*
X62360931Y25964660D01*
X62360932Y25964661D01*
X62380390Y26099998D01*
X62380390Y26100003D01*
X62360932Y26235340D01*
X62349798Y26259719D01*
X62304130Y26359718D01*
X62237184Y26436979D01*
X62214590Y26463054D01*
X62214589Y26463055D01*
X62099561Y26536978D01*
X62099558Y26536979D01*
X61968371Y26575500D01*
X61968367Y26575500D01*
X61831633Y26575500D01*
X61831628Y26575500D01*
X61700441Y26536979D01*
X61585409Y26463054D01*
X61495870Y26359719D01*
X61439067Y26235340D01*
X61419610Y26100003D01*
X59652159Y26100003D01*
X59756798Y26227506D01*
X59852023Y26405659D01*
X59910662Y26598967D01*
X59930462Y26800000D01*
X59910662Y27001033D01*
X59852023Y27194341D01*
X59756798Y27372494D01*
X59628647Y27528647D01*
X59472494Y27656798D01*
X59294341Y27752023D01*
X59101033Y27810662D01*
X58900000Y27830462D01*
X58698966Y27810662D01*
X58698965Y27810662D01*
X58505662Y27752024D01*
X58505659Y27752023D01*
X58505656Y27752022D01*
X58505655Y27752021D01*
X58327504Y27656797D01*
X58171353Y27528647D01*
X58043203Y27372496D01*
X57947979Y27194345D01*
X57947976Y27194338D01*
X57889338Y27001035D01*
X57889338Y27001034D01*
X57869538Y26800001D01*
X56430462Y26800001D01*
X56410662Y27001033D01*
X56352023Y27194341D01*
X56256798Y27372494D01*
X56128647Y27528647D01*
X55972494Y27656798D01*
X55794341Y27752023D01*
X55601033Y27810662D01*
X55400000Y27830462D01*
X55198966Y27810662D01*
X55198965Y27810662D01*
X55005662Y27752024D01*
X55005659Y27752023D01*
X55005656Y27752022D01*
X55005655Y27752021D01*
X54827504Y27656797D01*
X54671353Y27528647D01*
X54543203Y27372496D01*
X54447979Y27194345D01*
X54447976Y27194338D01*
X54389338Y27001035D01*
X54389338Y27001034D01*
X54369538Y26800001D01*
X52930462Y26800001D01*
X52910662Y27001033D01*
X52852023Y27194341D01*
X52756798Y27372494D01*
X52628647Y27528647D01*
X52472494Y27656798D01*
X52294341Y27752023D01*
X52101033Y27810662D01*
X51900000Y27830462D01*
X51698966Y27810662D01*
X51698965Y27810662D01*
X51505662Y27752024D01*
X51505659Y27752023D01*
X51505656Y27752022D01*
X51505655Y27752021D01*
X51327504Y27656797D01*
X51171353Y27528647D01*
X51043203Y27372496D01*
X50947979Y27194345D01*
X50947976Y27194338D01*
X50889338Y27001035D01*
X50889338Y27001034D01*
X50869538Y26800001D01*
X49430462Y26800001D01*
X49410662Y27001033D01*
X49352023Y27194341D01*
X49256798Y27372494D01*
X49128647Y27528647D01*
X48972494Y27656798D01*
X48794341Y27752023D01*
X48601033Y27810662D01*
X48400000Y27830462D01*
X48198966Y27810662D01*
X48198965Y27810662D01*
X48005662Y27752024D01*
X48005659Y27752023D01*
X48005656Y27752022D01*
X48005655Y27752021D01*
X47827504Y27656797D01*
X47671353Y27528647D01*
X47543203Y27372496D01*
X47447979Y27194345D01*
X47447976Y27194338D01*
X47389338Y27001035D01*
X47389338Y27001034D01*
X47369538Y26800001D01*
X43590566Y26800001D01*
X43591442Y26808900D01*
X43572123Y27005052D01*
X43514907Y27193666D01*
X43491750Y27236989D01*
X43421995Y27367493D01*
X43421990Y27367500D01*
X43368617Y27432534D01*
X43296955Y27519854D01*
X43155444Y27635990D01*
X43144600Y27644890D01*
X43144593Y27644895D01*
X42970768Y27737806D01*
X42782153Y27795022D01*
X42586001Y27814341D01*
X42389848Y27795022D01*
X42389847Y27795022D01*
X42201233Y27737806D01*
X42027408Y27644895D01*
X42027401Y27644890D01*
X41875047Y27519854D01*
X41750011Y27367500D01*
X41750006Y27367493D01*
X41657095Y27193668D01*
X41599879Y27005054D01*
X41599879Y27005053D01*
X41580560Y26808901D01*
X40091442Y26808901D01*
X40072123Y27005052D01*
X40014907Y27193666D01*
X39991750Y27236989D01*
X39921995Y27367493D01*
X39921990Y27367500D01*
X39868617Y27432534D01*
X39796955Y27519854D01*
X39655444Y27635990D01*
X39644600Y27644890D01*
X39644593Y27644895D01*
X39470768Y27737806D01*
X39282153Y27795022D01*
X39086001Y27814341D01*
X38889848Y27795022D01*
X38889847Y27795022D01*
X38701233Y27737806D01*
X38527408Y27644895D01*
X38527401Y27644890D01*
X38375047Y27519854D01*
X38250011Y27367500D01*
X38250006Y27367493D01*
X38157095Y27193668D01*
X38099879Y27005054D01*
X38099879Y27005053D01*
X38080560Y26808901D01*
X36591441Y26808901D01*
X36572122Y27005052D01*
X36514906Y27193666D01*
X36491749Y27236989D01*
X36421994Y27367493D01*
X36421989Y27367500D01*
X36368616Y27432534D01*
X36296954Y27519854D01*
X36155443Y27635990D01*
X36144599Y27644890D01*
X36144592Y27644895D01*
X35970767Y27737806D01*
X35782152Y27795022D01*
X35586000Y27814341D01*
X35389847Y27795022D01*
X35389846Y27795022D01*
X35201232Y27737806D01*
X35027407Y27644895D01*
X35027400Y27644890D01*
X34875046Y27519854D01*
X34750010Y27367500D01*
X34750005Y27367493D01*
X34657094Y27193668D01*
X34599878Y27005054D01*
X34599878Y27005053D01*
X34580559Y26808901D01*
X30805332Y26808901D01*
X30803538Y26827119D01*
X30786122Y27003951D01*
X30728906Y27192565D01*
X30728316Y27193668D01*
X30635994Y27366392D01*
X30635989Y27366399D01*
X30582616Y27431433D01*
X30510954Y27518753D01*
X30439290Y27577566D01*
X30358599Y27643789D01*
X30358592Y27643794D01*
X30184767Y27736705D01*
X29996152Y27793921D01*
X29800000Y27813240D01*
X29603847Y27793921D01*
X29603846Y27793921D01*
X29415232Y27736705D01*
X29241407Y27643794D01*
X29241400Y27643789D01*
X29089046Y27518753D01*
X28964010Y27366399D01*
X28964005Y27366392D01*
X28871094Y27192567D01*
X28813878Y27003953D01*
X28813878Y27003952D01*
X28794559Y26807800D01*
X28325500Y26807800D01*
X28325500Y29500003D01*
X31619610Y29500003D01*
X31619610Y29499998D01*
X31639067Y29364661D01*
X31695870Y29240282D01*
X31767130Y29158042D01*
X31785411Y29136945D01*
X31900439Y29063022D01*
X31973438Y29041588D01*
X32031628Y29024501D01*
X32031631Y29024501D01*
X32031633Y29024500D01*
X32031634Y29024500D01*
X32168366Y29024500D01*
X32168367Y29024500D01*
X32168369Y29024501D01*
X32168371Y29024501D01*
X32190062Y29030871D01*
X32299561Y29063022D01*
X32414589Y29136945D01*
X32504130Y29240282D01*
X32560931Y29364658D01*
X32560931Y29364660D01*
X32560932Y29364661D01*
X32580390Y29499998D01*
X32580390Y29500003D01*
X32566013Y29600003D01*
X45719610Y29600003D01*
X45719610Y29599998D01*
X45739067Y29464661D01*
X45795870Y29340282D01*
X45882519Y29240282D01*
X45885411Y29236945D01*
X46000439Y29163022D01*
X46073438Y29141588D01*
X46131628Y29124501D01*
X46131631Y29124501D01*
X46131633Y29124500D01*
X46131634Y29124500D01*
X46268366Y29124500D01*
X46268367Y29124500D01*
X46268369Y29124501D01*
X46268371Y29124501D01*
X46290062Y29130871D01*
X46399561Y29163022D01*
X46514589Y29236945D01*
X46604130Y29340282D01*
X46660931Y29464658D01*
X46660931Y29464660D01*
X46660932Y29464661D01*
X46666013Y29500003D01*
X49219610Y29500003D01*
X49219610Y29499998D01*
X49239067Y29364661D01*
X49295870Y29240282D01*
X49367130Y29158042D01*
X49385411Y29136945D01*
X49500439Y29063022D01*
X49573438Y29041588D01*
X49631628Y29024501D01*
X49631631Y29024501D01*
X49631633Y29024500D01*
X49631634Y29024500D01*
X49768366Y29024500D01*
X49768367Y29024500D01*
X49768369Y29024501D01*
X49768371Y29024501D01*
X49790062Y29030871D01*
X49899561Y29063022D01*
X50014589Y29136945D01*
X50069228Y29200003D01*
X56719610Y29200003D01*
X56719610Y29199998D01*
X56739067Y29064661D01*
X56795870Y28940282D01*
X56882519Y28840282D01*
X56885411Y28836945D01*
X57000439Y28763022D01*
X57073438Y28741588D01*
X57131628Y28724501D01*
X57131631Y28724501D01*
X57131633Y28724500D01*
X57131634Y28724500D01*
X57268366Y28724500D01*
X57268367Y28724500D01*
X57268369Y28724501D01*
X57268371Y28724501D01*
X57290062Y28730871D01*
X57399561Y28763022D01*
X57514589Y28836945D01*
X57604130Y28940282D01*
X57660931Y29064658D01*
X57660931Y29064660D01*
X57660932Y29064661D01*
X57680390Y29199998D01*
X57680390Y29200003D01*
X57660932Y29335340D01*
X57642591Y29375500D01*
X57604130Y29459718D01*
X57537213Y29536945D01*
X57514590Y29563054D01*
X57514589Y29563055D01*
X57399561Y29636978D01*
X57388309Y29640282D01*
X57268371Y29675500D01*
X57268367Y29675500D01*
X57131633Y29675500D01*
X57131628Y29675500D01*
X57000441Y29636979D01*
X57000439Y29636979D01*
X57000439Y29636978D01*
X56942925Y29600017D01*
X56885409Y29563054D01*
X56795870Y29459719D01*
X56739067Y29335340D01*
X56719610Y29200003D01*
X50069228Y29200003D01*
X50104130Y29240282D01*
X50160931Y29364658D01*
X50160931Y29364660D01*
X50160932Y29364661D01*
X50180390Y29499998D01*
X50180390Y29500003D01*
X50160932Y29635340D01*
X50111182Y29744276D01*
X50104130Y29759718D01*
X50059359Y29811387D01*
X50014590Y29863054D01*
X50014589Y29863055D01*
X49957096Y29900003D01*
X60719610Y29900003D01*
X60719610Y29899998D01*
X60739067Y29764661D01*
X60795870Y29640282D01*
X60885381Y29536979D01*
X60885411Y29536945D01*
X61000439Y29463022D01*
X61073438Y29441588D01*
X61131628Y29424501D01*
X61131631Y29424501D01*
X61131633Y29424500D01*
X61131634Y29424500D01*
X61268366Y29424500D01*
X61268367Y29424500D01*
X61268369Y29424501D01*
X61268371Y29424501D01*
X61290062Y29430871D01*
X61399561Y29463022D01*
X61514589Y29536945D01*
X61604130Y29640282D01*
X61660931Y29764658D01*
X61660931Y29764660D01*
X61660932Y29764661D01*
X61680390Y29899998D01*
X61680390Y29900003D01*
X61660932Y30035340D01*
X61614658Y30136665D01*
X61604130Y30159718D01*
X61514589Y30263055D01*
X61399561Y30336978D01*
X61399558Y30336979D01*
X61268371Y30375500D01*
X61268367Y30375500D01*
X61131633Y30375500D01*
X61131628Y30375500D01*
X61000441Y30336979D01*
X60885409Y30263054D01*
X60795870Y30159719D01*
X60739067Y30035340D01*
X60719610Y29900003D01*
X49957096Y29900003D01*
X49899561Y29936978D01*
X49899558Y29936979D01*
X49768371Y29975500D01*
X49768367Y29975500D01*
X49631633Y29975500D01*
X49631628Y29975500D01*
X49500441Y29936979D01*
X49385409Y29863054D01*
X49295870Y29759719D01*
X49239067Y29635340D01*
X49219610Y29500003D01*
X46666013Y29500003D01*
X46680390Y29599998D01*
X46680390Y29600003D01*
X46660932Y29735340D01*
X46647541Y29764661D01*
X46604130Y29859718D01*
X46514589Y29963055D01*
X46399561Y30036978D01*
X46399558Y30036979D01*
X46268371Y30075500D01*
X46268367Y30075500D01*
X46131633Y30075500D01*
X46131628Y30075500D01*
X46000441Y30036979D01*
X46000439Y30036979D01*
X46000439Y30036978D01*
X45942925Y30000017D01*
X45885409Y29963054D01*
X45795870Y29859719D01*
X45739067Y29735340D01*
X45719610Y29600003D01*
X32566013Y29600003D01*
X32560932Y29635340D01*
X32511182Y29744276D01*
X32504130Y29759718D01*
X32459359Y29811387D01*
X32414590Y29863054D01*
X32414589Y29863055D01*
X32299561Y29936978D01*
X32299558Y29936979D01*
X32168371Y29975500D01*
X32168367Y29975500D01*
X32031633Y29975500D01*
X32031628Y29975500D01*
X31900441Y29936979D01*
X31785409Y29863054D01*
X31695870Y29759719D01*
X31639067Y29635340D01*
X31619610Y29500003D01*
X28325500Y29500003D01*
X28325500Y31807800D01*
X28794559Y31807800D01*
X28794559Y31807799D01*
X28813878Y31611647D01*
X28813878Y31611646D01*
X28871094Y31423032D01*
X28964005Y31249207D01*
X28964010Y31249200D01*
X29030233Y31168509D01*
X29089046Y31096845D01*
X29176366Y31025183D01*
X29241400Y30971810D01*
X29241407Y30971805D01*
X29415234Y30878893D01*
X29603848Y30821677D01*
X29800000Y30802358D01*
X29996152Y30821677D01*
X30184766Y30878893D01*
X30358593Y30971805D01*
X30510954Y31096845D01*
X30635994Y31249206D01*
X30728906Y31423033D01*
X30786122Y31611647D01*
X30805441Y31807799D01*
X30805332Y31808901D01*
X34580559Y31808901D01*
X34580559Y31808900D01*
X34599878Y31612748D01*
X34599878Y31612747D01*
X34657094Y31424133D01*
X34750005Y31250308D01*
X34750010Y31250301D01*
X34768718Y31227506D01*
X34875046Y31097946D01*
X34907450Y31071353D01*
X35027400Y30972911D01*
X35027407Y30972906D01*
X35201234Y30879994D01*
X35389848Y30822778D01*
X35586000Y30803459D01*
X35782152Y30822778D01*
X35970766Y30879994D01*
X36144593Y30972906D01*
X36296954Y31097946D01*
X36421994Y31250307D01*
X36514906Y31424134D01*
X36572122Y31612748D01*
X36591441Y31808900D01*
X36591441Y31808901D01*
X38080560Y31808901D01*
X38080560Y31808900D01*
X38099879Y31612748D01*
X38099879Y31612747D01*
X38157095Y31424133D01*
X38250006Y31250308D01*
X38250011Y31250301D01*
X38268719Y31227506D01*
X38375047Y31097946D01*
X38407451Y31071353D01*
X38527401Y30972911D01*
X38527408Y30972906D01*
X38701235Y30879994D01*
X38889849Y30822778D01*
X39086001Y30803459D01*
X39282153Y30822778D01*
X39470767Y30879994D01*
X39644594Y30972906D01*
X39796955Y31097946D01*
X39921995Y31250307D01*
X40014907Y31424134D01*
X40072123Y31612748D01*
X40091442Y31808900D01*
X40091442Y31808901D01*
X41580560Y31808901D01*
X41580560Y31808900D01*
X41599879Y31612748D01*
X41599879Y31612747D01*
X41657095Y31424133D01*
X41750006Y31250308D01*
X41750011Y31250301D01*
X41768719Y31227506D01*
X41875047Y31097946D01*
X41907451Y31071353D01*
X42027401Y30972911D01*
X42027408Y30972906D01*
X42201235Y30879994D01*
X42389849Y30822778D01*
X42586001Y30803459D01*
X42782153Y30822778D01*
X42970767Y30879994D01*
X43144594Y30972906D01*
X43296955Y31097946D01*
X43421995Y31250307D01*
X43514907Y31424134D01*
X43572123Y31612748D01*
X43590566Y31800001D01*
X47369538Y31800001D01*
X47369538Y31800000D01*
X47389338Y31598967D01*
X47389338Y31598966D01*
X47419359Y31500000D01*
X47447977Y31405659D01*
X47543202Y31227506D01*
X47671353Y31071353D01*
X47827506Y30943202D01*
X48005659Y30847977D01*
X48198967Y30789338D01*
X48400000Y30769538D01*
X48601033Y30789338D01*
X48794341Y30847977D01*
X48972494Y30943202D01*
X49128647Y31071353D01*
X49256798Y31227506D01*
X49352023Y31405659D01*
X49410662Y31598967D01*
X49430462Y31800000D01*
X49430462Y31800001D01*
X50869538Y31800001D01*
X50869538Y31800000D01*
X50889338Y31598967D01*
X50889338Y31598966D01*
X50919359Y31500000D01*
X50947977Y31405659D01*
X51043202Y31227506D01*
X51171353Y31071353D01*
X51327506Y30943202D01*
X51505659Y30847977D01*
X51698967Y30789338D01*
X51900000Y30769538D01*
X52101033Y30789338D01*
X52294341Y30847977D01*
X52472494Y30943202D01*
X52628647Y31071353D01*
X52756798Y31227506D01*
X52852023Y31405659D01*
X52910662Y31598967D01*
X52930462Y31800000D01*
X52930462Y31800001D01*
X54369538Y31800001D01*
X54369538Y31800000D01*
X54389338Y31598967D01*
X54389338Y31598966D01*
X54419359Y31500000D01*
X54447977Y31405659D01*
X54543202Y31227506D01*
X54671353Y31071353D01*
X54827506Y30943202D01*
X55005659Y30847977D01*
X55198967Y30789338D01*
X55400000Y30769538D01*
X55601033Y30789338D01*
X55794341Y30847977D01*
X55972494Y30943202D01*
X56128647Y31071353D01*
X56256798Y31227506D01*
X56352023Y31405659D01*
X56410662Y31598967D01*
X56430462Y31800000D01*
X56430462Y31800001D01*
X57869538Y31800001D01*
X57869538Y31800000D01*
X57889338Y31598967D01*
X57889338Y31598966D01*
X57919359Y31500000D01*
X57947977Y31405659D01*
X58043202Y31227506D01*
X58171353Y31071353D01*
X58327506Y30943202D01*
X58505659Y30847977D01*
X58698967Y30789338D01*
X58900000Y30769538D01*
X59101033Y30789338D01*
X59294341Y30847977D01*
X59472494Y30943202D01*
X59628647Y31071353D01*
X59756798Y31227506D01*
X59852023Y31405659D01*
X59910662Y31598967D01*
X59930462Y31800000D01*
X59910662Y32001033D01*
X59852023Y32194341D01*
X59756798Y32372494D01*
X59628647Y32528647D01*
X59472494Y32656798D01*
X59294341Y32752023D01*
X59101033Y32810662D01*
X58900000Y32830462D01*
X58698966Y32810662D01*
X58698965Y32810662D01*
X58520012Y32756377D01*
X58505659Y32752023D01*
X58505656Y32752022D01*
X58505655Y32752021D01*
X58327504Y32656797D01*
X58171353Y32528647D01*
X58043203Y32372496D01*
X57947979Y32194345D01*
X57947976Y32194338D01*
X57889338Y32001035D01*
X57889338Y32001034D01*
X57869538Y31800001D01*
X56430462Y31800001D01*
X56410662Y32001033D01*
X56352023Y32194341D01*
X56256798Y32372494D01*
X56128647Y32528647D01*
X55972494Y32656798D01*
X55794341Y32752023D01*
X55601033Y32810662D01*
X55400000Y32830462D01*
X55198966Y32810662D01*
X55198965Y32810662D01*
X55020012Y32756377D01*
X55005659Y32752023D01*
X55005656Y32752022D01*
X55005655Y32752021D01*
X54827504Y32656797D01*
X54671353Y32528647D01*
X54543203Y32372496D01*
X54447979Y32194345D01*
X54447976Y32194338D01*
X54389338Y32001035D01*
X54389338Y32001034D01*
X54369538Y31800001D01*
X52930462Y31800001D01*
X52910662Y32001033D01*
X52852023Y32194341D01*
X52756798Y32372494D01*
X52628647Y32528647D01*
X52472494Y32656798D01*
X52294341Y32752023D01*
X52101033Y32810662D01*
X51900000Y32830462D01*
X51698966Y32810662D01*
X51698965Y32810662D01*
X51520012Y32756377D01*
X51505659Y32752023D01*
X51505656Y32752022D01*
X51505655Y32752021D01*
X51327504Y32656797D01*
X51171353Y32528647D01*
X51043203Y32372496D01*
X50947979Y32194345D01*
X50947976Y32194338D01*
X50889338Y32001035D01*
X50889338Y32001034D01*
X50869538Y31800001D01*
X49430462Y31800001D01*
X49410662Y32001033D01*
X49352023Y32194341D01*
X49256798Y32372494D01*
X49128647Y32528647D01*
X48972494Y32656798D01*
X48794341Y32752023D01*
X48601033Y32810662D01*
X48400000Y32830462D01*
X48198966Y32810662D01*
X48198965Y32810662D01*
X48020012Y32756377D01*
X48005659Y32752023D01*
X48005656Y32752022D01*
X48005655Y32752021D01*
X47827504Y32656797D01*
X47671353Y32528647D01*
X47543203Y32372496D01*
X47447979Y32194345D01*
X47447976Y32194338D01*
X47389338Y32001035D01*
X47389338Y32001034D01*
X47369538Y31800001D01*
X43590566Y31800001D01*
X43591442Y31808900D01*
X43572123Y32005052D01*
X43514907Y32193666D01*
X43491750Y32236989D01*
X43421995Y32367493D01*
X43421990Y32367500D01*
X43368617Y32432534D01*
X43296955Y32519854D01*
X43225291Y32578667D01*
X43144600Y32644890D01*
X43144593Y32644895D01*
X42970768Y32737806D01*
X42782153Y32795022D01*
X42586001Y32814341D01*
X42389848Y32795022D01*
X42389847Y32795022D01*
X42201233Y32737806D01*
X42027408Y32644895D01*
X42027401Y32644890D01*
X41875047Y32519854D01*
X41750011Y32367500D01*
X41750006Y32367493D01*
X41657095Y32193668D01*
X41599879Y32005054D01*
X41599879Y32005053D01*
X41580560Y31808901D01*
X40091442Y31808901D01*
X40072123Y32005052D01*
X40014907Y32193666D01*
X39991750Y32236989D01*
X39921995Y32367493D01*
X39921990Y32367500D01*
X39868617Y32432534D01*
X39796955Y32519854D01*
X39725291Y32578667D01*
X39644600Y32644890D01*
X39644593Y32644895D01*
X39470768Y32737806D01*
X39282153Y32795022D01*
X39086001Y32814341D01*
X38889848Y32795022D01*
X38889847Y32795022D01*
X38701233Y32737806D01*
X38527408Y32644895D01*
X38527401Y32644890D01*
X38375047Y32519854D01*
X38250011Y32367500D01*
X38250006Y32367493D01*
X38157095Y32193668D01*
X38099879Y32005054D01*
X38099879Y32005053D01*
X38080560Y31808901D01*
X36591441Y31808901D01*
X36572122Y32005052D01*
X36514906Y32193666D01*
X36491749Y32236989D01*
X36421994Y32367493D01*
X36421989Y32367500D01*
X36368616Y32432534D01*
X36296954Y32519854D01*
X36225290Y32578667D01*
X36144599Y32644890D01*
X36144592Y32644895D01*
X35970767Y32737806D01*
X35782152Y32795022D01*
X35586000Y32814341D01*
X35389847Y32795022D01*
X35389846Y32795022D01*
X35201232Y32737806D01*
X35027407Y32644895D01*
X35027400Y32644890D01*
X34875046Y32519854D01*
X34750010Y32367500D01*
X34750005Y32367493D01*
X34657094Y32193668D01*
X34599878Y32005054D01*
X34599878Y32005053D01*
X34580559Y31808901D01*
X30805332Y31808901D01*
X30799128Y31871895D01*
X30786122Y32003951D01*
X30728906Y32192565D01*
X30728316Y32193668D01*
X30635994Y32366392D01*
X30635989Y32366399D01*
X30582616Y32431433D01*
X30510954Y32518753D01*
X30427342Y32587372D01*
X30358599Y32643789D01*
X30358592Y32643794D01*
X30184767Y32736705D01*
X29996152Y32793921D01*
X29800000Y32813240D01*
X29603847Y32793921D01*
X29603846Y32793921D01*
X29415232Y32736705D01*
X29241407Y32643794D01*
X29241400Y32643789D01*
X29089046Y32518753D01*
X28964010Y32366399D01*
X28964005Y32366392D01*
X28871094Y32192567D01*
X28813878Y32003953D01*
X28813878Y32003952D01*
X28794559Y31807800D01*
X28325500Y31807800D01*
X28325500Y33042855D01*
X28310225Y33099860D01*
X28310225Y33099861D01*
X28303318Y33125639D01*
X28296790Y33136945D01*
X28280788Y33164661D01*
X28260465Y33199862D01*
X28160324Y33300003D01*
X31519610Y33300003D01*
X31519610Y33299998D01*
X31539067Y33164661D01*
X31595870Y33040282D01*
X31680292Y32942852D01*
X31685411Y32936945D01*
X31800439Y32863022D01*
X31873438Y32841588D01*
X31931628Y32824501D01*
X31931631Y32824501D01*
X31931633Y32824500D01*
X31931634Y32824500D01*
X32068366Y32824500D01*
X32068367Y32824500D01*
X32068369Y32824501D01*
X32068371Y32824501D01*
X32090062Y32830871D01*
X32199561Y32863022D01*
X32314589Y32936945D01*
X32404130Y33040282D01*
X32460931Y33164658D01*
X32460931Y33164660D01*
X32460932Y33164661D01*
X32480390Y33299998D01*
X32480390Y33300003D01*
X32466013Y33400003D01*
X36819610Y33400003D01*
X36819610Y33399998D01*
X36839067Y33264661D01*
X36895870Y33140282D01*
X36982519Y33040282D01*
X36985411Y33036945D01*
X37100439Y32963022D01*
X37169118Y32942856D01*
X37231628Y32924501D01*
X37231631Y32924501D01*
X37231633Y32924500D01*
X37231634Y32924500D01*
X37368366Y32924500D01*
X37368367Y32924500D01*
X37368369Y32924501D01*
X37368371Y32924501D01*
X37390062Y32930871D01*
X37499561Y32963022D01*
X37614589Y33036945D01*
X37704130Y33140282D01*
X37760931Y33264658D01*
X37760931Y33264660D01*
X37760932Y33264661D01*
X37780390Y33399998D01*
X37780390Y33400003D01*
X37766013Y33500003D01*
X40019610Y33500003D01*
X40019610Y33499998D01*
X40039067Y33364661D01*
X40095870Y33240282D01*
X40182519Y33140282D01*
X40185411Y33136945D01*
X40300439Y33063022D01*
X40369122Y33042855D01*
X40431628Y33024501D01*
X40431631Y33024501D01*
X40431633Y33024500D01*
X40431634Y33024500D01*
X40568366Y33024500D01*
X40568367Y33024500D01*
X40568369Y33024501D01*
X40568371Y33024501D01*
X40590062Y33030871D01*
X40699561Y33063022D01*
X40814589Y33136945D01*
X40904130Y33240282D01*
X40960931Y33364658D01*
X40960931Y33364660D01*
X40960932Y33364661D01*
X40966013Y33400003D01*
X46119610Y33400003D01*
X46119610Y33399998D01*
X46139067Y33264661D01*
X46195870Y33140282D01*
X46282519Y33040282D01*
X46285411Y33036945D01*
X46400439Y32963022D01*
X46469118Y32942856D01*
X46531628Y32924501D01*
X46531631Y32924501D01*
X46531633Y32924500D01*
X46531634Y32924500D01*
X46668366Y32924500D01*
X46668367Y32924500D01*
X46668369Y32924501D01*
X46668371Y32924501D01*
X46690062Y32930871D01*
X46799561Y32963022D01*
X46914589Y33036945D01*
X47004130Y33140282D01*
X47060931Y33264658D01*
X47060931Y33264660D01*
X47060932Y33264661D01*
X47080390Y33399998D01*
X47080390Y33400003D01*
X47066013Y33500003D01*
X49619610Y33500003D01*
X49619610Y33499998D01*
X49639067Y33364661D01*
X49695870Y33240282D01*
X49782519Y33140282D01*
X49785411Y33136945D01*
X49900439Y33063022D01*
X49969122Y33042855D01*
X50031628Y33024501D01*
X50031631Y33024501D01*
X50031633Y33024500D01*
X50031634Y33024500D01*
X50168366Y33024500D01*
X50168367Y33024500D01*
X50168369Y33024501D01*
X50168371Y33024501D01*
X50190062Y33030871D01*
X50299561Y33063022D01*
X50414589Y33136945D01*
X50504130Y33240282D01*
X50560931Y33364658D01*
X50560931Y33364660D01*
X50560932Y33364661D01*
X50580390Y33499998D01*
X50580390Y33500003D01*
X53319610Y33500003D01*
X53319610Y33499998D01*
X53339067Y33364661D01*
X53395870Y33240282D01*
X53482519Y33140282D01*
X53485411Y33136945D01*
X53600439Y33063022D01*
X53669122Y33042855D01*
X53731628Y33024501D01*
X53731631Y33024501D01*
X53731633Y33024500D01*
X53731634Y33024500D01*
X53868366Y33024500D01*
X53868367Y33024500D01*
X53868369Y33024501D01*
X53868371Y33024501D01*
X53890062Y33030871D01*
X53999561Y33063022D01*
X54114589Y33136945D01*
X54204130Y33240282D01*
X54260931Y33364658D01*
X54260931Y33364660D01*
X54260932Y33364661D01*
X54280390Y33499998D01*
X54280390Y33500003D01*
X54266013Y33600003D01*
X56419610Y33600003D01*
X56419610Y33599998D01*
X56439067Y33464661D01*
X56495870Y33340282D01*
X56582519Y33240282D01*
X56585411Y33236945D01*
X56700439Y33163022D01*
X56769122Y33142855D01*
X56831628Y33124501D01*
X56831631Y33124501D01*
X56831633Y33124500D01*
X56831634Y33124500D01*
X56968366Y33124500D01*
X56968367Y33124500D01*
X56968369Y33124501D01*
X56968371Y33124501D01*
X56990062Y33130871D01*
X57099561Y33163022D01*
X57214589Y33236945D01*
X57304130Y33340282D01*
X57360931Y33464658D01*
X57360931Y33464660D01*
X57360932Y33464661D01*
X57380390Y33599998D01*
X57380390Y33600003D01*
X57360932Y33735340D01*
X57314515Y33836978D01*
X57304130Y33859718D01*
X57214589Y33963055D01*
X57099561Y34036978D01*
X57099558Y34036979D01*
X56968371Y34075500D01*
X56968367Y34075500D01*
X56831633Y34075500D01*
X56831628Y34075500D01*
X56700441Y34036979D01*
X56585409Y33963054D01*
X56495870Y33859719D01*
X56439067Y33735340D01*
X56419610Y33600003D01*
X54266013Y33600003D01*
X54260932Y33635340D01*
X54214515Y33736978D01*
X54204130Y33759718D01*
X54132869Y33841959D01*
X54114590Y33863054D01*
X54114589Y33863055D01*
X53999561Y33936978D01*
X53999558Y33936979D01*
X53868371Y33975500D01*
X53868367Y33975500D01*
X53731633Y33975500D01*
X53731628Y33975500D01*
X53600441Y33936979D01*
X53485409Y33863054D01*
X53395870Y33759719D01*
X53339067Y33635340D01*
X53319610Y33500003D01*
X50580390Y33500003D01*
X50560932Y33635340D01*
X50514515Y33736978D01*
X50504130Y33759718D01*
X50432869Y33841959D01*
X50414590Y33863054D01*
X50414589Y33863055D01*
X50299561Y33936978D01*
X50299558Y33936979D01*
X50168371Y33975500D01*
X50168367Y33975500D01*
X50031633Y33975500D01*
X50031628Y33975500D01*
X49900441Y33936979D01*
X49785409Y33863054D01*
X49695870Y33759719D01*
X49639067Y33635340D01*
X49619610Y33500003D01*
X47066013Y33500003D01*
X47060932Y33535340D01*
X47015262Y33635342D01*
X47004130Y33659718D01*
X46937184Y33736979D01*
X46914590Y33763054D01*
X46914589Y33763055D01*
X46799561Y33836978D01*
X46799558Y33836979D01*
X46668371Y33875500D01*
X46668367Y33875500D01*
X46531633Y33875500D01*
X46531628Y33875500D01*
X46400441Y33836979D01*
X46285409Y33763054D01*
X46195870Y33659719D01*
X46139067Y33535340D01*
X46119610Y33400003D01*
X40966013Y33400003D01*
X40980390Y33499998D01*
X40980390Y33500003D01*
X40960932Y33635340D01*
X40914515Y33736978D01*
X40904130Y33759718D01*
X40832869Y33841959D01*
X40814590Y33863054D01*
X40814589Y33863055D01*
X40699561Y33936978D01*
X40699558Y33936979D01*
X40568371Y33975500D01*
X40568367Y33975500D01*
X40431633Y33975500D01*
X40431628Y33975500D01*
X40300441Y33936979D01*
X40185409Y33863054D01*
X40095870Y33759719D01*
X40039067Y33635340D01*
X40019610Y33500003D01*
X37766013Y33500003D01*
X37760932Y33535340D01*
X37715262Y33635342D01*
X37704130Y33659718D01*
X37637184Y33736979D01*
X37614590Y33763054D01*
X37614589Y33763055D01*
X37499561Y33836978D01*
X37499558Y33836979D01*
X37368371Y33875500D01*
X37368367Y33875500D01*
X37231633Y33875500D01*
X37231628Y33875500D01*
X37100441Y33836979D01*
X36985409Y33763054D01*
X36895870Y33659719D01*
X36839067Y33535340D01*
X36819610Y33400003D01*
X32466013Y33400003D01*
X32460932Y33435340D01*
X32415262Y33535342D01*
X32404130Y33559718D01*
X32338602Y33635342D01*
X32314590Y33663054D01*
X32314589Y33663055D01*
X32199561Y33736978D01*
X32199558Y33736979D01*
X32068371Y33775500D01*
X32068367Y33775500D01*
X31931633Y33775500D01*
X31931628Y33775500D01*
X31800441Y33736979D01*
X31800439Y33736979D01*
X31800439Y33736978D01*
X31742925Y33700017D01*
X31685409Y33663054D01*
X31595870Y33559719D01*
X31539067Y33435340D01*
X31519610Y33300003D01*
X28160324Y33300003D01*
X27399862Y34060465D01*
X27339125Y34095532D01*
X27325640Y34103318D01*
X27325637Y34103319D01*
X27242856Y34125500D01*
X27242853Y34125500D01*
X23457147Y34125500D01*
X23457144Y34125500D01*
X23374363Y34103319D01*
X23368668Y34100031D01*
X23360887Y34095538D01*
X23360877Y34095532D01*
X23300141Y34060468D01*
X23300135Y34060463D01*
X22539536Y33299863D01*
X22539535Y33299863D01*
X22496682Y33225641D01*
X22496681Y33225639D01*
X22484829Y33181402D01*
X22484829Y33181401D01*
X22474500Y33142855D01*
X22474500Y32945866D01*
X22474499Y32945848D01*
X22474499Y32791025D01*
X22460147Y32756377D01*
X22439724Y32744135D01*
X22418863Y32737806D01*
X22415230Y32736704D01*
X22415228Y32736703D01*
X22241402Y32643791D01*
X22241399Y32643789D01*
X22089045Y32518753D01*
X21964009Y32366399D01*
X21964004Y32366392D01*
X21871093Y32192567D01*
X21813877Y32003953D01*
X21813877Y32003952D01*
X21794558Y31807800D01*
X17546100Y31807800D01*
X17546100Y31871895D01*
X17508884Y32010787D01*
X17436989Y32135313D01*
X17335313Y32236989D01*
X17210787Y32308884D01*
X17071895Y32346100D01*
X16928105Y32346100D01*
X16789213Y32308884D01*
X16664687Y32236989D01*
X16563011Y32135313D01*
X16491116Y32010787D01*
X16453900Y31871895D01*
X14498360Y31871895D01*
X14486122Y31996152D01*
X14428906Y32184766D01*
X14403619Y32232074D01*
X14335994Y32358593D01*
X14335989Y32358600D01*
X14282616Y32423634D01*
X14210954Y32510954D01*
X14117839Y32587372D01*
X14058599Y32635990D01*
X14058592Y32635995D01*
X13884767Y32728906D01*
X13696152Y32786122D01*
X13500000Y32805441D01*
X13303847Y32786122D01*
X13303846Y32786122D01*
X13115232Y32728906D01*
X12941407Y32635995D01*
X12941400Y32635990D01*
X12789046Y32510954D01*
X12664010Y32358600D01*
X12664005Y32358593D01*
X12571094Y32184768D01*
X12513878Y31996154D01*
X12513878Y31996153D01*
X12494559Y31800001D01*
X11005440Y31800001D01*
X10986121Y31996152D01*
X10928905Y32184766D01*
X10903618Y32232074D01*
X10835993Y32358593D01*
X10835988Y32358600D01*
X10782615Y32423634D01*
X10710953Y32510954D01*
X10617838Y32587372D01*
X10558598Y32635990D01*
X10558591Y32635995D01*
X10384766Y32728906D01*
X10196151Y32786122D01*
X9999999Y32805441D01*
X9803846Y32786122D01*
X9803845Y32786122D01*
X9615231Y32728906D01*
X9441406Y32635995D01*
X9441399Y32635990D01*
X9289045Y32510954D01*
X9164009Y32358600D01*
X9164004Y32358593D01*
X9071093Y32184768D01*
X9013877Y31996154D01*
X9013877Y31996153D01*
X8994558Y31800001D01*
X6889229Y31800001D01*
X6885531Y31868199D01*
X6862155Y32010787D01*
X6825877Y32232074D01*
X6727229Y32587372D01*
X6727226Y32587381D01*
X6704750Y32643791D01*
X6590743Y32929930D01*
X6418022Y33255716D01*
X6418020Y33255719D01*
X6418017Y33255725D01*
X6252391Y33500003D01*
X7819610Y33500003D01*
X7819610Y33499998D01*
X7839067Y33364661D01*
X7895870Y33240282D01*
X7982519Y33140282D01*
X7985411Y33136945D01*
X8100439Y33063022D01*
X8169122Y33042855D01*
X8231628Y33024501D01*
X8231631Y33024501D01*
X8231633Y33024500D01*
X8231634Y33024500D01*
X8368366Y33024500D01*
X8368367Y33024500D01*
X8368369Y33024501D01*
X8368371Y33024501D01*
X8390062Y33030871D01*
X8499561Y33063022D01*
X8614589Y33136945D01*
X8704130Y33240282D01*
X8760931Y33364658D01*
X8760931Y33364660D01*
X8760932Y33364661D01*
X8780390Y33499998D01*
X8780390Y33500003D01*
X11019610Y33500003D01*
X11019610Y33499998D01*
X11039067Y33364661D01*
X11095870Y33240282D01*
X11182519Y33140282D01*
X11185411Y33136945D01*
X11300439Y33063022D01*
X11369122Y33042855D01*
X11431628Y33024501D01*
X11431631Y33024501D01*
X11431633Y33024500D01*
X11431634Y33024500D01*
X11568366Y33024500D01*
X11568367Y33024500D01*
X11568369Y33024501D01*
X11568371Y33024501D01*
X11590062Y33030871D01*
X11699561Y33063022D01*
X11814589Y33136945D01*
X11904130Y33240282D01*
X11960931Y33364658D01*
X11960931Y33364660D01*
X11960932Y33364661D01*
X11980390Y33499998D01*
X11980390Y33500003D01*
X14819610Y33500003D01*
X14819610Y33499998D01*
X14839067Y33364661D01*
X14895870Y33240282D01*
X14982519Y33140282D01*
X14985411Y33136945D01*
X15100439Y33063022D01*
X15169122Y33042855D01*
X15231628Y33024501D01*
X15231631Y33024501D01*
X15231633Y33024500D01*
X15231634Y33024500D01*
X15368366Y33024500D01*
X15368367Y33024500D01*
X15368369Y33024501D01*
X15368371Y33024501D01*
X15390062Y33030871D01*
X15499561Y33063022D01*
X15614589Y33136945D01*
X15704130Y33240282D01*
X15760931Y33364658D01*
X15760931Y33364660D01*
X15760932Y33364661D01*
X15780390Y33499998D01*
X15780390Y33500003D01*
X15766013Y33600003D01*
X20819610Y33600003D01*
X20819610Y33599998D01*
X20839067Y33464661D01*
X20895870Y33340282D01*
X20982519Y33240282D01*
X20985411Y33236945D01*
X21100439Y33163022D01*
X21169122Y33142855D01*
X21231628Y33124501D01*
X21231631Y33124501D01*
X21231633Y33124500D01*
X21231634Y33124500D01*
X21368366Y33124500D01*
X21368367Y33124500D01*
X21368369Y33124501D01*
X21368371Y33124501D01*
X21390062Y33130871D01*
X21499561Y33163022D01*
X21614589Y33236945D01*
X21704130Y33340282D01*
X21760931Y33464658D01*
X21760931Y33464660D01*
X21760932Y33464661D01*
X21780390Y33599998D01*
X21780390Y33600003D01*
X21760932Y33735340D01*
X21714515Y33836978D01*
X21704130Y33859718D01*
X21614589Y33963055D01*
X21499561Y34036978D01*
X21499558Y34036979D01*
X21368371Y34075500D01*
X21368367Y34075500D01*
X21231633Y34075500D01*
X21231628Y34075500D01*
X21100441Y34036979D01*
X20985409Y33963054D01*
X20895870Y33859719D01*
X20839067Y33735340D01*
X20819610Y33600003D01*
X15766013Y33600003D01*
X15760932Y33635340D01*
X15714515Y33736978D01*
X15704130Y33759718D01*
X15632869Y33841959D01*
X15614590Y33863054D01*
X15614589Y33863055D01*
X15499561Y33936978D01*
X15499558Y33936979D01*
X15368371Y33975500D01*
X15368367Y33975500D01*
X15231633Y33975500D01*
X15231628Y33975500D01*
X15100441Y33936979D01*
X14985409Y33863054D01*
X14895870Y33759719D01*
X14839067Y33635340D01*
X14819610Y33500003D01*
X11980390Y33500003D01*
X11960932Y33635340D01*
X11914515Y33736978D01*
X11904130Y33759718D01*
X11832869Y33841959D01*
X11814590Y33863054D01*
X11814589Y33863055D01*
X11699561Y33936978D01*
X11699558Y33936979D01*
X11568371Y33975500D01*
X11568367Y33975500D01*
X11431633Y33975500D01*
X11431628Y33975500D01*
X11300441Y33936979D01*
X11185409Y33863054D01*
X11095870Y33759719D01*
X11039067Y33635340D01*
X11019610Y33500003D01*
X8780390Y33500003D01*
X8760932Y33635340D01*
X8714515Y33736978D01*
X8704130Y33759718D01*
X8632869Y33841959D01*
X8614590Y33863054D01*
X8614589Y33863055D01*
X8499561Y33936978D01*
X8499558Y33936979D01*
X8368371Y33975500D01*
X8368367Y33975500D01*
X8231633Y33975500D01*
X8231628Y33975500D01*
X8100441Y33936979D01*
X7985409Y33863054D01*
X7895870Y33759719D01*
X7839067Y33635340D01*
X7819610Y33500003D01*
X6252391Y33500003D01*
X6211093Y33560913D01*
X6177892Y33600000D01*
X6062932Y33735342D01*
X5972380Y33841949D01*
X5972370Y33841959D01*
X5704677Y34095532D01*
X5704670Y34095538D01*
X5411117Y34318692D01*
X5095161Y34508796D01*
X4884995Y34606029D01*
X4859576Y34633603D01*
X4861099Y34671075D01*
X4888673Y34696494D01*
X4905570Y34699500D01*
X63994430Y34699500D01*
X64029078Y34685148D01*
G37*
%TD.AperFunction*%
%TD*%
M02*
