%TF.GenerationSoftware,KiCad,Pcbnew,8.0.2*%
%TF.CreationDate,2024-07-24T20:27:57+03:00*%
%TF.ProjectId,DRV8234 DC Motor Driver Expander,44525638-3233-4342-9044-43204d6f746f,rev?*%
%TF.SameCoordinates,PX5f5e100PY5f5e100*%
%TF.FileFunction,Copper,L3,Inr*%
%TF.FilePolarity,Positive*%
%FSLAX46Y46*%
G04 Gerber Fmt 4.6, Leading zero omitted, Abs format (unit mm)*
G04 Created by KiCad (PCBNEW 8.0.2) date 2024-07-24 20:27:57*
%MOMM*%
%LPD*%
G01*
G04 APERTURE LIST*
%TA.AperFunction,ComponentPad*%
%ADD10C,1.600200*%
%TD*%
%TA.AperFunction,ComponentPad*%
%ADD11C,1.650000*%
%TD*%
%TA.AperFunction,ComponentPad*%
%ADD12C,0.800000*%
%TD*%
%TA.AperFunction,ComponentPad*%
%ADD13C,6.400000*%
%TD*%
%TA.AperFunction,ViaPad*%
%ADD14C,0.550000*%
%TD*%
G04 APERTURE END LIST*
D10*
%TO.N,OUT1*%
%TO.C,J5*%
X45099997Y8200000D03*
X45099997Y3200000D03*
%TO.N,OUT2*%
X48600000Y8200000D03*
X48600000Y3200000D03*
%TD*%
%TO.N,GND*%
%TO.C,J1*%
X20249998Y8200000D03*
X20249998Y3200000D03*
%TO.N,VM*%
X23750001Y8200000D03*
X23750001Y3200000D03*
%TD*%
D11*
%TO.N,A1*%
%TO.C,J4*%
X58900000Y26800000D03*
X58900000Y31800000D03*
%TO.N,A0*%
X55400000Y26800000D03*
X55400000Y31800000D03*
%TO.N,SDA*%
X51900000Y26800000D03*
X51900000Y31800000D03*
%TO.N,SCL*%
X48400000Y26800000D03*
X48400000Y31800000D03*
%TD*%
D10*
%TO.N,IPROPI*%
%TO.C,J3*%
X42586001Y26808900D03*
X42586001Y31808900D03*
%TO.N,RC_OUT*%
X39086001Y26808900D03*
X39086001Y31808900D03*
%TO.N,NFAULT*%
X35586000Y26808900D03*
X35586000Y31808900D03*
%TD*%
%TO.N,NSLEEP*%
%TO.C,J2*%
X29800000Y26807799D03*
X29800000Y31807799D03*
%TO.N,IN1*%
X26300000Y26807799D03*
X26300000Y31807799D03*
%TO.N,IN2*%
X22799999Y26807799D03*
X22799999Y31807799D03*
%TD*%
%TO.N,VCC_MCU*%
%TO.C,J6*%
X17000000Y26800000D03*
X17000000Y31800000D03*
%TO.N,GND*%
X13500000Y26800000D03*
X13500000Y31800000D03*
%TO.N,+3V3*%
X9999999Y26800000D03*
X9999999Y31800000D03*
%TD*%
D12*
%TO.N,N/C*%
%TO.C,H2*%
X63000000Y31500000D03*
X63702944Y33197056D03*
X63702944Y29802944D03*
X65400000Y33900000D03*
D13*
X65400000Y31500000D03*
D12*
X65400000Y29100000D03*
X67097056Y33197056D03*
X67097056Y29802944D03*
X67800000Y31500000D03*
%TD*%
%TO.N,N/C*%
%TO.C,H3*%
X1100000Y3500000D03*
X1802944Y5197056D03*
X1802944Y1802944D03*
X3500000Y5900000D03*
D13*
X3500000Y3500000D03*
D12*
X3500000Y1100000D03*
X5197056Y5197056D03*
X5197056Y1802944D03*
X5900000Y3500000D03*
%TD*%
%TO.N,N/C*%
%TO.C,H1*%
X5900000Y31500000D03*
X5197056Y29802944D03*
X5197056Y33197056D03*
X3500000Y29100000D03*
D13*
X3500000Y31500000D03*
D12*
X3500000Y33900000D03*
X1802944Y29802944D03*
X1802944Y33197056D03*
X1100000Y31500000D03*
%TD*%
%TO.N,N/C*%
%TO.C,H4*%
X67800000Y3500000D03*
X67097056Y1802944D03*
X67097056Y5197056D03*
X65400000Y1100000D03*
D13*
X65400000Y3500000D03*
D12*
X65400000Y5900000D03*
X63702944Y1802944D03*
X63702944Y5197056D03*
X63000000Y3500000D03*
%TD*%
D14*
%TO.N,VCC_MCU*%
X32000000Y20000000D03*
X60000000Y19600000D03*
X51200000Y17100000D03*
X47400000Y18800000D03*
X57200000Y22300000D03*
X50000000Y23000000D03*
X32100000Y17400000D03*
X53800000Y24500000D03*
X37400000Y25300000D03*
X40900000Y25300000D03*
X33500000Y31100000D03*
X19900000Y25000000D03*
X19900000Y32300000D03*
X17000000Y29300000D03*
X2100000Y26600000D03*
X13000000Y8900000D03*
X17900000Y5400000D03*
X21961802Y14305583D03*
X27400000Y2300000D03*
X55400000Y4700000D03*
X60200000Y9300000D03*
X64500000Y26500000D03*
X64226699Y22114594D03*
X65400000Y15700000D03*
X57000000Y15000000D03*
X53800000Y16100000D03*
%TO.N,GND*%
X67500000Y8000000D03*
X57000000Y8000000D03*
X62400000Y13400000D03*
X54700000Y12600000D03*
X59500000Y15800000D03*
X59500000Y3500000D03*
X56500000Y2700000D03*
X52100000Y1700000D03*
X4500000Y26600000D03*
X5900000Y23200000D03*
X1300000Y9800000D03*
X1500000Y14300000D03*
X1200000Y18200000D03*
X1800000Y23800000D03*
X14372395Y19244029D03*
X12900000Y17600000D03*
X14400000Y15300000D03*
X16500000Y13200000D03*
X13200000Y12000000D03*
X15900000Y10300000D03*
X8800000Y6100000D03*
X12100000Y5100000D03*
X14600000Y6400000D03*
X14400000Y2500000D03*
X9400000Y2500000D03*
X35100000Y17400000D03*
X42100000Y5500000D03*
X41400000Y1400000D03*
X38100000Y1700000D03*
X33200000Y2000000D03*
X29800000Y3200000D03*
X27900000Y6300000D03*
X27400000Y9700000D03*
X12400000Y21300000D03*
X11100000Y23200000D03*
X7900000Y28900000D03*
X8300000Y33500000D03*
X11500000Y33500000D03*
X15300000Y33500000D03*
X37300000Y33400000D03*
X40500000Y33500000D03*
X45400000Y22000000D03*
X45800000Y26200000D03*
X57200000Y29200000D03*
X49700000Y29500000D03*
X46200000Y29600000D03*
X46600000Y33400000D03*
X50100000Y33500000D03*
X53800000Y33500000D03*
X56900000Y33600000D03*
X61200000Y29900000D03*
X61900000Y26100000D03*
X65700000Y25000000D03*
X66000000Y19100000D03*
X61400000Y22300000D03*
X63200000Y8600000D03*
X63100000Y17600000D03*
X65500000Y11000000D03*
X59900000Y5800000D03*
X58100000Y12100000D03*
X53400000Y5400000D03*
X53200000Y9100000D03*
X49762796Y11610135D03*
X49700000Y15600000D03*
X46500000Y17700000D03*
X40900000Y22900000D03*
X37400000Y23100000D03*
X33500000Y26000000D03*
X32100000Y29500000D03*
X32000000Y33300000D03*
X21300000Y33600000D03*
X19500000Y29100000D03*
X19900000Y23000000D03*
X23600000Y23100000D03*
X25700000Y22100000D03*
X28400000Y19700000D03*
%TO.N,+3V3*%
X36600000Y14500000D03*
X36600000Y13400000D03*
%TO.N,GND*%
X43700000Y19600000D03*
X40300000Y13500000D03*
X39500000Y14600000D03*
X20000000Y15500000D03*
X17600000Y15500000D03*
X16800000Y15500000D03*
X19200000Y15500000D03*
X18400000Y15500000D03*
X16800000Y18500000D03*
X17600000Y18500000D03*
X20000000Y18500000D03*
X19200000Y18500000D03*
X18400000Y18500000D03*
X34000000Y11500000D03*
X35000000Y12500000D03*
X29500000Y14600000D03*
X29500000Y12400000D03*
X28600000Y13100000D03*
X28600000Y13900000D03*
X32118916Y11602801D03*
%TO.N,NSLEEP*%
X35200000Y9300000D03*
%TO.N,IN2*%
X36200000Y10000000D03*
%TO.N,IN1*%
X37200000Y10900000D03*
%TD*%
%TA.AperFunction,Conductor*%
%TO.N,GND*%
G36*
X64029078Y34685148D02*
G01*
X64043430Y34650500D01*
X64029078Y34615852D01*
X64015005Y34606029D01*
X63804838Y34508796D01*
X63488882Y34318692D01*
X63195326Y34095536D01*
X63195322Y34095532D01*
X62927629Y33841959D01*
X62927619Y33841949D01*
X62688906Y33560913D01*
X62481982Y33255725D01*
X62481978Y33255717D01*
X62309257Y32929932D01*
X62309255Y32929927D01*
X62172773Y32587381D01*
X62172770Y32587372D01*
X62074122Y32232074D01*
X62014471Y31868214D01*
X62014468Y31868192D01*
X61994506Y31500002D01*
X61994506Y31499999D01*
X62014468Y31131809D01*
X62014471Y31131787D01*
X62074122Y30767927D01*
X62172770Y30412629D01*
X62172773Y30412620D01*
X62309255Y30070074D01*
X62309257Y30070069D01*
X62481978Y29744284D01*
X62481982Y29744276D01*
X62688906Y29439088D01*
X62688909Y29439085D01*
X62688910Y29439083D01*
X62729527Y29391265D01*
X62927619Y29158052D01*
X62927629Y29158042D01*
X63195322Y28904469D01*
X63195326Y28904465D01*
X63488882Y28681309D01*
X63614734Y28605587D01*
X63804838Y28491205D01*
X63929845Y28433371D01*
X64139491Y28336377D01*
X64139497Y28336375D01*
X64488934Y28218636D01*
X64677087Y28177221D01*
X64849042Y28139370D01*
X64849043Y28139370D01*
X64849052Y28139368D01*
X65215630Y28099500D01*
X65215635Y28099500D01*
X65584365Y28099500D01*
X65584370Y28099500D01*
X65950948Y28139368D01*
X66311066Y28218636D01*
X66660503Y28336375D01*
X66660505Y28336377D01*
X66660508Y28336377D01*
X66745147Y28375536D01*
X66995162Y28491205D01*
X67311119Y28681310D01*
X67604670Y28904462D01*
X67872373Y29158044D01*
X68111090Y29439083D01*
X68262947Y29663055D01*
X68318017Y29744276D01*
X68318018Y29744279D01*
X68318022Y29744284D01*
X68490743Y30070070D01*
X68504980Y30105802D01*
X68531137Y30132677D01*
X68568637Y30133185D01*
X68595512Y30107028D01*
X68599500Y30087665D01*
X68599500Y4912336D01*
X68585148Y4877688D01*
X68550500Y4863336D01*
X68515852Y4877688D01*
X68504980Y4894199D01*
X68490744Y4929927D01*
X68490742Y4929932D01*
X68420165Y5063054D01*
X68318022Y5255716D01*
X68318020Y5255719D01*
X68318017Y5255725D01*
X68111093Y5560913D01*
X67872380Y5841949D01*
X67872370Y5841959D01*
X67604677Y6095532D01*
X67604673Y6095536D01*
X67311117Y6318692D01*
X66995160Y6508796D01*
X66660508Y6663624D01*
X66311064Y6781365D01*
X65950957Y6860631D01*
X65950948Y6860632D01*
X65584370Y6900500D01*
X65215630Y6900500D01*
X64910471Y6867312D01*
X64849042Y6860631D01*
X64488936Y6781365D01*
X64488933Y6781365D01*
X64139491Y6663624D01*
X63804839Y6508796D01*
X63488882Y6318692D01*
X63195326Y6095536D01*
X63195322Y6095532D01*
X62927629Y5841959D01*
X62927619Y5841949D01*
X62688906Y5560913D01*
X62481982Y5255725D01*
X62481978Y5255717D01*
X62309257Y4929932D01*
X62309255Y4929927D01*
X62172773Y4587381D01*
X62172770Y4587372D01*
X62074122Y4232074D01*
X62014471Y3868214D01*
X62014468Y3868192D01*
X61994506Y3500002D01*
X61994506Y3499999D01*
X62014468Y3131809D01*
X62014471Y3131787D01*
X62074122Y2767927D01*
X62172770Y2412629D01*
X62172773Y2412620D01*
X62309255Y2070074D01*
X62309257Y2070069D01*
X62481978Y1744284D01*
X62481982Y1744276D01*
X62688906Y1439088D01*
X62927619Y1158052D01*
X62927629Y1158042D01*
X63195322Y904469D01*
X63195326Y904465D01*
X63488882Y681309D01*
X63804838Y491205D01*
X64015005Y393971D01*
X64040424Y366397D01*
X64038901Y328925D01*
X64011327Y303506D01*
X63994430Y300500D01*
X4905570Y300500D01*
X4870922Y314852D01*
X4856570Y349500D01*
X4870922Y384148D01*
X4884995Y393971D01*
X4954554Y426153D01*
X5095162Y491205D01*
X5411119Y681310D01*
X5704670Y904462D01*
X5972373Y1158044D01*
X6211090Y1439083D01*
X6418022Y1744284D01*
X6590743Y2070070D01*
X6727227Y2412621D01*
X6825875Y2767919D01*
X6825875Y2767921D01*
X6825877Y2767927D01*
X6864554Y3003848D01*
X6885531Y3131801D01*
X6893127Y3271895D01*
X19703898Y3271895D01*
X19703898Y3128105D01*
X19741114Y2989213D01*
X19813009Y2864687D01*
X19914685Y2763011D01*
X20039211Y2691116D01*
X20178103Y2653900D01*
X20321893Y2653900D01*
X20460785Y2691116D01*
X20585311Y2763011D01*
X20686987Y2864687D01*
X20758882Y2989213D01*
X20796098Y3128105D01*
X20796098Y3200001D01*
X22744560Y3200001D01*
X22744560Y3200000D01*
X22763879Y3003848D01*
X22763879Y3003847D01*
X22821095Y2815233D01*
X22914006Y2641408D01*
X22914011Y2641401D01*
X22980234Y2560710D01*
X23039047Y2489046D01*
X23104488Y2435340D01*
X23191401Y2364011D01*
X23191408Y2364006D01*
X23365235Y2271094D01*
X23553849Y2213878D01*
X23750001Y2194559D01*
X23946153Y2213878D01*
X24134767Y2271094D01*
X24188852Y2300003D01*
X26919610Y2300003D01*
X26919610Y2299998D01*
X26939067Y2164661D01*
X26995870Y2040282D01*
X27085411Y1936945D01*
X27200439Y1863022D01*
X27273438Y1841588D01*
X27331628Y1824501D01*
X27331631Y1824501D01*
X27331633Y1824500D01*
X27331634Y1824500D01*
X27468366Y1824500D01*
X27468367Y1824500D01*
X27468369Y1824501D01*
X27468371Y1824501D01*
X27490062Y1830871D01*
X27599561Y1863022D01*
X27714589Y1936945D01*
X27804130Y2040282D01*
X27860931Y2164658D01*
X27860931Y2164660D01*
X27860932Y2164661D01*
X27880390Y2299998D01*
X27880390Y2300003D01*
X27860932Y2435340D01*
X27836405Y2489046D01*
X27804130Y2559718D01*
X27714589Y2663055D01*
X27599561Y2736978D01*
X27599558Y2736979D01*
X27468371Y2775500D01*
X27468367Y2775500D01*
X27331633Y2775500D01*
X27331628Y2775500D01*
X27200441Y2736979D01*
X27085409Y2663054D01*
X26995870Y2559719D01*
X26939067Y2435340D01*
X26919610Y2300003D01*
X24188852Y2300003D01*
X24308594Y2364006D01*
X24460955Y2489046D01*
X24585995Y2641407D01*
X24678907Y2815234D01*
X24736123Y3003848D01*
X24755442Y3200000D01*
X24755442Y3200001D01*
X44094556Y3200001D01*
X44094556Y3200000D01*
X44113875Y3003848D01*
X44113875Y3003847D01*
X44171091Y2815233D01*
X44264002Y2641408D01*
X44264007Y2641401D01*
X44330230Y2560710D01*
X44389043Y2489046D01*
X44454484Y2435340D01*
X44541397Y2364011D01*
X44541404Y2364006D01*
X44715231Y2271094D01*
X44903845Y2213878D01*
X45099997Y2194559D01*
X45296149Y2213878D01*
X45484763Y2271094D01*
X45658590Y2364006D01*
X45810951Y2489046D01*
X45935991Y2641407D01*
X46028903Y2815234D01*
X46086119Y3003848D01*
X46105438Y3200000D01*
X46105438Y3200001D01*
X47594559Y3200001D01*
X47594559Y3200000D01*
X47613878Y3003848D01*
X47613878Y3003847D01*
X47671094Y2815233D01*
X47764005Y2641408D01*
X47764010Y2641401D01*
X47830233Y2560710D01*
X47889046Y2489046D01*
X47954487Y2435340D01*
X48041400Y2364011D01*
X48041407Y2364006D01*
X48215234Y2271094D01*
X48403848Y2213878D01*
X48600000Y2194559D01*
X48796152Y2213878D01*
X48984766Y2271094D01*
X49158593Y2364006D01*
X49310954Y2489046D01*
X49435994Y2641407D01*
X49528906Y2815234D01*
X49586122Y3003848D01*
X49605441Y3200000D01*
X49586122Y3396152D01*
X49528906Y3584766D01*
X49435994Y3758593D01*
X49435989Y3758600D01*
X49346042Y3868199D01*
X49310954Y3910954D01*
X49239290Y3969767D01*
X49158599Y4035990D01*
X49158592Y4035995D01*
X48984767Y4128906D01*
X48796152Y4186122D01*
X48600000Y4205441D01*
X48403847Y4186122D01*
X48403846Y4186122D01*
X48215232Y4128906D01*
X48041407Y4035995D01*
X48041400Y4035990D01*
X47889046Y3910954D01*
X47764010Y3758600D01*
X47764005Y3758593D01*
X47671094Y3584768D01*
X47613878Y3396154D01*
X47613878Y3396153D01*
X47594559Y3200001D01*
X46105438Y3200001D01*
X46086119Y3396152D01*
X46028903Y3584766D01*
X45935991Y3758593D01*
X45935986Y3758600D01*
X45846039Y3868199D01*
X45810951Y3910954D01*
X45739287Y3969767D01*
X45658596Y4035990D01*
X45658589Y4035995D01*
X45484764Y4128906D01*
X45296149Y4186122D01*
X45099997Y4205441D01*
X44903844Y4186122D01*
X44903843Y4186122D01*
X44715229Y4128906D01*
X44541404Y4035995D01*
X44541397Y4035990D01*
X44389043Y3910954D01*
X44264007Y3758600D01*
X44264002Y3758593D01*
X44171091Y3584768D01*
X44113875Y3396154D01*
X44113875Y3396153D01*
X44094556Y3200001D01*
X24755442Y3200001D01*
X24736123Y3396152D01*
X24678907Y3584766D01*
X24585995Y3758593D01*
X24585990Y3758600D01*
X24496043Y3868199D01*
X24460955Y3910954D01*
X24389291Y3969767D01*
X24308600Y4035990D01*
X24308593Y4035995D01*
X24134768Y4128906D01*
X23946153Y4186122D01*
X23750001Y4205441D01*
X23553848Y4186122D01*
X23553847Y4186122D01*
X23365233Y4128906D01*
X23191408Y4035995D01*
X23191401Y4035990D01*
X23039047Y3910954D01*
X22914011Y3758600D01*
X22914006Y3758593D01*
X22821095Y3584768D01*
X22763879Y3396154D01*
X22763879Y3396153D01*
X22744560Y3200001D01*
X20796098Y3200001D01*
X20796098Y3271895D01*
X20758882Y3410787D01*
X20686987Y3535313D01*
X20585311Y3636989D01*
X20460785Y3708884D01*
X20321893Y3746100D01*
X20178103Y3746100D01*
X20039211Y3708884D01*
X19914685Y3636989D01*
X19813009Y3535313D01*
X19741114Y3410787D01*
X19703898Y3271895D01*
X6893127Y3271895D01*
X6905494Y3500000D01*
X6885531Y3868199D01*
X6833410Y4186122D01*
X6825877Y4232074D01*
X6727229Y4587372D01*
X6727226Y4587381D01*
X6682354Y4700003D01*
X54919610Y4700003D01*
X54919610Y4699998D01*
X54939067Y4564661D01*
X54995870Y4440282D01*
X55085411Y4336945D01*
X55200439Y4263022D01*
X55273438Y4241588D01*
X55331628Y4224501D01*
X55331631Y4224501D01*
X55331633Y4224500D01*
X55331634Y4224500D01*
X55468366Y4224500D01*
X55468367Y4224500D01*
X55468369Y4224501D01*
X55468371Y4224501D01*
X55494162Y4232074D01*
X55599561Y4263022D01*
X55714589Y4336945D01*
X55804130Y4440282D01*
X55860931Y4564658D01*
X55860931Y4564660D01*
X55860932Y4564661D01*
X55880390Y4699998D01*
X55880390Y4700003D01*
X55860932Y4835340D01*
X55841592Y4877688D01*
X55804130Y4959718D01*
X55737213Y5036945D01*
X55714590Y5063054D01*
X55714589Y5063055D01*
X55599561Y5136978D01*
X55588309Y5140282D01*
X55468371Y5175500D01*
X55468367Y5175500D01*
X55331633Y5175500D01*
X55331628Y5175500D01*
X55200441Y5136979D01*
X55085409Y5063054D01*
X54995870Y4959719D01*
X54939067Y4835340D01*
X54919610Y4700003D01*
X6682354Y4700003D01*
X6590744Y4929927D01*
X6590742Y4929932D01*
X6520165Y5063054D01*
X6418022Y5255716D01*
X6418020Y5255719D01*
X6418017Y5255725D01*
X6320193Y5400003D01*
X17419610Y5400003D01*
X17419610Y5399998D01*
X17439067Y5264661D01*
X17495870Y5140282D01*
X17562787Y5063054D01*
X17585411Y5036945D01*
X17700439Y4963022D01*
X17773438Y4941588D01*
X17831628Y4924501D01*
X17831631Y4924501D01*
X17831633Y4924500D01*
X17831634Y4924500D01*
X17968366Y4924500D01*
X17968367Y4924500D01*
X17968369Y4924501D01*
X17968371Y4924501D01*
X17990062Y4930871D01*
X18099561Y4963022D01*
X18214589Y5036945D01*
X18304130Y5140282D01*
X18360931Y5264658D01*
X18360931Y5264660D01*
X18360932Y5264661D01*
X18380390Y5399998D01*
X18380390Y5400003D01*
X18360932Y5535340D01*
X18349251Y5560917D01*
X18304130Y5659718D01*
X18214589Y5763055D01*
X18099561Y5836978D01*
X18099558Y5836979D01*
X17968371Y5875500D01*
X17968367Y5875500D01*
X17831633Y5875500D01*
X17831628Y5875500D01*
X17700441Y5836979D01*
X17585409Y5763054D01*
X17495870Y5659719D01*
X17439067Y5535340D01*
X17419610Y5400003D01*
X6320193Y5400003D01*
X6211093Y5560913D01*
X5972380Y5841949D01*
X5972370Y5841959D01*
X5704677Y6095532D01*
X5704673Y6095536D01*
X5411117Y6318692D01*
X5095160Y6508796D01*
X4760508Y6663624D01*
X4411064Y6781365D01*
X4050957Y6860631D01*
X4050948Y6860632D01*
X3684370Y6900500D01*
X3315630Y6900500D01*
X3010471Y6867312D01*
X2949042Y6860631D01*
X2588936Y6781365D01*
X2588933Y6781365D01*
X2239491Y6663624D01*
X1904839Y6508796D01*
X1588882Y6318692D01*
X1295326Y6095536D01*
X1295322Y6095532D01*
X1027629Y5841959D01*
X1027619Y5841949D01*
X788906Y5560913D01*
X581982Y5255725D01*
X581978Y5255717D01*
X409257Y4929932D01*
X409255Y4929927D01*
X395020Y4894199D01*
X368863Y4867324D01*
X331363Y4866816D01*
X304488Y4892973D01*
X300500Y4912336D01*
X300500Y8271895D01*
X19703898Y8271895D01*
X19703898Y8128105D01*
X19741114Y7989213D01*
X19813009Y7864687D01*
X19914685Y7763011D01*
X20039211Y7691116D01*
X20178103Y7653900D01*
X20321893Y7653900D01*
X20460785Y7691116D01*
X20585311Y7763011D01*
X20686987Y7864687D01*
X20758882Y7989213D01*
X20796098Y8128105D01*
X20796098Y8200001D01*
X22744560Y8200001D01*
X22744560Y8200000D01*
X22763879Y8003848D01*
X22763879Y8003847D01*
X22821095Y7815233D01*
X22914006Y7641408D01*
X22914011Y7641401D01*
X22980234Y7560710D01*
X23039047Y7489046D01*
X23126367Y7417384D01*
X23191401Y7364011D01*
X23191408Y7364006D01*
X23365235Y7271094D01*
X23553849Y7213878D01*
X23750001Y7194559D01*
X23946153Y7213878D01*
X24134767Y7271094D01*
X24308594Y7364006D01*
X24460955Y7489046D01*
X24585995Y7641407D01*
X24678907Y7815234D01*
X24736123Y8003848D01*
X24755442Y8200000D01*
X24755442Y8200001D01*
X44094556Y8200001D01*
X44094556Y8200000D01*
X44113875Y8003848D01*
X44113875Y8003847D01*
X44171091Y7815233D01*
X44264002Y7641408D01*
X44264007Y7641401D01*
X44330230Y7560710D01*
X44389043Y7489046D01*
X44476363Y7417384D01*
X44541397Y7364011D01*
X44541404Y7364006D01*
X44715231Y7271094D01*
X44903845Y7213878D01*
X45099997Y7194559D01*
X45296149Y7213878D01*
X45484763Y7271094D01*
X45658590Y7364006D01*
X45810951Y7489046D01*
X45935991Y7641407D01*
X46028903Y7815234D01*
X46086119Y8003848D01*
X46105438Y8200000D01*
X46105438Y8200001D01*
X47594559Y8200001D01*
X47594559Y8200000D01*
X47613878Y8003848D01*
X47613878Y8003847D01*
X47671094Y7815233D01*
X47764005Y7641408D01*
X47764010Y7641401D01*
X47830233Y7560710D01*
X47889046Y7489046D01*
X47976366Y7417384D01*
X48041400Y7364011D01*
X48041407Y7364006D01*
X48215234Y7271094D01*
X48403848Y7213878D01*
X48600000Y7194559D01*
X48796152Y7213878D01*
X48984766Y7271094D01*
X49158593Y7364006D01*
X49310954Y7489046D01*
X49435994Y7641407D01*
X49528906Y7815234D01*
X49586122Y8003848D01*
X49605441Y8200000D01*
X49586122Y8396152D01*
X49528906Y8584766D01*
X49435994Y8758593D01*
X49435989Y8758600D01*
X49319945Y8899998D01*
X49310954Y8910954D01*
X49239290Y8969767D01*
X49158599Y9035990D01*
X49158592Y9035995D01*
X48984767Y9128906D01*
X48796152Y9186122D01*
X48600000Y9205441D01*
X48403847Y9186122D01*
X48403846Y9186122D01*
X48215232Y9128906D01*
X48041407Y9035995D01*
X48041400Y9035990D01*
X47889046Y8910954D01*
X47764010Y8758600D01*
X47764005Y8758593D01*
X47671094Y8584768D01*
X47613878Y8396154D01*
X47613878Y8396153D01*
X47594559Y8200001D01*
X46105438Y8200001D01*
X46086119Y8396152D01*
X46028903Y8584766D01*
X45935991Y8758593D01*
X45935986Y8758600D01*
X45819942Y8899998D01*
X45810951Y8910954D01*
X45739287Y8969767D01*
X45658596Y9035990D01*
X45658589Y9035995D01*
X45484764Y9128906D01*
X45296149Y9186122D01*
X45099997Y9205441D01*
X44903844Y9186122D01*
X44903843Y9186122D01*
X44715229Y9128906D01*
X44541404Y9035995D01*
X44541397Y9035990D01*
X44389043Y8910954D01*
X44264007Y8758600D01*
X44264002Y8758593D01*
X44171091Y8584768D01*
X44113875Y8396154D01*
X44113875Y8396153D01*
X44094556Y8200001D01*
X24755442Y8200001D01*
X24736123Y8396152D01*
X24678907Y8584766D01*
X24585995Y8758593D01*
X24585990Y8758600D01*
X24469946Y8899998D01*
X24460955Y8910954D01*
X24389291Y8969767D01*
X24308600Y9035990D01*
X24308593Y9035995D01*
X24134768Y9128906D01*
X23946153Y9186122D01*
X23750001Y9205441D01*
X23553848Y9186122D01*
X23553847Y9186122D01*
X23365233Y9128906D01*
X23191408Y9035995D01*
X23191401Y9035990D01*
X23039047Y8910954D01*
X22914011Y8758600D01*
X22914006Y8758593D01*
X22821095Y8584768D01*
X22763879Y8396154D01*
X22763879Y8396153D01*
X22744560Y8200001D01*
X20796098Y8200001D01*
X20796098Y8271895D01*
X20758882Y8410787D01*
X20686987Y8535313D01*
X20585311Y8636989D01*
X20460785Y8708884D01*
X20321893Y8746100D01*
X20178103Y8746100D01*
X20039211Y8708884D01*
X19914685Y8636989D01*
X19813009Y8535313D01*
X19741114Y8410787D01*
X19703898Y8271895D01*
X300500Y8271895D01*
X300500Y8900003D01*
X12519610Y8900003D01*
X12519610Y8899998D01*
X12539067Y8764661D01*
X12595870Y8640282D01*
X12643972Y8584768D01*
X12685411Y8536945D01*
X12800439Y8463022D01*
X12873438Y8441588D01*
X12931628Y8424501D01*
X12931631Y8424501D01*
X12931633Y8424500D01*
X12931634Y8424500D01*
X13068366Y8424500D01*
X13068367Y8424500D01*
X13068369Y8424501D01*
X13068371Y8424501D01*
X13090062Y8430871D01*
X13199561Y8463022D01*
X13314589Y8536945D01*
X13404130Y8640282D01*
X13460931Y8764658D01*
X13460931Y8764660D01*
X13460932Y8764661D01*
X13480390Y8899998D01*
X13480390Y8900003D01*
X13460932Y9035340D01*
X13418201Y9128906D01*
X13404130Y9159718D01*
X13314589Y9263055D01*
X13257096Y9300003D01*
X34719610Y9300003D01*
X34719610Y9299998D01*
X34739067Y9164661D01*
X34795870Y9040282D01*
X34885411Y8936945D01*
X35000439Y8863022D01*
X35073438Y8841588D01*
X35131628Y8824501D01*
X35131631Y8824501D01*
X35131633Y8824500D01*
X35131634Y8824500D01*
X35268366Y8824500D01*
X35268367Y8824500D01*
X35268369Y8824501D01*
X35268371Y8824501D01*
X35290062Y8830871D01*
X35399561Y8863022D01*
X35514589Y8936945D01*
X35604130Y9040282D01*
X35660931Y9164658D01*
X35660931Y9164660D01*
X35660932Y9164661D01*
X35680390Y9299998D01*
X35680390Y9300003D01*
X59719610Y9300003D01*
X59719610Y9299998D01*
X59739067Y9164661D01*
X59795870Y9040282D01*
X59885411Y8936945D01*
X60000439Y8863022D01*
X60073438Y8841588D01*
X60131628Y8824501D01*
X60131631Y8824501D01*
X60131633Y8824500D01*
X60131634Y8824500D01*
X60268366Y8824500D01*
X60268367Y8824500D01*
X60268369Y8824501D01*
X60268371Y8824501D01*
X60290062Y8830871D01*
X60399561Y8863022D01*
X60514589Y8936945D01*
X60604130Y9040282D01*
X60660931Y9164658D01*
X60660931Y9164660D01*
X60660932Y9164661D01*
X60680390Y9299998D01*
X60680390Y9300003D01*
X60660932Y9435340D01*
X60653120Y9452444D01*
X60604130Y9559718D01*
X60537213Y9636945D01*
X60514590Y9663054D01*
X60514589Y9663055D01*
X60399561Y9736978D01*
X60388309Y9740282D01*
X60268371Y9775500D01*
X60268367Y9775500D01*
X60131633Y9775500D01*
X60131628Y9775500D01*
X60000441Y9736979D01*
X59885409Y9663054D01*
X59795870Y9559719D01*
X59739067Y9435340D01*
X59719610Y9300003D01*
X35680390Y9300003D01*
X35660932Y9435340D01*
X35653120Y9452444D01*
X35604130Y9559718D01*
X35537213Y9636945D01*
X35514590Y9663054D01*
X35514589Y9663055D01*
X35399561Y9736978D01*
X35388309Y9740282D01*
X35268371Y9775500D01*
X35268367Y9775500D01*
X35131633Y9775500D01*
X35131628Y9775500D01*
X35000441Y9736979D01*
X34885409Y9663054D01*
X34795870Y9559719D01*
X34739067Y9435340D01*
X34719610Y9300003D01*
X13257096Y9300003D01*
X13199561Y9336978D01*
X13199558Y9336979D01*
X13068371Y9375500D01*
X13068367Y9375500D01*
X12931633Y9375500D01*
X12931628Y9375500D01*
X12800441Y9336979D01*
X12685409Y9263054D01*
X12595870Y9159719D01*
X12539067Y9035340D01*
X12519610Y8900003D01*
X300500Y8900003D01*
X300500Y10000003D01*
X35719610Y10000003D01*
X35719610Y9999998D01*
X35739067Y9864661D01*
X35795870Y9740282D01*
X35862787Y9663054D01*
X35885411Y9636945D01*
X36000439Y9563022D01*
X36073438Y9541588D01*
X36131628Y9524501D01*
X36131631Y9524501D01*
X36131633Y9524500D01*
X36131634Y9524500D01*
X36268366Y9524500D01*
X36268367Y9524500D01*
X36268369Y9524501D01*
X36268371Y9524501D01*
X36290062Y9530871D01*
X36399561Y9563022D01*
X36514589Y9636945D01*
X36604130Y9740282D01*
X36660931Y9864658D01*
X36660931Y9864660D01*
X36660932Y9864661D01*
X36680390Y9999998D01*
X36680390Y10000003D01*
X36660932Y10135340D01*
X36653120Y10152444D01*
X36604130Y10259718D01*
X36514589Y10363055D01*
X36399561Y10436978D01*
X36399558Y10436979D01*
X36268371Y10475500D01*
X36268367Y10475500D01*
X36131633Y10475500D01*
X36131628Y10475500D01*
X36000441Y10436979D01*
X35885409Y10363054D01*
X35795870Y10259719D01*
X35739067Y10135340D01*
X35719610Y10000003D01*
X300500Y10000003D01*
X300500Y10900003D01*
X36719610Y10900003D01*
X36719610Y10899998D01*
X36739067Y10764661D01*
X36795870Y10640282D01*
X36885411Y10536945D01*
X37000439Y10463022D01*
X37073438Y10441588D01*
X37131628Y10424501D01*
X37131631Y10424501D01*
X37131633Y10424500D01*
X37131634Y10424500D01*
X37268366Y10424500D01*
X37268367Y10424500D01*
X37268369Y10424501D01*
X37268371Y10424501D01*
X37310863Y10436978D01*
X37399561Y10463022D01*
X37514589Y10536945D01*
X37604130Y10640282D01*
X37660931Y10764658D01*
X37660931Y10764660D01*
X37660932Y10764661D01*
X37680390Y10899998D01*
X37680390Y10900003D01*
X37660932Y11035340D01*
X37653120Y11052444D01*
X37604130Y11159718D01*
X37514589Y11263055D01*
X37399561Y11336978D01*
X37399558Y11336979D01*
X37268371Y11375500D01*
X37268367Y11375500D01*
X37131633Y11375500D01*
X37131628Y11375500D01*
X37000441Y11336979D01*
X36885409Y11263054D01*
X36795870Y11159719D01*
X36739067Y11035340D01*
X36719610Y10900003D01*
X300500Y10900003D01*
X300500Y13400003D01*
X36119610Y13400003D01*
X36119610Y13399998D01*
X36139067Y13264661D01*
X36195870Y13140282D01*
X36285411Y13036945D01*
X36400439Y12963022D01*
X36473438Y12941588D01*
X36531628Y12924501D01*
X36531631Y12924501D01*
X36531633Y12924500D01*
X36531634Y12924500D01*
X36668366Y12924500D01*
X36668367Y12924500D01*
X36668369Y12924501D01*
X36668371Y12924501D01*
X36690062Y12930871D01*
X36799561Y12963022D01*
X36914589Y13036945D01*
X37004130Y13140282D01*
X37060931Y13264658D01*
X37060931Y13264660D01*
X37060932Y13264661D01*
X37080390Y13399998D01*
X37080390Y13400003D01*
X37060932Y13535340D01*
X37053120Y13552444D01*
X37004130Y13659718D01*
X36914589Y13763055D01*
X36799561Y13836978D01*
X36799558Y13836979D01*
X36668371Y13875500D01*
X36668367Y13875500D01*
X36531633Y13875500D01*
X36531628Y13875500D01*
X36400441Y13836979D01*
X36285409Y13763054D01*
X36195870Y13659719D01*
X36139067Y13535340D01*
X36119610Y13400003D01*
X300500Y13400003D01*
X300500Y14305586D01*
X21481412Y14305586D01*
X21481412Y14305581D01*
X21500869Y14170244D01*
X21549837Y14063022D01*
X21557672Y14045865D01*
X21647213Y13942528D01*
X21762241Y13868605D01*
X21835240Y13847171D01*
X21893430Y13830084D01*
X21893433Y13830084D01*
X21893435Y13830083D01*
X21893436Y13830083D01*
X22030168Y13830083D01*
X22030169Y13830083D01*
X22030171Y13830084D01*
X22030173Y13830084D01*
X22053655Y13836979D01*
X22161363Y13868605D01*
X22276391Y13942528D01*
X22365932Y14045865D01*
X22422733Y14170241D01*
X22422733Y14170243D01*
X22422734Y14170244D01*
X22442192Y14305581D01*
X22442192Y14305586D01*
X22422734Y14440923D01*
X22395753Y14500003D01*
X36119610Y14500003D01*
X36119610Y14499998D01*
X36139067Y14364661D01*
X36195870Y14240282D01*
X36256557Y14170244D01*
X36285411Y14136945D01*
X36400439Y14063022D01*
X36473438Y14041588D01*
X36531628Y14024501D01*
X36531631Y14024501D01*
X36531633Y14024500D01*
X36531634Y14024500D01*
X36668366Y14024500D01*
X36668367Y14024500D01*
X36668369Y14024501D01*
X36668371Y14024501D01*
X36690062Y14030871D01*
X36799561Y14063022D01*
X36914589Y14136945D01*
X37004130Y14240282D01*
X37060931Y14364658D01*
X37060931Y14364660D01*
X37060932Y14364661D01*
X37080390Y14499998D01*
X37080390Y14500003D01*
X37060932Y14635340D01*
X37053120Y14652444D01*
X37004130Y14759718D01*
X36914589Y14863055D01*
X36799561Y14936978D01*
X36799558Y14936979D01*
X36668371Y14975500D01*
X36668367Y14975500D01*
X36531633Y14975500D01*
X36531628Y14975500D01*
X36400441Y14936979D01*
X36285409Y14863054D01*
X36195870Y14759719D01*
X36139067Y14635340D01*
X36119610Y14500003D01*
X22395753Y14500003D01*
X22384565Y14524501D01*
X22365932Y14565301D01*
X22276391Y14668638D01*
X22161363Y14742561D01*
X22161360Y14742562D01*
X22030173Y14781083D01*
X22030169Y14781083D01*
X21893435Y14781083D01*
X21893430Y14781083D01*
X21762243Y14742562D01*
X21647211Y14668637D01*
X21557672Y14565302D01*
X21500869Y14440923D01*
X21481412Y14305586D01*
X300500Y14305586D01*
X300500Y15000003D01*
X56519610Y15000003D01*
X56519610Y14999998D01*
X56539067Y14864661D01*
X56586993Y14759719D01*
X56595870Y14740282D01*
X56685411Y14636945D01*
X56800439Y14563022D01*
X56873438Y14541588D01*
X56931628Y14524501D01*
X56931631Y14524501D01*
X56931633Y14524500D01*
X56931634Y14524500D01*
X57068366Y14524500D01*
X57068367Y14524500D01*
X57068369Y14524501D01*
X57068371Y14524501D01*
X57090062Y14530871D01*
X57199561Y14563022D01*
X57314589Y14636945D01*
X57404130Y14740282D01*
X57460931Y14864658D01*
X57460931Y14864660D01*
X57460932Y14864661D01*
X57480390Y14999998D01*
X57480390Y15000003D01*
X57460932Y15135340D01*
X57453120Y15152444D01*
X57404130Y15259718D01*
X57337213Y15336945D01*
X57314590Y15363054D01*
X57314589Y15363055D01*
X57199561Y15436978D01*
X57188309Y15440282D01*
X57068371Y15475500D01*
X57068367Y15475500D01*
X56931633Y15475500D01*
X56931628Y15475500D01*
X56800441Y15436979D01*
X56685409Y15363054D01*
X56595870Y15259719D01*
X56539067Y15135340D01*
X56519610Y15000003D01*
X300500Y15000003D01*
X300500Y16100003D01*
X53319610Y16100003D01*
X53319610Y16099998D01*
X53339067Y15964661D01*
X53395870Y15840282D01*
X53485411Y15736945D01*
X53600439Y15663022D01*
X53673438Y15641588D01*
X53731628Y15624501D01*
X53731631Y15624501D01*
X53731633Y15624500D01*
X53731634Y15624500D01*
X53868366Y15624500D01*
X53868367Y15624500D01*
X53868369Y15624501D01*
X53868371Y15624501D01*
X53890062Y15630871D01*
X53999561Y15663022D01*
X54057105Y15700003D01*
X64919610Y15700003D01*
X64919610Y15699998D01*
X64939067Y15564661D01*
X64995870Y15440282D01*
X65062787Y15363054D01*
X65085411Y15336945D01*
X65200439Y15263022D01*
X65273438Y15241588D01*
X65331628Y15224501D01*
X65331631Y15224501D01*
X65331633Y15224500D01*
X65331634Y15224500D01*
X65468366Y15224500D01*
X65468367Y15224500D01*
X65468369Y15224501D01*
X65468371Y15224501D01*
X65490062Y15230871D01*
X65599561Y15263022D01*
X65714589Y15336945D01*
X65804130Y15440282D01*
X65860931Y15564658D01*
X65860931Y15564660D01*
X65860932Y15564661D01*
X65880390Y15699998D01*
X65880390Y15700003D01*
X65860932Y15835340D01*
X65853120Y15852444D01*
X65804130Y15959718D01*
X65714589Y16063055D01*
X65599561Y16136978D01*
X65599558Y16136979D01*
X65468371Y16175500D01*
X65468367Y16175500D01*
X65331633Y16175500D01*
X65331628Y16175500D01*
X65200441Y16136979D01*
X65085409Y16063054D01*
X64995870Y15959719D01*
X64939067Y15835340D01*
X64919610Y15700003D01*
X54057105Y15700003D01*
X54114589Y15736945D01*
X54204130Y15840282D01*
X54260931Y15964658D01*
X54260931Y15964660D01*
X54260932Y15964661D01*
X54280390Y16099998D01*
X54280390Y16100003D01*
X54260932Y16235340D01*
X54253120Y16252444D01*
X54204130Y16359718D01*
X54114589Y16463055D01*
X53999561Y16536978D01*
X53999558Y16536979D01*
X53868371Y16575500D01*
X53868367Y16575500D01*
X53731633Y16575500D01*
X53731628Y16575500D01*
X53600441Y16536979D01*
X53485409Y16463054D01*
X53395870Y16359719D01*
X53339067Y16235340D01*
X53319610Y16100003D01*
X300500Y16100003D01*
X300500Y17400003D01*
X31619610Y17400003D01*
X31619610Y17399998D01*
X31639067Y17264661D01*
X31695870Y17140282D01*
X31730771Y17100003D01*
X31785411Y17036945D01*
X31900439Y16963022D01*
X31973438Y16941588D01*
X32031628Y16924501D01*
X32031631Y16924501D01*
X32031633Y16924500D01*
X32031634Y16924500D01*
X32168366Y16924500D01*
X32168367Y16924500D01*
X32168369Y16924501D01*
X32168371Y16924501D01*
X32190062Y16930871D01*
X32299561Y16963022D01*
X32414589Y17036945D01*
X32469228Y17100003D01*
X50719610Y17100003D01*
X50719610Y17099998D01*
X50739067Y16964661D01*
X50795870Y16840282D01*
X50885411Y16736945D01*
X51000439Y16663022D01*
X51073438Y16641588D01*
X51131628Y16624501D01*
X51131631Y16624501D01*
X51131633Y16624500D01*
X51131634Y16624500D01*
X51268366Y16624500D01*
X51268367Y16624500D01*
X51268369Y16624501D01*
X51268371Y16624501D01*
X51290062Y16630871D01*
X51399561Y16663022D01*
X51514589Y16736945D01*
X51604130Y16840282D01*
X51660931Y16964658D01*
X51660931Y16964660D01*
X51660932Y16964661D01*
X51680390Y17099998D01*
X51680390Y17100003D01*
X51660932Y17235340D01*
X51647541Y17264661D01*
X51604130Y17359718D01*
X51514589Y17463055D01*
X51399561Y17536978D01*
X51399558Y17536979D01*
X51268371Y17575500D01*
X51268367Y17575500D01*
X51131633Y17575500D01*
X51131628Y17575500D01*
X51000441Y17536979D01*
X51000439Y17536979D01*
X51000439Y17536978D01*
X50942925Y17500017D01*
X50885409Y17463054D01*
X50795870Y17359719D01*
X50739067Y17235340D01*
X50719610Y17100003D01*
X32469228Y17100003D01*
X32504130Y17140282D01*
X32560931Y17264658D01*
X32560931Y17264660D01*
X32560932Y17264661D01*
X32580390Y17399998D01*
X32580390Y17400003D01*
X32560932Y17535340D01*
X32542591Y17575500D01*
X32504130Y17659718D01*
X32414589Y17763055D01*
X32299561Y17836978D01*
X32299558Y17836979D01*
X32168371Y17875500D01*
X32168367Y17875500D01*
X32031633Y17875500D01*
X32031628Y17875500D01*
X31900441Y17836979D01*
X31785409Y17763054D01*
X31695870Y17659719D01*
X31639067Y17535340D01*
X31619610Y17400003D01*
X300500Y17400003D01*
X300500Y18800003D01*
X46919610Y18800003D01*
X46919610Y18799998D01*
X46939067Y18664661D01*
X46995870Y18540282D01*
X47085411Y18436945D01*
X47200439Y18363022D01*
X47273438Y18341588D01*
X47331628Y18324501D01*
X47331631Y18324501D01*
X47331633Y18324500D01*
X47331634Y18324500D01*
X47468366Y18324500D01*
X47468367Y18324500D01*
X47468369Y18324501D01*
X47468371Y18324501D01*
X47490062Y18330871D01*
X47599561Y18363022D01*
X47714589Y18436945D01*
X47804130Y18540282D01*
X47860931Y18664658D01*
X47860931Y18664660D01*
X47860932Y18664661D01*
X47880390Y18799998D01*
X47880390Y18800003D01*
X47860932Y18935340D01*
X47853120Y18952444D01*
X47804130Y19059718D01*
X47714589Y19163055D01*
X47599561Y19236978D01*
X47599558Y19236979D01*
X47468371Y19275500D01*
X47468367Y19275500D01*
X47331633Y19275500D01*
X47331628Y19275500D01*
X47200441Y19236979D01*
X47085409Y19163054D01*
X46995870Y19059719D01*
X46939067Y18935340D01*
X46919610Y18800003D01*
X300500Y18800003D01*
X300500Y20000003D01*
X31519610Y20000003D01*
X31519610Y19999998D01*
X31539067Y19864661D01*
X31595870Y19740282D01*
X31685411Y19636945D01*
X31800439Y19563022D01*
X31873438Y19541588D01*
X31931628Y19524501D01*
X31931631Y19524501D01*
X31931633Y19524500D01*
X31931634Y19524500D01*
X32068366Y19524500D01*
X32068367Y19524500D01*
X32068369Y19524501D01*
X32068371Y19524501D01*
X32090062Y19530871D01*
X32199561Y19563022D01*
X32257105Y19600003D01*
X59519610Y19600003D01*
X59519610Y19599998D01*
X59539067Y19464661D01*
X59595870Y19340282D01*
X59685381Y19236979D01*
X59685411Y19236945D01*
X59800439Y19163022D01*
X59873438Y19141588D01*
X59931628Y19124501D01*
X59931631Y19124501D01*
X59931633Y19124500D01*
X59931634Y19124500D01*
X60068366Y19124500D01*
X60068367Y19124500D01*
X60068369Y19124501D01*
X60068371Y19124501D01*
X60090062Y19130871D01*
X60199561Y19163022D01*
X60314589Y19236945D01*
X60404130Y19340282D01*
X60460931Y19464658D01*
X60460931Y19464660D01*
X60460932Y19464661D01*
X60480390Y19599998D01*
X60480390Y19600003D01*
X60460932Y19735340D01*
X60453120Y19752444D01*
X60404130Y19859718D01*
X60314589Y19963055D01*
X60199561Y20036978D01*
X60199558Y20036979D01*
X60068371Y20075500D01*
X60068367Y20075500D01*
X59931633Y20075500D01*
X59931628Y20075500D01*
X59800441Y20036979D01*
X59685409Y19963054D01*
X59595870Y19859719D01*
X59539067Y19735340D01*
X59519610Y19600003D01*
X32257105Y19600003D01*
X32314589Y19636945D01*
X32404130Y19740282D01*
X32460931Y19864658D01*
X32460931Y19864660D01*
X32460932Y19864661D01*
X32480390Y19999998D01*
X32480390Y20000003D01*
X32460932Y20135340D01*
X32453120Y20152444D01*
X32404130Y20259718D01*
X32314589Y20363055D01*
X32199561Y20436978D01*
X32199558Y20436979D01*
X32068371Y20475500D01*
X32068367Y20475500D01*
X31931633Y20475500D01*
X31931628Y20475500D01*
X31800441Y20436979D01*
X31685409Y20363054D01*
X31595870Y20259719D01*
X31539067Y20135340D01*
X31519610Y20000003D01*
X300500Y20000003D01*
X300500Y22300003D01*
X56719610Y22300003D01*
X56719610Y22299998D01*
X56739067Y22164661D01*
X56795870Y22040282D01*
X56848749Y21979255D01*
X56885411Y21936945D01*
X57000439Y21863022D01*
X57073438Y21841588D01*
X57131628Y21824501D01*
X57131631Y21824501D01*
X57131633Y21824500D01*
X57131634Y21824500D01*
X57268366Y21824500D01*
X57268367Y21824500D01*
X57268369Y21824501D01*
X57268371Y21824501D01*
X57290062Y21830871D01*
X57399561Y21863022D01*
X57514589Y21936945D01*
X57604130Y22040282D01*
X57638069Y22114597D01*
X63746309Y22114597D01*
X63746309Y22114592D01*
X63765766Y21979255D01*
X63785088Y21936947D01*
X63822569Y21854876D01*
X63912110Y21751539D01*
X64027138Y21677616D01*
X64100137Y21656182D01*
X64158327Y21639095D01*
X64158330Y21639095D01*
X64158332Y21639094D01*
X64158333Y21639094D01*
X64295065Y21639094D01*
X64295066Y21639094D01*
X64295068Y21639095D01*
X64295070Y21639095D01*
X64316761Y21645465D01*
X64426260Y21677616D01*
X64541288Y21751539D01*
X64630829Y21854876D01*
X64687630Y21979252D01*
X64687630Y21979254D01*
X64687631Y21979255D01*
X64707089Y22114592D01*
X64707089Y22114597D01*
X64687631Y22249934D01*
X64664765Y22300003D01*
X64630829Y22374312D01*
X64541288Y22477649D01*
X64426260Y22551572D01*
X64426257Y22551573D01*
X64295070Y22590094D01*
X64295066Y22590094D01*
X64158332Y22590094D01*
X64158327Y22590094D01*
X64027140Y22551573D01*
X63912108Y22477648D01*
X63822569Y22374313D01*
X63765766Y22249934D01*
X63746309Y22114597D01*
X57638069Y22114597D01*
X57660931Y22164658D01*
X57660931Y22164660D01*
X57660932Y22164661D01*
X57680390Y22299998D01*
X57680390Y22300003D01*
X57660932Y22435340D01*
X57641610Y22477649D01*
X57604130Y22559718D01*
X57537213Y22636945D01*
X57514590Y22663054D01*
X57514589Y22663055D01*
X57399561Y22736978D01*
X57388309Y22740282D01*
X57268371Y22775500D01*
X57268367Y22775500D01*
X57131633Y22775500D01*
X57131628Y22775500D01*
X57000441Y22736979D01*
X56885409Y22663054D01*
X56795870Y22559719D01*
X56739067Y22435340D01*
X56719610Y22300003D01*
X300500Y22300003D01*
X300500Y23000003D01*
X49519610Y23000003D01*
X49519610Y22999998D01*
X49539067Y22864661D01*
X49595870Y22740282D01*
X49662787Y22663054D01*
X49685411Y22636945D01*
X49800439Y22563022D01*
X49873438Y22541588D01*
X49931628Y22524501D01*
X49931631Y22524501D01*
X49931633Y22524500D01*
X49931634Y22524500D01*
X50068366Y22524500D01*
X50068367Y22524500D01*
X50068369Y22524501D01*
X50068371Y22524501D01*
X50090062Y22530871D01*
X50199561Y22563022D01*
X50314589Y22636945D01*
X50404130Y22740282D01*
X50460931Y22864658D01*
X50460931Y22864660D01*
X50460932Y22864661D01*
X50480390Y22999998D01*
X50480390Y23000003D01*
X50460932Y23135340D01*
X50453120Y23152444D01*
X50404130Y23259718D01*
X50314589Y23363055D01*
X50199561Y23436978D01*
X50199558Y23436979D01*
X50068371Y23475500D01*
X50068367Y23475500D01*
X49931633Y23475500D01*
X49931628Y23475500D01*
X49800441Y23436979D01*
X49685409Y23363054D01*
X49595870Y23259719D01*
X49539067Y23135340D01*
X49519610Y23000003D01*
X300500Y23000003D01*
X300500Y24500003D01*
X53319610Y24500003D01*
X53319610Y24499998D01*
X53339067Y24364661D01*
X53395870Y24240282D01*
X53485411Y24136945D01*
X53600439Y24063022D01*
X53673438Y24041588D01*
X53731628Y24024501D01*
X53731631Y24024501D01*
X53731633Y24024500D01*
X53731634Y24024500D01*
X53868366Y24024500D01*
X53868367Y24024500D01*
X53868369Y24024501D01*
X53868371Y24024501D01*
X53890062Y24030871D01*
X53999561Y24063022D01*
X54114589Y24136945D01*
X54204130Y24240282D01*
X54260931Y24364658D01*
X54260931Y24364660D01*
X54260932Y24364661D01*
X54280390Y24499998D01*
X54280390Y24500003D01*
X54260932Y24635340D01*
X54213006Y24740282D01*
X54204130Y24759718D01*
X54114589Y24863055D01*
X53999561Y24936978D01*
X53999558Y24936979D01*
X53868371Y24975500D01*
X53868367Y24975500D01*
X53731633Y24975500D01*
X53731628Y24975500D01*
X53600441Y24936979D01*
X53485409Y24863054D01*
X53395870Y24759719D01*
X53339067Y24635340D01*
X53319610Y24500003D01*
X300500Y24500003D01*
X300500Y25000003D01*
X19419610Y25000003D01*
X19419610Y24999998D01*
X19439067Y24864661D01*
X19486993Y24759719D01*
X19495870Y24740282D01*
X19585411Y24636945D01*
X19700439Y24563022D01*
X19773438Y24541588D01*
X19831628Y24524501D01*
X19831631Y24524501D01*
X19831633Y24524500D01*
X19831634Y24524500D01*
X19968366Y24524500D01*
X19968367Y24524500D01*
X19968369Y24524501D01*
X19968371Y24524501D01*
X19990062Y24530871D01*
X20099561Y24563022D01*
X20214589Y24636945D01*
X20304130Y24740282D01*
X20360931Y24864658D01*
X20360931Y24864660D01*
X20360932Y24864661D01*
X20380390Y24999998D01*
X20380390Y25000003D01*
X20360932Y25135340D01*
X20347541Y25164661D01*
X20304130Y25259718D01*
X20269223Y25300003D01*
X36919610Y25300003D01*
X36919610Y25299998D01*
X36939067Y25164661D01*
X36995870Y25040282D01*
X37085381Y24936979D01*
X37085411Y24936945D01*
X37200439Y24863022D01*
X37273438Y24841588D01*
X37331628Y24824501D01*
X37331631Y24824501D01*
X37331633Y24824500D01*
X37331634Y24824500D01*
X37468366Y24824500D01*
X37468367Y24824500D01*
X37468369Y24824501D01*
X37468371Y24824501D01*
X37490062Y24830871D01*
X37599561Y24863022D01*
X37714589Y24936945D01*
X37804130Y25040282D01*
X37860931Y25164658D01*
X37860931Y25164660D01*
X37860932Y25164661D01*
X37880390Y25299998D01*
X37880390Y25300003D01*
X40419610Y25300003D01*
X40419610Y25299998D01*
X40439067Y25164661D01*
X40495870Y25040282D01*
X40585381Y24936979D01*
X40585411Y24936945D01*
X40700439Y24863022D01*
X40773438Y24841588D01*
X40831628Y24824501D01*
X40831631Y24824501D01*
X40831633Y24824500D01*
X40831634Y24824500D01*
X40968366Y24824500D01*
X40968367Y24824500D01*
X40968369Y24824501D01*
X40968371Y24824501D01*
X40990062Y24830871D01*
X41099561Y24863022D01*
X41214589Y24936945D01*
X41304130Y25040282D01*
X41360931Y25164658D01*
X41360931Y25164660D01*
X41360932Y25164661D01*
X41380390Y25299998D01*
X41380390Y25300003D01*
X41360932Y25435340D01*
X41342591Y25475500D01*
X41304130Y25559718D01*
X41214589Y25663055D01*
X41099561Y25736978D01*
X41099558Y25736979D01*
X40968371Y25775500D01*
X40968367Y25775500D01*
X40831633Y25775500D01*
X40831628Y25775500D01*
X40700441Y25736979D01*
X40585409Y25663054D01*
X40495870Y25559719D01*
X40439067Y25435340D01*
X40419610Y25300003D01*
X37880390Y25300003D01*
X37860932Y25435340D01*
X37842591Y25475500D01*
X37804130Y25559718D01*
X37714589Y25663055D01*
X37599561Y25736978D01*
X37599558Y25736979D01*
X37468371Y25775500D01*
X37468367Y25775500D01*
X37331633Y25775500D01*
X37331628Y25775500D01*
X37200441Y25736979D01*
X37085409Y25663054D01*
X36995870Y25559719D01*
X36939067Y25435340D01*
X36919610Y25300003D01*
X20269223Y25300003D01*
X20214589Y25363055D01*
X20099561Y25436978D01*
X20099558Y25436979D01*
X19968371Y25475500D01*
X19968367Y25475500D01*
X19831633Y25475500D01*
X19831628Y25475500D01*
X19700441Y25436979D01*
X19700439Y25436979D01*
X19700439Y25436978D01*
X19642925Y25400017D01*
X19585409Y25363054D01*
X19495870Y25259719D01*
X19439067Y25135340D01*
X19419610Y25000003D01*
X300500Y25000003D01*
X300500Y26600003D01*
X1619610Y26600003D01*
X1619610Y26599998D01*
X1639067Y26464661D01*
X1695870Y26340282D01*
X1782519Y26240282D01*
X1785411Y26236945D01*
X1900439Y26163022D01*
X1973438Y26141588D01*
X2031628Y26124501D01*
X2031631Y26124501D01*
X2031633Y26124500D01*
X2031634Y26124500D01*
X2168366Y26124500D01*
X2168367Y26124500D01*
X2168369Y26124501D01*
X2168371Y26124501D01*
X2190062Y26130871D01*
X2299561Y26163022D01*
X2414589Y26236945D01*
X2504130Y26340282D01*
X2560931Y26464658D01*
X2560931Y26464660D01*
X2560932Y26464661D01*
X2580390Y26599998D01*
X2580390Y26600003D01*
X2560932Y26735340D01*
X2531402Y26800001D01*
X8994558Y26800001D01*
X8994558Y26800000D01*
X9013877Y26603848D01*
X9013877Y26603847D01*
X9071093Y26415233D01*
X9164004Y26241408D01*
X9164009Y26241401D01*
X9228334Y26163022D01*
X9289045Y26089046D01*
X9367693Y26024501D01*
X9441399Y25964011D01*
X9441406Y25964006D01*
X9615233Y25871094D01*
X9803847Y25813878D01*
X9999999Y25794559D01*
X10196151Y25813878D01*
X10384765Y25871094D01*
X10558592Y25964006D01*
X10710953Y26089046D01*
X10835993Y26241407D01*
X10928905Y26415234D01*
X10986121Y26603848D01*
X11005440Y26800000D01*
X10998359Y26871895D01*
X12953900Y26871895D01*
X12953900Y26728105D01*
X12991116Y26589213D01*
X13063011Y26464687D01*
X13164687Y26363011D01*
X13289213Y26291116D01*
X13428105Y26253900D01*
X13571895Y26253900D01*
X13710787Y26291116D01*
X13835313Y26363011D01*
X13936989Y26464687D01*
X14008884Y26589213D01*
X14046100Y26728105D01*
X14046100Y26800001D01*
X15994559Y26800001D01*
X15994559Y26800000D01*
X16013878Y26603848D01*
X16013878Y26603847D01*
X16071094Y26415233D01*
X16164005Y26241408D01*
X16164010Y26241401D01*
X16228335Y26163022D01*
X16289046Y26089046D01*
X16367694Y26024501D01*
X16441400Y25964011D01*
X16441407Y25964006D01*
X16615234Y25871094D01*
X16803848Y25813878D01*
X17000000Y25794559D01*
X17196152Y25813878D01*
X17384766Y25871094D01*
X17558593Y25964006D01*
X17710954Y26089046D01*
X17835994Y26241407D01*
X17928906Y26415234D01*
X17986122Y26603848D01*
X18005441Y26800000D01*
X18004673Y26807800D01*
X21794558Y26807800D01*
X21794558Y26807799D01*
X21813877Y26611647D01*
X21813877Y26611646D01*
X21871093Y26423032D01*
X21964004Y26249207D01*
X21964009Y26249200D01*
X22030232Y26168509D01*
X22089045Y26096845D01*
X22176365Y26025183D01*
X22241399Y25971810D01*
X22241406Y25971805D01*
X22415233Y25878893D01*
X22603847Y25821677D01*
X22799999Y25802358D01*
X22996151Y25821677D01*
X23184765Y25878893D01*
X23358592Y25971805D01*
X23510953Y26096845D01*
X23635993Y26249206D01*
X23728905Y26423033D01*
X23786121Y26611647D01*
X23805440Y26807799D01*
X23805440Y26807800D01*
X25294559Y26807800D01*
X25294559Y26807799D01*
X25313878Y26611647D01*
X25313878Y26611646D01*
X25371094Y26423032D01*
X25464005Y26249207D01*
X25464010Y26249200D01*
X25530233Y26168509D01*
X25589046Y26096845D01*
X25676366Y26025183D01*
X25741400Y25971810D01*
X25741407Y25971805D01*
X25915234Y25878893D01*
X26103848Y25821677D01*
X26300000Y25802358D01*
X26496152Y25821677D01*
X26684766Y25878893D01*
X26858593Y25971805D01*
X27010954Y26096845D01*
X27135994Y26249206D01*
X27228906Y26423033D01*
X27286122Y26611647D01*
X27305441Y26807799D01*
X27305441Y26807800D01*
X28794559Y26807800D01*
X28794559Y26807799D01*
X28813878Y26611647D01*
X28813878Y26611646D01*
X28871094Y26423032D01*
X28964005Y26249207D01*
X28964010Y26249200D01*
X29030233Y26168509D01*
X29089046Y26096845D01*
X29176366Y26025183D01*
X29241400Y25971810D01*
X29241407Y25971805D01*
X29415234Y25878893D01*
X29603848Y25821677D01*
X29800000Y25802358D01*
X29996152Y25821677D01*
X30184766Y25878893D01*
X30358593Y25971805D01*
X30510954Y26096845D01*
X30635994Y26249206D01*
X30728906Y26423033D01*
X30786122Y26611647D01*
X30805441Y26807799D01*
X30805332Y26808901D01*
X34580559Y26808901D01*
X34580559Y26808900D01*
X34599878Y26612748D01*
X34599878Y26612747D01*
X34657094Y26424133D01*
X34750005Y26250308D01*
X34750010Y26250301D01*
X34768718Y26227506D01*
X34875046Y26097946D01*
X34907450Y26071353D01*
X35027400Y25972911D01*
X35027407Y25972906D01*
X35201234Y25879994D01*
X35389848Y25822778D01*
X35586000Y25803459D01*
X35782152Y25822778D01*
X35970766Y25879994D01*
X36144593Y25972906D01*
X36296954Y26097946D01*
X36421994Y26250307D01*
X36514906Y26424134D01*
X36572122Y26612748D01*
X36591441Y26808900D01*
X36591441Y26808901D01*
X38080560Y26808901D01*
X38080560Y26808900D01*
X38099879Y26612748D01*
X38099879Y26612747D01*
X38157095Y26424133D01*
X38250006Y26250308D01*
X38250011Y26250301D01*
X38268719Y26227506D01*
X38375047Y26097946D01*
X38407451Y26071353D01*
X38527401Y25972911D01*
X38527408Y25972906D01*
X38701235Y25879994D01*
X38889849Y25822778D01*
X39086001Y25803459D01*
X39282153Y25822778D01*
X39470767Y25879994D01*
X39644594Y25972906D01*
X39796955Y26097946D01*
X39921995Y26250307D01*
X40014907Y26424134D01*
X40072123Y26612748D01*
X40091442Y26808900D01*
X40091442Y26808901D01*
X41580560Y26808901D01*
X41580560Y26808900D01*
X41599879Y26612748D01*
X41599879Y26612747D01*
X41657095Y26424133D01*
X41750006Y26250308D01*
X41750011Y26250301D01*
X41768719Y26227506D01*
X41875047Y26097946D01*
X41907451Y26071353D01*
X42027401Y25972911D01*
X42027408Y25972906D01*
X42201235Y25879994D01*
X42389849Y25822778D01*
X42586001Y25803459D01*
X42782153Y25822778D01*
X42970767Y25879994D01*
X43144594Y25972906D01*
X43296955Y26097946D01*
X43421995Y26250307D01*
X43514907Y26424134D01*
X43572123Y26612748D01*
X43590565Y26800000D01*
X47369538Y26800000D01*
X47389338Y26598967D01*
X47447977Y26405659D01*
X47543202Y26227506D01*
X47671353Y26071353D01*
X47827506Y25943202D01*
X48005659Y25847977D01*
X48198967Y25789338D01*
X48400000Y25769538D01*
X48601033Y25789338D01*
X48794341Y25847977D01*
X48972494Y25943202D01*
X49128647Y26071353D01*
X49256798Y26227506D01*
X49352023Y26405659D01*
X49410662Y26598967D01*
X49430462Y26800000D01*
X50869538Y26800000D01*
X50889338Y26598967D01*
X50947977Y26405659D01*
X51043202Y26227506D01*
X51171353Y26071353D01*
X51327506Y25943202D01*
X51505659Y25847977D01*
X51698967Y25789338D01*
X51900000Y25769538D01*
X52101033Y25789338D01*
X52294341Y25847977D01*
X52472494Y25943202D01*
X52628647Y26071353D01*
X52756798Y26227506D01*
X52852023Y26405659D01*
X52910662Y26598967D01*
X52930462Y26800000D01*
X54369538Y26800000D01*
X54389338Y26598967D01*
X54447977Y26405659D01*
X54543202Y26227506D01*
X54671353Y26071353D01*
X54827506Y25943202D01*
X55005659Y25847977D01*
X55198967Y25789338D01*
X55400000Y25769538D01*
X55601033Y25789338D01*
X55794341Y25847977D01*
X55972494Y25943202D01*
X56128647Y26071353D01*
X56256798Y26227506D01*
X56352023Y26405659D01*
X56410662Y26598967D01*
X56430462Y26800000D01*
X57869538Y26800000D01*
X57889338Y26598967D01*
X57947977Y26405659D01*
X58043202Y26227506D01*
X58171353Y26071353D01*
X58327506Y25943202D01*
X58505659Y25847977D01*
X58698967Y25789338D01*
X58900000Y25769538D01*
X59101033Y25789338D01*
X59294341Y25847977D01*
X59472494Y25943202D01*
X59628647Y26071353D01*
X59756798Y26227506D01*
X59852023Y26405659D01*
X59880642Y26500003D01*
X64019610Y26500003D01*
X64019610Y26499998D01*
X64039067Y26364661D01*
X64091797Y26249200D01*
X64095870Y26240282D01*
X64185411Y26136945D01*
X64300439Y26063022D01*
X64373438Y26041588D01*
X64431628Y26024501D01*
X64431631Y26024501D01*
X64431633Y26024500D01*
X64431634Y26024500D01*
X64568366Y26024500D01*
X64568367Y26024500D01*
X64568369Y26024501D01*
X64568371Y26024501D01*
X64590062Y26030871D01*
X64699561Y26063022D01*
X64814589Y26136945D01*
X64904130Y26240282D01*
X64960931Y26364658D01*
X64960931Y26364660D01*
X64960932Y26364661D01*
X64980390Y26499998D01*
X64980390Y26500003D01*
X64960932Y26635340D01*
X64915262Y26735342D01*
X64904130Y26759718D01*
X64859359Y26811387D01*
X64814590Y26863054D01*
X64814589Y26863055D01*
X64699561Y26936978D01*
X64699558Y26936979D01*
X64568371Y26975500D01*
X64568367Y26975500D01*
X64431633Y26975500D01*
X64431628Y26975500D01*
X64300441Y26936979D01*
X64185409Y26863054D01*
X64095870Y26759719D01*
X64039067Y26635340D01*
X64019610Y26500003D01*
X59880642Y26500003D01*
X59910662Y26598967D01*
X59930462Y26800000D01*
X59910662Y27001033D01*
X59852023Y27194341D01*
X59756798Y27372494D01*
X59628647Y27528647D01*
X59472494Y27656798D01*
X59294341Y27752023D01*
X59101033Y27810662D01*
X58900000Y27830462D01*
X58698966Y27810662D01*
X58698965Y27810662D01*
X58505662Y27752024D01*
X58505659Y27752023D01*
X58505656Y27752022D01*
X58505655Y27752021D01*
X58327504Y27656797D01*
X58171353Y27528647D01*
X58043203Y27372496D01*
X57947979Y27194345D01*
X57947976Y27194338D01*
X57889338Y27001035D01*
X57889338Y27001034D01*
X57870415Y26808900D01*
X57869538Y26800000D01*
X56430462Y26800000D01*
X56410662Y27001033D01*
X56352023Y27194341D01*
X56256798Y27372494D01*
X56128647Y27528647D01*
X55972494Y27656798D01*
X55794341Y27752023D01*
X55601033Y27810662D01*
X55400000Y27830462D01*
X55198966Y27810662D01*
X55198965Y27810662D01*
X55005662Y27752024D01*
X55005659Y27752023D01*
X55005656Y27752022D01*
X55005655Y27752021D01*
X54827504Y27656797D01*
X54671353Y27528647D01*
X54543203Y27372496D01*
X54447979Y27194345D01*
X54447976Y27194338D01*
X54389338Y27001035D01*
X54389338Y27001034D01*
X54370415Y26808900D01*
X54369538Y26800000D01*
X52930462Y26800000D01*
X52910662Y27001033D01*
X52852023Y27194341D01*
X52756798Y27372494D01*
X52628647Y27528647D01*
X52472494Y27656798D01*
X52294341Y27752023D01*
X52101033Y27810662D01*
X51900000Y27830462D01*
X51698966Y27810662D01*
X51698965Y27810662D01*
X51505662Y27752024D01*
X51505659Y27752023D01*
X51505656Y27752022D01*
X51505655Y27752021D01*
X51327504Y27656797D01*
X51171353Y27528647D01*
X51043203Y27372496D01*
X50947979Y27194345D01*
X50947976Y27194338D01*
X50889338Y27001035D01*
X50889338Y27001034D01*
X50870415Y26808900D01*
X50869538Y26800000D01*
X49430462Y26800000D01*
X49410662Y27001033D01*
X49352023Y27194341D01*
X49256798Y27372494D01*
X49128647Y27528647D01*
X48972494Y27656798D01*
X48794341Y27752023D01*
X48601033Y27810662D01*
X48400000Y27830462D01*
X48198966Y27810662D01*
X48198965Y27810662D01*
X48005662Y27752024D01*
X48005659Y27752023D01*
X48005656Y27752022D01*
X48005655Y27752021D01*
X47827504Y27656797D01*
X47671353Y27528647D01*
X47543203Y27372496D01*
X47447979Y27194345D01*
X47447976Y27194338D01*
X47389338Y27001035D01*
X47389338Y27001034D01*
X47370415Y26808900D01*
X47369538Y26800000D01*
X43590565Y26800000D01*
X43591442Y26808900D01*
X43572123Y27005052D01*
X43514907Y27193666D01*
X43491750Y27236989D01*
X43421995Y27367493D01*
X43421990Y27367500D01*
X43368617Y27432534D01*
X43296955Y27519854D01*
X43155444Y27635990D01*
X43144600Y27644890D01*
X43144593Y27644895D01*
X42970768Y27737806D01*
X42782153Y27795022D01*
X42586001Y27814341D01*
X42389848Y27795022D01*
X42389847Y27795022D01*
X42201233Y27737806D01*
X42027408Y27644895D01*
X42027401Y27644890D01*
X41875047Y27519854D01*
X41750011Y27367500D01*
X41750006Y27367493D01*
X41657095Y27193668D01*
X41599879Y27005054D01*
X41599879Y27005053D01*
X41580560Y26808901D01*
X40091442Y26808901D01*
X40072123Y27005052D01*
X40014907Y27193666D01*
X39991750Y27236989D01*
X39921995Y27367493D01*
X39921990Y27367500D01*
X39868617Y27432534D01*
X39796955Y27519854D01*
X39655444Y27635990D01*
X39644600Y27644890D01*
X39644593Y27644895D01*
X39470768Y27737806D01*
X39282153Y27795022D01*
X39086001Y27814341D01*
X38889848Y27795022D01*
X38889847Y27795022D01*
X38701233Y27737806D01*
X38527408Y27644895D01*
X38527401Y27644890D01*
X38375047Y27519854D01*
X38250011Y27367500D01*
X38250006Y27367493D01*
X38157095Y27193668D01*
X38099879Y27005054D01*
X38099879Y27005053D01*
X38080560Y26808901D01*
X36591441Y26808901D01*
X36572122Y27005052D01*
X36514906Y27193666D01*
X36491749Y27236989D01*
X36421994Y27367493D01*
X36421989Y27367500D01*
X36368616Y27432534D01*
X36296954Y27519854D01*
X36155443Y27635990D01*
X36144599Y27644890D01*
X36144592Y27644895D01*
X35970767Y27737806D01*
X35782152Y27795022D01*
X35586000Y27814341D01*
X35389847Y27795022D01*
X35389846Y27795022D01*
X35201232Y27737806D01*
X35027407Y27644895D01*
X35027400Y27644890D01*
X34875046Y27519854D01*
X34750010Y27367500D01*
X34750005Y27367493D01*
X34657094Y27193668D01*
X34599878Y27005054D01*
X34599878Y27005053D01*
X34580559Y26808901D01*
X30805332Y26808901D01*
X30803538Y26827119D01*
X30786122Y27003951D01*
X30728906Y27192565D01*
X30728316Y27193668D01*
X30635994Y27366392D01*
X30635989Y27366399D01*
X30582616Y27431433D01*
X30510954Y27518753D01*
X30439290Y27577566D01*
X30358599Y27643789D01*
X30358592Y27643794D01*
X30184767Y27736705D01*
X29996152Y27793921D01*
X29800000Y27813240D01*
X29603847Y27793921D01*
X29603846Y27793921D01*
X29415232Y27736705D01*
X29241407Y27643794D01*
X29241400Y27643789D01*
X29089046Y27518753D01*
X28964010Y27366399D01*
X28964005Y27366392D01*
X28871094Y27192567D01*
X28813878Y27003953D01*
X28813878Y27003952D01*
X28794559Y26807800D01*
X27305441Y26807800D01*
X27305332Y26808901D01*
X27303538Y26827119D01*
X27286122Y27003951D01*
X27228906Y27192565D01*
X27228316Y27193668D01*
X27135994Y27366392D01*
X27135989Y27366399D01*
X27082616Y27431433D01*
X27010954Y27518753D01*
X26939290Y27577566D01*
X26858599Y27643789D01*
X26858592Y27643794D01*
X26684767Y27736705D01*
X26496152Y27793921D01*
X26300000Y27813240D01*
X26103847Y27793921D01*
X26103846Y27793921D01*
X25915232Y27736705D01*
X25741407Y27643794D01*
X25741400Y27643789D01*
X25589046Y27518753D01*
X25464010Y27366399D01*
X25464005Y27366392D01*
X25371094Y27192567D01*
X25313878Y27003953D01*
X25313878Y27003952D01*
X25294559Y26807800D01*
X23805440Y26807800D01*
X23805331Y26808901D01*
X23803537Y26827119D01*
X23786121Y27003951D01*
X23728905Y27192565D01*
X23728315Y27193668D01*
X23635993Y27366392D01*
X23635988Y27366399D01*
X23582615Y27431433D01*
X23510953Y27518753D01*
X23439289Y27577566D01*
X23358598Y27643789D01*
X23358591Y27643794D01*
X23184766Y27736705D01*
X22996151Y27793921D01*
X22799999Y27813240D01*
X22603846Y27793921D01*
X22603845Y27793921D01*
X22415231Y27736705D01*
X22241406Y27643794D01*
X22241399Y27643789D01*
X22089045Y27518753D01*
X21964009Y27366399D01*
X21964004Y27366392D01*
X21871093Y27192567D01*
X21813877Y27003953D01*
X21813877Y27003952D01*
X21794558Y26807800D01*
X18004673Y26807800D01*
X17986122Y26996152D01*
X17928906Y27184766D01*
X17835994Y27358593D01*
X17835989Y27358600D01*
X17782616Y27423634D01*
X17710954Y27510954D01*
X17639290Y27569767D01*
X17558599Y27635990D01*
X17558592Y27635995D01*
X17384767Y27728906D01*
X17196152Y27786122D01*
X17000000Y27805441D01*
X16803847Y27786122D01*
X16803846Y27786122D01*
X16615232Y27728906D01*
X16441407Y27635995D01*
X16441400Y27635990D01*
X16289046Y27510954D01*
X16164010Y27358600D01*
X16164005Y27358593D01*
X16071094Y27184768D01*
X16013878Y26996154D01*
X16013878Y26996153D01*
X15994559Y26800001D01*
X14046100Y26800001D01*
X14046100Y26871895D01*
X14008884Y27010787D01*
X13936989Y27135313D01*
X13835313Y27236989D01*
X13710787Y27308884D01*
X13571895Y27346100D01*
X13428105Y27346100D01*
X13289213Y27308884D01*
X13164687Y27236989D01*
X13063011Y27135313D01*
X12991116Y27010787D01*
X12953900Y26871895D01*
X10998359Y26871895D01*
X10986121Y26996152D01*
X10928905Y27184766D01*
X10835993Y27358593D01*
X10835988Y27358600D01*
X10782615Y27423634D01*
X10710953Y27510954D01*
X10639289Y27569767D01*
X10558598Y27635990D01*
X10558591Y27635995D01*
X10384766Y27728906D01*
X10196151Y27786122D01*
X9999999Y27805441D01*
X9803846Y27786122D01*
X9803845Y27786122D01*
X9615231Y27728906D01*
X9441406Y27635995D01*
X9441399Y27635990D01*
X9289045Y27510954D01*
X9164009Y27358600D01*
X9164004Y27358593D01*
X9071093Y27184768D01*
X9013877Y26996154D01*
X9013877Y26996153D01*
X8994558Y26800001D01*
X2531402Y26800001D01*
X2504130Y26859718D01*
X2414589Y26963055D01*
X2299561Y27036978D01*
X2299558Y27036979D01*
X2168371Y27075500D01*
X2168367Y27075500D01*
X2031633Y27075500D01*
X2031628Y27075500D01*
X1900441Y27036979D01*
X1900439Y27036979D01*
X1900439Y27036978D01*
X1849050Y27003953D01*
X1785409Y26963054D01*
X1695870Y26859719D01*
X1639067Y26735340D01*
X1619610Y26600003D01*
X300500Y26600003D01*
X300500Y30087665D01*
X314852Y30122313D01*
X349500Y30136665D01*
X384148Y30122313D01*
X395020Y30105802D01*
X409255Y30070074D01*
X409257Y30070069D01*
X581978Y29744284D01*
X581982Y29744276D01*
X788906Y29439088D01*
X788909Y29439085D01*
X788910Y29439083D01*
X829527Y29391265D01*
X1027619Y29158052D01*
X1027629Y29158042D01*
X1295322Y28904469D01*
X1295326Y28904465D01*
X1588882Y28681309D01*
X1714734Y28605587D01*
X1904838Y28491205D01*
X2029845Y28433371D01*
X2239491Y28336377D01*
X2239497Y28336375D01*
X2588934Y28218636D01*
X2777087Y28177221D01*
X2949042Y28139370D01*
X2949043Y28139370D01*
X2949052Y28139368D01*
X3315630Y28099500D01*
X3315635Y28099500D01*
X3684365Y28099500D01*
X3684370Y28099500D01*
X4050948Y28139368D01*
X4411066Y28218636D01*
X4760503Y28336375D01*
X4760505Y28336377D01*
X4760508Y28336377D01*
X4845147Y28375536D01*
X5095162Y28491205D01*
X5411119Y28681310D01*
X5704670Y28904462D01*
X5972373Y29158044D01*
X6092954Y29300003D01*
X16519610Y29300003D01*
X16519610Y29299998D01*
X16539067Y29164661D01*
X16542090Y29158042D01*
X16595870Y29040282D01*
X16685411Y28936945D01*
X16800439Y28863022D01*
X16873438Y28841588D01*
X16931628Y28824501D01*
X16931631Y28824501D01*
X16931633Y28824500D01*
X16931634Y28824500D01*
X17068366Y28824500D01*
X17068367Y28824500D01*
X17068369Y28824501D01*
X17068371Y28824501D01*
X17090062Y28830871D01*
X17199561Y28863022D01*
X17314589Y28936945D01*
X17404130Y29040282D01*
X17460931Y29164658D01*
X17460931Y29164660D01*
X17460932Y29164661D01*
X17480390Y29299998D01*
X17480390Y29300003D01*
X17460932Y29435340D01*
X17453120Y29452444D01*
X17404130Y29559718D01*
X17314589Y29663055D01*
X17199561Y29736978D01*
X17199558Y29736979D01*
X17068371Y29775500D01*
X17068367Y29775500D01*
X16931633Y29775500D01*
X16931628Y29775500D01*
X16800441Y29736979D01*
X16685409Y29663054D01*
X16595870Y29559719D01*
X16539067Y29435340D01*
X16519610Y29300003D01*
X6092954Y29300003D01*
X6211090Y29439083D01*
X6362947Y29663055D01*
X6418017Y29744276D01*
X6418018Y29744279D01*
X6418022Y29744284D01*
X6590743Y30070070D01*
X6727227Y30412621D01*
X6825875Y30767919D01*
X6825875Y30767921D01*
X6825877Y30767927D01*
X6858129Y30964658D01*
X6885531Y31131801D01*
X6905494Y31500000D01*
X6889229Y31800001D01*
X8994558Y31800001D01*
X8994558Y31800000D01*
X9013877Y31603848D01*
X9013877Y31603847D01*
X9071093Y31415233D01*
X9164004Y31241408D01*
X9164009Y31241401D01*
X9230232Y31160710D01*
X9289045Y31089046D01*
X9376365Y31017384D01*
X9441399Y30964011D01*
X9441406Y30964006D01*
X9615233Y30871094D01*
X9803847Y30813878D01*
X9999999Y30794559D01*
X10196151Y30813878D01*
X10384765Y30871094D01*
X10558592Y30964006D01*
X10710953Y31089046D01*
X10835993Y31241407D01*
X10928905Y31415234D01*
X10986121Y31603848D01*
X11005440Y31800000D01*
X10998359Y31871895D01*
X12953900Y31871895D01*
X12953900Y31728105D01*
X12991116Y31589213D01*
X13063011Y31464687D01*
X13164687Y31363011D01*
X13289213Y31291116D01*
X13428105Y31253900D01*
X13571895Y31253900D01*
X13710787Y31291116D01*
X13835313Y31363011D01*
X13936989Y31464687D01*
X14008884Y31589213D01*
X14046100Y31728105D01*
X14046100Y31800001D01*
X15994559Y31800001D01*
X15994559Y31800000D01*
X16013878Y31603848D01*
X16013878Y31603847D01*
X16071094Y31415233D01*
X16164005Y31241408D01*
X16164010Y31241401D01*
X16230233Y31160710D01*
X16289046Y31089046D01*
X16376366Y31017384D01*
X16441400Y30964011D01*
X16441407Y30964006D01*
X16615234Y30871094D01*
X16803848Y30813878D01*
X17000000Y30794559D01*
X17196152Y30813878D01*
X17384766Y30871094D01*
X17558593Y30964006D01*
X17710954Y31089046D01*
X17835994Y31241407D01*
X17928906Y31415234D01*
X17986122Y31603848D01*
X18005441Y31800000D01*
X18004673Y31807800D01*
X21794558Y31807800D01*
X21794558Y31807799D01*
X21813877Y31611647D01*
X21813877Y31611646D01*
X21871093Y31423032D01*
X21964004Y31249207D01*
X21964009Y31249200D01*
X22030232Y31168509D01*
X22089045Y31096845D01*
X22176365Y31025183D01*
X22241399Y30971810D01*
X22241406Y30971805D01*
X22415233Y30878893D01*
X22603847Y30821677D01*
X22799999Y30802358D01*
X22996151Y30821677D01*
X23184765Y30878893D01*
X23358592Y30971805D01*
X23510953Y31096845D01*
X23635993Y31249206D01*
X23728905Y31423033D01*
X23786121Y31611647D01*
X23805440Y31807799D01*
X23805440Y31807800D01*
X25294559Y31807800D01*
X25294559Y31807799D01*
X25313878Y31611647D01*
X25313878Y31611646D01*
X25371094Y31423032D01*
X25464005Y31249207D01*
X25464010Y31249200D01*
X25530233Y31168509D01*
X25589046Y31096845D01*
X25676366Y31025183D01*
X25741400Y30971810D01*
X25741407Y30971805D01*
X25915234Y30878893D01*
X26103848Y30821677D01*
X26300000Y30802358D01*
X26496152Y30821677D01*
X26684766Y30878893D01*
X26858593Y30971805D01*
X27010954Y31096845D01*
X27135994Y31249206D01*
X27228906Y31423033D01*
X27286122Y31611647D01*
X27305441Y31807799D01*
X27305441Y31807800D01*
X28794559Y31807800D01*
X28794559Y31807799D01*
X28813878Y31611647D01*
X28813878Y31611646D01*
X28871094Y31423032D01*
X28964005Y31249207D01*
X28964010Y31249200D01*
X29030233Y31168509D01*
X29089046Y31096845D01*
X29176366Y31025183D01*
X29241400Y30971810D01*
X29241407Y30971805D01*
X29415234Y30878893D01*
X29603848Y30821677D01*
X29800000Y30802358D01*
X29996152Y30821677D01*
X30184766Y30878893D01*
X30358593Y30971805D01*
X30510954Y31096845D01*
X30513546Y31100003D01*
X33019610Y31100003D01*
X33019610Y31099998D01*
X33039067Y30964661D01*
X33092354Y30847980D01*
X33095870Y30840282D01*
X33185411Y30736945D01*
X33300439Y30663022D01*
X33373438Y30641588D01*
X33431628Y30624501D01*
X33431631Y30624501D01*
X33431633Y30624500D01*
X33431634Y30624500D01*
X33568366Y30624500D01*
X33568367Y30624500D01*
X33568369Y30624501D01*
X33568371Y30624501D01*
X33590062Y30630871D01*
X33699561Y30663022D01*
X33814589Y30736945D01*
X33904130Y30840282D01*
X33960931Y30964658D01*
X33960931Y30964660D01*
X33960932Y30964661D01*
X33980390Y31099998D01*
X33980390Y31100003D01*
X33960932Y31235340D01*
X33952456Y31253900D01*
X33904130Y31359718D01*
X33814589Y31463055D01*
X33699561Y31536978D01*
X33699558Y31536979D01*
X33568371Y31575500D01*
X33568367Y31575500D01*
X33431633Y31575500D01*
X33431628Y31575500D01*
X33300441Y31536979D01*
X33185409Y31463054D01*
X33095870Y31359719D01*
X33039067Y31235340D01*
X33019610Y31100003D01*
X30513546Y31100003D01*
X30635994Y31249206D01*
X30728906Y31423033D01*
X30786122Y31611647D01*
X30805441Y31807799D01*
X30805332Y31808901D01*
X34580559Y31808901D01*
X34580559Y31808900D01*
X34599878Y31612748D01*
X34599878Y31612747D01*
X34657094Y31424133D01*
X34750005Y31250308D01*
X34750010Y31250301D01*
X34768718Y31227506D01*
X34875046Y31097946D01*
X34907450Y31071353D01*
X35027400Y30972911D01*
X35027407Y30972906D01*
X35201234Y30879994D01*
X35389848Y30822778D01*
X35586000Y30803459D01*
X35782152Y30822778D01*
X35970766Y30879994D01*
X36144593Y30972906D01*
X36296954Y31097946D01*
X36421994Y31250307D01*
X36514906Y31424134D01*
X36572122Y31612748D01*
X36591441Y31808900D01*
X36591441Y31808901D01*
X38080560Y31808901D01*
X38080560Y31808900D01*
X38099879Y31612748D01*
X38099879Y31612747D01*
X38157095Y31424133D01*
X38250006Y31250308D01*
X38250011Y31250301D01*
X38268719Y31227506D01*
X38375047Y31097946D01*
X38407451Y31071353D01*
X38527401Y30972911D01*
X38527408Y30972906D01*
X38701235Y30879994D01*
X38889849Y30822778D01*
X39086001Y30803459D01*
X39282153Y30822778D01*
X39470767Y30879994D01*
X39644594Y30972906D01*
X39796955Y31097946D01*
X39921995Y31250307D01*
X40014907Y31424134D01*
X40072123Y31612748D01*
X40091442Y31808900D01*
X40091442Y31808901D01*
X41580560Y31808901D01*
X41580560Y31808900D01*
X41599879Y31612748D01*
X41599879Y31612747D01*
X41657095Y31424133D01*
X41750006Y31250308D01*
X41750011Y31250301D01*
X41768719Y31227506D01*
X41875047Y31097946D01*
X41907451Y31071353D01*
X42027401Y30972911D01*
X42027408Y30972906D01*
X42201235Y30879994D01*
X42389849Y30822778D01*
X42586001Y30803459D01*
X42782153Y30822778D01*
X42970767Y30879994D01*
X43144594Y30972906D01*
X43296955Y31097946D01*
X43421995Y31250307D01*
X43514907Y31424134D01*
X43572123Y31612748D01*
X43590566Y31800001D01*
X47369538Y31800001D01*
X47369538Y31800000D01*
X47389338Y31598967D01*
X47389338Y31598966D01*
X47419359Y31500000D01*
X47447977Y31405659D01*
X47543202Y31227506D01*
X47671353Y31071353D01*
X47827506Y30943202D01*
X48005659Y30847977D01*
X48198967Y30789338D01*
X48400000Y30769538D01*
X48601033Y30789338D01*
X48794341Y30847977D01*
X48972494Y30943202D01*
X49128647Y31071353D01*
X49256798Y31227506D01*
X49352023Y31405659D01*
X49410662Y31598967D01*
X49430462Y31800000D01*
X49430462Y31800001D01*
X50869538Y31800001D01*
X50869538Y31800000D01*
X50889338Y31598967D01*
X50889338Y31598966D01*
X50919359Y31500000D01*
X50947977Y31405659D01*
X51043202Y31227506D01*
X51171353Y31071353D01*
X51327506Y30943202D01*
X51505659Y30847977D01*
X51698967Y30789338D01*
X51900000Y30769538D01*
X52101033Y30789338D01*
X52294341Y30847977D01*
X52472494Y30943202D01*
X52628647Y31071353D01*
X52756798Y31227506D01*
X52852023Y31405659D01*
X52910662Y31598967D01*
X52930462Y31800000D01*
X52930462Y31800001D01*
X54369538Y31800001D01*
X54369538Y31800000D01*
X54389338Y31598967D01*
X54389338Y31598966D01*
X54419359Y31500000D01*
X54447977Y31405659D01*
X54543202Y31227506D01*
X54671353Y31071353D01*
X54827506Y30943202D01*
X55005659Y30847977D01*
X55198967Y30789338D01*
X55400000Y30769538D01*
X55601033Y30789338D01*
X55794341Y30847977D01*
X55972494Y30943202D01*
X56128647Y31071353D01*
X56256798Y31227506D01*
X56352023Y31405659D01*
X56410662Y31598967D01*
X56430462Y31800000D01*
X56430462Y31800001D01*
X57869538Y31800001D01*
X57869538Y31800000D01*
X57889338Y31598967D01*
X57889338Y31598966D01*
X57919359Y31500000D01*
X57947977Y31405659D01*
X58043202Y31227506D01*
X58171353Y31071353D01*
X58327506Y30943202D01*
X58505659Y30847977D01*
X58698967Y30789338D01*
X58900000Y30769538D01*
X59101033Y30789338D01*
X59294341Y30847977D01*
X59472494Y30943202D01*
X59628647Y31071353D01*
X59756798Y31227506D01*
X59852023Y31405659D01*
X59910662Y31598967D01*
X59930462Y31800000D01*
X59910662Y32001033D01*
X59852023Y32194341D01*
X59756798Y32372494D01*
X59628647Y32528647D01*
X59472494Y32656798D01*
X59294341Y32752023D01*
X59101033Y32810662D01*
X58900000Y32830462D01*
X58698966Y32810662D01*
X58698965Y32810662D01*
X58505662Y32752024D01*
X58505659Y32752023D01*
X58505656Y32752022D01*
X58505655Y32752021D01*
X58327504Y32656797D01*
X58171353Y32528647D01*
X58043203Y32372496D01*
X57947979Y32194345D01*
X57947976Y32194338D01*
X57889338Y32001035D01*
X57889338Y32001034D01*
X57869538Y31800001D01*
X56430462Y31800001D01*
X56410662Y32001033D01*
X56352023Y32194341D01*
X56256798Y32372494D01*
X56128647Y32528647D01*
X55972494Y32656798D01*
X55794341Y32752023D01*
X55601033Y32810662D01*
X55400000Y32830462D01*
X55198966Y32810662D01*
X55198965Y32810662D01*
X55005662Y32752024D01*
X55005659Y32752023D01*
X55005656Y32752022D01*
X55005655Y32752021D01*
X54827504Y32656797D01*
X54671353Y32528647D01*
X54543203Y32372496D01*
X54447979Y32194345D01*
X54447976Y32194338D01*
X54389338Y32001035D01*
X54389338Y32001034D01*
X54369538Y31800001D01*
X52930462Y31800001D01*
X52910662Y32001033D01*
X52852023Y32194341D01*
X52756798Y32372494D01*
X52628647Y32528647D01*
X52472494Y32656798D01*
X52294341Y32752023D01*
X52101033Y32810662D01*
X51900000Y32830462D01*
X51698966Y32810662D01*
X51698965Y32810662D01*
X51505662Y32752024D01*
X51505659Y32752023D01*
X51505656Y32752022D01*
X51505655Y32752021D01*
X51327504Y32656797D01*
X51171353Y32528647D01*
X51043203Y32372496D01*
X50947979Y32194345D01*
X50947976Y32194338D01*
X50889338Y32001035D01*
X50889338Y32001034D01*
X50869538Y31800001D01*
X49430462Y31800001D01*
X49410662Y32001033D01*
X49352023Y32194341D01*
X49256798Y32372494D01*
X49128647Y32528647D01*
X48972494Y32656798D01*
X48794341Y32752023D01*
X48601033Y32810662D01*
X48400000Y32830462D01*
X48198966Y32810662D01*
X48198965Y32810662D01*
X48005662Y32752024D01*
X48005659Y32752023D01*
X48005656Y32752022D01*
X48005655Y32752021D01*
X47827504Y32656797D01*
X47671353Y32528647D01*
X47543203Y32372496D01*
X47447979Y32194345D01*
X47447976Y32194338D01*
X47389338Y32001035D01*
X47389338Y32001034D01*
X47369538Y31800001D01*
X43590566Y31800001D01*
X43591442Y31808900D01*
X43572123Y32005052D01*
X43514907Y32193666D01*
X43491750Y32236989D01*
X43421995Y32367493D01*
X43421990Y32367500D01*
X43366314Y32435340D01*
X43296955Y32519854D01*
X43225291Y32578667D01*
X43144600Y32644890D01*
X43144593Y32644895D01*
X42970768Y32737806D01*
X42782153Y32795022D01*
X42586001Y32814341D01*
X42389848Y32795022D01*
X42389847Y32795022D01*
X42201233Y32737806D01*
X42027408Y32644895D01*
X42027401Y32644890D01*
X41875047Y32519854D01*
X41750011Y32367500D01*
X41750006Y32367493D01*
X41657095Y32193668D01*
X41599879Y32005054D01*
X41599879Y32005053D01*
X41580560Y31808901D01*
X40091442Y31808901D01*
X40072123Y32005052D01*
X40014907Y32193666D01*
X39991750Y32236989D01*
X39921995Y32367493D01*
X39921990Y32367500D01*
X39866314Y32435340D01*
X39796955Y32519854D01*
X39725291Y32578667D01*
X39644600Y32644890D01*
X39644593Y32644895D01*
X39470768Y32737806D01*
X39282153Y32795022D01*
X39086001Y32814341D01*
X38889848Y32795022D01*
X38889847Y32795022D01*
X38701233Y32737806D01*
X38527408Y32644895D01*
X38527401Y32644890D01*
X38375047Y32519854D01*
X38250011Y32367500D01*
X38250006Y32367493D01*
X38157095Y32193668D01*
X38099879Y32005054D01*
X38099879Y32005053D01*
X38080560Y31808901D01*
X36591441Y31808901D01*
X36572122Y32005052D01*
X36514906Y32193666D01*
X36491749Y32236989D01*
X36421994Y32367493D01*
X36421989Y32367500D01*
X36366313Y32435340D01*
X36296954Y32519854D01*
X36225290Y32578667D01*
X36144599Y32644890D01*
X36144592Y32644895D01*
X35970767Y32737806D01*
X35782152Y32795022D01*
X35586000Y32814341D01*
X35389847Y32795022D01*
X35389846Y32795022D01*
X35201232Y32737806D01*
X35027407Y32644895D01*
X35027400Y32644890D01*
X34875046Y32519854D01*
X34750010Y32367500D01*
X34750005Y32367493D01*
X34657094Y32193668D01*
X34599878Y32005054D01*
X34599878Y32005053D01*
X34580559Y31808901D01*
X30805332Y31808901D01*
X30792721Y31936947D01*
X30786122Y32003951D01*
X30728906Y32192565D01*
X30728316Y32193668D01*
X30635994Y32366392D01*
X30635989Y32366399D01*
X30579408Y32435342D01*
X30510954Y32518753D01*
X30427342Y32587372D01*
X30358599Y32643789D01*
X30358592Y32643794D01*
X30184767Y32736705D01*
X29996152Y32793921D01*
X29800000Y32813240D01*
X29603847Y32793921D01*
X29603846Y32793921D01*
X29415232Y32736705D01*
X29241407Y32643794D01*
X29241400Y32643789D01*
X29089046Y32518753D01*
X28964010Y32366399D01*
X28964005Y32366392D01*
X28871094Y32192567D01*
X28813878Y32003953D01*
X28813878Y32003952D01*
X28794559Y31807800D01*
X27305441Y31807800D01*
X27305332Y31808901D01*
X27292721Y31936947D01*
X27286122Y32003951D01*
X27228906Y32192565D01*
X27228316Y32193668D01*
X27135994Y32366392D01*
X27135989Y32366399D01*
X27079408Y32435342D01*
X27010954Y32518753D01*
X26927342Y32587372D01*
X26858599Y32643789D01*
X26858592Y32643794D01*
X26684767Y32736705D01*
X26496152Y32793921D01*
X26300000Y32813240D01*
X26103847Y32793921D01*
X26103846Y32793921D01*
X25915232Y32736705D01*
X25741407Y32643794D01*
X25741400Y32643789D01*
X25589046Y32518753D01*
X25464010Y32366399D01*
X25464005Y32366392D01*
X25371094Y32192567D01*
X25313878Y32003953D01*
X25313878Y32003952D01*
X25294559Y31807800D01*
X23805440Y31807800D01*
X23805331Y31808901D01*
X23792720Y31936947D01*
X23786121Y32003951D01*
X23728905Y32192565D01*
X23728315Y32193668D01*
X23635993Y32366392D01*
X23635988Y32366399D01*
X23579407Y32435342D01*
X23510953Y32518753D01*
X23427341Y32587372D01*
X23358598Y32643789D01*
X23358591Y32643794D01*
X23184766Y32736705D01*
X22996151Y32793921D01*
X22799999Y32813240D01*
X22603846Y32793921D01*
X22603845Y32793921D01*
X22415231Y32736705D01*
X22241406Y32643794D01*
X22241399Y32643789D01*
X22089045Y32518753D01*
X21964009Y32366399D01*
X21964004Y32366392D01*
X21871093Y32192567D01*
X21813877Y32003953D01*
X21813877Y32003952D01*
X21794558Y31807800D01*
X18004673Y31807800D01*
X17986122Y31996152D01*
X17928906Y32184766D01*
X17903619Y32232074D01*
X17867311Y32300003D01*
X19419610Y32300003D01*
X19419610Y32299998D01*
X19439067Y32164661D01*
X19495870Y32040282D01*
X19534107Y31996153D01*
X19585411Y31936945D01*
X19700439Y31863022D01*
X19773438Y31841588D01*
X19831628Y31824501D01*
X19831631Y31824501D01*
X19831633Y31824500D01*
X19831634Y31824500D01*
X19968366Y31824500D01*
X19968367Y31824500D01*
X19968369Y31824501D01*
X19968371Y31824501D01*
X19990062Y31830871D01*
X20099561Y31863022D01*
X20214589Y31936945D01*
X20304130Y32040282D01*
X20360931Y32164658D01*
X20360931Y32164660D01*
X20360932Y32164661D01*
X20380390Y32299998D01*
X20380390Y32300003D01*
X20360932Y32435340D01*
X20322335Y32519854D01*
X20304130Y32559718D01*
X20231283Y32643789D01*
X20214590Y32663054D01*
X20214589Y32663055D01*
X20099561Y32736978D01*
X20099558Y32736979D01*
X19968371Y32775500D01*
X19968367Y32775500D01*
X19831633Y32775500D01*
X19831628Y32775500D01*
X19700441Y32736979D01*
X19700439Y32736979D01*
X19700439Y32736978D01*
X19687879Y32728906D01*
X19585409Y32663054D01*
X19495870Y32559719D01*
X19439067Y32435340D01*
X19419610Y32300003D01*
X17867311Y32300003D01*
X17835994Y32358593D01*
X17835989Y32358600D01*
X17773007Y32435342D01*
X17710954Y32510954D01*
X17617839Y32587372D01*
X17558599Y32635990D01*
X17558592Y32635995D01*
X17384767Y32728906D01*
X17196152Y32786122D01*
X17000000Y32805441D01*
X16803847Y32786122D01*
X16803846Y32786122D01*
X16615232Y32728906D01*
X16441407Y32635995D01*
X16441400Y32635990D01*
X16289046Y32510954D01*
X16164010Y32358600D01*
X16164005Y32358593D01*
X16071094Y32184768D01*
X16013878Y31996154D01*
X16013878Y31996153D01*
X15994559Y31800001D01*
X14046100Y31800001D01*
X14046100Y31871895D01*
X14008884Y32010787D01*
X13936989Y32135313D01*
X13835313Y32236989D01*
X13710787Y32308884D01*
X13571895Y32346100D01*
X13428105Y32346100D01*
X13289213Y32308884D01*
X13164687Y32236989D01*
X13063011Y32135313D01*
X12991116Y32010787D01*
X12953900Y31871895D01*
X10998359Y31871895D01*
X10986121Y31996152D01*
X10928905Y32184766D01*
X10903618Y32232074D01*
X10835993Y32358593D01*
X10835988Y32358600D01*
X10773006Y32435342D01*
X10710953Y32510954D01*
X10617838Y32587372D01*
X10558598Y32635990D01*
X10558591Y32635995D01*
X10384766Y32728906D01*
X10196151Y32786122D01*
X9999999Y32805441D01*
X9803846Y32786122D01*
X9803845Y32786122D01*
X9615231Y32728906D01*
X9441406Y32635995D01*
X9441399Y32635990D01*
X9289045Y32510954D01*
X9164009Y32358600D01*
X9164004Y32358593D01*
X9071093Y32184768D01*
X9013877Y31996154D01*
X9013877Y31996153D01*
X8994558Y31800001D01*
X6889229Y31800001D01*
X6885531Y31868199D01*
X6857319Y32040282D01*
X6825877Y32232074D01*
X6727229Y32587372D01*
X6727226Y32587381D01*
X6704312Y32644890D01*
X6590743Y32929930D01*
X6418022Y33255716D01*
X6418020Y33255719D01*
X6418017Y33255725D01*
X6211093Y33560913D01*
X5972380Y33841949D01*
X5972370Y33841959D01*
X5704677Y34095532D01*
X5704673Y34095536D01*
X5411117Y34318692D01*
X5095161Y34508796D01*
X4884995Y34606029D01*
X4859576Y34633603D01*
X4861099Y34671075D01*
X4888673Y34696494D01*
X4905570Y34699500D01*
X63994430Y34699500D01*
X64029078Y34685148D01*
G37*
%TD.AperFunction*%
%TD*%
M02*
