%TF.GenerationSoftware,KiCad,Pcbnew,8.0.2*%
%TF.CreationDate,2024-07-24T20:27:54+03:00*%
%TF.ProjectId,DRV8234 DC Motor Driver Expander,44525638-3233-4342-9044-43204d6f746f,rev?*%
%TF.SameCoordinates,PX5f5e100PY5f5e100*%
%TF.FileFunction,Drillmap*%
%TF.FilePolarity,Positive*%
%FSLAX45Y45*%
G04 Gerber Fmt 4.5, Leading zero omitted, Abs format (unit mm)*
G04 Created by KiCad (PCBNEW 8.0.2) date 2024-07-24 20:27:54*
%MOMM*%
%LPD*%
G01*
G04 APERTURE LIST*
%ADD10C,0.050000*%
%ADD11C,0.200000*%
%ADD12C,0.100000*%
%ADD13C,0.109220*%
%ADD14C,0.110000*%
%ADD15C,0.320000*%
G04 APERTURE END LIST*
D10*
X0Y3500000D02*
X0Y0D01*
X6890000Y3500000D02*
X0Y3500000D01*
X6890000Y0D02*
X6890000Y3500000D01*
X0Y0D02*
X6890000Y0D01*
D11*
D12*
X107500Y1832500D02*
X132500Y1807500D01*
X132500Y1832500D02*
X107500Y1807500D01*
X117500Y992500D02*
X142500Y967500D01*
X142500Y992500D02*
X117500Y967500D01*
X137500Y1442500D02*
X162500Y1417500D01*
X162500Y1442500D02*
X137500Y1417500D01*
X167500Y2392500D02*
X192500Y2367500D01*
X192500Y2392500D02*
X167500Y2367500D01*
X197500Y2672500D02*
X222500Y2647500D01*
X222500Y2672500D02*
X197500Y2647500D01*
X437500Y2672500D02*
X462500Y2647500D01*
X462500Y2672500D02*
X437500Y2647500D01*
X577500Y2332500D02*
X602500Y2307500D01*
X602500Y2332500D02*
X577500Y2307500D01*
X777500Y2902500D02*
X802500Y2877500D01*
X802500Y2902500D02*
X777500Y2877500D01*
X817500Y3362500D02*
X842500Y3337500D01*
X842500Y3362500D02*
X817500Y3337500D01*
X867500Y622500D02*
X892500Y597500D01*
X892500Y622500D02*
X867500Y597500D01*
X927500Y262500D02*
X952500Y237500D01*
X952500Y262500D02*
X927500Y237500D01*
X1097500Y2332500D02*
X1122500Y2307500D01*
X1122500Y2332500D02*
X1097500Y2307500D01*
X1137500Y3362500D02*
X1162500Y3337500D01*
X1162500Y3362500D02*
X1137500Y3337500D01*
X1197500Y522500D02*
X1222500Y497500D01*
X1222500Y522500D02*
X1197500Y497500D01*
X1227500Y2142500D02*
X1252500Y2117500D01*
X1252500Y2142500D02*
X1227500Y2117500D01*
X1277500Y1772500D02*
X1302500Y1747500D01*
X1302500Y1772500D02*
X1277500Y1747500D01*
X1287500Y902500D02*
X1312500Y877500D01*
X1312500Y902500D02*
X1287500Y877500D01*
X1307500Y1212500D02*
X1332500Y1187500D01*
X1332500Y1212500D02*
X1307500Y1187500D01*
X1424739Y1936903D02*
X1449739Y1911903D01*
X1449739Y1936903D02*
X1424739Y1911903D01*
X1427500Y1542500D02*
X1452500Y1517500D01*
X1452500Y1542500D02*
X1427500Y1517500D01*
X1427500Y262500D02*
X1452500Y237500D01*
X1452500Y262500D02*
X1427500Y237500D01*
X1447500Y652500D02*
X1472500Y627500D01*
X1472500Y652500D02*
X1447500Y627500D01*
X1517500Y3362500D02*
X1542500Y3337500D01*
X1542500Y3362500D02*
X1517500Y3337500D01*
X1577500Y1042500D02*
X1602500Y1017500D01*
X1602500Y1042500D02*
X1577500Y1017500D01*
X1637500Y1332500D02*
X1662500Y1307500D01*
X1662500Y1332500D02*
X1637500Y1307500D01*
X1667500Y1862500D02*
X1692500Y1837500D01*
X1692500Y1862500D02*
X1667500Y1837500D01*
X1667500Y1562500D02*
X1692500Y1537500D01*
X1692500Y1562500D02*
X1667500Y1537500D01*
X1687500Y2942500D02*
X1712500Y2917500D01*
X1712500Y2942500D02*
X1687500Y2917500D01*
X1747500Y1862500D02*
X1772500Y1837500D01*
X1772500Y1862500D02*
X1747500Y1837500D01*
X1747500Y1562500D02*
X1772500Y1537500D01*
X1772500Y1562500D02*
X1747500Y1537500D01*
X1777500Y552500D02*
X1802500Y527500D01*
X1802500Y552500D02*
X1777500Y527500D01*
X1827500Y1862500D02*
X1852500Y1837500D01*
X1852500Y1862500D02*
X1827500Y1837500D01*
X1827500Y1562500D02*
X1852500Y1537500D01*
X1852500Y1562500D02*
X1827500Y1537500D01*
X1907500Y1862500D02*
X1932500Y1837500D01*
X1932500Y1862500D02*
X1907500Y1837500D01*
X1907500Y1562500D02*
X1932500Y1537500D01*
X1932500Y1562500D02*
X1907500Y1537500D01*
X1937500Y2922500D02*
X1962500Y2897500D01*
X1962500Y2922500D02*
X1937500Y2897500D01*
X1977500Y3242500D02*
X2002500Y3217500D01*
X2002500Y3242500D02*
X1977500Y3217500D01*
X1977500Y2512500D02*
X2002500Y2487500D01*
X2002500Y2512500D02*
X1977500Y2487500D01*
X1977500Y2312500D02*
X2002500Y2287500D01*
X2002500Y2312500D02*
X1977500Y2287500D01*
X1987500Y1862500D02*
X2012500Y1837500D01*
X2012500Y1862500D02*
X1987500Y1837500D01*
X1987500Y1562500D02*
X2012500Y1537500D01*
X2012500Y1562500D02*
X1987500Y1537500D01*
X2117500Y3372500D02*
X2142500Y3347500D01*
X2142500Y3372500D02*
X2117500Y3347500D01*
X2183680Y1443058D02*
X2208680Y1418058D01*
X2208680Y1443058D02*
X2183680Y1418058D01*
X2347500Y2322500D02*
X2372500Y2297500D01*
X2372500Y2322500D02*
X2347500Y2297500D01*
X2557500Y2222500D02*
X2582500Y2197500D01*
X2582500Y2222500D02*
X2557500Y2197500D01*
X2727500Y982500D02*
X2752500Y957500D01*
X2752500Y982500D02*
X2727500Y957500D01*
X2727500Y242500D02*
X2752500Y217500D01*
X2752500Y242500D02*
X2727500Y217500D01*
X2777500Y642500D02*
X2802500Y617500D01*
X2802500Y642500D02*
X2777500Y617500D01*
X2827500Y1982500D02*
X2852500Y1957500D01*
X2852500Y1982500D02*
X2827500Y1957500D01*
X2847500Y1402500D02*
X2872500Y1377500D01*
X2872500Y1402500D02*
X2847500Y1377500D01*
X2847500Y1322500D02*
X2872500Y1297500D01*
X2872500Y1322500D02*
X2847500Y1297500D01*
X2937500Y1472500D02*
X2962500Y1447500D01*
X2962500Y1472500D02*
X2937500Y1447500D01*
X2937500Y1252500D02*
X2962500Y1227500D01*
X2962500Y1252500D02*
X2937500Y1227500D01*
X2967500Y332500D02*
X2992500Y307500D01*
X2992500Y332500D02*
X2967500Y307500D01*
X3187500Y3342500D02*
X3212500Y3317500D01*
X3212500Y3342500D02*
X3187500Y3317500D01*
X3187500Y2012500D02*
X3212500Y1987500D01*
X3212500Y2012500D02*
X3187500Y1987500D01*
X3197500Y2962500D02*
X3222500Y2937500D01*
X3222500Y2962500D02*
X3197500Y2937500D01*
X3197500Y1752500D02*
X3222500Y1727500D01*
X3222500Y1752500D02*
X3197500Y1727500D01*
X3199392Y1172780D02*
X3224392Y1147780D01*
X3224392Y1172780D02*
X3199392Y1147780D01*
X3307500Y212500D02*
X3332500Y187500D01*
X3332500Y212500D02*
X3307500Y187500D01*
X3337500Y3122500D02*
X3362500Y3097500D01*
X3362500Y3122500D02*
X3337500Y3097500D01*
X3337500Y2612500D02*
X3362500Y2587500D01*
X3362500Y2612500D02*
X3337500Y2587500D01*
X3387500Y1162500D02*
X3412500Y1137500D01*
X3412500Y1162500D02*
X3387500Y1137500D01*
X3487500Y1262500D02*
X3512500Y1237500D01*
X3512500Y1262500D02*
X3487500Y1237500D01*
X3497500Y1752500D02*
X3522500Y1727500D01*
X3522500Y1752500D02*
X3497500Y1727500D01*
X3507500Y942500D02*
X3532500Y917500D01*
X3532500Y942500D02*
X3507500Y917500D01*
X3607500Y1012500D02*
X3632500Y987500D01*
X3632500Y1012500D02*
X3607500Y987500D01*
X3647500Y1462500D02*
X3672500Y1437500D01*
X3672500Y1462500D02*
X3647500Y1437500D01*
X3647500Y1352500D02*
X3672500Y1327500D01*
X3672500Y1352500D02*
X3647500Y1327500D01*
X3707500Y1102500D02*
X3732500Y1077500D01*
X3732500Y1102500D02*
X3707500Y1077500D01*
X3717500Y3352500D02*
X3742500Y3327500D01*
X3742500Y3352500D02*
X3717500Y3327500D01*
X3727500Y2542500D02*
X3752500Y2517500D01*
X3752500Y2542500D02*
X3727500Y2517500D01*
X3727500Y2322500D02*
X3752500Y2297500D01*
X3752500Y2322500D02*
X3727500Y2297500D01*
X3797500Y182500D02*
X3822500Y157500D01*
X3822500Y182500D02*
X3797500Y157500D01*
X3937500Y1472500D02*
X3962500Y1447500D01*
X3962500Y1472500D02*
X3937500Y1447500D01*
X4017500Y1362500D02*
X4042500Y1337500D01*
X4042500Y1362500D02*
X4017500Y1337500D01*
X4037500Y3362500D02*
X4062500Y3337500D01*
X4062500Y3362500D02*
X4037500Y3337500D01*
X4077500Y2542500D02*
X4102500Y2517500D01*
X4102500Y2542500D02*
X4077500Y2517500D01*
X4077500Y2302500D02*
X4102500Y2277500D01*
X4102500Y2302500D02*
X4077500Y2277500D01*
X4127500Y152500D02*
X4152500Y127500D01*
X4152500Y152500D02*
X4127500Y127500D01*
X4197500Y562500D02*
X4222500Y537500D01*
X4222500Y562500D02*
X4197500Y537500D01*
X4357500Y1972500D02*
X4382500Y1947500D01*
X4382500Y1972500D02*
X4357500Y1947500D01*
X4527500Y2212500D02*
X4552500Y2187500D01*
X4552500Y2212500D02*
X4527500Y2187500D01*
X4567500Y2632500D02*
X4592500Y2607500D01*
X4592500Y2632500D02*
X4567500Y2607500D01*
X4607500Y2972500D02*
X4632500Y2947500D01*
X4632500Y2972500D02*
X4607500Y2947500D01*
X4637500Y1782500D02*
X4662500Y1757500D01*
X4662500Y1782500D02*
X4637500Y1757500D01*
X4647500Y3352500D02*
X4672500Y3327500D01*
X4672500Y3352500D02*
X4647500Y3327500D01*
X4727500Y1892500D02*
X4752500Y1867500D01*
X4752500Y1892500D02*
X4727500Y1867500D01*
X4957500Y2962500D02*
X4982500Y2937500D01*
X4982500Y2962500D02*
X4957500Y2937500D01*
X4957500Y1572500D02*
X4982500Y1547500D01*
X4982500Y1572500D02*
X4957500Y1547500D01*
X4963780Y1173514D02*
X4988780Y1148514D01*
X4988780Y1173514D02*
X4963780Y1148514D01*
X4987500Y2312500D02*
X5012500Y2287500D01*
X5012500Y2312500D02*
X4987500Y2287500D01*
X4997500Y3362500D02*
X5022500Y3337500D01*
X5022500Y3362500D02*
X4997500Y3337500D01*
X5107500Y1722500D02*
X5132500Y1697500D01*
X5132500Y1722500D02*
X5107500Y1697500D01*
X5197500Y182500D02*
X5222500Y157500D01*
X5222500Y182500D02*
X5197500Y157500D01*
X5307500Y922500D02*
X5332500Y897500D01*
X5332500Y922500D02*
X5307500Y897500D01*
X5327500Y552500D02*
X5352500Y527500D01*
X5352500Y552500D02*
X5327500Y527500D01*
X5367500Y3362500D02*
X5392500Y3337500D01*
X5392500Y3362500D02*
X5367500Y3337500D01*
X5367500Y2462500D02*
X5392500Y2437500D01*
X5392500Y2462500D02*
X5367500Y2437500D01*
X5367500Y1622500D02*
X5392500Y1597500D01*
X5392500Y1622500D02*
X5367500Y1597500D01*
X5457500Y1272500D02*
X5482500Y1247500D01*
X5482500Y1272500D02*
X5457500Y1247500D01*
X5527500Y482500D02*
X5552500Y457500D01*
X5552500Y482500D02*
X5527500Y457500D01*
X5637500Y282500D02*
X5662500Y257500D01*
X5662500Y282500D02*
X5637500Y257500D01*
X5677500Y3372500D02*
X5702500Y3347500D01*
X5702500Y3372500D02*
X5677500Y3347500D01*
X5687500Y1512500D02*
X5712500Y1487500D01*
X5712500Y1512500D02*
X5687500Y1487500D01*
X5687500Y812500D02*
X5712500Y787500D01*
X5712500Y812500D02*
X5687500Y787500D01*
X5707500Y2932500D02*
X5732500Y2907500D01*
X5732500Y2932500D02*
X5707500Y2907500D01*
X5707500Y2242500D02*
X5732500Y2217500D01*
X5732500Y2242500D02*
X5707500Y2217500D01*
X5797500Y1222500D02*
X5822500Y1197500D01*
X5822500Y1222500D02*
X5797500Y1197500D01*
X5937500Y1592500D02*
X5962500Y1567500D01*
X5962500Y1592500D02*
X5937500Y1567500D01*
X5937500Y362500D02*
X5962500Y337500D01*
X5962500Y362500D02*
X5937500Y337500D01*
X5977500Y592500D02*
X6002500Y567500D01*
X6002500Y592500D02*
X5977500Y567500D01*
X5987500Y1972500D02*
X6012500Y1947500D01*
X6012500Y1972500D02*
X5987500Y1947500D01*
X6007500Y942500D02*
X6032500Y917500D01*
X6032500Y942500D02*
X6007500Y917500D01*
X6107500Y3002500D02*
X6132500Y2977500D01*
X6132500Y3002500D02*
X6107500Y2977500D01*
X6127500Y2242500D02*
X6152500Y2217500D01*
X6152500Y2242500D02*
X6127500Y2217500D01*
X6177500Y2622500D02*
X6202500Y2597500D01*
X6202500Y2622500D02*
X6177500Y2597500D01*
X6227500Y1352500D02*
X6252500Y1327500D01*
X6252500Y1352500D02*
X6227500Y1327500D01*
X6297500Y1772500D02*
X6322500Y1747500D01*
X6322500Y1772500D02*
X6297500Y1747500D01*
X6307500Y872500D02*
X6332500Y847500D01*
X6332500Y872500D02*
X6307500Y847500D01*
X6410170Y2223959D02*
X6435170Y2198959D01*
X6435170Y2223959D02*
X6410170Y2198959D01*
X6437500Y2662500D02*
X6462500Y2637500D01*
X6462500Y2662500D02*
X6437500Y2637500D01*
X6527500Y1582500D02*
X6552500Y1557500D01*
X6552500Y1582500D02*
X6527500Y1557500D01*
X6537500Y1112500D02*
X6562500Y1087500D01*
X6562500Y1112500D02*
X6537500Y1087500D01*
X6557500Y2512500D02*
X6582500Y2487500D01*
X6582500Y2512500D02*
X6557500Y2487500D01*
X6587500Y1922500D02*
X6612500Y1897500D01*
X6612500Y1922500D02*
X6587500Y1897500D01*
X6737500Y812500D02*
X6762500Y787500D01*
X6762500Y812500D02*
X6737500Y787500D01*
X135000Y3150000D02*
G75*
G02*
X85000Y3150000I-25000J0D01*
G01*
X85000Y3150000D02*
G75*
G02*
X135000Y3150000I25000J0D01*
G01*
X135000Y350000D02*
G75*
G02*
X85000Y350000I-25000J0D01*
G01*
X85000Y350000D02*
G75*
G02*
X135000Y350000I25000J0D01*
G01*
X205294Y3319706D02*
G75*
G02*
X155294Y3319706I-25000J0D01*
G01*
X155294Y3319706D02*
G75*
G02*
X205294Y3319706I25000J0D01*
G01*
X205294Y2980294D02*
G75*
G02*
X155294Y2980294I-25000J0D01*
G01*
X155294Y2980294D02*
G75*
G02*
X205294Y2980294I25000J0D01*
G01*
X205294Y519706D02*
G75*
G02*
X155294Y519706I-25000J0D01*
G01*
X155294Y519706D02*
G75*
G02*
X205294Y519706I25000J0D01*
G01*
X205294Y180294D02*
G75*
G02*
X155294Y180294I-25000J0D01*
G01*
X155294Y180294D02*
G75*
G02*
X205294Y180294I25000J0D01*
G01*
X375000Y3390000D02*
G75*
G02*
X325000Y3390000I-25000J0D01*
G01*
X325000Y3390000D02*
G75*
G02*
X375000Y3390000I25000J0D01*
G01*
X375000Y2910000D02*
G75*
G02*
X325000Y2910000I-25000J0D01*
G01*
X325000Y2910000D02*
G75*
G02*
X375000Y2910000I25000J0D01*
G01*
X375000Y590000D02*
G75*
G02*
X325000Y590000I-25000J0D01*
G01*
X325000Y590000D02*
G75*
G02*
X375000Y590000I25000J0D01*
G01*
X375000Y110000D02*
G75*
G02*
X325000Y110000I-25000J0D01*
G01*
X325000Y110000D02*
G75*
G02*
X375000Y110000I25000J0D01*
G01*
X544706Y3319706D02*
G75*
G02*
X494706Y3319706I-25000J0D01*
G01*
X494706Y3319706D02*
G75*
G02*
X544706Y3319706I25000J0D01*
G01*
X544706Y2980294D02*
G75*
G02*
X494706Y2980294I-25000J0D01*
G01*
X494706Y2980294D02*
G75*
G02*
X544706Y2980294I25000J0D01*
G01*
X544706Y519706D02*
G75*
G02*
X494706Y519706I-25000J0D01*
G01*
X494706Y519706D02*
G75*
G02*
X544706Y519706I25000J0D01*
G01*
X544706Y180294D02*
G75*
G02*
X494706Y180294I-25000J0D01*
G01*
X494706Y180294D02*
G75*
G02*
X544706Y180294I25000J0D01*
G01*
X615000Y3150000D02*
G75*
G02*
X565000Y3150000I-25000J0D01*
G01*
X565000Y3150000D02*
G75*
G02*
X615000Y3150000I25000J0D01*
G01*
X615000Y350000D02*
G75*
G02*
X565000Y350000I-25000J0D01*
G01*
X565000Y350000D02*
G75*
G02*
X615000Y350000I25000J0D01*
G01*
X6325000Y3150000D02*
G75*
G02*
X6275000Y3150000I-25000J0D01*
G01*
X6275000Y3150000D02*
G75*
G02*
X6325000Y3150000I25000J0D01*
G01*
X6325000Y350000D02*
G75*
G02*
X6275000Y350000I-25000J0D01*
G01*
X6275000Y350000D02*
G75*
G02*
X6325000Y350000I25000J0D01*
G01*
X6395294Y3319706D02*
G75*
G02*
X6345294Y3319706I-25000J0D01*
G01*
X6345294Y3319706D02*
G75*
G02*
X6395294Y3319706I25000J0D01*
G01*
X6395294Y2980294D02*
G75*
G02*
X6345294Y2980294I-25000J0D01*
G01*
X6345294Y2980294D02*
G75*
G02*
X6395294Y2980294I25000J0D01*
G01*
X6395294Y519706D02*
G75*
G02*
X6345294Y519706I-25000J0D01*
G01*
X6345294Y519706D02*
G75*
G02*
X6395294Y519706I25000J0D01*
G01*
X6395294Y180294D02*
G75*
G02*
X6345294Y180294I-25000J0D01*
G01*
X6345294Y180294D02*
G75*
G02*
X6395294Y180294I25000J0D01*
G01*
X6565000Y3390000D02*
G75*
G02*
X6515000Y3390000I-25000J0D01*
G01*
X6515000Y3390000D02*
G75*
G02*
X6565000Y3390000I25000J0D01*
G01*
X6565000Y2910000D02*
G75*
G02*
X6515000Y2910000I-25000J0D01*
G01*
X6515000Y2910000D02*
G75*
G02*
X6565000Y2910000I25000J0D01*
G01*
X6565000Y590000D02*
G75*
G02*
X6515000Y590000I-25000J0D01*
G01*
X6515000Y590000D02*
G75*
G02*
X6565000Y590000I25000J0D01*
G01*
X6565000Y110000D02*
G75*
G02*
X6515000Y110000I-25000J0D01*
G01*
X6515000Y110000D02*
G75*
G02*
X6565000Y110000I25000J0D01*
G01*
X6734706Y3319706D02*
G75*
G02*
X6684706Y3319706I-25000J0D01*
G01*
X6684706Y3319706D02*
G75*
G02*
X6734706Y3319706I25000J0D01*
G01*
X6734706Y2980294D02*
G75*
G02*
X6684706Y2980294I-25000J0D01*
G01*
X6684706Y2980294D02*
G75*
G02*
X6734706Y2980294I25000J0D01*
G01*
X6734706Y519706D02*
G75*
G02*
X6684706Y519706I-25000J0D01*
G01*
X6684706Y519706D02*
G75*
G02*
X6734706Y519706I25000J0D01*
G01*
X6734706Y180294D02*
G75*
G02*
X6684706Y180294I-25000J0D01*
G01*
X6684706Y180294D02*
G75*
G02*
X6734706Y180294I25000J0D01*
G01*
X6805000Y3150000D02*
G75*
G02*
X6755000Y3150000I-25000J0D01*
G01*
X6755000Y3150000D02*
G75*
G02*
X6805000Y3150000I25000J0D01*
G01*
X6805000Y350000D02*
G75*
G02*
X6755000Y350000I-25000J0D01*
G01*
X6755000Y350000D02*
G75*
G02*
X6805000Y350000I25000J0D01*
G01*
D13*
X1000000Y3234610D02*
X1000000Y3125390D01*
X945390Y3180000D02*
X1054610Y3180000D01*
X1000000Y2734610D02*
X1000000Y2625390D01*
X945390Y2680000D02*
X1054610Y2680000D01*
X1350000Y3234610D02*
X1350000Y3125390D01*
X1295390Y3180000D02*
X1404610Y3180000D01*
X1350000Y2734610D02*
X1350000Y2625390D01*
X1295390Y2680000D02*
X1404610Y2680000D01*
X1700000Y3234610D02*
X1700000Y3125390D01*
X1645390Y3180000D02*
X1754610Y3180000D01*
X1700000Y2734610D02*
X1700000Y2625390D01*
X1645390Y2680000D02*
X1754610Y2680000D01*
X2025000Y874610D02*
X2025000Y765390D01*
X1970390Y820000D02*
X2079610Y820000D01*
X2025000Y374610D02*
X2025000Y265390D01*
X1970390Y320000D02*
X2079610Y320000D01*
X2280000Y3235390D02*
X2280000Y3126170D01*
X2225390Y3180780D02*
X2334610Y3180780D01*
X2280000Y2735390D02*
X2280000Y2626170D01*
X2225390Y2680780D02*
X2334610Y2680780D01*
X2375000Y874610D02*
X2375000Y765390D01*
X2320390Y820000D02*
X2429610Y820000D01*
X2375000Y374610D02*
X2375000Y265390D01*
X2320390Y320000D02*
X2429610Y320000D01*
X2630000Y3235390D02*
X2630000Y3126170D01*
X2575390Y3180780D02*
X2684610Y3180780D01*
X2630000Y2735390D02*
X2630000Y2626170D01*
X2575390Y2680780D02*
X2684610Y2680780D01*
X2980000Y3235390D02*
X2980000Y3126170D01*
X2925390Y3180780D02*
X3034610Y3180780D01*
X2980000Y2735390D02*
X2980000Y2626170D01*
X2925390Y2680780D02*
X3034610Y2680780D01*
X3558600Y3235500D02*
X3558600Y3126280D01*
X3503990Y3180890D02*
X3613210Y3180890D01*
X3558600Y2735500D02*
X3558600Y2626280D01*
X3503990Y2680890D02*
X3613210Y2680890D01*
X3908600Y3235500D02*
X3908600Y3126280D01*
X3853990Y3180890D02*
X3963210Y3180890D01*
X3908600Y2735500D02*
X3908600Y2626280D01*
X3853990Y2680890D02*
X3963210Y2680890D01*
X4258600Y3235500D02*
X4258600Y3126280D01*
X4203990Y3180890D02*
X4313210Y3180890D01*
X4258600Y2735500D02*
X4258600Y2626280D01*
X4203990Y2680890D02*
X4313210Y2680890D01*
X4510000Y874610D02*
X4510000Y765390D01*
X4455390Y820000D02*
X4564610Y820000D01*
X4510000Y374610D02*
X4510000Y265390D01*
X4455390Y320000D02*
X4564610Y320000D01*
X4860000Y874610D02*
X4860000Y765390D01*
X4805390Y820000D02*
X4914610Y820000D01*
X4860000Y374610D02*
X4860000Y265390D01*
X4805390Y320000D02*
X4914610Y320000D01*
D14*
X4878891Y3141109D02*
X4878891Y3218891D01*
X4801109Y3218891D01*
X4801109Y3141109D01*
X4878891Y3141109D01*
X4878891Y2641109D02*
X4878891Y2718891D01*
X4801109Y2718891D01*
X4801109Y2641109D01*
X4878891Y2641109D01*
X5228891Y3141109D02*
X5228891Y3218891D01*
X5151109Y3218891D01*
X5151109Y3141109D01*
X5228891Y3141109D01*
X5228891Y2641109D02*
X5228891Y2718891D01*
X5151109Y2718891D01*
X5151109Y2641109D01*
X5228891Y2641109D01*
X5578891Y3141109D02*
X5578891Y3218891D01*
X5501109Y3218891D01*
X5501109Y3141109D01*
X5578891Y3141109D01*
X5578891Y2641109D02*
X5578891Y2718891D01*
X5501109Y2718891D01*
X5501109Y2641109D01*
X5578891Y2641109D01*
X5928891Y3141109D02*
X5928891Y3218891D01*
X5851109Y3218891D01*
X5851109Y3141109D01*
X5928891Y3141109D01*
X5928891Y2641109D02*
X5928891Y2718891D01*
X5851109Y2718891D01*
X5851109Y2641109D01*
X5928891Y2641109D01*
D15*
X350000Y2990000D02*
X510000Y3150000D01*
X350000Y3310000D01*
X190000Y3150000D01*
X350000Y2990000D01*
X350000Y190000D02*
X510000Y350000D01*
X350000Y510000D01*
X190000Y350000D01*
X350000Y190000D01*
X6540000Y2990000D02*
X6700000Y3150000D01*
X6540000Y3310000D01*
X6380000Y3150000D01*
X6540000Y2990000D01*
X6540000Y190000D02*
X6700000Y350000D01*
X6540000Y510000D01*
X6380000Y350000D01*
X6540000Y190000D01*
D11*
X258277Y-313984D02*
X258277Y-113984D01*
X258277Y-113984D02*
X305896Y-113984D01*
X305896Y-113984D02*
X334467Y-123508D01*
X334467Y-123508D02*
X353515Y-142555D01*
X353515Y-142555D02*
X363039Y-161603D01*
X363039Y-161603D02*
X372562Y-199698D01*
X372562Y-199698D02*
X372562Y-228269D01*
X372562Y-228269D02*
X363039Y-266365D01*
X363039Y-266365D02*
X353515Y-285412D01*
X353515Y-285412D02*
X334467Y-304460D01*
X334467Y-304460D02*
X305896Y-313984D01*
X305896Y-313984D02*
X258277Y-313984D01*
X458277Y-313984D02*
X458277Y-180650D01*
X458277Y-218746D02*
X467801Y-199698D01*
X467801Y-199698D02*
X477324Y-190174D01*
X477324Y-190174D02*
X496372Y-180650D01*
X496372Y-180650D02*
X515420Y-180650D01*
X582086Y-313984D02*
X582086Y-180650D01*
X582086Y-113984D02*
X572563Y-123508D01*
X572563Y-123508D02*
X582086Y-133031D01*
X582086Y-133031D02*
X591610Y-123508D01*
X591610Y-123508D02*
X582086Y-113984D01*
X582086Y-113984D02*
X582086Y-133031D01*
X705896Y-313984D02*
X686848Y-304460D01*
X686848Y-304460D02*
X677324Y-285412D01*
X677324Y-285412D02*
X677324Y-113984D01*
X810658Y-313984D02*
X791610Y-304460D01*
X791610Y-304460D02*
X782086Y-285412D01*
X782086Y-285412D02*
X782086Y-113984D01*
X1039229Y-313984D02*
X1039229Y-113984D01*
X1039229Y-113984D02*
X1105896Y-256841D01*
X1105896Y-256841D02*
X1172563Y-113984D01*
X1172563Y-113984D02*
X1172563Y-313984D01*
X1353515Y-313984D02*
X1353515Y-209222D01*
X1353515Y-209222D02*
X1343991Y-190174D01*
X1343991Y-190174D02*
X1324944Y-180650D01*
X1324944Y-180650D02*
X1286848Y-180650D01*
X1286848Y-180650D02*
X1267801Y-190174D01*
X1353515Y-304460D02*
X1334467Y-313984D01*
X1334467Y-313984D02*
X1286848Y-313984D01*
X1286848Y-313984D02*
X1267801Y-304460D01*
X1267801Y-304460D02*
X1258277Y-285412D01*
X1258277Y-285412D02*
X1258277Y-266365D01*
X1258277Y-266365D02*
X1267801Y-247317D01*
X1267801Y-247317D02*
X1286848Y-237793D01*
X1286848Y-237793D02*
X1334467Y-237793D01*
X1334467Y-237793D02*
X1353515Y-228269D01*
X1448753Y-180650D02*
X1448753Y-380650D01*
X1448753Y-190174D02*
X1467801Y-180650D01*
X1467801Y-180650D02*
X1505896Y-180650D01*
X1505896Y-180650D02*
X1524943Y-190174D01*
X1524943Y-190174D02*
X1534467Y-199698D01*
X1534467Y-199698D02*
X1543991Y-218746D01*
X1543991Y-218746D02*
X1543991Y-275889D01*
X1543991Y-275889D02*
X1534467Y-294936D01*
X1534467Y-294936D02*
X1524943Y-304460D01*
X1524943Y-304460D02*
X1505896Y-313984D01*
X1505896Y-313984D02*
X1467801Y-313984D01*
X1467801Y-313984D02*
X1448753Y-304460D01*
X1629705Y-294936D02*
X1639229Y-304460D01*
X1639229Y-304460D02*
X1629705Y-313984D01*
X1629705Y-313984D02*
X1620182Y-304460D01*
X1620182Y-304460D02*
X1629705Y-294936D01*
X1629705Y-294936D02*
X1629705Y-313984D01*
X1629705Y-190174D02*
X1639229Y-199698D01*
X1639229Y-199698D02*
X1629705Y-209222D01*
X1629705Y-209222D02*
X1620182Y-199698D01*
X1620182Y-199698D02*
X1629705Y-190174D01*
X1629705Y-190174D02*
X1629705Y-209222D01*
D12*
X-27500Y-630000D02*
X-2500Y-655000D01*
X-2500Y-630000D02*
X-27500Y-655000D01*
D11*
X296372Y-533984D02*
X315420Y-533984D01*
X315420Y-533984D02*
X334467Y-543508D01*
X334467Y-543508D02*
X343991Y-553031D01*
X343991Y-553031D02*
X353515Y-572079D01*
X353515Y-572079D02*
X363039Y-610174D01*
X363039Y-610174D02*
X363039Y-657793D01*
X363039Y-657793D02*
X353515Y-695889D01*
X353515Y-695889D02*
X343991Y-714936D01*
X343991Y-714936D02*
X334467Y-724460D01*
X334467Y-724460D02*
X315420Y-733984D01*
X315420Y-733984D02*
X296372Y-733984D01*
X296372Y-733984D02*
X277324Y-724460D01*
X277324Y-724460D02*
X267801Y-714936D01*
X267801Y-714936D02*
X258277Y-695889D01*
X258277Y-695889D02*
X248753Y-657793D01*
X248753Y-657793D02*
X248753Y-610174D01*
X248753Y-610174D02*
X258277Y-572079D01*
X258277Y-572079D02*
X267801Y-553031D01*
X267801Y-553031D02*
X277324Y-543508D01*
X277324Y-543508D02*
X296372Y-533984D01*
X448753Y-714936D02*
X458277Y-724460D01*
X458277Y-724460D02*
X448753Y-733984D01*
X448753Y-733984D02*
X439229Y-724460D01*
X439229Y-724460D02*
X448753Y-714936D01*
X448753Y-714936D02*
X448753Y-733984D01*
X534467Y-553031D02*
X543991Y-543508D01*
X543991Y-543508D02*
X563039Y-533984D01*
X563039Y-533984D02*
X610658Y-533984D01*
X610658Y-533984D02*
X629705Y-543508D01*
X629705Y-543508D02*
X639229Y-553031D01*
X639229Y-553031D02*
X648753Y-572079D01*
X648753Y-572079D02*
X648753Y-591127D01*
X648753Y-591127D02*
X639229Y-619698D01*
X639229Y-619698D02*
X524944Y-733984D01*
X524944Y-733984D02*
X648753Y-733984D01*
X829705Y-533984D02*
X734467Y-533984D01*
X734467Y-533984D02*
X724943Y-629222D01*
X724943Y-629222D02*
X734467Y-619698D01*
X734467Y-619698D02*
X753515Y-610174D01*
X753515Y-610174D02*
X801134Y-610174D01*
X801134Y-610174D02*
X820182Y-619698D01*
X820182Y-619698D02*
X829705Y-629222D01*
X829705Y-629222D02*
X839229Y-648270D01*
X839229Y-648270D02*
X839229Y-695889D01*
X839229Y-695889D02*
X829705Y-714936D01*
X829705Y-714936D02*
X820182Y-724460D01*
X820182Y-724460D02*
X801134Y-733984D01*
X801134Y-733984D02*
X753515Y-733984D01*
X753515Y-733984D02*
X734467Y-724460D01*
X734467Y-724460D02*
X724943Y-714936D01*
X963039Y-533984D02*
X982086Y-533984D01*
X982086Y-533984D02*
X1001134Y-543508D01*
X1001134Y-543508D02*
X1010658Y-553031D01*
X1010658Y-553031D02*
X1020182Y-572079D01*
X1020182Y-572079D02*
X1029705Y-610174D01*
X1029705Y-610174D02*
X1029705Y-657793D01*
X1029705Y-657793D02*
X1020182Y-695889D01*
X1020182Y-695889D02*
X1010658Y-714936D01*
X1010658Y-714936D02*
X1001134Y-724460D01*
X1001134Y-724460D02*
X982086Y-733984D01*
X982086Y-733984D02*
X963039Y-733984D01*
X963039Y-733984D02*
X943991Y-724460D01*
X943991Y-724460D02*
X934467Y-714936D01*
X934467Y-714936D02*
X924943Y-695889D01*
X924943Y-695889D02*
X915420Y-657793D01*
X915420Y-657793D02*
X915420Y-610174D01*
X915420Y-610174D02*
X924943Y-572079D01*
X924943Y-572079D02*
X934467Y-553031D01*
X934467Y-553031D02*
X943991Y-543508D01*
X943991Y-543508D02*
X963039Y-533984D01*
X1115420Y-733984D02*
X1115420Y-600650D01*
X1115420Y-619698D02*
X1124944Y-610174D01*
X1124944Y-610174D02*
X1143991Y-600650D01*
X1143991Y-600650D02*
X1172563Y-600650D01*
X1172563Y-600650D02*
X1191610Y-610174D01*
X1191610Y-610174D02*
X1201134Y-629222D01*
X1201134Y-629222D02*
X1201134Y-733984D01*
X1201134Y-629222D02*
X1210658Y-610174D01*
X1210658Y-610174D02*
X1229705Y-600650D01*
X1229705Y-600650D02*
X1258277Y-600650D01*
X1258277Y-600650D02*
X1277325Y-610174D01*
X1277325Y-610174D02*
X1286848Y-629222D01*
X1286848Y-629222D02*
X1286848Y-733984D01*
X1382086Y-733984D02*
X1382086Y-600650D01*
X1382086Y-619698D02*
X1391610Y-610174D01*
X1391610Y-610174D02*
X1410658Y-600650D01*
X1410658Y-600650D02*
X1439229Y-600650D01*
X1439229Y-600650D02*
X1458277Y-610174D01*
X1458277Y-610174D02*
X1467801Y-629222D01*
X1467801Y-629222D02*
X1467801Y-733984D01*
X1467801Y-629222D02*
X1477324Y-610174D01*
X1477324Y-610174D02*
X1496372Y-600650D01*
X1496372Y-600650D02*
X1524943Y-600650D01*
X1524943Y-600650D02*
X1543991Y-610174D01*
X1543991Y-610174D02*
X1553515Y-629222D01*
X1553515Y-629222D02*
X1553515Y-733984D01*
X1943991Y-524460D02*
X1772563Y-781603D01*
X2201134Y-533984D02*
X2220182Y-533984D01*
X2220182Y-533984D02*
X2239229Y-543508D01*
X2239229Y-543508D02*
X2248753Y-553031D01*
X2248753Y-553031D02*
X2258277Y-572079D01*
X2258277Y-572079D02*
X2267801Y-610174D01*
X2267801Y-610174D02*
X2267801Y-657793D01*
X2267801Y-657793D02*
X2258277Y-695889D01*
X2258277Y-695889D02*
X2248753Y-714936D01*
X2248753Y-714936D02*
X2239229Y-724460D01*
X2239229Y-724460D02*
X2220182Y-733984D01*
X2220182Y-733984D02*
X2201134Y-733984D01*
X2201134Y-733984D02*
X2182087Y-724460D01*
X2182087Y-724460D02*
X2172563Y-714936D01*
X2172563Y-714936D02*
X2163039Y-695889D01*
X2163039Y-695889D02*
X2153515Y-657793D01*
X2153515Y-657793D02*
X2153515Y-610174D01*
X2153515Y-610174D02*
X2163039Y-572079D01*
X2163039Y-572079D02*
X2172563Y-553031D01*
X2172563Y-553031D02*
X2182087Y-543508D01*
X2182087Y-543508D02*
X2201134Y-533984D01*
X2353515Y-714936D02*
X2363039Y-724460D01*
X2363039Y-724460D02*
X2353515Y-733984D01*
X2353515Y-733984D02*
X2343991Y-724460D01*
X2343991Y-724460D02*
X2353515Y-714936D01*
X2353515Y-714936D02*
X2353515Y-733984D01*
X2486848Y-533984D02*
X2505896Y-533984D01*
X2505896Y-533984D02*
X2524944Y-543508D01*
X2524944Y-543508D02*
X2534468Y-553031D01*
X2534468Y-553031D02*
X2543991Y-572079D01*
X2543991Y-572079D02*
X2553515Y-610174D01*
X2553515Y-610174D02*
X2553515Y-657793D01*
X2553515Y-657793D02*
X2543991Y-695889D01*
X2543991Y-695889D02*
X2534468Y-714936D01*
X2534468Y-714936D02*
X2524944Y-724460D01*
X2524944Y-724460D02*
X2505896Y-733984D01*
X2505896Y-733984D02*
X2486848Y-733984D01*
X2486848Y-733984D02*
X2467801Y-724460D01*
X2467801Y-724460D02*
X2458277Y-714936D01*
X2458277Y-714936D02*
X2448753Y-695889D01*
X2448753Y-695889D02*
X2439229Y-657793D01*
X2439229Y-657793D02*
X2439229Y-610174D01*
X2439229Y-610174D02*
X2448753Y-572079D01*
X2448753Y-572079D02*
X2458277Y-553031D01*
X2458277Y-553031D02*
X2467801Y-543508D01*
X2467801Y-543508D02*
X2486848Y-533984D01*
X2677325Y-533984D02*
X2696372Y-533984D01*
X2696372Y-533984D02*
X2715420Y-543508D01*
X2715420Y-543508D02*
X2724944Y-553031D01*
X2724944Y-553031D02*
X2734468Y-572079D01*
X2734468Y-572079D02*
X2743991Y-610174D01*
X2743991Y-610174D02*
X2743991Y-657793D01*
X2743991Y-657793D02*
X2734468Y-695889D01*
X2734468Y-695889D02*
X2724944Y-714936D01*
X2724944Y-714936D02*
X2715420Y-724460D01*
X2715420Y-724460D02*
X2696372Y-733984D01*
X2696372Y-733984D02*
X2677325Y-733984D01*
X2677325Y-733984D02*
X2658277Y-724460D01*
X2658277Y-724460D02*
X2648753Y-714936D01*
X2648753Y-714936D02*
X2639229Y-695889D01*
X2639229Y-695889D02*
X2629706Y-657793D01*
X2629706Y-657793D02*
X2629706Y-610174D01*
X2629706Y-610174D02*
X2639229Y-572079D01*
X2639229Y-572079D02*
X2648753Y-553031D01*
X2648753Y-553031D02*
X2658277Y-543508D01*
X2658277Y-543508D02*
X2677325Y-533984D01*
X2839229Y-733984D02*
X2877325Y-733984D01*
X2877325Y-733984D02*
X2896372Y-724460D01*
X2896372Y-724460D02*
X2905896Y-714936D01*
X2905896Y-714936D02*
X2924944Y-686365D01*
X2924944Y-686365D02*
X2934467Y-648270D01*
X2934467Y-648270D02*
X2934467Y-572079D01*
X2934467Y-572079D02*
X2924944Y-553031D01*
X2924944Y-553031D02*
X2915420Y-543508D01*
X2915420Y-543508D02*
X2896372Y-533984D01*
X2896372Y-533984D02*
X2858277Y-533984D01*
X2858277Y-533984D02*
X2839229Y-543508D01*
X2839229Y-543508D02*
X2829706Y-553031D01*
X2829706Y-553031D02*
X2820182Y-572079D01*
X2820182Y-572079D02*
X2820182Y-619698D01*
X2820182Y-619698D02*
X2829706Y-638746D01*
X2829706Y-638746D02*
X2839229Y-648270D01*
X2839229Y-648270D02*
X2858277Y-657793D01*
X2858277Y-657793D02*
X2896372Y-657793D01*
X2896372Y-657793D02*
X2915420Y-648270D01*
X2915420Y-648270D02*
X2924944Y-638746D01*
X2924944Y-638746D02*
X2934467Y-619698D01*
X3048753Y-619698D02*
X3029706Y-610174D01*
X3029706Y-610174D02*
X3020182Y-600650D01*
X3020182Y-600650D02*
X3010658Y-581603D01*
X3010658Y-581603D02*
X3010658Y-572079D01*
X3010658Y-572079D02*
X3020182Y-553031D01*
X3020182Y-553031D02*
X3029706Y-543508D01*
X3029706Y-543508D02*
X3048753Y-533984D01*
X3048753Y-533984D02*
X3086848Y-533984D01*
X3086848Y-533984D02*
X3105896Y-543508D01*
X3105896Y-543508D02*
X3115420Y-553031D01*
X3115420Y-553031D02*
X3124944Y-572079D01*
X3124944Y-572079D02*
X3124944Y-581603D01*
X3124944Y-581603D02*
X3115420Y-600650D01*
X3115420Y-600650D02*
X3105896Y-610174D01*
X3105896Y-610174D02*
X3086848Y-619698D01*
X3086848Y-619698D02*
X3048753Y-619698D01*
X3048753Y-619698D02*
X3029706Y-629222D01*
X3029706Y-629222D02*
X3020182Y-638746D01*
X3020182Y-638746D02*
X3010658Y-657793D01*
X3010658Y-657793D02*
X3010658Y-695889D01*
X3010658Y-695889D02*
X3020182Y-714936D01*
X3020182Y-714936D02*
X3029706Y-724460D01*
X3029706Y-724460D02*
X3048753Y-733984D01*
X3048753Y-733984D02*
X3086848Y-733984D01*
X3086848Y-733984D02*
X3105896Y-724460D01*
X3105896Y-724460D02*
X3115420Y-714936D01*
X3115420Y-714936D02*
X3124944Y-695889D01*
X3124944Y-695889D02*
X3124944Y-657793D01*
X3124944Y-657793D02*
X3115420Y-638746D01*
X3115420Y-638746D02*
X3105896Y-629222D01*
X3105896Y-629222D02*
X3086848Y-619698D01*
X3201134Y-533984D02*
X3201134Y-572079D01*
X3277325Y-533984D02*
X3277325Y-572079D01*
X3572563Y-810174D02*
X3563039Y-800650D01*
X3563039Y-800650D02*
X3543991Y-772079D01*
X3543991Y-772079D02*
X3534468Y-753031D01*
X3534468Y-753031D02*
X3524944Y-724460D01*
X3524944Y-724460D02*
X3515420Y-676841D01*
X3515420Y-676841D02*
X3515420Y-638746D01*
X3515420Y-638746D02*
X3524944Y-591127D01*
X3524944Y-591127D02*
X3534468Y-562555D01*
X3534468Y-562555D02*
X3543991Y-543508D01*
X3543991Y-543508D02*
X3563039Y-514936D01*
X3563039Y-514936D02*
X3572563Y-505412D01*
X3753515Y-733984D02*
X3639229Y-733984D01*
X3696372Y-733984D02*
X3696372Y-533984D01*
X3696372Y-533984D02*
X3677325Y-562555D01*
X3677325Y-562555D02*
X3658277Y-581603D01*
X3658277Y-581603D02*
X3639229Y-591127D01*
X3829706Y-553031D02*
X3839229Y-543508D01*
X3839229Y-543508D02*
X3858277Y-533984D01*
X3858277Y-533984D02*
X3905896Y-533984D01*
X3905896Y-533984D02*
X3924944Y-543508D01*
X3924944Y-543508D02*
X3934468Y-553031D01*
X3934468Y-553031D02*
X3943991Y-572079D01*
X3943991Y-572079D02*
X3943991Y-591127D01*
X3943991Y-591127D02*
X3934468Y-619698D01*
X3934468Y-619698D02*
X3820182Y-733984D01*
X3820182Y-733984D02*
X3943991Y-733984D01*
X4010658Y-533984D02*
X4143991Y-533984D01*
X4143991Y-533984D02*
X4058277Y-733984D01*
X4372563Y-733984D02*
X4372563Y-533984D01*
X4458277Y-733984D02*
X4458277Y-629222D01*
X4458277Y-629222D02*
X4448753Y-610174D01*
X4448753Y-610174D02*
X4429706Y-600650D01*
X4429706Y-600650D02*
X4401134Y-600650D01*
X4401134Y-600650D02*
X4382087Y-610174D01*
X4382087Y-610174D02*
X4372563Y-619698D01*
X4582087Y-733984D02*
X4563039Y-724460D01*
X4563039Y-724460D02*
X4553515Y-714936D01*
X4553515Y-714936D02*
X4543992Y-695889D01*
X4543992Y-695889D02*
X4543992Y-638746D01*
X4543992Y-638746D02*
X4553515Y-619698D01*
X4553515Y-619698D02*
X4563039Y-610174D01*
X4563039Y-610174D02*
X4582087Y-600650D01*
X4582087Y-600650D02*
X4610658Y-600650D01*
X4610658Y-600650D02*
X4629706Y-610174D01*
X4629706Y-610174D02*
X4639230Y-619698D01*
X4639230Y-619698D02*
X4648753Y-638746D01*
X4648753Y-638746D02*
X4648753Y-695889D01*
X4648753Y-695889D02*
X4639230Y-714936D01*
X4639230Y-714936D02*
X4629706Y-724460D01*
X4629706Y-724460D02*
X4610658Y-733984D01*
X4610658Y-733984D02*
X4582087Y-733984D01*
X4763039Y-733984D02*
X4743992Y-724460D01*
X4743992Y-724460D02*
X4734468Y-705412D01*
X4734468Y-705412D02*
X4734468Y-533984D01*
X4915420Y-724460D02*
X4896373Y-733984D01*
X4896373Y-733984D02*
X4858277Y-733984D01*
X4858277Y-733984D02*
X4839230Y-724460D01*
X4839230Y-724460D02*
X4829706Y-705412D01*
X4829706Y-705412D02*
X4829706Y-629222D01*
X4829706Y-629222D02*
X4839230Y-610174D01*
X4839230Y-610174D02*
X4858277Y-600650D01*
X4858277Y-600650D02*
X4896373Y-600650D01*
X4896373Y-600650D02*
X4915420Y-610174D01*
X4915420Y-610174D02*
X4924944Y-629222D01*
X4924944Y-629222D02*
X4924944Y-648270D01*
X4924944Y-648270D02*
X4829706Y-667317D01*
X5001134Y-724460D02*
X5020182Y-733984D01*
X5020182Y-733984D02*
X5058277Y-733984D01*
X5058277Y-733984D02*
X5077325Y-724460D01*
X5077325Y-724460D02*
X5086849Y-705412D01*
X5086849Y-705412D02*
X5086849Y-695889D01*
X5086849Y-695889D02*
X5077325Y-676841D01*
X5077325Y-676841D02*
X5058277Y-667317D01*
X5058277Y-667317D02*
X5029706Y-667317D01*
X5029706Y-667317D02*
X5010658Y-657793D01*
X5010658Y-657793D02*
X5001134Y-638746D01*
X5001134Y-638746D02*
X5001134Y-629222D01*
X5001134Y-629222D02*
X5010658Y-610174D01*
X5010658Y-610174D02*
X5029706Y-600650D01*
X5029706Y-600650D02*
X5058277Y-600650D01*
X5058277Y-600650D02*
X5077325Y-610174D01*
X5153515Y-810174D02*
X5163039Y-800650D01*
X5163039Y-800650D02*
X5182087Y-772079D01*
X5182087Y-772079D02*
X5191611Y-753031D01*
X5191611Y-753031D02*
X5201134Y-724460D01*
X5201134Y-724460D02*
X5210658Y-676841D01*
X5210658Y-676841D02*
X5210658Y-638746D01*
X5210658Y-638746D02*
X5201134Y-591127D01*
X5201134Y-591127D02*
X5191611Y-562555D01*
X5191611Y-562555D02*
X5182087Y-543508D01*
X5182087Y-543508D02*
X5163039Y-514936D01*
X5163039Y-514936D02*
X5153515Y-505412D01*
D12*
X-2500Y-906500D02*
G75*
G02*
X-52500Y-906500I-25000J0D01*
G01*
X-52500Y-906500D02*
G75*
G02*
X-2500Y-906500I25000J0D01*
G01*
D11*
X296372Y-797984D02*
X315420Y-797984D01*
X315420Y-797984D02*
X334467Y-807508D01*
X334467Y-807508D02*
X343991Y-817031D01*
X343991Y-817031D02*
X353515Y-836079D01*
X353515Y-836079D02*
X363039Y-874174D01*
X363039Y-874174D02*
X363039Y-921793D01*
X363039Y-921793D02*
X353515Y-959888D01*
X353515Y-959888D02*
X343991Y-978936D01*
X343991Y-978936D02*
X334467Y-988460D01*
X334467Y-988460D02*
X315420Y-997984D01*
X315420Y-997984D02*
X296372Y-997984D01*
X296372Y-997984D02*
X277324Y-988460D01*
X277324Y-988460D02*
X267801Y-978936D01*
X267801Y-978936D02*
X258277Y-959888D01*
X258277Y-959888D02*
X248753Y-921793D01*
X248753Y-921793D02*
X248753Y-874174D01*
X248753Y-874174D02*
X258277Y-836079D01*
X258277Y-836079D02*
X267801Y-817031D01*
X267801Y-817031D02*
X277324Y-807508D01*
X277324Y-807508D02*
X296372Y-797984D01*
X448753Y-978936D02*
X458277Y-988460D01*
X458277Y-988460D02*
X448753Y-997984D01*
X448753Y-997984D02*
X439229Y-988460D01*
X439229Y-988460D02*
X448753Y-978936D01*
X448753Y-978936D02*
X448753Y-997984D01*
X639229Y-797984D02*
X543991Y-797984D01*
X543991Y-797984D02*
X534467Y-893222D01*
X534467Y-893222D02*
X543991Y-883698D01*
X543991Y-883698D02*
X563039Y-874174D01*
X563039Y-874174D02*
X610658Y-874174D01*
X610658Y-874174D02*
X629705Y-883698D01*
X629705Y-883698D02*
X639229Y-893222D01*
X639229Y-893222D02*
X648753Y-912269D01*
X648753Y-912269D02*
X648753Y-959888D01*
X648753Y-959888D02*
X639229Y-978936D01*
X639229Y-978936D02*
X629705Y-988460D01*
X629705Y-988460D02*
X610658Y-997984D01*
X610658Y-997984D02*
X563039Y-997984D01*
X563039Y-997984D02*
X543991Y-988460D01*
X543991Y-988460D02*
X534467Y-978936D01*
X772562Y-797984D02*
X791610Y-797984D01*
X791610Y-797984D02*
X810658Y-807508D01*
X810658Y-807508D02*
X820182Y-817031D01*
X820182Y-817031D02*
X829705Y-836079D01*
X829705Y-836079D02*
X839229Y-874174D01*
X839229Y-874174D02*
X839229Y-921793D01*
X839229Y-921793D02*
X829705Y-959888D01*
X829705Y-959888D02*
X820182Y-978936D01*
X820182Y-978936D02*
X810658Y-988460D01*
X810658Y-988460D02*
X791610Y-997984D01*
X791610Y-997984D02*
X772562Y-997984D01*
X772562Y-997984D02*
X753515Y-988460D01*
X753515Y-988460D02*
X743991Y-978936D01*
X743991Y-978936D02*
X734467Y-959888D01*
X734467Y-959888D02*
X724943Y-921793D01*
X724943Y-921793D02*
X724943Y-874174D01*
X724943Y-874174D02*
X734467Y-836079D01*
X734467Y-836079D02*
X743991Y-817031D01*
X743991Y-817031D02*
X753515Y-807508D01*
X753515Y-807508D02*
X772562Y-797984D01*
X963039Y-797984D02*
X982086Y-797984D01*
X982086Y-797984D02*
X1001134Y-807508D01*
X1001134Y-807508D02*
X1010658Y-817031D01*
X1010658Y-817031D02*
X1020182Y-836079D01*
X1020182Y-836079D02*
X1029705Y-874174D01*
X1029705Y-874174D02*
X1029705Y-921793D01*
X1029705Y-921793D02*
X1020182Y-959888D01*
X1020182Y-959888D02*
X1010658Y-978936D01*
X1010658Y-978936D02*
X1001134Y-988460D01*
X1001134Y-988460D02*
X982086Y-997984D01*
X982086Y-997984D02*
X963039Y-997984D01*
X963039Y-997984D02*
X943991Y-988460D01*
X943991Y-988460D02*
X934467Y-978936D01*
X934467Y-978936D02*
X924943Y-959888D01*
X924943Y-959888D02*
X915420Y-921793D01*
X915420Y-921793D02*
X915420Y-874174D01*
X915420Y-874174D02*
X924943Y-836079D01*
X924943Y-836079D02*
X934467Y-817031D01*
X934467Y-817031D02*
X943991Y-807508D01*
X943991Y-807508D02*
X963039Y-797984D01*
X1115420Y-997984D02*
X1115420Y-864650D01*
X1115420Y-883698D02*
X1124944Y-874174D01*
X1124944Y-874174D02*
X1143991Y-864650D01*
X1143991Y-864650D02*
X1172563Y-864650D01*
X1172563Y-864650D02*
X1191610Y-874174D01*
X1191610Y-874174D02*
X1201134Y-893222D01*
X1201134Y-893222D02*
X1201134Y-997984D01*
X1201134Y-893222D02*
X1210658Y-874174D01*
X1210658Y-874174D02*
X1229705Y-864650D01*
X1229705Y-864650D02*
X1258277Y-864650D01*
X1258277Y-864650D02*
X1277325Y-874174D01*
X1277325Y-874174D02*
X1286848Y-893222D01*
X1286848Y-893222D02*
X1286848Y-997984D01*
X1382086Y-997984D02*
X1382086Y-864650D01*
X1382086Y-883698D02*
X1391610Y-874174D01*
X1391610Y-874174D02*
X1410658Y-864650D01*
X1410658Y-864650D02*
X1439229Y-864650D01*
X1439229Y-864650D02*
X1458277Y-874174D01*
X1458277Y-874174D02*
X1467801Y-893222D01*
X1467801Y-893222D02*
X1467801Y-997984D01*
X1467801Y-893222D02*
X1477324Y-874174D01*
X1477324Y-874174D02*
X1496372Y-864650D01*
X1496372Y-864650D02*
X1524943Y-864650D01*
X1524943Y-864650D02*
X1543991Y-874174D01*
X1543991Y-874174D02*
X1553515Y-893222D01*
X1553515Y-893222D02*
X1553515Y-997984D01*
X1943991Y-788460D02*
X1772563Y-1045603D01*
X2201134Y-797984D02*
X2220182Y-797984D01*
X2220182Y-797984D02*
X2239229Y-807508D01*
X2239229Y-807508D02*
X2248753Y-817031D01*
X2248753Y-817031D02*
X2258277Y-836079D01*
X2258277Y-836079D02*
X2267801Y-874174D01*
X2267801Y-874174D02*
X2267801Y-921793D01*
X2267801Y-921793D02*
X2258277Y-959888D01*
X2258277Y-959888D02*
X2248753Y-978936D01*
X2248753Y-978936D02*
X2239229Y-988460D01*
X2239229Y-988460D02*
X2220182Y-997984D01*
X2220182Y-997984D02*
X2201134Y-997984D01*
X2201134Y-997984D02*
X2182087Y-988460D01*
X2182087Y-988460D02*
X2172563Y-978936D01*
X2172563Y-978936D02*
X2163039Y-959888D01*
X2163039Y-959888D02*
X2153515Y-921793D01*
X2153515Y-921793D02*
X2153515Y-874174D01*
X2153515Y-874174D02*
X2163039Y-836079D01*
X2163039Y-836079D02*
X2172563Y-817031D01*
X2172563Y-817031D02*
X2182087Y-807508D01*
X2182087Y-807508D02*
X2201134Y-797984D01*
X2353515Y-978936D02*
X2363039Y-988460D01*
X2363039Y-988460D02*
X2353515Y-997984D01*
X2353515Y-997984D02*
X2343991Y-988460D01*
X2343991Y-988460D02*
X2353515Y-978936D01*
X2353515Y-978936D02*
X2353515Y-997984D01*
X2486848Y-797984D02*
X2505896Y-797984D01*
X2505896Y-797984D02*
X2524944Y-807508D01*
X2524944Y-807508D02*
X2534468Y-817031D01*
X2534468Y-817031D02*
X2543991Y-836079D01*
X2543991Y-836079D02*
X2553515Y-874174D01*
X2553515Y-874174D02*
X2553515Y-921793D01*
X2553515Y-921793D02*
X2543991Y-959888D01*
X2543991Y-959888D02*
X2534468Y-978936D01*
X2534468Y-978936D02*
X2524944Y-988460D01*
X2524944Y-988460D02*
X2505896Y-997984D01*
X2505896Y-997984D02*
X2486848Y-997984D01*
X2486848Y-997984D02*
X2467801Y-988460D01*
X2467801Y-988460D02*
X2458277Y-978936D01*
X2458277Y-978936D02*
X2448753Y-959888D01*
X2448753Y-959888D02*
X2439229Y-921793D01*
X2439229Y-921793D02*
X2439229Y-874174D01*
X2439229Y-874174D02*
X2448753Y-836079D01*
X2448753Y-836079D02*
X2458277Y-817031D01*
X2458277Y-817031D02*
X2467801Y-807508D01*
X2467801Y-807508D02*
X2486848Y-797984D01*
X2743991Y-997984D02*
X2629706Y-997984D01*
X2686848Y-997984D02*
X2686848Y-797984D01*
X2686848Y-797984D02*
X2667801Y-826555D01*
X2667801Y-826555D02*
X2648753Y-845603D01*
X2648753Y-845603D02*
X2629706Y-855127D01*
X2839229Y-997984D02*
X2877325Y-997984D01*
X2877325Y-997984D02*
X2896372Y-988460D01*
X2896372Y-988460D02*
X2905896Y-978936D01*
X2905896Y-978936D02*
X2924944Y-950365D01*
X2924944Y-950365D02*
X2934467Y-912269D01*
X2934467Y-912269D02*
X2934467Y-836079D01*
X2934467Y-836079D02*
X2924944Y-817031D01*
X2924944Y-817031D02*
X2915420Y-807508D01*
X2915420Y-807508D02*
X2896372Y-797984D01*
X2896372Y-797984D02*
X2858277Y-797984D01*
X2858277Y-797984D02*
X2839229Y-807508D01*
X2839229Y-807508D02*
X2829706Y-817031D01*
X2829706Y-817031D02*
X2820182Y-836079D01*
X2820182Y-836079D02*
X2820182Y-883698D01*
X2820182Y-883698D02*
X2829706Y-902746D01*
X2829706Y-902746D02*
X2839229Y-912269D01*
X2839229Y-912269D02*
X2858277Y-921793D01*
X2858277Y-921793D02*
X2896372Y-921793D01*
X2896372Y-921793D02*
X2915420Y-912269D01*
X2915420Y-912269D02*
X2924944Y-902746D01*
X2924944Y-902746D02*
X2934467Y-883698D01*
X3001134Y-797984D02*
X3134467Y-797984D01*
X3134467Y-797984D02*
X3048753Y-997984D01*
X3201134Y-797984D02*
X3201134Y-836079D01*
X3277325Y-797984D02*
X3277325Y-836079D01*
X3572563Y-1074174D02*
X3563039Y-1064650D01*
X3563039Y-1064650D02*
X3543991Y-1036079D01*
X3543991Y-1036079D02*
X3534468Y-1017031D01*
X3534468Y-1017031D02*
X3524944Y-988460D01*
X3524944Y-988460D02*
X3515420Y-940841D01*
X3515420Y-940841D02*
X3515420Y-902746D01*
X3515420Y-902746D02*
X3524944Y-855127D01*
X3524944Y-855127D02*
X3534468Y-826555D01*
X3534468Y-826555D02*
X3543991Y-807508D01*
X3543991Y-807508D02*
X3563039Y-778936D01*
X3563039Y-778936D02*
X3572563Y-769412D01*
X3629706Y-797984D02*
X3753515Y-797984D01*
X3753515Y-797984D02*
X3686848Y-874174D01*
X3686848Y-874174D02*
X3715420Y-874174D01*
X3715420Y-874174D02*
X3734468Y-883698D01*
X3734468Y-883698D02*
X3743991Y-893222D01*
X3743991Y-893222D02*
X3753515Y-912269D01*
X3753515Y-912269D02*
X3753515Y-959888D01*
X3753515Y-959888D02*
X3743991Y-978936D01*
X3743991Y-978936D02*
X3734468Y-988460D01*
X3734468Y-988460D02*
X3715420Y-997984D01*
X3715420Y-997984D02*
X3658277Y-997984D01*
X3658277Y-997984D02*
X3639229Y-988460D01*
X3639229Y-988460D02*
X3629706Y-978936D01*
X3829706Y-817031D02*
X3839229Y-807508D01*
X3839229Y-807508D02*
X3858277Y-797984D01*
X3858277Y-797984D02*
X3905896Y-797984D01*
X3905896Y-797984D02*
X3924944Y-807508D01*
X3924944Y-807508D02*
X3934468Y-817031D01*
X3934468Y-817031D02*
X3943991Y-836079D01*
X3943991Y-836079D02*
X3943991Y-855127D01*
X3943991Y-855127D02*
X3934468Y-883698D01*
X3934468Y-883698D02*
X3820182Y-997984D01*
X3820182Y-997984D02*
X3943991Y-997984D01*
X4182087Y-997984D02*
X4182087Y-797984D01*
X4267801Y-997984D02*
X4267801Y-893222D01*
X4267801Y-893222D02*
X4258277Y-874174D01*
X4258277Y-874174D02*
X4239230Y-864650D01*
X4239230Y-864650D02*
X4210658Y-864650D01*
X4210658Y-864650D02*
X4191610Y-874174D01*
X4191610Y-874174D02*
X4182087Y-883698D01*
X4391611Y-997984D02*
X4372563Y-988460D01*
X4372563Y-988460D02*
X4363039Y-978936D01*
X4363039Y-978936D02*
X4353515Y-959888D01*
X4353515Y-959888D02*
X4353515Y-902746D01*
X4353515Y-902746D02*
X4363039Y-883698D01*
X4363039Y-883698D02*
X4372563Y-874174D01*
X4372563Y-874174D02*
X4391611Y-864650D01*
X4391611Y-864650D02*
X4420182Y-864650D01*
X4420182Y-864650D02*
X4439230Y-874174D01*
X4439230Y-874174D02*
X4448753Y-883698D01*
X4448753Y-883698D02*
X4458277Y-902746D01*
X4458277Y-902746D02*
X4458277Y-959888D01*
X4458277Y-959888D02*
X4448753Y-978936D01*
X4448753Y-978936D02*
X4439230Y-988460D01*
X4439230Y-988460D02*
X4420182Y-997984D01*
X4420182Y-997984D02*
X4391611Y-997984D01*
X4572563Y-997984D02*
X4553515Y-988460D01*
X4553515Y-988460D02*
X4543992Y-969412D01*
X4543992Y-969412D02*
X4543992Y-797984D01*
X4724944Y-988460D02*
X4705896Y-997984D01*
X4705896Y-997984D02*
X4667801Y-997984D01*
X4667801Y-997984D02*
X4648753Y-988460D01*
X4648753Y-988460D02*
X4639230Y-969412D01*
X4639230Y-969412D02*
X4639230Y-893222D01*
X4639230Y-893222D02*
X4648753Y-874174D01*
X4648753Y-874174D02*
X4667801Y-864650D01*
X4667801Y-864650D02*
X4705896Y-864650D01*
X4705896Y-864650D02*
X4724944Y-874174D01*
X4724944Y-874174D02*
X4734468Y-893222D01*
X4734468Y-893222D02*
X4734468Y-912269D01*
X4734468Y-912269D02*
X4639230Y-931317D01*
X4810658Y-988460D02*
X4829706Y-997984D01*
X4829706Y-997984D02*
X4867801Y-997984D01*
X4867801Y-997984D02*
X4886849Y-988460D01*
X4886849Y-988460D02*
X4896373Y-969412D01*
X4896373Y-969412D02*
X4896373Y-959888D01*
X4896373Y-959888D02*
X4886849Y-940841D01*
X4886849Y-940841D02*
X4867801Y-931317D01*
X4867801Y-931317D02*
X4839230Y-931317D01*
X4839230Y-931317D02*
X4820182Y-921793D01*
X4820182Y-921793D02*
X4810658Y-902746D01*
X4810658Y-902746D02*
X4810658Y-893222D01*
X4810658Y-893222D02*
X4820182Y-874174D01*
X4820182Y-874174D02*
X4839230Y-864650D01*
X4839230Y-864650D02*
X4867801Y-864650D01*
X4867801Y-864650D02*
X4886849Y-874174D01*
X4963039Y-1074174D02*
X4972563Y-1064650D01*
X4972563Y-1064650D02*
X4991611Y-1036079D01*
X4991611Y-1036079D02*
X5001134Y-1017031D01*
X5001134Y-1017031D02*
X5010658Y-988460D01*
X5010658Y-988460D02*
X5020182Y-940841D01*
X5020182Y-940841D02*
X5020182Y-902746D01*
X5020182Y-902746D02*
X5010658Y-855127D01*
X5010658Y-855127D02*
X5001134Y-826555D01*
X5001134Y-826555D02*
X4991611Y-807508D01*
X4991611Y-807508D02*
X4972563Y-778936D01*
X4972563Y-778936D02*
X4963039Y-769412D01*
D13*
X-57110Y-1115890D02*
X-57110Y-1225110D01*
X-111720Y-1170500D02*
X-2500Y-1170500D01*
D11*
X363039Y-1261984D02*
X248753Y-1261984D01*
X305896Y-1261984D02*
X305896Y-1061984D01*
X305896Y-1061984D02*
X286848Y-1090555D01*
X286848Y-1090555D02*
X267801Y-1109603D01*
X267801Y-1109603D02*
X248753Y-1119127D01*
X448753Y-1242936D02*
X458277Y-1252460D01*
X458277Y-1252460D02*
X448753Y-1261984D01*
X448753Y-1261984D02*
X439229Y-1252460D01*
X439229Y-1252460D02*
X448753Y-1242936D01*
X448753Y-1242936D02*
X448753Y-1261984D01*
X582086Y-1061984D02*
X601134Y-1061984D01*
X601134Y-1061984D02*
X620182Y-1071508D01*
X620182Y-1071508D02*
X629705Y-1081031D01*
X629705Y-1081031D02*
X639229Y-1100079D01*
X639229Y-1100079D02*
X648753Y-1138174D01*
X648753Y-1138174D02*
X648753Y-1185793D01*
X648753Y-1185793D02*
X639229Y-1223889D01*
X639229Y-1223889D02*
X629705Y-1242936D01*
X629705Y-1242936D02*
X620182Y-1252460D01*
X620182Y-1252460D02*
X601134Y-1261984D01*
X601134Y-1261984D02*
X582086Y-1261984D01*
X582086Y-1261984D02*
X563039Y-1252460D01*
X563039Y-1252460D02*
X553515Y-1242936D01*
X553515Y-1242936D02*
X543991Y-1223889D01*
X543991Y-1223889D02*
X534467Y-1185793D01*
X534467Y-1185793D02*
X534467Y-1138174D01*
X534467Y-1138174D02*
X543991Y-1100079D01*
X543991Y-1100079D02*
X553515Y-1081031D01*
X553515Y-1081031D02*
X563039Y-1071508D01*
X563039Y-1071508D02*
X582086Y-1061984D01*
X743991Y-1261984D02*
X782086Y-1261984D01*
X782086Y-1261984D02*
X801134Y-1252460D01*
X801134Y-1252460D02*
X810658Y-1242936D01*
X810658Y-1242936D02*
X829705Y-1214365D01*
X829705Y-1214365D02*
X839229Y-1176270D01*
X839229Y-1176270D02*
X839229Y-1100079D01*
X839229Y-1100079D02*
X829705Y-1081031D01*
X829705Y-1081031D02*
X820182Y-1071508D01*
X820182Y-1071508D02*
X801134Y-1061984D01*
X801134Y-1061984D02*
X763039Y-1061984D01*
X763039Y-1061984D02*
X743991Y-1071508D01*
X743991Y-1071508D02*
X734467Y-1081031D01*
X734467Y-1081031D02*
X724943Y-1100079D01*
X724943Y-1100079D02*
X724943Y-1147698D01*
X724943Y-1147698D02*
X734467Y-1166746D01*
X734467Y-1166746D02*
X743991Y-1176270D01*
X743991Y-1176270D02*
X763039Y-1185793D01*
X763039Y-1185793D02*
X801134Y-1185793D01*
X801134Y-1185793D02*
X820182Y-1176270D01*
X820182Y-1176270D02*
X829705Y-1166746D01*
X829705Y-1166746D02*
X839229Y-1147698D01*
X915420Y-1081031D02*
X924943Y-1071508D01*
X924943Y-1071508D02*
X943991Y-1061984D01*
X943991Y-1061984D02*
X991610Y-1061984D01*
X991610Y-1061984D02*
X1010658Y-1071508D01*
X1010658Y-1071508D02*
X1020182Y-1081031D01*
X1020182Y-1081031D02*
X1029705Y-1100079D01*
X1029705Y-1100079D02*
X1029705Y-1119127D01*
X1029705Y-1119127D02*
X1020182Y-1147698D01*
X1020182Y-1147698D02*
X905896Y-1261984D01*
X905896Y-1261984D02*
X1029705Y-1261984D01*
X1115420Y-1261984D02*
X1115420Y-1128650D01*
X1115420Y-1147698D02*
X1124944Y-1138174D01*
X1124944Y-1138174D02*
X1143991Y-1128650D01*
X1143991Y-1128650D02*
X1172563Y-1128650D01*
X1172563Y-1128650D02*
X1191610Y-1138174D01*
X1191610Y-1138174D02*
X1201134Y-1157222D01*
X1201134Y-1157222D02*
X1201134Y-1261984D01*
X1201134Y-1157222D02*
X1210658Y-1138174D01*
X1210658Y-1138174D02*
X1229705Y-1128650D01*
X1229705Y-1128650D02*
X1258277Y-1128650D01*
X1258277Y-1128650D02*
X1277325Y-1138174D01*
X1277325Y-1138174D02*
X1286848Y-1157222D01*
X1286848Y-1157222D02*
X1286848Y-1261984D01*
X1382086Y-1261984D02*
X1382086Y-1128650D01*
X1382086Y-1147698D02*
X1391610Y-1138174D01*
X1391610Y-1138174D02*
X1410658Y-1128650D01*
X1410658Y-1128650D02*
X1439229Y-1128650D01*
X1439229Y-1128650D02*
X1458277Y-1138174D01*
X1458277Y-1138174D02*
X1467801Y-1157222D01*
X1467801Y-1157222D02*
X1467801Y-1261984D01*
X1467801Y-1157222D02*
X1477324Y-1138174D01*
X1477324Y-1138174D02*
X1496372Y-1128650D01*
X1496372Y-1128650D02*
X1524943Y-1128650D01*
X1524943Y-1128650D02*
X1543991Y-1138174D01*
X1543991Y-1138174D02*
X1553515Y-1157222D01*
X1553515Y-1157222D02*
X1553515Y-1261984D01*
X1943991Y-1052460D02*
X1772563Y-1309603D01*
X2201134Y-1061984D02*
X2220182Y-1061984D01*
X2220182Y-1061984D02*
X2239229Y-1071508D01*
X2239229Y-1071508D02*
X2248753Y-1081031D01*
X2248753Y-1081031D02*
X2258277Y-1100079D01*
X2258277Y-1100079D02*
X2267801Y-1138174D01*
X2267801Y-1138174D02*
X2267801Y-1185793D01*
X2267801Y-1185793D02*
X2258277Y-1223889D01*
X2258277Y-1223889D02*
X2248753Y-1242936D01*
X2248753Y-1242936D02*
X2239229Y-1252460D01*
X2239229Y-1252460D02*
X2220182Y-1261984D01*
X2220182Y-1261984D02*
X2201134Y-1261984D01*
X2201134Y-1261984D02*
X2182087Y-1252460D01*
X2182087Y-1252460D02*
X2172563Y-1242936D01*
X2172563Y-1242936D02*
X2163039Y-1223889D01*
X2163039Y-1223889D02*
X2153515Y-1185793D01*
X2153515Y-1185793D02*
X2153515Y-1138174D01*
X2153515Y-1138174D02*
X2163039Y-1100079D01*
X2163039Y-1100079D02*
X2172563Y-1081031D01*
X2172563Y-1081031D02*
X2182087Y-1071508D01*
X2182087Y-1071508D02*
X2201134Y-1061984D01*
X2353515Y-1242936D02*
X2363039Y-1252460D01*
X2363039Y-1252460D02*
X2353515Y-1261984D01*
X2353515Y-1261984D02*
X2343991Y-1252460D01*
X2343991Y-1252460D02*
X2353515Y-1242936D01*
X2353515Y-1242936D02*
X2353515Y-1261984D01*
X2486848Y-1061984D02*
X2505896Y-1061984D01*
X2505896Y-1061984D02*
X2524944Y-1071508D01*
X2524944Y-1071508D02*
X2534468Y-1081031D01*
X2534468Y-1081031D02*
X2543991Y-1100079D01*
X2543991Y-1100079D02*
X2553515Y-1138174D01*
X2553515Y-1138174D02*
X2553515Y-1185793D01*
X2553515Y-1185793D02*
X2543991Y-1223889D01*
X2543991Y-1223889D02*
X2534468Y-1242936D01*
X2534468Y-1242936D02*
X2524944Y-1252460D01*
X2524944Y-1252460D02*
X2505896Y-1261984D01*
X2505896Y-1261984D02*
X2486848Y-1261984D01*
X2486848Y-1261984D02*
X2467801Y-1252460D01*
X2467801Y-1252460D02*
X2458277Y-1242936D01*
X2458277Y-1242936D02*
X2448753Y-1223889D01*
X2448753Y-1223889D02*
X2439229Y-1185793D01*
X2439229Y-1185793D02*
X2439229Y-1138174D01*
X2439229Y-1138174D02*
X2448753Y-1100079D01*
X2448753Y-1100079D02*
X2458277Y-1081031D01*
X2458277Y-1081031D02*
X2467801Y-1071508D01*
X2467801Y-1071508D02*
X2486848Y-1061984D01*
X2724944Y-1128650D02*
X2724944Y-1261984D01*
X2677325Y-1052460D02*
X2629706Y-1195317D01*
X2629706Y-1195317D02*
X2753515Y-1195317D01*
X2810658Y-1061984D02*
X2934467Y-1061984D01*
X2934467Y-1061984D02*
X2867801Y-1138174D01*
X2867801Y-1138174D02*
X2896372Y-1138174D01*
X2896372Y-1138174D02*
X2915420Y-1147698D01*
X2915420Y-1147698D02*
X2924944Y-1157222D01*
X2924944Y-1157222D02*
X2934467Y-1176270D01*
X2934467Y-1176270D02*
X2934467Y-1223889D01*
X2934467Y-1223889D02*
X2924944Y-1242936D01*
X2924944Y-1242936D02*
X2915420Y-1252460D01*
X2915420Y-1252460D02*
X2896372Y-1261984D01*
X2896372Y-1261984D02*
X2839229Y-1261984D01*
X2839229Y-1261984D02*
X2820182Y-1252460D01*
X2820182Y-1252460D02*
X2810658Y-1242936D01*
X3058277Y-1061984D02*
X3077325Y-1061984D01*
X3077325Y-1061984D02*
X3096372Y-1071508D01*
X3096372Y-1071508D02*
X3105896Y-1081031D01*
X3105896Y-1081031D02*
X3115420Y-1100079D01*
X3115420Y-1100079D02*
X3124944Y-1138174D01*
X3124944Y-1138174D02*
X3124944Y-1185793D01*
X3124944Y-1185793D02*
X3115420Y-1223889D01*
X3115420Y-1223889D02*
X3105896Y-1242936D01*
X3105896Y-1242936D02*
X3096372Y-1252460D01*
X3096372Y-1252460D02*
X3077325Y-1261984D01*
X3077325Y-1261984D02*
X3058277Y-1261984D01*
X3058277Y-1261984D02*
X3039229Y-1252460D01*
X3039229Y-1252460D02*
X3029706Y-1242936D01*
X3029706Y-1242936D02*
X3020182Y-1223889D01*
X3020182Y-1223889D02*
X3010658Y-1185793D01*
X3010658Y-1185793D02*
X3010658Y-1138174D01*
X3010658Y-1138174D02*
X3020182Y-1100079D01*
X3020182Y-1100079D02*
X3029706Y-1081031D01*
X3029706Y-1081031D02*
X3039229Y-1071508D01*
X3039229Y-1071508D02*
X3058277Y-1061984D01*
X3201134Y-1061984D02*
X3201134Y-1100079D01*
X3277325Y-1061984D02*
X3277325Y-1100079D01*
X3572563Y-1338174D02*
X3563039Y-1328650D01*
X3563039Y-1328650D02*
X3543991Y-1300079D01*
X3543991Y-1300079D02*
X3534468Y-1281031D01*
X3534468Y-1281031D02*
X3524944Y-1252460D01*
X3524944Y-1252460D02*
X3515420Y-1204841D01*
X3515420Y-1204841D02*
X3515420Y-1166746D01*
X3515420Y-1166746D02*
X3524944Y-1119127D01*
X3524944Y-1119127D02*
X3534468Y-1090555D01*
X3534468Y-1090555D02*
X3543991Y-1071508D01*
X3543991Y-1071508D02*
X3563039Y-1042936D01*
X3563039Y-1042936D02*
X3572563Y-1033412D01*
X3639229Y-1081031D02*
X3648753Y-1071508D01*
X3648753Y-1071508D02*
X3667801Y-1061984D01*
X3667801Y-1061984D02*
X3715420Y-1061984D01*
X3715420Y-1061984D02*
X3734468Y-1071508D01*
X3734468Y-1071508D02*
X3743991Y-1081031D01*
X3743991Y-1081031D02*
X3753515Y-1100079D01*
X3753515Y-1100079D02*
X3753515Y-1119127D01*
X3753515Y-1119127D02*
X3743991Y-1147698D01*
X3743991Y-1147698D02*
X3629706Y-1261984D01*
X3629706Y-1261984D02*
X3753515Y-1261984D01*
X3924944Y-1061984D02*
X3886848Y-1061984D01*
X3886848Y-1061984D02*
X3867801Y-1071508D01*
X3867801Y-1071508D02*
X3858277Y-1081031D01*
X3858277Y-1081031D02*
X3839229Y-1109603D01*
X3839229Y-1109603D02*
X3829706Y-1147698D01*
X3829706Y-1147698D02*
X3829706Y-1223889D01*
X3829706Y-1223889D02*
X3839229Y-1242936D01*
X3839229Y-1242936D02*
X3848753Y-1252460D01*
X3848753Y-1252460D02*
X3867801Y-1261984D01*
X3867801Y-1261984D02*
X3905896Y-1261984D01*
X3905896Y-1261984D02*
X3924944Y-1252460D01*
X3924944Y-1252460D02*
X3934468Y-1242936D01*
X3934468Y-1242936D02*
X3943991Y-1223889D01*
X3943991Y-1223889D02*
X3943991Y-1176270D01*
X3943991Y-1176270D02*
X3934468Y-1157222D01*
X3934468Y-1157222D02*
X3924944Y-1147698D01*
X3924944Y-1147698D02*
X3905896Y-1138174D01*
X3905896Y-1138174D02*
X3867801Y-1138174D01*
X3867801Y-1138174D02*
X3848753Y-1147698D01*
X3848753Y-1147698D02*
X3839229Y-1157222D01*
X3839229Y-1157222D02*
X3829706Y-1176270D01*
X4182087Y-1261984D02*
X4182087Y-1061984D01*
X4267801Y-1261984D02*
X4267801Y-1157222D01*
X4267801Y-1157222D02*
X4258277Y-1138174D01*
X4258277Y-1138174D02*
X4239230Y-1128650D01*
X4239230Y-1128650D02*
X4210658Y-1128650D01*
X4210658Y-1128650D02*
X4191610Y-1138174D01*
X4191610Y-1138174D02*
X4182087Y-1147698D01*
X4391611Y-1261984D02*
X4372563Y-1252460D01*
X4372563Y-1252460D02*
X4363039Y-1242936D01*
X4363039Y-1242936D02*
X4353515Y-1223889D01*
X4353515Y-1223889D02*
X4353515Y-1166746D01*
X4353515Y-1166746D02*
X4363039Y-1147698D01*
X4363039Y-1147698D02*
X4372563Y-1138174D01*
X4372563Y-1138174D02*
X4391611Y-1128650D01*
X4391611Y-1128650D02*
X4420182Y-1128650D01*
X4420182Y-1128650D02*
X4439230Y-1138174D01*
X4439230Y-1138174D02*
X4448753Y-1147698D01*
X4448753Y-1147698D02*
X4458277Y-1166746D01*
X4458277Y-1166746D02*
X4458277Y-1223889D01*
X4458277Y-1223889D02*
X4448753Y-1242936D01*
X4448753Y-1242936D02*
X4439230Y-1252460D01*
X4439230Y-1252460D02*
X4420182Y-1261984D01*
X4420182Y-1261984D02*
X4391611Y-1261984D01*
X4572563Y-1261984D02*
X4553515Y-1252460D01*
X4553515Y-1252460D02*
X4543992Y-1233412D01*
X4543992Y-1233412D02*
X4543992Y-1061984D01*
X4724944Y-1252460D02*
X4705896Y-1261984D01*
X4705896Y-1261984D02*
X4667801Y-1261984D01*
X4667801Y-1261984D02*
X4648753Y-1252460D01*
X4648753Y-1252460D02*
X4639230Y-1233412D01*
X4639230Y-1233412D02*
X4639230Y-1157222D01*
X4639230Y-1157222D02*
X4648753Y-1138174D01*
X4648753Y-1138174D02*
X4667801Y-1128650D01*
X4667801Y-1128650D02*
X4705896Y-1128650D01*
X4705896Y-1128650D02*
X4724944Y-1138174D01*
X4724944Y-1138174D02*
X4734468Y-1157222D01*
X4734468Y-1157222D02*
X4734468Y-1176270D01*
X4734468Y-1176270D02*
X4639230Y-1195317D01*
X4810658Y-1252460D02*
X4829706Y-1261984D01*
X4829706Y-1261984D02*
X4867801Y-1261984D01*
X4867801Y-1261984D02*
X4886849Y-1252460D01*
X4886849Y-1252460D02*
X4896373Y-1233412D01*
X4896373Y-1233412D02*
X4896373Y-1223889D01*
X4896373Y-1223889D02*
X4886849Y-1204841D01*
X4886849Y-1204841D02*
X4867801Y-1195317D01*
X4867801Y-1195317D02*
X4839230Y-1195317D01*
X4839230Y-1195317D02*
X4820182Y-1185793D01*
X4820182Y-1185793D02*
X4810658Y-1166746D01*
X4810658Y-1166746D02*
X4810658Y-1157222D01*
X4810658Y-1157222D02*
X4820182Y-1138174D01*
X4820182Y-1138174D02*
X4839230Y-1128650D01*
X4839230Y-1128650D02*
X4867801Y-1128650D01*
X4867801Y-1128650D02*
X4886849Y-1138174D01*
X4963039Y-1338174D02*
X4972563Y-1328650D01*
X4972563Y-1328650D02*
X4991611Y-1300079D01*
X4991611Y-1300079D02*
X5001134Y-1281031D01*
X5001134Y-1281031D02*
X5010658Y-1252460D01*
X5010658Y-1252460D02*
X5020182Y-1204841D01*
X5020182Y-1204841D02*
X5020182Y-1166746D01*
X5020182Y-1166746D02*
X5010658Y-1119127D01*
X5010658Y-1119127D02*
X5001134Y-1090555D01*
X5001134Y-1090555D02*
X4991611Y-1071508D01*
X4991611Y-1071508D02*
X4972563Y-1042936D01*
X4972563Y-1042936D02*
X4963039Y-1033412D01*
D14*
X-18609Y-1473391D02*
X-18609Y-1395609D01*
X-96391Y-1395609D01*
X-96391Y-1473391D01*
X-18609Y-1473391D01*
D11*
X363039Y-1525984D02*
X248753Y-1525984D01*
X305896Y-1525984D02*
X305896Y-1325984D01*
X305896Y-1325984D02*
X286848Y-1354555D01*
X286848Y-1354555D02*
X267801Y-1373603D01*
X267801Y-1373603D02*
X248753Y-1383127D01*
X448753Y-1506936D02*
X458277Y-1516460D01*
X458277Y-1516460D02*
X448753Y-1525984D01*
X448753Y-1525984D02*
X439229Y-1516460D01*
X439229Y-1516460D02*
X448753Y-1506936D01*
X448753Y-1506936D02*
X448753Y-1525984D01*
X648753Y-1525984D02*
X534467Y-1525984D01*
X591610Y-1525984D02*
X591610Y-1325984D01*
X591610Y-1325984D02*
X572563Y-1354555D01*
X572563Y-1354555D02*
X553515Y-1373603D01*
X553515Y-1373603D02*
X534467Y-1383127D01*
X772562Y-1325984D02*
X791610Y-1325984D01*
X791610Y-1325984D02*
X810658Y-1335508D01*
X810658Y-1335508D02*
X820182Y-1345031D01*
X820182Y-1345031D02*
X829705Y-1364079D01*
X829705Y-1364079D02*
X839229Y-1402174D01*
X839229Y-1402174D02*
X839229Y-1449793D01*
X839229Y-1449793D02*
X829705Y-1487888D01*
X829705Y-1487888D02*
X820182Y-1506936D01*
X820182Y-1506936D02*
X810658Y-1516460D01*
X810658Y-1516460D02*
X791610Y-1525984D01*
X791610Y-1525984D02*
X772562Y-1525984D01*
X772562Y-1525984D02*
X753515Y-1516460D01*
X753515Y-1516460D02*
X743991Y-1506936D01*
X743991Y-1506936D02*
X734467Y-1487888D01*
X734467Y-1487888D02*
X724943Y-1449793D01*
X724943Y-1449793D02*
X724943Y-1402174D01*
X724943Y-1402174D02*
X734467Y-1364079D01*
X734467Y-1364079D02*
X743991Y-1345031D01*
X743991Y-1345031D02*
X753515Y-1335508D01*
X753515Y-1335508D02*
X772562Y-1325984D01*
X963039Y-1325984D02*
X982086Y-1325984D01*
X982086Y-1325984D02*
X1001134Y-1335508D01*
X1001134Y-1335508D02*
X1010658Y-1345031D01*
X1010658Y-1345031D02*
X1020182Y-1364079D01*
X1020182Y-1364079D02*
X1029705Y-1402174D01*
X1029705Y-1402174D02*
X1029705Y-1449793D01*
X1029705Y-1449793D02*
X1020182Y-1487888D01*
X1020182Y-1487888D02*
X1010658Y-1506936D01*
X1010658Y-1506936D02*
X1001134Y-1516460D01*
X1001134Y-1516460D02*
X982086Y-1525984D01*
X982086Y-1525984D02*
X963039Y-1525984D01*
X963039Y-1525984D02*
X943991Y-1516460D01*
X943991Y-1516460D02*
X934467Y-1506936D01*
X934467Y-1506936D02*
X924943Y-1487888D01*
X924943Y-1487888D02*
X915420Y-1449793D01*
X915420Y-1449793D02*
X915420Y-1402174D01*
X915420Y-1402174D02*
X924943Y-1364079D01*
X924943Y-1364079D02*
X934467Y-1345031D01*
X934467Y-1345031D02*
X943991Y-1335508D01*
X943991Y-1335508D02*
X963039Y-1325984D01*
X1115420Y-1525984D02*
X1115420Y-1392650D01*
X1115420Y-1411698D02*
X1124944Y-1402174D01*
X1124944Y-1402174D02*
X1143991Y-1392650D01*
X1143991Y-1392650D02*
X1172563Y-1392650D01*
X1172563Y-1392650D02*
X1191610Y-1402174D01*
X1191610Y-1402174D02*
X1201134Y-1421222D01*
X1201134Y-1421222D02*
X1201134Y-1525984D01*
X1201134Y-1421222D02*
X1210658Y-1402174D01*
X1210658Y-1402174D02*
X1229705Y-1392650D01*
X1229705Y-1392650D02*
X1258277Y-1392650D01*
X1258277Y-1392650D02*
X1277325Y-1402174D01*
X1277325Y-1402174D02*
X1286848Y-1421222D01*
X1286848Y-1421222D02*
X1286848Y-1525984D01*
X1382086Y-1525984D02*
X1382086Y-1392650D01*
X1382086Y-1411698D02*
X1391610Y-1402174D01*
X1391610Y-1402174D02*
X1410658Y-1392650D01*
X1410658Y-1392650D02*
X1439229Y-1392650D01*
X1439229Y-1392650D02*
X1458277Y-1402174D01*
X1458277Y-1402174D02*
X1467801Y-1421222D01*
X1467801Y-1421222D02*
X1467801Y-1525984D01*
X1467801Y-1421222D02*
X1477324Y-1402174D01*
X1477324Y-1402174D02*
X1496372Y-1392650D01*
X1496372Y-1392650D02*
X1524943Y-1392650D01*
X1524943Y-1392650D02*
X1543991Y-1402174D01*
X1543991Y-1402174D02*
X1553515Y-1421222D01*
X1553515Y-1421222D02*
X1553515Y-1525984D01*
X1943991Y-1316460D02*
X1772563Y-1573603D01*
X2201134Y-1325984D02*
X2220182Y-1325984D01*
X2220182Y-1325984D02*
X2239229Y-1335508D01*
X2239229Y-1335508D02*
X2248753Y-1345031D01*
X2248753Y-1345031D02*
X2258277Y-1364079D01*
X2258277Y-1364079D02*
X2267801Y-1402174D01*
X2267801Y-1402174D02*
X2267801Y-1449793D01*
X2267801Y-1449793D02*
X2258277Y-1487888D01*
X2258277Y-1487888D02*
X2248753Y-1506936D01*
X2248753Y-1506936D02*
X2239229Y-1516460D01*
X2239229Y-1516460D02*
X2220182Y-1525984D01*
X2220182Y-1525984D02*
X2201134Y-1525984D01*
X2201134Y-1525984D02*
X2182087Y-1516460D01*
X2182087Y-1516460D02*
X2172563Y-1506936D01*
X2172563Y-1506936D02*
X2163039Y-1487888D01*
X2163039Y-1487888D02*
X2153515Y-1449793D01*
X2153515Y-1449793D02*
X2153515Y-1402174D01*
X2153515Y-1402174D02*
X2163039Y-1364079D01*
X2163039Y-1364079D02*
X2172563Y-1345031D01*
X2172563Y-1345031D02*
X2182087Y-1335508D01*
X2182087Y-1335508D02*
X2201134Y-1325984D01*
X2353515Y-1506936D02*
X2363039Y-1516460D01*
X2363039Y-1516460D02*
X2353515Y-1525984D01*
X2353515Y-1525984D02*
X2343991Y-1516460D01*
X2343991Y-1516460D02*
X2353515Y-1506936D01*
X2353515Y-1506936D02*
X2353515Y-1525984D01*
X2486848Y-1325984D02*
X2505896Y-1325984D01*
X2505896Y-1325984D02*
X2524944Y-1335508D01*
X2524944Y-1335508D02*
X2534468Y-1345031D01*
X2534468Y-1345031D02*
X2543991Y-1364079D01*
X2543991Y-1364079D02*
X2553515Y-1402174D01*
X2553515Y-1402174D02*
X2553515Y-1449793D01*
X2553515Y-1449793D02*
X2543991Y-1487888D01*
X2543991Y-1487888D02*
X2534468Y-1506936D01*
X2534468Y-1506936D02*
X2524944Y-1516460D01*
X2524944Y-1516460D02*
X2505896Y-1525984D01*
X2505896Y-1525984D02*
X2486848Y-1525984D01*
X2486848Y-1525984D02*
X2467801Y-1516460D01*
X2467801Y-1516460D02*
X2458277Y-1506936D01*
X2458277Y-1506936D02*
X2448753Y-1487888D01*
X2448753Y-1487888D02*
X2439229Y-1449793D01*
X2439229Y-1449793D02*
X2439229Y-1402174D01*
X2439229Y-1402174D02*
X2448753Y-1364079D01*
X2448753Y-1364079D02*
X2458277Y-1345031D01*
X2458277Y-1345031D02*
X2467801Y-1335508D01*
X2467801Y-1335508D02*
X2486848Y-1325984D01*
X2724944Y-1392650D02*
X2724944Y-1525984D01*
X2677325Y-1316460D02*
X2629706Y-1459317D01*
X2629706Y-1459317D02*
X2753515Y-1459317D01*
X2810658Y-1325984D02*
X2934467Y-1325984D01*
X2934467Y-1325984D02*
X2867801Y-1402174D01*
X2867801Y-1402174D02*
X2896372Y-1402174D01*
X2896372Y-1402174D02*
X2915420Y-1411698D01*
X2915420Y-1411698D02*
X2924944Y-1421222D01*
X2924944Y-1421222D02*
X2934467Y-1440269D01*
X2934467Y-1440269D02*
X2934467Y-1487888D01*
X2934467Y-1487888D02*
X2924944Y-1506936D01*
X2924944Y-1506936D02*
X2915420Y-1516460D01*
X2915420Y-1516460D02*
X2896372Y-1525984D01*
X2896372Y-1525984D02*
X2839229Y-1525984D01*
X2839229Y-1525984D02*
X2820182Y-1516460D01*
X2820182Y-1516460D02*
X2810658Y-1506936D01*
X3001134Y-1325984D02*
X3124944Y-1325984D01*
X3124944Y-1325984D02*
X3058277Y-1402174D01*
X3058277Y-1402174D02*
X3086848Y-1402174D01*
X3086848Y-1402174D02*
X3105896Y-1411698D01*
X3105896Y-1411698D02*
X3115420Y-1421222D01*
X3115420Y-1421222D02*
X3124944Y-1440269D01*
X3124944Y-1440269D02*
X3124944Y-1487888D01*
X3124944Y-1487888D02*
X3115420Y-1506936D01*
X3115420Y-1506936D02*
X3105896Y-1516460D01*
X3105896Y-1516460D02*
X3086848Y-1525984D01*
X3086848Y-1525984D02*
X3029706Y-1525984D01*
X3029706Y-1525984D02*
X3010658Y-1516460D01*
X3010658Y-1516460D02*
X3001134Y-1506936D01*
X3201134Y-1325984D02*
X3201134Y-1364079D01*
X3277325Y-1325984D02*
X3277325Y-1364079D01*
X3572563Y-1602174D02*
X3563039Y-1592650D01*
X3563039Y-1592650D02*
X3543991Y-1564079D01*
X3543991Y-1564079D02*
X3534468Y-1545031D01*
X3534468Y-1545031D02*
X3524944Y-1516460D01*
X3524944Y-1516460D02*
X3515420Y-1468841D01*
X3515420Y-1468841D02*
X3515420Y-1430746D01*
X3515420Y-1430746D02*
X3524944Y-1383127D01*
X3524944Y-1383127D02*
X3534468Y-1354555D01*
X3534468Y-1354555D02*
X3543991Y-1335508D01*
X3543991Y-1335508D02*
X3563039Y-1306936D01*
X3563039Y-1306936D02*
X3572563Y-1297412D01*
X3677325Y-1411698D02*
X3658277Y-1402174D01*
X3658277Y-1402174D02*
X3648753Y-1392650D01*
X3648753Y-1392650D02*
X3639229Y-1373603D01*
X3639229Y-1373603D02*
X3639229Y-1364079D01*
X3639229Y-1364079D02*
X3648753Y-1345031D01*
X3648753Y-1345031D02*
X3658277Y-1335508D01*
X3658277Y-1335508D02*
X3677325Y-1325984D01*
X3677325Y-1325984D02*
X3715420Y-1325984D01*
X3715420Y-1325984D02*
X3734468Y-1335508D01*
X3734468Y-1335508D02*
X3743991Y-1345031D01*
X3743991Y-1345031D02*
X3753515Y-1364079D01*
X3753515Y-1364079D02*
X3753515Y-1373603D01*
X3753515Y-1373603D02*
X3743991Y-1392650D01*
X3743991Y-1392650D02*
X3734468Y-1402174D01*
X3734468Y-1402174D02*
X3715420Y-1411698D01*
X3715420Y-1411698D02*
X3677325Y-1411698D01*
X3677325Y-1411698D02*
X3658277Y-1421222D01*
X3658277Y-1421222D02*
X3648753Y-1430746D01*
X3648753Y-1430746D02*
X3639229Y-1449793D01*
X3639229Y-1449793D02*
X3639229Y-1487888D01*
X3639229Y-1487888D02*
X3648753Y-1506936D01*
X3648753Y-1506936D02*
X3658277Y-1516460D01*
X3658277Y-1516460D02*
X3677325Y-1525984D01*
X3677325Y-1525984D02*
X3715420Y-1525984D01*
X3715420Y-1525984D02*
X3734468Y-1516460D01*
X3734468Y-1516460D02*
X3743991Y-1506936D01*
X3743991Y-1506936D02*
X3753515Y-1487888D01*
X3753515Y-1487888D02*
X3753515Y-1449793D01*
X3753515Y-1449793D02*
X3743991Y-1430746D01*
X3743991Y-1430746D02*
X3734468Y-1421222D01*
X3734468Y-1421222D02*
X3715420Y-1411698D01*
X3991610Y-1525984D02*
X3991610Y-1325984D01*
X4077325Y-1525984D02*
X4077325Y-1421222D01*
X4077325Y-1421222D02*
X4067801Y-1402174D01*
X4067801Y-1402174D02*
X4048753Y-1392650D01*
X4048753Y-1392650D02*
X4020182Y-1392650D01*
X4020182Y-1392650D02*
X4001134Y-1402174D01*
X4001134Y-1402174D02*
X3991610Y-1411698D01*
X4201134Y-1525984D02*
X4182087Y-1516460D01*
X4182087Y-1516460D02*
X4172563Y-1506936D01*
X4172563Y-1506936D02*
X4163039Y-1487888D01*
X4163039Y-1487888D02*
X4163039Y-1430746D01*
X4163039Y-1430746D02*
X4172563Y-1411698D01*
X4172563Y-1411698D02*
X4182087Y-1402174D01*
X4182087Y-1402174D02*
X4201134Y-1392650D01*
X4201134Y-1392650D02*
X4229706Y-1392650D01*
X4229706Y-1392650D02*
X4248753Y-1402174D01*
X4248753Y-1402174D02*
X4258277Y-1411698D01*
X4258277Y-1411698D02*
X4267801Y-1430746D01*
X4267801Y-1430746D02*
X4267801Y-1487888D01*
X4267801Y-1487888D02*
X4258277Y-1506936D01*
X4258277Y-1506936D02*
X4248753Y-1516460D01*
X4248753Y-1516460D02*
X4229706Y-1525984D01*
X4229706Y-1525984D02*
X4201134Y-1525984D01*
X4382087Y-1525984D02*
X4363039Y-1516460D01*
X4363039Y-1516460D02*
X4353515Y-1497412D01*
X4353515Y-1497412D02*
X4353515Y-1325984D01*
X4534468Y-1516460D02*
X4515420Y-1525984D01*
X4515420Y-1525984D02*
X4477325Y-1525984D01*
X4477325Y-1525984D02*
X4458277Y-1516460D01*
X4458277Y-1516460D02*
X4448753Y-1497412D01*
X4448753Y-1497412D02*
X4448753Y-1421222D01*
X4448753Y-1421222D02*
X4458277Y-1402174D01*
X4458277Y-1402174D02*
X4477325Y-1392650D01*
X4477325Y-1392650D02*
X4515420Y-1392650D01*
X4515420Y-1392650D02*
X4534468Y-1402174D01*
X4534468Y-1402174D02*
X4543992Y-1421222D01*
X4543992Y-1421222D02*
X4543992Y-1440269D01*
X4543992Y-1440269D02*
X4448753Y-1459317D01*
X4620182Y-1516460D02*
X4639230Y-1525984D01*
X4639230Y-1525984D02*
X4677325Y-1525984D01*
X4677325Y-1525984D02*
X4696373Y-1516460D01*
X4696373Y-1516460D02*
X4705896Y-1497412D01*
X4705896Y-1497412D02*
X4705896Y-1487888D01*
X4705896Y-1487888D02*
X4696373Y-1468841D01*
X4696373Y-1468841D02*
X4677325Y-1459317D01*
X4677325Y-1459317D02*
X4648753Y-1459317D01*
X4648753Y-1459317D02*
X4629706Y-1449793D01*
X4629706Y-1449793D02*
X4620182Y-1430746D01*
X4620182Y-1430746D02*
X4620182Y-1421222D01*
X4620182Y-1421222D02*
X4629706Y-1402174D01*
X4629706Y-1402174D02*
X4648753Y-1392650D01*
X4648753Y-1392650D02*
X4677325Y-1392650D01*
X4677325Y-1392650D02*
X4696373Y-1402174D01*
X4772563Y-1602174D02*
X4782087Y-1592650D01*
X4782087Y-1592650D02*
X4801134Y-1564079D01*
X4801134Y-1564079D02*
X4810658Y-1545031D01*
X4810658Y-1545031D02*
X4820182Y-1516460D01*
X4820182Y-1516460D02*
X4829706Y-1468841D01*
X4829706Y-1468841D02*
X4829706Y-1430746D01*
X4829706Y-1430746D02*
X4820182Y-1383127D01*
X4820182Y-1383127D02*
X4810658Y-1354555D01*
X4810658Y-1354555D02*
X4801134Y-1335508D01*
X4801134Y-1335508D02*
X4782087Y-1306936D01*
X4782087Y-1306936D02*
X4772563Y-1297412D01*
X-102500Y-1798500D02*
X-2500Y-1698500D01*
X-102500Y-1598500D01*
X-202500Y-1698500D01*
X-102500Y-1798500D01*
X239229Y-1589984D02*
X363039Y-1589984D01*
X363039Y-1589984D02*
X296372Y-1666174D01*
X296372Y-1666174D02*
X324944Y-1666174D01*
X324944Y-1666174D02*
X343991Y-1675698D01*
X343991Y-1675698D02*
X353515Y-1685222D01*
X353515Y-1685222D02*
X363039Y-1704269D01*
X363039Y-1704269D02*
X363039Y-1751888D01*
X363039Y-1751888D02*
X353515Y-1770936D01*
X353515Y-1770936D02*
X343991Y-1780460D01*
X343991Y-1780460D02*
X324944Y-1789984D01*
X324944Y-1789984D02*
X267801Y-1789984D01*
X267801Y-1789984D02*
X248753Y-1780460D01*
X248753Y-1780460D02*
X239229Y-1770936D01*
X448753Y-1770936D02*
X458277Y-1780460D01*
X458277Y-1780460D02*
X448753Y-1789984D01*
X448753Y-1789984D02*
X439229Y-1780460D01*
X439229Y-1780460D02*
X448753Y-1770936D01*
X448753Y-1770936D02*
X448753Y-1789984D01*
X534467Y-1609031D02*
X543991Y-1599508D01*
X543991Y-1599508D02*
X563039Y-1589984D01*
X563039Y-1589984D02*
X610658Y-1589984D01*
X610658Y-1589984D02*
X629705Y-1599508D01*
X629705Y-1599508D02*
X639229Y-1609031D01*
X639229Y-1609031D02*
X648753Y-1628079D01*
X648753Y-1628079D02*
X648753Y-1647127D01*
X648753Y-1647127D02*
X639229Y-1675698D01*
X639229Y-1675698D02*
X524944Y-1789984D01*
X524944Y-1789984D02*
X648753Y-1789984D01*
X772562Y-1589984D02*
X791610Y-1589984D01*
X791610Y-1589984D02*
X810658Y-1599508D01*
X810658Y-1599508D02*
X820182Y-1609031D01*
X820182Y-1609031D02*
X829705Y-1628079D01*
X829705Y-1628079D02*
X839229Y-1666174D01*
X839229Y-1666174D02*
X839229Y-1713793D01*
X839229Y-1713793D02*
X829705Y-1751888D01*
X829705Y-1751888D02*
X820182Y-1770936D01*
X820182Y-1770936D02*
X810658Y-1780460D01*
X810658Y-1780460D02*
X791610Y-1789984D01*
X791610Y-1789984D02*
X772562Y-1789984D01*
X772562Y-1789984D02*
X753515Y-1780460D01*
X753515Y-1780460D02*
X743991Y-1770936D01*
X743991Y-1770936D02*
X734467Y-1751888D01*
X734467Y-1751888D02*
X724943Y-1713793D01*
X724943Y-1713793D02*
X724943Y-1666174D01*
X724943Y-1666174D02*
X734467Y-1628079D01*
X734467Y-1628079D02*
X743991Y-1609031D01*
X743991Y-1609031D02*
X753515Y-1599508D01*
X753515Y-1599508D02*
X772562Y-1589984D01*
X963039Y-1589984D02*
X982086Y-1589984D01*
X982086Y-1589984D02*
X1001134Y-1599508D01*
X1001134Y-1599508D02*
X1010658Y-1609031D01*
X1010658Y-1609031D02*
X1020182Y-1628079D01*
X1020182Y-1628079D02*
X1029705Y-1666174D01*
X1029705Y-1666174D02*
X1029705Y-1713793D01*
X1029705Y-1713793D02*
X1020182Y-1751888D01*
X1020182Y-1751888D02*
X1010658Y-1770936D01*
X1010658Y-1770936D02*
X1001134Y-1780460D01*
X1001134Y-1780460D02*
X982086Y-1789984D01*
X982086Y-1789984D02*
X963039Y-1789984D01*
X963039Y-1789984D02*
X943991Y-1780460D01*
X943991Y-1780460D02*
X934467Y-1770936D01*
X934467Y-1770936D02*
X924943Y-1751888D01*
X924943Y-1751888D02*
X915420Y-1713793D01*
X915420Y-1713793D02*
X915420Y-1666174D01*
X915420Y-1666174D02*
X924943Y-1628079D01*
X924943Y-1628079D02*
X934467Y-1609031D01*
X934467Y-1609031D02*
X943991Y-1599508D01*
X943991Y-1599508D02*
X963039Y-1589984D01*
X1115420Y-1789984D02*
X1115420Y-1656650D01*
X1115420Y-1675698D02*
X1124944Y-1666174D01*
X1124944Y-1666174D02*
X1143991Y-1656650D01*
X1143991Y-1656650D02*
X1172563Y-1656650D01*
X1172563Y-1656650D02*
X1191610Y-1666174D01*
X1191610Y-1666174D02*
X1201134Y-1685222D01*
X1201134Y-1685222D02*
X1201134Y-1789984D01*
X1201134Y-1685222D02*
X1210658Y-1666174D01*
X1210658Y-1666174D02*
X1229705Y-1656650D01*
X1229705Y-1656650D02*
X1258277Y-1656650D01*
X1258277Y-1656650D02*
X1277325Y-1666174D01*
X1277325Y-1666174D02*
X1286848Y-1685222D01*
X1286848Y-1685222D02*
X1286848Y-1789984D01*
X1382086Y-1789984D02*
X1382086Y-1656650D01*
X1382086Y-1675698D02*
X1391610Y-1666174D01*
X1391610Y-1666174D02*
X1410658Y-1656650D01*
X1410658Y-1656650D02*
X1439229Y-1656650D01*
X1439229Y-1656650D02*
X1458277Y-1666174D01*
X1458277Y-1666174D02*
X1467801Y-1685222D01*
X1467801Y-1685222D02*
X1467801Y-1789984D01*
X1467801Y-1685222D02*
X1477324Y-1666174D01*
X1477324Y-1666174D02*
X1496372Y-1656650D01*
X1496372Y-1656650D02*
X1524943Y-1656650D01*
X1524943Y-1656650D02*
X1543991Y-1666174D01*
X1543991Y-1666174D02*
X1553515Y-1685222D01*
X1553515Y-1685222D02*
X1553515Y-1789984D01*
X1943991Y-1580460D02*
X1772563Y-1837603D01*
X2201134Y-1589984D02*
X2220182Y-1589984D01*
X2220182Y-1589984D02*
X2239229Y-1599508D01*
X2239229Y-1599508D02*
X2248753Y-1609031D01*
X2248753Y-1609031D02*
X2258277Y-1628079D01*
X2258277Y-1628079D02*
X2267801Y-1666174D01*
X2267801Y-1666174D02*
X2267801Y-1713793D01*
X2267801Y-1713793D02*
X2258277Y-1751888D01*
X2258277Y-1751888D02*
X2248753Y-1770936D01*
X2248753Y-1770936D02*
X2239229Y-1780460D01*
X2239229Y-1780460D02*
X2220182Y-1789984D01*
X2220182Y-1789984D02*
X2201134Y-1789984D01*
X2201134Y-1789984D02*
X2182087Y-1780460D01*
X2182087Y-1780460D02*
X2172563Y-1770936D01*
X2172563Y-1770936D02*
X2163039Y-1751888D01*
X2163039Y-1751888D02*
X2153515Y-1713793D01*
X2153515Y-1713793D02*
X2153515Y-1666174D01*
X2153515Y-1666174D02*
X2163039Y-1628079D01*
X2163039Y-1628079D02*
X2172563Y-1609031D01*
X2172563Y-1609031D02*
X2182087Y-1599508D01*
X2182087Y-1599508D02*
X2201134Y-1589984D01*
X2353515Y-1770936D02*
X2363039Y-1780460D01*
X2363039Y-1780460D02*
X2353515Y-1789984D01*
X2353515Y-1789984D02*
X2343991Y-1780460D01*
X2343991Y-1780460D02*
X2353515Y-1770936D01*
X2353515Y-1770936D02*
X2353515Y-1789984D01*
X2553515Y-1789984D02*
X2439229Y-1789984D01*
X2496372Y-1789984D02*
X2496372Y-1589984D01*
X2496372Y-1589984D02*
X2477325Y-1618555D01*
X2477325Y-1618555D02*
X2458277Y-1637603D01*
X2458277Y-1637603D02*
X2439229Y-1647127D01*
X2629706Y-1609031D02*
X2639229Y-1599508D01*
X2639229Y-1599508D02*
X2658277Y-1589984D01*
X2658277Y-1589984D02*
X2705896Y-1589984D01*
X2705896Y-1589984D02*
X2724944Y-1599508D01*
X2724944Y-1599508D02*
X2734468Y-1609031D01*
X2734468Y-1609031D02*
X2743991Y-1628079D01*
X2743991Y-1628079D02*
X2743991Y-1647127D01*
X2743991Y-1647127D02*
X2734468Y-1675698D01*
X2734468Y-1675698D02*
X2620182Y-1789984D01*
X2620182Y-1789984D02*
X2743991Y-1789984D01*
X2915420Y-1589984D02*
X2877325Y-1589984D01*
X2877325Y-1589984D02*
X2858277Y-1599508D01*
X2858277Y-1599508D02*
X2848753Y-1609031D01*
X2848753Y-1609031D02*
X2829706Y-1637603D01*
X2829706Y-1637603D02*
X2820182Y-1675698D01*
X2820182Y-1675698D02*
X2820182Y-1751888D01*
X2820182Y-1751888D02*
X2829706Y-1770936D01*
X2829706Y-1770936D02*
X2839229Y-1780460D01*
X2839229Y-1780460D02*
X2858277Y-1789984D01*
X2858277Y-1789984D02*
X2896372Y-1789984D01*
X2896372Y-1789984D02*
X2915420Y-1780460D01*
X2915420Y-1780460D02*
X2924944Y-1770936D01*
X2924944Y-1770936D02*
X2934467Y-1751888D01*
X2934467Y-1751888D02*
X2934467Y-1704269D01*
X2934467Y-1704269D02*
X2924944Y-1685222D01*
X2924944Y-1685222D02*
X2915420Y-1675698D01*
X2915420Y-1675698D02*
X2896372Y-1666174D01*
X2896372Y-1666174D02*
X2858277Y-1666174D01*
X2858277Y-1666174D02*
X2839229Y-1675698D01*
X2839229Y-1675698D02*
X2829706Y-1685222D01*
X2829706Y-1685222D02*
X2820182Y-1704269D01*
X3058277Y-1589984D02*
X3077325Y-1589984D01*
X3077325Y-1589984D02*
X3096372Y-1599508D01*
X3096372Y-1599508D02*
X3105896Y-1609031D01*
X3105896Y-1609031D02*
X3115420Y-1628079D01*
X3115420Y-1628079D02*
X3124944Y-1666174D01*
X3124944Y-1666174D02*
X3124944Y-1713793D01*
X3124944Y-1713793D02*
X3115420Y-1751888D01*
X3115420Y-1751888D02*
X3105896Y-1770936D01*
X3105896Y-1770936D02*
X3096372Y-1780460D01*
X3096372Y-1780460D02*
X3077325Y-1789984D01*
X3077325Y-1789984D02*
X3058277Y-1789984D01*
X3058277Y-1789984D02*
X3039229Y-1780460D01*
X3039229Y-1780460D02*
X3029706Y-1770936D01*
X3029706Y-1770936D02*
X3020182Y-1751888D01*
X3020182Y-1751888D02*
X3010658Y-1713793D01*
X3010658Y-1713793D02*
X3010658Y-1666174D01*
X3010658Y-1666174D02*
X3020182Y-1628079D01*
X3020182Y-1628079D02*
X3029706Y-1609031D01*
X3029706Y-1609031D02*
X3039229Y-1599508D01*
X3039229Y-1599508D02*
X3058277Y-1589984D01*
X3201134Y-1589984D02*
X3201134Y-1628079D01*
X3277325Y-1589984D02*
X3277325Y-1628079D01*
X3572563Y-1866174D02*
X3563039Y-1856650D01*
X3563039Y-1856650D02*
X3543991Y-1828079D01*
X3543991Y-1828079D02*
X3534468Y-1809031D01*
X3534468Y-1809031D02*
X3524944Y-1780460D01*
X3524944Y-1780460D02*
X3515420Y-1732841D01*
X3515420Y-1732841D02*
X3515420Y-1694746D01*
X3515420Y-1694746D02*
X3524944Y-1647127D01*
X3524944Y-1647127D02*
X3534468Y-1618555D01*
X3534468Y-1618555D02*
X3543991Y-1599508D01*
X3543991Y-1599508D02*
X3563039Y-1570936D01*
X3563039Y-1570936D02*
X3572563Y-1561412D01*
X3734468Y-1656650D02*
X3734468Y-1789984D01*
X3686848Y-1580460D02*
X3639229Y-1723317D01*
X3639229Y-1723317D02*
X3763039Y-1723317D01*
X3991610Y-1789984D02*
X3991610Y-1589984D01*
X4077325Y-1789984D02*
X4077325Y-1685222D01*
X4077325Y-1685222D02*
X4067801Y-1666174D01*
X4067801Y-1666174D02*
X4048753Y-1656650D01*
X4048753Y-1656650D02*
X4020182Y-1656650D01*
X4020182Y-1656650D02*
X4001134Y-1666174D01*
X4001134Y-1666174D02*
X3991610Y-1675698D01*
X4201134Y-1789984D02*
X4182087Y-1780460D01*
X4182087Y-1780460D02*
X4172563Y-1770936D01*
X4172563Y-1770936D02*
X4163039Y-1751888D01*
X4163039Y-1751888D02*
X4163039Y-1694746D01*
X4163039Y-1694746D02*
X4172563Y-1675698D01*
X4172563Y-1675698D02*
X4182087Y-1666174D01*
X4182087Y-1666174D02*
X4201134Y-1656650D01*
X4201134Y-1656650D02*
X4229706Y-1656650D01*
X4229706Y-1656650D02*
X4248753Y-1666174D01*
X4248753Y-1666174D02*
X4258277Y-1675698D01*
X4258277Y-1675698D02*
X4267801Y-1694746D01*
X4267801Y-1694746D02*
X4267801Y-1751888D01*
X4267801Y-1751888D02*
X4258277Y-1770936D01*
X4258277Y-1770936D02*
X4248753Y-1780460D01*
X4248753Y-1780460D02*
X4229706Y-1789984D01*
X4229706Y-1789984D02*
X4201134Y-1789984D01*
X4382087Y-1789984D02*
X4363039Y-1780460D01*
X4363039Y-1780460D02*
X4353515Y-1761412D01*
X4353515Y-1761412D02*
X4353515Y-1589984D01*
X4534468Y-1780460D02*
X4515420Y-1789984D01*
X4515420Y-1789984D02*
X4477325Y-1789984D01*
X4477325Y-1789984D02*
X4458277Y-1780460D01*
X4458277Y-1780460D02*
X4448753Y-1761412D01*
X4448753Y-1761412D02*
X4448753Y-1685222D01*
X4448753Y-1685222D02*
X4458277Y-1666174D01*
X4458277Y-1666174D02*
X4477325Y-1656650D01*
X4477325Y-1656650D02*
X4515420Y-1656650D01*
X4515420Y-1656650D02*
X4534468Y-1666174D01*
X4534468Y-1666174D02*
X4543992Y-1685222D01*
X4543992Y-1685222D02*
X4543992Y-1704269D01*
X4543992Y-1704269D02*
X4448753Y-1723317D01*
X4620182Y-1780460D02*
X4639230Y-1789984D01*
X4639230Y-1789984D02*
X4677325Y-1789984D01*
X4677325Y-1789984D02*
X4696373Y-1780460D01*
X4696373Y-1780460D02*
X4705896Y-1761412D01*
X4705896Y-1761412D02*
X4705896Y-1751888D01*
X4705896Y-1751888D02*
X4696373Y-1732841D01*
X4696373Y-1732841D02*
X4677325Y-1723317D01*
X4677325Y-1723317D02*
X4648753Y-1723317D01*
X4648753Y-1723317D02*
X4629706Y-1713793D01*
X4629706Y-1713793D02*
X4620182Y-1694746D01*
X4620182Y-1694746D02*
X4620182Y-1685222D01*
X4620182Y-1685222D02*
X4629706Y-1666174D01*
X4629706Y-1666174D02*
X4648753Y-1656650D01*
X4648753Y-1656650D02*
X4677325Y-1656650D01*
X4677325Y-1656650D02*
X4696373Y-1666174D01*
X4772563Y-1866174D02*
X4782087Y-1856650D01*
X4782087Y-1856650D02*
X4801134Y-1828079D01*
X4801134Y-1828079D02*
X4810658Y-1809031D01*
X4810658Y-1809031D02*
X4820182Y-1780460D01*
X4820182Y-1780460D02*
X4829706Y-1732841D01*
X4829706Y-1732841D02*
X4829706Y-1694746D01*
X4829706Y-1694746D02*
X4820182Y-1647127D01*
X4820182Y-1647127D02*
X4810658Y-1618555D01*
X4810658Y-1618555D02*
X4801134Y-1599508D01*
X4801134Y-1599508D02*
X4782087Y-1570936D01*
X4782087Y-1570936D02*
X4772563Y-1561412D01*
M02*
