%TF.GenerationSoftware,KiCad,Pcbnew,7.0.9*%
%TF.CreationDate,2024-01-20T18:52:18+00:00*%
%TF.ProjectId,DRV8234 DC Motor Driver Expander,44525638-3233-4342-9044-43204d6f746f,rev?*%
%TF.SameCoordinates,Original*%
%TF.FileFunction,Copper,L2,Inr*%
%TF.FilePolarity,Positive*%
%FSLAX46Y46*%
G04 Gerber Fmt 4.6, Leading zero omitted, Abs format (unit mm)*
G04 Created by KiCad (PCBNEW 7.0.9) date 2024-01-20 18:52:18*
%MOMM*%
%LPD*%
G01*
G04 APERTURE LIST*
%TA.AperFunction,ComponentPad*%
%ADD10C,1.600200*%
%TD*%
%TA.AperFunction,ComponentPad*%
%ADD11C,0.800000*%
%TD*%
%TA.AperFunction,ComponentPad*%
%ADD12C,6.400000*%
%TD*%
%TA.AperFunction,ComponentPad*%
%ADD13C,1.650000*%
%TD*%
%TA.AperFunction,ViaPad*%
%ADD14C,0.500000*%
%TD*%
%TA.AperFunction,ViaPad*%
%ADD15C,0.800000*%
%TD*%
G04 APERTURE END LIST*
D10*
%TO.N,IPROPI*%
%TO.C,J3*%
X136286001Y-84709000D03*
X136286001Y-79709000D03*
%TO.N,RC_OUT*%
X132786001Y-84709000D03*
X132786001Y-79709000D03*
%TO.N,NFAULT*%
X129286000Y-84709000D03*
X129286000Y-79709000D03*
%TD*%
%TO.N,OUT1*%
%TO.C,J5*%
X155782000Y-95504000D03*
X160782000Y-95504000D03*
%TO.N,OUT2*%
X155782000Y-92003997D03*
X160782000Y-92003997D03*
%TD*%
%TO.N,NSLEEP*%
%TO.C,J2*%
X122697001Y-84709000D03*
X122697001Y-79709000D03*
%TO.N,IN1*%
X119197001Y-84709000D03*
X119197001Y-79709000D03*
%TO.N,IN2*%
X115697000Y-84709000D03*
X115697000Y-79709000D03*
%TD*%
%TO.N,+5V*%
%TO.C,J1*%
X109037000Y-84709000D03*
X109037000Y-79709000D03*
%TO.N,GND*%
X105537000Y-84709000D03*
X105537000Y-79709000D03*
%TO.N,VCC*%
X102036999Y-84709000D03*
X102036999Y-79709000D03*
%TD*%
D11*
%TO.N,N/C*%
%TO.C,H2*%
X158128000Y-80183056D03*
X158830944Y-78486000D03*
X158830944Y-81880112D03*
X160528000Y-77783056D03*
D12*
X160528000Y-80183056D03*
D11*
X160528000Y-82583056D03*
X162225056Y-78486000D03*
X162225056Y-81880112D03*
X162928000Y-80183056D03*
%TD*%
%TO.N,N/C*%
%TO.C,H3*%
X92088000Y-104140000D03*
X92790944Y-102442944D03*
X92790944Y-105837056D03*
X94488000Y-101740000D03*
D12*
X94488000Y-104140000D03*
D11*
X94488000Y-106540000D03*
X96185056Y-102442944D03*
X96185056Y-105837056D03*
X96888000Y-104140000D03*
%TD*%
D13*
%TO.N,A0*%
%TO.C,J4*%
X153244000Y-84694400D03*
X153244000Y-79694400D03*
%TO.N,A1*%
X149744000Y-84694400D03*
X149744000Y-79694400D03*
%TO.N,SDA*%
X146244000Y-84694400D03*
X146244000Y-79694400D03*
%TO.N,SCL*%
X142744000Y-84694400D03*
X142744000Y-79694400D03*
%TD*%
D11*
%TO.N,N/C*%
%TO.C,H1*%
X92088000Y-80264000D03*
X92790944Y-78566944D03*
X92790944Y-81961056D03*
X94488000Y-77864000D03*
D12*
X94488000Y-80264000D03*
D11*
X94488000Y-82664000D03*
X96185056Y-78566944D03*
X96185056Y-81961056D03*
X96888000Y-80264000D03*
%TD*%
%TO.N,N/C*%
%TO.C,H4*%
X158128000Y-104093944D03*
X158830944Y-102396888D03*
X158830944Y-105791000D03*
X160528000Y-101693944D03*
D12*
X160528000Y-104093944D03*
D11*
X160528000Y-106493944D03*
X162225056Y-102396888D03*
X162225056Y-105791000D03*
X162928000Y-104093944D03*
%TD*%
D14*
%TO.N,GND*%
X131826000Y-100330000D03*
D15*
X123698000Y-93218000D03*
X135890000Y-92964000D03*
D14*
X128270000Y-100330000D03*
D15*
X126238000Y-93218000D03*
X134874000Y-102108000D03*
X119075200Y-90728800D03*
D14*
X126695200Y-99186600D03*
D15*
X116456500Y-90728800D03*
D14*
X131826000Y-96774000D03*
D15*
%TO.N,+5V*%
X129286000Y-92964000D03*
X136144000Y-96774000D03*
X133858000Y-96774000D03*
X132588000Y-92964000D03*
X150114000Y-92964000D03*
X143510000Y-92964000D03*
X146812000Y-92964000D03*
X140208000Y-92964000D03*
D14*
%TO.N,A1*%
X129438400Y-103022400D03*
X132410200Y-102590600D03*
%TO.N,NSLEEP*%
X130302000Y-100838000D03*
%TO.N,IN2*%
X131064000Y-101346000D03*
%TO.N,IN1*%
X132588000Y-99568000D03*
%TD*%
%TA.AperFunction,Conductor*%
%TO.N,GND*%
G36*
X159313237Y-76474185D02*
G01*
X159358992Y-76526989D01*
X159368936Y-76596147D01*
X159339911Y-76659703D01*
X159290636Y-76694263D01*
X159280187Y-76698275D01*
X159020802Y-76797843D01*
X158675206Y-76973933D01*
X158349917Y-77185178D01*
X158048488Y-77429271D01*
X158048480Y-77429278D01*
X157774222Y-77703536D01*
X157774215Y-77703544D01*
X157530122Y-78004973D01*
X157318877Y-78330262D01*
X157142787Y-78675858D01*
X157003788Y-79037961D01*
X156903397Y-79412626D01*
X156903397Y-79412628D01*
X156842722Y-79795716D01*
X156822422Y-80183055D01*
X156822422Y-80183056D01*
X156842722Y-80570395D01*
X156903397Y-80953483D01*
X156903397Y-80953485D01*
X157003788Y-81328150D01*
X157142787Y-81690253D01*
X157318877Y-82035849D01*
X157530122Y-82361138D01*
X157595671Y-82442084D01*
X157774219Y-82662572D01*
X158048484Y-82936837D01*
X158148445Y-83017784D01*
X158349917Y-83180933D01*
X158474560Y-83261877D01*
X158675211Y-83392181D01*
X159020806Y-83568270D01*
X159382913Y-83707270D01*
X159757567Y-83807658D01*
X160140662Y-83868334D01*
X160506576Y-83887511D01*
X160527999Y-83888634D01*
X160528000Y-83888634D01*
X160528001Y-83888634D01*
X160548301Y-83887570D01*
X160915338Y-83868334D01*
X161298433Y-83807658D01*
X161673087Y-83707270D01*
X162035194Y-83568270D01*
X162380789Y-83392181D01*
X162706084Y-83180932D01*
X163007516Y-82936837D01*
X163281781Y-82662572D01*
X163525876Y-82361140D01*
X163684558Y-82116791D01*
X163737124Y-82035847D01*
X163737125Y-82035845D01*
X163849015Y-81816248D01*
X163896989Y-81765451D01*
X163964810Y-81748656D01*
X164030945Y-81771193D01*
X164074397Y-81825908D01*
X164083500Y-81872542D01*
X164083500Y-102404457D01*
X164063815Y-102471496D01*
X164011011Y-102517251D01*
X163941853Y-102527195D01*
X163878297Y-102498170D01*
X163849015Y-102460752D01*
X163829547Y-102422543D01*
X163737125Y-102241155D01*
X163646269Y-102101249D01*
X163525877Y-101915861D01*
X163329770Y-101673690D01*
X163281781Y-101614428D01*
X163007516Y-101340163D01*
X162792060Y-101165690D01*
X162706082Y-101096066D01*
X162380793Y-100884821D01*
X162035197Y-100708731D01*
X161673094Y-100569732D01*
X161673087Y-100569730D01*
X161298433Y-100469342D01*
X161298429Y-100469341D01*
X161298428Y-100469341D01*
X160915339Y-100408666D01*
X160528001Y-100388366D01*
X160527999Y-100388366D01*
X160140660Y-100408666D01*
X159757572Y-100469341D01*
X159757570Y-100469341D01*
X159382905Y-100569732D01*
X159020802Y-100708731D01*
X158675206Y-100884821D01*
X158349917Y-101096066D01*
X158048488Y-101340159D01*
X158048480Y-101340166D01*
X157774222Y-101614424D01*
X157774215Y-101614432D01*
X157530122Y-101915861D01*
X157318877Y-102241150D01*
X157142787Y-102586746D01*
X157003788Y-102948849D01*
X156903397Y-103323514D01*
X156903397Y-103323516D01*
X156842722Y-103706604D01*
X156822422Y-104093943D01*
X156822422Y-104093944D01*
X156842722Y-104481283D01*
X156850017Y-104527339D01*
X156903398Y-104864377D01*
X156984840Y-105168325D01*
X157003788Y-105239038D01*
X157142787Y-105601141D01*
X157318877Y-105946737D01*
X157530122Y-106272026D01*
X157530124Y-106272028D01*
X157774219Y-106573460D01*
X158048484Y-106847725D01*
X158105362Y-106893784D01*
X158349917Y-107091821D01*
X158675206Y-107303066D01*
X158675211Y-107303069D01*
X158913514Y-107424490D01*
X158985198Y-107461015D01*
X159035994Y-107508989D01*
X159052789Y-107576810D01*
X159030252Y-107642945D01*
X158975537Y-107686397D01*
X158928903Y-107695500D01*
X96177487Y-107695500D01*
X96110448Y-107675815D01*
X96064693Y-107623011D01*
X96054749Y-107553853D01*
X96083774Y-107490297D01*
X96121192Y-107461015D01*
X96126614Y-107458251D01*
X96340789Y-107349125D01*
X96666084Y-107137876D01*
X96967516Y-106893781D01*
X97241781Y-106619516D01*
X97485876Y-106318084D01*
X97697125Y-105992789D01*
X97873214Y-105647194D01*
X98012214Y-105285087D01*
X98112602Y-104910433D01*
X98173278Y-104527338D01*
X98193578Y-104140000D01*
X98173278Y-103752662D01*
X98112602Y-103369567D01*
X98019580Y-103022402D01*
X128683151Y-103022402D01*
X128702085Y-103190456D01*
X128757945Y-103350094D01*
X128757947Y-103350097D01*
X128847918Y-103493284D01*
X128847923Y-103493290D01*
X128967509Y-103612876D01*
X128967515Y-103612881D01*
X129110702Y-103702852D01*
X129110705Y-103702854D01*
X129110709Y-103702855D01*
X129110710Y-103702856D01*
X129183313Y-103728260D01*
X129270343Y-103758714D01*
X129438397Y-103777649D01*
X129438400Y-103777649D01*
X129438403Y-103777649D01*
X129606456Y-103758714D01*
X129623752Y-103752662D01*
X129766090Y-103702856D01*
X129766092Y-103702854D01*
X129766094Y-103702854D01*
X129766097Y-103702852D01*
X129909284Y-103612881D01*
X129909285Y-103612880D01*
X129909290Y-103612877D01*
X130028877Y-103493290D01*
X130118852Y-103350097D01*
X130118854Y-103350094D01*
X130118854Y-103350092D01*
X130118856Y-103350090D01*
X130174713Y-103190459D01*
X130174713Y-103190458D01*
X130174714Y-103190456D01*
X130193649Y-103022402D01*
X130193649Y-103022397D01*
X130174714Y-102854343D01*
X130118854Y-102694705D01*
X130118852Y-102694702D01*
X130053441Y-102590602D01*
X131654951Y-102590602D01*
X131673885Y-102758656D01*
X131729745Y-102918294D01*
X131729747Y-102918297D01*
X131819718Y-103061484D01*
X131819723Y-103061490D01*
X131939309Y-103181076D01*
X131939315Y-103181081D01*
X132082502Y-103271052D01*
X132082505Y-103271054D01*
X132082509Y-103271055D01*
X132082510Y-103271056D01*
X132155113Y-103296460D01*
X132242143Y-103326914D01*
X132410197Y-103345849D01*
X132410200Y-103345849D01*
X132410203Y-103345849D01*
X132578256Y-103326914D01*
X132587981Y-103323511D01*
X132737890Y-103271056D01*
X132737892Y-103271054D01*
X132737894Y-103271054D01*
X132737897Y-103271052D01*
X132881084Y-103181081D01*
X132881085Y-103181080D01*
X132881090Y-103181077D01*
X133000677Y-103061490D01*
X133025241Y-103022397D01*
X133090652Y-102918297D01*
X133090654Y-102918294D01*
X133090654Y-102918292D01*
X133090656Y-102918290D01*
X133146513Y-102758659D01*
X133146513Y-102758658D01*
X133146514Y-102758656D01*
X133165449Y-102590602D01*
X133165449Y-102590597D01*
X133146514Y-102422543D01*
X133090654Y-102262905D01*
X133090652Y-102262902D01*
X133000681Y-102119715D01*
X133000676Y-102119709D01*
X132881090Y-102000123D01*
X132881084Y-102000118D01*
X132737897Y-101910147D01*
X132737894Y-101910145D01*
X132578256Y-101854285D01*
X132410203Y-101835351D01*
X132410197Y-101835351D01*
X132242143Y-101854285D01*
X132082505Y-101910145D01*
X132082502Y-101910147D01*
X131939315Y-102000118D01*
X131939309Y-102000123D01*
X131819723Y-102119709D01*
X131819718Y-102119715D01*
X131729747Y-102262902D01*
X131729745Y-102262905D01*
X131673885Y-102422543D01*
X131654951Y-102590597D01*
X131654951Y-102590602D01*
X130053441Y-102590602D01*
X130028881Y-102551515D01*
X130028876Y-102551509D01*
X129909290Y-102431923D01*
X129909284Y-102431918D01*
X129766097Y-102341947D01*
X129766094Y-102341945D01*
X129606456Y-102286085D01*
X129438403Y-102267151D01*
X129438397Y-102267151D01*
X129270343Y-102286085D01*
X129110705Y-102341945D01*
X129110702Y-102341947D01*
X128967515Y-102431918D01*
X128967509Y-102431923D01*
X128847923Y-102551509D01*
X128847918Y-102551515D01*
X128757947Y-102694702D01*
X128757945Y-102694705D01*
X128702085Y-102854343D01*
X128683151Y-103022397D01*
X128683151Y-103022402D01*
X98019580Y-103022402D01*
X98012214Y-102994913D01*
X97873214Y-102632806D01*
X97697125Y-102287211D01*
X97576360Y-102101249D01*
X97485877Y-101961917D01*
X97368431Y-101816884D01*
X97241781Y-101660484D01*
X96967516Y-101386219D01*
X96710317Y-101177943D01*
X96666082Y-101142122D01*
X96340793Y-100930877D01*
X96158516Y-100838002D01*
X129546751Y-100838002D01*
X129565685Y-101006056D01*
X129621545Y-101165694D01*
X129621547Y-101165697D01*
X129711518Y-101308884D01*
X129711523Y-101308890D01*
X129831109Y-101428476D01*
X129831115Y-101428481D01*
X129974302Y-101518452D01*
X129974305Y-101518454D01*
X129974309Y-101518455D01*
X129974310Y-101518456D01*
X130133941Y-101574313D01*
X130133944Y-101574314D01*
X130224274Y-101584491D01*
X130280163Y-101590788D01*
X130344576Y-101617854D01*
X130379658Y-101667833D01*
X130380523Y-101667417D01*
X130383050Y-101672666D01*
X130383318Y-101673047D01*
X130383541Y-101673684D01*
X130383547Y-101673697D01*
X130473518Y-101816884D01*
X130473523Y-101816890D01*
X130593109Y-101936476D01*
X130593115Y-101936481D01*
X130736302Y-102026452D01*
X130736305Y-102026454D01*
X130736309Y-102026455D01*
X130736310Y-102026456D01*
X130808913Y-102051860D01*
X130895943Y-102082314D01*
X131063997Y-102101249D01*
X131064000Y-102101249D01*
X131064003Y-102101249D01*
X131232056Y-102082314D01*
X131232059Y-102082313D01*
X131391690Y-102026456D01*
X131391692Y-102026454D01*
X131391694Y-102026454D01*
X131391697Y-102026452D01*
X131534884Y-101936481D01*
X131534885Y-101936480D01*
X131534890Y-101936477D01*
X131654477Y-101816890D01*
X131744452Y-101673697D01*
X131744454Y-101673694D01*
X131744454Y-101673692D01*
X131744456Y-101673690D01*
X131800313Y-101514059D01*
X131800313Y-101514058D01*
X131800314Y-101514056D01*
X131819249Y-101346002D01*
X131819249Y-101345997D01*
X131800314Y-101177943D01*
X131744454Y-101018305D01*
X131744452Y-101018302D01*
X131654481Y-100875115D01*
X131654476Y-100875109D01*
X131534890Y-100755523D01*
X131534884Y-100755518D01*
X131391697Y-100665547D01*
X131391694Y-100665545D01*
X131232056Y-100609685D01*
X131085836Y-100593211D01*
X131021422Y-100566145D01*
X130986343Y-100516165D01*
X130985477Y-100516583D01*
X130982942Y-100511319D01*
X130982678Y-100510943D01*
X130982457Y-100510312D01*
X130982452Y-100510302D01*
X130892481Y-100367115D01*
X130892476Y-100367109D01*
X130772890Y-100247523D01*
X130772884Y-100247518D01*
X130629697Y-100157547D01*
X130629694Y-100157545D01*
X130470056Y-100101685D01*
X130302003Y-100082751D01*
X130301997Y-100082751D01*
X130133943Y-100101685D01*
X129974305Y-100157545D01*
X129974302Y-100157547D01*
X129831115Y-100247518D01*
X129831109Y-100247523D01*
X129711523Y-100367109D01*
X129711518Y-100367115D01*
X129621547Y-100510302D01*
X129621545Y-100510305D01*
X129565685Y-100669943D01*
X129546751Y-100837997D01*
X129546751Y-100838002D01*
X96158516Y-100838002D01*
X95995197Y-100754787D01*
X95633094Y-100615788D01*
X95610325Y-100609687D01*
X95258433Y-100515398D01*
X95258429Y-100515397D01*
X95258428Y-100515397D01*
X94875339Y-100454722D01*
X94488001Y-100434422D01*
X94487999Y-100434422D01*
X94100660Y-100454722D01*
X93717572Y-100515397D01*
X93717570Y-100515397D01*
X93342905Y-100615788D01*
X92980802Y-100754787D01*
X92635206Y-100930877D01*
X92309917Y-101142122D01*
X92008488Y-101386215D01*
X92008480Y-101386222D01*
X91734222Y-101660480D01*
X91734215Y-101660488D01*
X91490122Y-101961917D01*
X91278877Y-102287206D01*
X91166985Y-102506808D01*
X91119011Y-102557604D01*
X91051190Y-102574399D01*
X90985055Y-102551862D01*
X90941603Y-102497147D01*
X90932500Y-102450513D01*
X90932500Y-99568002D01*
X131832751Y-99568002D01*
X131851685Y-99736056D01*
X131907545Y-99895694D01*
X131907547Y-99895697D01*
X131997518Y-100038884D01*
X131997523Y-100038890D01*
X132117109Y-100158476D01*
X132117115Y-100158481D01*
X132260302Y-100248452D01*
X132260305Y-100248454D01*
X132260309Y-100248455D01*
X132260310Y-100248456D01*
X132332913Y-100273860D01*
X132419943Y-100304314D01*
X132587997Y-100323249D01*
X132588000Y-100323249D01*
X132588003Y-100323249D01*
X132756056Y-100304314D01*
X132756059Y-100304313D01*
X132915690Y-100248456D01*
X132915692Y-100248454D01*
X132915694Y-100248454D01*
X132915697Y-100248452D01*
X133058884Y-100158481D01*
X133058885Y-100158480D01*
X133058890Y-100158477D01*
X133178477Y-100038890D01*
X133268452Y-99895697D01*
X133268454Y-99895694D01*
X133268454Y-99895692D01*
X133268456Y-99895690D01*
X133324313Y-99736059D01*
X133324313Y-99736058D01*
X133324314Y-99736056D01*
X133343249Y-99568002D01*
X133343249Y-99567997D01*
X133324314Y-99399943D01*
X133268454Y-99240305D01*
X133268452Y-99240302D01*
X133178481Y-99097115D01*
X133178476Y-99097109D01*
X133058890Y-98977523D01*
X133058884Y-98977518D01*
X132915697Y-98887547D01*
X132915694Y-98887545D01*
X132756056Y-98831685D01*
X132588003Y-98812751D01*
X132587997Y-98812751D01*
X132419943Y-98831685D01*
X132260305Y-98887545D01*
X132260302Y-98887547D01*
X132117115Y-98977518D01*
X132117109Y-98977523D01*
X131997523Y-99097109D01*
X131997518Y-99097115D01*
X131907547Y-99240302D01*
X131907545Y-99240305D01*
X131851685Y-99399943D01*
X131832751Y-99567997D01*
X131832751Y-99568002D01*
X90932500Y-99568002D01*
X90932500Y-96774000D01*
X132952540Y-96774000D01*
X132972326Y-96962256D01*
X132972327Y-96962259D01*
X133030818Y-97142277D01*
X133030821Y-97142284D01*
X133125467Y-97306216D01*
X133252129Y-97446888D01*
X133405265Y-97558148D01*
X133405270Y-97558151D01*
X133578192Y-97635142D01*
X133578197Y-97635144D01*
X133763354Y-97674500D01*
X133763355Y-97674500D01*
X133952644Y-97674500D01*
X133952646Y-97674500D01*
X134137803Y-97635144D01*
X134310730Y-97558151D01*
X134463871Y-97446888D01*
X134590533Y-97306216D01*
X134685179Y-97142284D01*
X134743674Y-96962256D01*
X134763460Y-96774000D01*
X135238540Y-96774000D01*
X135258326Y-96962256D01*
X135258327Y-96962259D01*
X135316818Y-97142277D01*
X135316821Y-97142284D01*
X135411467Y-97306216D01*
X135538129Y-97446888D01*
X135691265Y-97558148D01*
X135691270Y-97558151D01*
X135864192Y-97635142D01*
X135864197Y-97635144D01*
X136049354Y-97674500D01*
X136049355Y-97674500D01*
X136238644Y-97674500D01*
X136238646Y-97674500D01*
X136423803Y-97635144D01*
X136596730Y-97558151D01*
X136749871Y-97446888D01*
X136876533Y-97306216D01*
X136971179Y-97142284D01*
X137029674Y-96962256D01*
X137049460Y-96774000D01*
X137029674Y-96585744D01*
X136971179Y-96405716D01*
X136876533Y-96241784D01*
X136749871Y-96101112D01*
X136749870Y-96101111D01*
X136596734Y-95989851D01*
X136596729Y-95989848D01*
X136423807Y-95912857D01*
X136423802Y-95912855D01*
X136278001Y-95881865D01*
X136238646Y-95873500D01*
X136049354Y-95873500D01*
X136016897Y-95880398D01*
X135864197Y-95912855D01*
X135864192Y-95912857D01*
X135691270Y-95989848D01*
X135691265Y-95989851D01*
X135538129Y-96101111D01*
X135411466Y-96241785D01*
X135316821Y-96405715D01*
X135316818Y-96405722D01*
X135284846Y-96504123D01*
X135258326Y-96585744D01*
X135238540Y-96774000D01*
X134763460Y-96774000D01*
X134743674Y-96585744D01*
X134685179Y-96405716D01*
X134590533Y-96241784D01*
X134463871Y-96101112D01*
X134463870Y-96101111D01*
X134310734Y-95989851D01*
X134310729Y-95989848D01*
X134137807Y-95912857D01*
X134137802Y-95912855D01*
X133992001Y-95881865D01*
X133952646Y-95873500D01*
X133763354Y-95873500D01*
X133730897Y-95880398D01*
X133578197Y-95912855D01*
X133578192Y-95912857D01*
X133405270Y-95989848D01*
X133405265Y-95989851D01*
X133252129Y-96101111D01*
X133125466Y-96241785D01*
X133030821Y-96405715D01*
X133030818Y-96405722D01*
X132998846Y-96504123D01*
X132972326Y-96585744D01*
X132952540Y-96774000D01*
X90932500Y-96774000D01*
X90932500Y-95504000D01*
X154476432Y-95504000D01*
X154496266Y-95730705D01*
X154496268Y-95730715D01*
X154555164Y-95950523D01*
X154555166Y-95950527D01*
X154555167Y-95950531D01*
X154603256Y-96053657D01*
X154651344Y-96156783D01*
X154651345Y-96156785D01*
X154781873Y-96343198D01*
X154781878Y-96343204D01*
X154942795Y-96504121D01*
X154942801Y-96504126D01*
X155129214Y-96634654D01*
X155129216Y-96634655D01*
X155335469Y-96730833D01*
X155555290Y-96789733D01*
X155736658Y-96805601D01*
X155781999Y-96809568D01*
X155782000Y-96809568D01*
X155782001Y-96809568D01*
X155819785Y-96806262D01*
X156008710Y-96789733D01*
X156228531Y-96730833D01*
X156434784Y-96634655D01*
X156621203Y-96504123D01*
X156782123Y-96343203D01*
X156912655Y-96156784D01*
X157008833Y-95950531D01*
X157067733Y-95730710D01*
X157087568Y-95504000D01*
X159476432Y-95504000D01*
X159496266Y-95730705D01*
X159496268Y-95730715D01*
X159555164Y-95950523D01*
X159555166Y-95950527D01*
X159555167Y-95950531D01*
X159603256Y-96053657D01*
X159651344Y-96156783D01*
X159651345Y-96156785D01*
X159781873Y-96343198D01*
X159781878Y-96343204D01*
X159942795Y-96504121D01*
X159942801Y-96504126D01*
X160129214Y-96634654D01*
X160129216Y-96634655D01*
X160335469Y-96730833D01*
X160555290Y-96789733D01*
X160736658Y-96805601D01*
X160781999Y-96809568D01*
X160782000Y-96809568D01*
X160782001Y-96809568D01*
X160819785Y-96806262D01*
X161008710Y-96789733D01*
X161228531Y-96730833D01*
X161434784Y-96634655D01*
X161621203Y-96504123D01*
X161782123Y-96343203D01*
X161912655Y-96156784D01*
X162008833Y-95950531D01*
X162067733Y-95730710D01*
X162087568Y-95504000D01*
X162067733Y-95277290D01*
X162008833Y-95057469D01*
X161912655Y-94851216D01*
X161782123Y-94664797D01*
X161621203Y-94503877D01*
X161621201Y-94503876D01*
X161621198Y-94503873D01*
X161434785Y-94373345D01*
X161434783Y-94373344D01*
X161331657Y-94325256D01*
X161228531Y-94277167D01*
X161228527Y-94277166D01*
X161228523Y-94277164D01*
X161008715Y-94218268D01*
X161008705Y-94218266D01*
X160782001Y-94198432D01*
X160781999Y-94198432D01*
X160555294Y-94218266D01*
X160555284Y-94218268D01*
X160335476Y-94277164D01*
X160335467Y-94277168D01*
X160129216Y-94373344D01*
X160129214Y-94373345D01*
X159942801Y-94503873D01*
X159942795Y-94503878D01*
X159781878Y-94664795D01*
X159781873Y-94664801D01*
X159651345Y-94851214D01*
X159651344Y-94851216D01*
X159555168Y-95057467D01*
X159555164Y-95057476D01*
X159496268Y-95277284D01*
X159496266Y-95277294D01*
X159476432Y-95503999D01*
X159476432Y-95504000D01*
X157087568Y-95504000D01*
X157067733Y-95277290D01*
X157008833Y-95057469D01*
X156912655Y-94851216D01*
X156782123Y-94664797D01*
X156621203Y-94503877D01*
X156621201Y-94503876D01*
X156621198Y-94503873D01*
X156434785Y-94373345D01*
X156434783Y-94373344D01*
X156331657Y-94325256D01*
X156228531Y-94277167D01*
X156228527Y-94277166D01*
X156228523Y-94277164D01*
X156008715Y-94218268D01*
X156008705Y-94218266D01*
X155782001Y-94198432D01*
X155781999Y-94198432D01*
X155555294Y-94218266D01*
X155555284Y-94218268D01*
X155335476Y-94277164D01*
X155335467Y-94277168D01*
X155129216Y-94373344D01*
X155129214Y-94373345D01*
X154942801Y-94503873D01*
X154942795Y-94503878D01*
X154781878Y-94664795D01*
X154781873Y-94664801D01*
X154651345Y-94851214D01*
X154651344Y-94851216D01*
X154555168Y-95057467D01*
X154555164Y-95057476D01*
X154496268Y-95277284D01*
X154496266Y-95277294D01*
X154476432Y-95503999D01*
X154476432Y-95504000D01*
X90932500Y-95504000D01*
X90932500Y-92964000D01*
X128380540Y-92964000D01*
X128400326Y-93152256D01*
X128400327Y-93152259D01*
X128458818Y-93332277D01*
X128458821Y-93332284D01*
X128553467Y-93496216D01*
X128680129Y-93636888D01*
X128833265Y-93748148D01*
X128833270Y-93748151D01*
X129006192Y-93825142D01*
X129006197Y-93825144D01*
X129191354Y-93864500D01*
X129191355Y-93864500D01*
X129380644Y-93864500D01*
X129380646Y-93864500D01*
X129565803Y-93825144D01*
X129738730Y-93748151D01*
X129891871Y-93636888D01*
X130018533Y-93496216D01*
X130113179Y-93332284D01*
X130171674Y-93152256D01*
X130191460Y-92964000D01*
X131682540Y-92964000D01*
X131702326Y-93152256D01*
X131702327Y-93152259D01*
X131760818Y-93332277D01*
X131760821Y-93332284D01*
X131855467Y-93496216D01*
X131982129Y-93636888D01*
X132135265Y-93748148D01*
X132135270Y-93748151D01*
X132308192Y-93825142D01*
X132308197Y-93825144D01*
X132493354Y-93864500D01*
X132493355Y-93864500D01*
X132682644Y-93864500D01*
X132682646Y-93864500D01*
X132867803Y-93825144D01*
X133040730Y-93748151D01*
X133193871Y-93636888D01*
X133320533Y-93496216D01*
X133415179Y-93332284D01*
X133473674Y-93152256D01*
X133493460Y-92964000D01*
X139302540Y-92964000D01*
X139322326Y-93152256D01*
X139322327Y-93152259D01*
X139380818Y-93332277D01*
X139380821Y-93332284D01*
X139475467Y-93496216D01*
X139602129Y-93636888D01*
X139755265Y-93748148D01*
X139755270Y-93748151D01*
X139928192Y-93825142D01*
X139928197Y-93825144D01*
X140113354Y-93864500D01*
X140113355Y-93864500D01*
X140302644Y-93864500D01*
X140302646Y-93864500D01*
X140487803Y-93825144D01*
X140660730Y-93748151D01*
X140813871Y-93636888D01*
X140940533Y-93496216D01*
X141035179Y-93332284D01*
X141093674Y-93152256D01*
X141113460Y-92964000D01*
X142604540Y-92964000D01*
X142624326Y-93152256D01*
X142624327Y-93152259D01*
X142682818Y-93332277D01*
X142682821Y-93332284D01*
X142777467Y-93496216D01*
X142904129Y-93636888D01*
X143057265Y-93748148D01*
X143057270Y-93748151D01*
X143230192Y-93825142D01*
X143230197Y-93825144D01*
X143415354Y-93864500D01*
X143415355Y-93864500D01*
X143604644Y-93864500D01*
X143604646Y-93864500D01*
X143789803Y-93825144D01*
X143962730Y-93748151D01*
X144115871Y-93636888D01*
X144242533Y-93496216D01*
X144337179Y-93332284D01*
X144395674Y-93152256D01*
X144415460Y-92964000D01*
X145906540Y-92964000D01*
X145926326Y-93152256D01*
X145926327Y-93152259D01*
X145984818Y-93332277D01*
X145984821Y-93332284D01*
X146079467Y-93496216D01*
X146206129Y-93636888D01*
X146359265Y-93748148D01*
X146359270Y-93748151D01*
X146532192Y-93825142D01*
X146532197Y-93825144D01*
X146717354Y-93864500D01*
X146717355Y-93864500D01*
X146906644Y-93864500D01*
X146906646Y-93864500D01*
X147091803Y-93825144D01*
X147264730Y-93748151D01*
X147417871Y-93636888D01*
X147544533Y-93496216D01*
X147639179Y-93332284D01*
X147697674Y-93152256D01*
X147717460Y-92964000D01*
X149208540Y-92964000D01*
X149228326Y-93152256D01*
X149228327Y-93152259D01*
X149286818Y-93332277D01*
X149286821Y-93332284D01*
X149381467Y-93496216D01*
X149508129Y-93636888D01*
X149661265Y-93748148D01*
X149661270Y-93748151D01*
X149834192Y-93825142D01*
X149834197Y-93825144D01*
X150019354Y-93864500D01*
X150019355Y-93864500D01*
X150208644Y-93864500D01*
X150208646Y-93864500D01*
X150393803Y-93825144D01*
X150566730Y-93748151D01*
X150719871Y-93636888D01*
X150846533Y-93496216D01*
X150941179Y-93332284D01*
X150999674Y-93152256D01*
X151019460Y-92964000D01*
X150999674Y-92775744D01*
X150941179Y-92595716D01*
X150846533Y-92431784D01*
X150719871Y-92291112D01*
X150719870Y-92291111D01*
X150566734Y-92179851D01*
X150566729Y-92179848D01*
X150393807Y-92102857D01*
X150393802Y-92102855D01*
X150248001Y-92071865D01*
X150208646Y-92063500D01*
X150019354Y-92063500D01*
X149986897Y-92070398D01*
X149834197Y-92102855D01*
X149834192Y-92102857D01*
X149661270Y-92179848D01*
X149661265Y-92179851D01*
X149508129Y-92291111D01*
X149381466Y-92431785D01*
X149286821Y-92595715D01*
X149286818Y-92595722D01*
X149266979Y-92656782D01*
X149228326Y-92775744D01*
X149208540Y-92964000D01*
X147717460Y-92964000D01*
X147697674Y-92775744D01*
X147639179Y-92595716D01*
X147544533Y-92431784D01*
X147417871Y-92291112D01*
X147417870Y-92291111D01*
X147264734Y-92179851D01*
X147264729Y-92179848D01*
X147091807Y-92102857D01*
X147091802Y-92102855D01*
X146946001Y-92071865D01*
X146906646Y-92063500D01*
X146717354Y-92063500D01*
X146684897Y-92070398D01*
X146532197Y-92102855D01*
X146532192Y-92102857D01*
X146359270Y-92179848D01*
X146359265Y-92179851D01*
X146206129Y-92291111D01*
X146079466Y-92431785D01*
X145984821Y-92595715D01*
X145984818Y-92595722D01*
X145964979Y-92656782D01*
X145926326Y-92775744D01*
X145906540Y-92964000D01*
X144415460Y-92964000D01*
X144395674Y-92775744D01*
X144337179Y-92595716D01*
X144242533Y-92431784D01*
X144115871Y-92291112D01*
X144115870Y-92291111D01*
X143962734Y-92179851D01*
X143962729Y-92179848D01*
X143789807Y-92102857D01*
X143789802Y-92102855D01*
X143644001Y-92071865D01*
X143604646Y-92063500D01*
X143415354Y-92063500D01*
X143382897Y-92070398D01*
X143230197Y-92102855D01*
X143230192Y-92102857D01*
X143057270Y-92179848D01*
X143057265Y-92179851D01*
X142904129Y-92291111D01*
X142777466Y-92431785D01*
X142682821Y-92595715D01*
X142682818Y-92595722D01*
X142662979Y-92656782D01*
X142624326Y-92775744D01*
X142604540Y-92964000D01*
X141113460Y-92964000D01*
X141093674Y-92775744D01*
X141035179Y-92595716D01*
X140940533Y-92431784D01*
X140813871Y-92291112D01*
X140813870Y-92291111D01*
X140660734Y-92179851D01*
X140660729Y-92179848D01*
X140487807Y-92102857D01*
X140487802Y-92102855D01*
X140342001Y-92071865D01*
X140302646Y-92063500D01*
X140113354Y-92063500D01*
X140080897Y-92070398D01*
X139928197Y-92102855D01*
X139928192Y-92102857D01*
X139755270Y-92179848D01*
X139755265Y-92179851D01*
X139602129Y-92291111D01*
X139475466Y-92431785D01*
X139380821Y-92595715D01*
X139380818Y-92595722D01*
X139360979Y-92656782D01*
X139322326Y-92775744D01*
X139302540Y-92964000D01*
X133493460Y-92964000D01*
X133473674Y-92775744D01*
X133415179Y-92595716D01*
X133320533Y-92431784D01*
X133193871Y-92291112D01*
X133193870Y-92291111D01*
X133040734Y-92179851D01*
X133040729Y-92179848D01*
X132867807Y-92102857D01*
X132867802Y-92102855D01*
X132722001Y-92071865D01*
X132682646Y-92063500D01*
X132493354Y-92063500D01*
X132460897Y-92070398D01*
X132308197Y-92102855D01*
X132308192Y-92102857D01*
X132135270Y-92179848D01*
X132135265Y-92179851D01*
X131982129Y-92291111D01*
X131855466Y-92431785D01*
X131760821Y-92595715D01*
X131760818Y-92595722D01*
X131740979Y-92656782D01*
X131702326Y-92775744D01*
X131682540Y-92964000D01*
X130191460Y-92964000D01*
X130171674Y-92775744D01*
X130113179Y-92595716D01*
X130018533Y-92431784D01*
X129891871Y-92291112D01*
X129891870Y-92291111D01*
X129738734Y-92179851D01*
X129738729Y-92179848D01*
X129565807Y-92102857D01*
X129565802Y-92102855D01*
X129420001Y-92071865D01*
X129380646Y-92063500D01*
X129191354Y-92063500D01*
X129158897Y-92070398D01*
X129006197Y-92102855D01*
X129006192Y-92102857D01*
X128833270Y-92179848D01*
X128833265Y-92179851D01*
X128680129Y-92291111D01*
X128553466Y-92431785D01*
X128458821Y-92595715D01*
X128458818Y-92595722D01*
X128438979Y-92656782D01*
X128400326Y-92775744D01*
X128380540Y-92964000D01*
X90932500Y-92964000D01*
X90932500Y-92003997D01*
X154476432Y-92003997D01*
X154496266Y-92230702D01*
X154496268Y-92230712D01*
X154555164Y-92450520D01*
X154555166Y-92450524D01*
X154555167Y-92450528D01*
X154603256Y-92553654D01*
X154651344Y-92656780D01*
X154651345Y-92656782D01*
X154781873Y-92843195D01*
X154781878Y-92843201D01*
X154942795Y-93004118D01*
X154942801Y-93004123D01*
X155129214Y-93134651D01*
X155129216Y-93134652D01*
X155335469Y-93230830D01*
X155555290Y-93289730D01*
X155736658Y-93305598D01*
X155781999Y-93309565D01*
X155782000Y-93309565D01*
X155782001Y-93309565D01*
X155819785Y-93306259D01*
X156008710Y-93289730D01*
X156228531Y-93230830D01*
X156434784Y-93134652D01*
X156621203Y-93004120D01*
X156782123Y-92843200D01*
X156912655Y-92656781D01*
X157008833Y-92450528D01*
X157067733Y-92230707D01*
X157087568Y-92003997D01*
X159476432Y-92003997D01*
X159496266Y-92230702D01*
X159496268Y-92230712D01*
X159555164Y-92450520D01*
X159555166Y-92450524D01*
X159555167Y-92450528D01*
X159603256Y-92553654D01*
X159651344Y-92656780D01*
X159651345Y-92656782D01*
X159781873Y-92843195D01*
X159781878Y-92843201D01*
X159942795Y-93004118D01*
X159942801Y-93004123D01*
X160129214Y-93134651D01*
X160129216Y-93134652D01*
X160335469Y-93230830D01*
X160555290Y-93289730D01*
X160736658Y-93305598D01*
X160781999Y-93309565D01*
X160782000Y-93309565D01*
X160782001Y-93309565D01*
X160819785Y-93306259D01*
X161008710Y-93289730D01*
X161228531Y-93230830D01*
X161434784Y-93134652D01*
X161621203Y-93004120D01*
X161782123Y-92843200D01*
X161912655Y-92656781D01*
X162008833Y-92450528D01*
X162067733Y-92230707D01*
X162087568Y-92003997D01*
X162067733Y-91777287D01*
X162008833Y-91557466D01*
X161912655Y-91351213D01*
X161782123Y-91164794D01*
X161621203Y-91003874D01*
X161621201Y-91003873D01*
X161621198Y-91003870D01*
X161434785Y-90873342D01*
X161434783Y-90873341D01*
X161331657Y-90825253D01*
X161228531Y-90777164D01*
X161228527Y-90777163D01*
X161228523Y-90777161D01*
X161008715Y-90718265D01*
X161008705Y-90718263D01*
X160782001Y-90698429D01*
X160781999Y-90698429D01*
X160555294Y-90718263D01*
X160555284Y-90718265D01*
X160335476Y-90777161D01*
X160335467Y-90777165D01*
X160129216Y-90873341D01*
X160129214Y-90873342D01*
X159942801Y-91003870D01*
X159942795Y-91003875D01*
X159781878Y-91164792D01*
X159781873Y-91164798D01*
X159651345Y-91351211D01*
X159651344Y-91351213D01*
X159555168Y-91557464D01*
X159555164Y-91557473D01*
X159496268Y-91777281D01*
X159496266Y-91777291D01*
X159476432Y-92003996D01*
X159476432Y-92003997D01*
X157087568Y-92003997D01*
X157067733Y-91777287D01*
X157008833Y-91557466D01*
X156912655Y-91351213D01*
X156782123Y-91164794D01*
X156621203Y-91003874D01*
X156621201Y-91003873D01*
X156621198Y-91003870D01*
X156434785Y-90873342D01*
X156434783Y-90873341D01*
X156331657Y-90825253D01*
X156228531Y-90777164D01*
X156228527Y-90777163D01*
X156228523Y-90777161D01*
X156008715Y-90718265D01*
X156008705Y-90718263D01*
X155782001Y-90698429D01*
X155781999Y-90698429D01*
X155555294Y-90718263D01*
X155555284Y-90718265D01*
X155335476Y-90777161D01*
X155335467Y-90777165D01*
X155129216Y-90873341D01*
X155129214Y-90873342D01*
X154942801Y-91003870D01*
X154942795Y-91003875D01*
X154781878Y-91164792D01*
X154781873Y-91164798D01*
X154651345Y-91351211D01*
X154651344Y-91351213D01*
X154555168Y-91557464D01*
X154555164Y-91557473D01*
X154496268Y-91777281D01*
X154496266Y-91777291D01*
X154476432Y-92003996D01*
X154476432Y-92003997D01*
X90932500Y-92003997D01*
X90932500Y-84709000D01*
X100731431Y-84709000D01*
X100751265Y-84935705D01*
X100751267Y-84935715D01*
X100810163Y-85155523D01*
X100810165Y-85155527D01*
X100810166Y-85155531D01*
X100837710Y-85214598D01*
X100906343Y-85361783D01*
X100906344Y-85361785D01*
X101036872Y-85548198D01*
X101036877Y-85548204D01*
X101197794Y-85709121D01*
X101197800Y-85709126D01*
X101384213Y-85839654D01*
X101384215Y-85839655D01*
X101590468Y-85935833D01*
X101810289Y-85994733D01*
X101991657Y-86010601D01*
X102036998Y-86014568D01*
X102036999Y-86014568D01*
X102037000Y-86014568D01*
X102074784Y-86011262D01*
X102263709Y-85994733D01*
X102483530Y-85935833D01*
X102689783Y-85839655D01*
X102876202Y-85709123D01*
X103037122Y-85548203D01*
X103167654Y-85361784D01*
X103263832Y-85155531D01*
X103322732Y-84935710D01*
X103342567Y-84709000D01*
X104231934Y-84709000D01*
X104251760Y-84935617D01*
X104251762Y-84935627D01*
X104310636Y-85155351D01*
X104310640Y-85155360D01*
X104406782Y-85361536D01*
X104457901Y-85434543D01*
X104457903Y-85434544D01*
X105014369Y-84878077D01*
X105017594Y-84893597D01*
X105086658Y-85026886D01*
X105189123Y-85136598D01*
X105317388Y-85214598D01*
X105370166Y-85229385D01*
X104811454Y-85788096D01*
X104884466Y-85839219D01*
X104884468Y-85839220D01*
X105090639Y-85935359D01*
X105090648Y-85935363D01*
X105310372Y-85994237D01*
X105310382Y-85994239D01*
X105536999Y-86014066D01*
X105537001Y-86014066D01*
X105763617Y-85994239D01*
X105763627Y-85994237D01*
X105983351Y-85935363D01*
X105983360Y-85935359D01*
X106189530Y-85839221D01*
X106262544Y-85788096D01*
X105705603Y-85231156D01*
X105823412Y-85179985D01*
X105939862Y-85085246D01*
X106026433Y-84962603D01*
X106057300Y-84875748D01*
X106616096Y-85434544D01*
X106667221Y-85361530D01*
X106763359Y-85155360D01*
X106763363Y-85155351D01*
X106822237Y-84935627D01*
X106822239Y-84935617D01*
X106842066Y-84709000D01*
X107731432Y-84709000D01*
X107751266Y-84935705D01*
X107751268Y-84935715D01*
X107810164Y-85155523D01*
X107810166Y-85155527D01*
X107810167Y-85155531D01*
X107837711Y-85214598D01*
X107906344Y-85361783D01*
X107906345Y-85361785D01*
X108036873Y-85548198D01*
X108036878Y-85548204D01*
X108197795Y-85709121D01*
X108197801Y-85709126D01*
X108384214Y-85839654D01*
X108384216Y-85839655D01*
X108590469Y-85935833D01*
X108810290Y-85994733D01*
X108991658Y-86010601D01*
X109036999Y-86014568D01*
X109037000Y-86014568D01*
X109037001Y-86014568D01*
X109074785Y-86011262D01*
X109263710Y-85994733D01*
X109483531Y-85935833D01*
X109689784Y-85839655D01*
X109876203Y-85709123D01*
X110037123Y-85548203D01*
X110167655Y-85361784D01*
X110263833Y-85155531D01*
X110322733Y-84935710D01*
X110342568Y-84709000D01*
X114391432Y-84709000D01*
X114411266Y-84935705D01*
X114411268Y-84935715D01*
X114470164Y-85155523D01*
X114470166Y-85155527D01*
X114470167Y-85155531D01*
X114497711Y-85214598D01*
X114566344Y-85361783D01*
X114566345Y-85361785D01*
X114696873Y-85548198D01*
X114696878Y-85548204D01*
X114857795Y-85709121D01*
X114857801Y-85709126D01*
X115044214Y-85839654D01*
X115044216Y-85839655D01*
X115250469Y-85935833D01*
X115470290Y-85994733D01*
X115651658Y-86010601D01*
X115696999Y-86014568D01*
X115697000Y-86014568D01*
X115697001Y-86014568D01*
X115734785Y-86011262D01*
X115923710Y-85994733D01*
X116143531Y-85935833D01*
X116349784Y-85839655D01*
X116536203Y-85709123D01*
X116697123Y-85548203D01*
X116827655Y-85361784D01*
X116923833Y-85155531D01*
X116982733Y-84935710D01*
X117002568Y-84709000D01*
X117891433Y-84709000D01*
X117911267Y-84935705D01*
X117911269Y-84935715D01*
X117970165Y-85155523D01*
X117970167Y-85155527D01*
X117970168Y-85155531D01*
X117997712Y-85214598D01*
X118066345Y-85361783D01*
X118066346Y-85361785D01*
X118196874Y-85548198D01*
X118196879Y-85548204D01*
X118357796Y-85709121D01*
X118357802Y-85709126D01*
X118544215Y-85839654D01*
X118544217Y-85839655D01*
X118750470Y-85935833D01*
X118970291Y-85994733D01*
X119151659Y-86010601D01*
X119197000Y-86014568D01*
X119197001Y-86014568D01*
X119197002Y-86014568D01*
X119234786Y-86011262D01*
X119423711Y-85994733D01*
X119643532Y-85935833D01*
X119849785Y-85839655D01*
X120036204Y-85709123D01*
X120197124Y-85548203D01*
X120327656Y-85361784D01*
X120423834Y-85155531D01*
X120482734Y-84935710D01*
X120502569Y-84709000D01*
X121391433Y-84709000D01*
X121411267Y-84935705D01*
X121411269Y-84935715D01*
X121470165Y-85155523D01*
X121470167Y-85155527D01*
X121470168Y-85155531D01*
X121497712Y-85214598D01*
X121566345Y-85361783D01*
X121566346Y-85361785D01*
X121696874Y-85548198D01*
X121696879Y-85548204D01*
X121857796Y-85709121D01*
X121857802Y-85709126D01*
X122044215Y-85839654D01*
X122044217Y-85839655D01*
X122250470Y-85935833D01*
X122470291Y-85994733D01*
X122651659Y-86010601D01*
X122697000Y-86014568D01*
X122697001Y-86014568D01*
X122697002Y-86014568D01*
X122734786Y-86011262D01*
X122923711Y-85994733D01*
X123143532Y-85935833D01*
X123349785Y-85839655D01*
X123536204Y-85709123D01*
X123697124Y-85548203D01*
X123827656Y-85361784D01*
X123923834Y-85155531D01*
X123982734Y-84935710D01*
X124002569Y-84709000D01*
X127980432Y-84709000D01*
X128000266Y-84935705D01*
X128000268Y-84935715D01*
X128059164Y-85155523D01*
X128059166Y-85155527D01*
X128059167Y-85155531D01*
X128086711Y-85214598D01*
X128155344Y-85361783D01*
X128155345Y-85361785D01*
X128285873Y-85548198D01*
X128285878Y-85548204D01*
X128446795Y-85709121D01*
X128446801Y-85709126D01*
X128633214Y-85839654D01*
X128633216Y-85839655D01*
X128839469Y-85935833D01*
X129059290Y-85994733D01*
X129240658Y-86010601D01*
X129285999Y-86014568D01*
X129286000Y-86014568D01*
X129286001Y-86014568D01*
X129323785Y-86011262D01*
X129512710Y-85994733D01*
X129732531Y-85935833D01*
X129938784Y-85839655D01*
X130125203Y-85709123D01*
X130286123Y-85548203D01*
X130416655Y-85361784D01*
X130512833Y-85155531D01*
X130571733Y-84935710D01*
X130591568Y-84709000D01*
X131480433Y-84709000D01*
X131500267Y-84935705D01*
X131500269Y-84935715D01*
X131559165Y-85155523D01*
X131559167Y-85155527D01*
X131559168Y-85155531D01*
X131586712Y-85214598D01*
X131655345Y-85361783D01*
X131655346Y-85361785D01*
X131785874Y-85548198D01*
X131785879Y-85548204D01*
X131946796Y-85709121D01*
X131946802Y-85709126D01*
X132133215Y-85839654D01*
X132133217Y-85839655D01*
X132339470Y-85935833D01*
X132559291Y-85994733D01*
X132740659Y-86010601D01*
X132786000Y-86014568D01*
X132786001Y-86014568D01*
X132786002Y-86014568D01*
X132823786Y-86011262D01*
X133012711Y-85994733D01*
X133232532Y-85935833D01*
X133438785Y-85839655D01*
X133625204Y-85709123D01*
X133786124Y-85548203D01*
X133916656Y-85361784D01*
X134012834Y-85155531D01*
X134071734Y-84935710D01*
X134091569Y-84709000D01*
X134980433Y-84709000D01*
X135000267Y-84935705D01*
X135000269Y-84935715D01*
X135059165Y-85155523D01*
X135059167Y-85155527D01*
X135059168Y-85155531D01*
X135086712Y-85214598D01*
X135155345Y-85361783D01*
X135155346Y-85361785D01*
X135285874Y-85548198D01*
X135285879Y-85548204D01*
X135446796Y-85709121D01*
X135446802Y-85709126D01*
X135633215Y-85839654D01*
X135633217Y-85839655D01*
X135839470Y-85935833D01*
X136059291Y-85994733D01*
X136240659Y-86010601D01*
X136286000Y-86014568D01*
X136286001Y-86014568D01*
X136286002Y-86014568D01*
X136323786Y-86011262D01*
X136512711Y-85994733D01*
X136732532Y-85935833D01*
X136938785Y-85839655D01*
X137125204Y-85709123D01*
X137286124Y-85548203D01*
X137416656Y-85361784D01*
X137512834Y-85155531D01*
X137571734Y-84935710D01*
X137591569Y-84709000D01*
X137590291Y-84694401D01*
X141413437Y-84694401D01*
X141433650Y-84925444D01*
X141433651Y-84925451D01*
X141493678Y-85149474D01*
X141493679Y-85149476D01*
X141493680Y-85149479D01*
X141591699Y-85359682D01*
X141724730Y-85549669D01*
X141888731Y-85713670D01*
X142078718Y-85846701D01*
X142288921Y-85944720D01*
X142512950Y-86004749D01*
X142677985Y-86019187D01*
X142743998Y-86024963D01*
X142744000Y-86024963D01*
X142744002Y-86024963D01*
X142801762Y-86019909D01*
X142975050Y-86004749D01*
X143199079Y-85944720D01*
X143409282Y-85846701D01*
X143599269Y-85713670D01*
X143763270Y-85549669D01*
X143896301Y-85359682D01*
X143994320Y-85149479D01*
X144054349Y-84925450D01*
X144074563Y-84694401D01*
X144913437Y-84694401D01*
X144933650Y-84925444D01*
X144933651Y-84925451D01*
X144993678Y-85149474D01*
X144993679Y-85149476D01*
X144993680Y-85149479D01*
X145091699Y-85359682D01*
X145224730Y-85549669D01*
X145388731Y-85713670D01*
X145578718Y-85846701D01*
X145788921Y-85944720D01*
X146012950Y-86004749D01*
X146177985Y-86019187D01*
X146243998Y-86024963D01*
X146244000Y-86024963D01*
X146244002Y-86024963D01*
X146301762Y-86019909D01*
X146475050Y-86004749D01*
X146699079Y-85944720D01*
X146909282Y-85846701D01*
X147099269Y-85713670D01*
X147263270Y-85549669D01*
X147396301Y-85359682D01*
X147494320Y-85149479D01*
X147554349Y-84925450D01*
X147574563Y-84694401D01*
X148413437Y-84694401D01*
X148433650Y-84925444D01*
X148433651Y-84925451D01*
X148493678Y-85149474D01*
X148493679Y-85149476D01*
X148493680Y-85149479D01*
X148591699Y-85359682D01*
X148724730Y-85549669D01*
X148888731Y-85713670D01*
X149078718Y-85846701D01*
X149288921Y-85944720D01*
X149512950Y-86004749D01*
X149677985Y-86019187D01*
X149743998Y-86024963D01*
X149744000Y-86024963D01*
X149744002Y-86024963D01*
X149801762Y-86019909D01*
X149975050Y-86004749D01*
X150199079Y-85944720D01*
X150409282Y-85846701D01*
X150599269Y-85713670D01*
X150763270Y-85549669D01*
X150896301Y-85359682D01*
X150994320Y-85149479D01*
X151054349Y-84925450D01*
X151074563Y-84694401D01*
X151913437Y-84694401D01*
X151933650Y-84925444D01*
X151933651Y-84925451D01*
X151993678Y-85149474D01*
X151993679Y-85149476D01*
X151993680Y-85149479D01*
X152091699Y-85359682D01*
X152224730Y-85549669D01*
X152388731Y-85713670D01*
X152578718Y-85846701D01*
X152788921Y-85944720D01*
X153012950Y-86004749D01*
X153177985Y-86019187D01*
X153243998Y-86024963D01*
X153244000Y-86024963D01*
X153244002Y-86024963D01*
X153301762Y-86019909D01*
X153475050Y-86004749D01*
X153699079Y-85944720D01*
X153909282Y-85846701D01*
X154099269Y-85713670D01*
X154263270Y-85549669D01*
X154396301Y-85359682D01*
X154494320Y-85149479D01*
X154554349Y-84925450D01*
X154574563Y-84694400D01*
X154554349Y-84463350D01*
X154494320Y-84239321D01*
X154396301Y-84029119D01*
X154396299Y-84029116D01*
X154396298Y-84029114D01*
X154263273Y-83839135D01*
X154263268Y-83839129D01*
X154099269Y-83675130D01*
X154034678Y-83629903D01*
X153909282Y-83542099D01*
X153699079Y-83444080D01*
X153699076Y-83444079D01*
X153699074Y-83444078D01*
X153475051Y-83384051D01*
X153475044Y-83384050D01*
X153244002Y-83363837D01*
X153243998Y-83363837D01*
X153012955Y-83384050D01*
X153012948Y-83384051D01*
X152788917Y-83444081D01*
X152578718Y-83542099D01*
X152578714Y-83542101D01*
X152388735Y-83675126D01*
X152388729Y-83675131D01*
X152224731Y-83839129D01*
X152224726Y-83839135D01*
X152091701Y-84029114D01*
X152091699Y-84029118D01*
X151993681Y-84239317D01*
X151933651Y-84463348D01*
X151933650Y-84463355D01*
X151913437Y-84694398D01*
X151913437Y-84694401D01*
X151074563Y-84694401D01*
X151074563Y-84694400D01*
X151054349Y-84463350D01*
X150994320Y-84239321D01*
X150896301Y-84029119D01*
X150896299Y-84029116D01*
X150896298Y-84029114D01*
X150763273Y-83839135D01*
X150763268Y-83839129D01*
X150599269Y-83675130D01*
X150534678Y-83629903D01*
X150409282Y-83542099D01*
X150199079Y-83444080D01*
X150199076Y-83444079D01*
X150199074Y-83444078D01*
X149975051Y-83384051D01*
X149975044Y-83384050D01*
X149744002Y-83363837D01*
X149743998Y-83363837D01*
X149512955Y-83384050D01*
X149512948Y-83384051D01*
X149288917Y-83444081D01*
X149078718Y-83542099D01*
X149078714Y-83542101D01*
X148888735Y-83675126D01*
X148888729Y-83675131D01*
X148724731Y-83839129D01*
X148724726Y-83839135D01*
X148591701Y-84029114D01*
X148591699Y-84029118D01*
X148493681Y-84239317D01*
X148433651Y-84463348D01*
X148433650Y-84463355D01*
X148413437Y-84694398D01*
X148413437Y-84694401D01*
X147574563Y-84694401D01*
X147574563Y-84694400D01*
X147554349Y-84463350D01*
X147494320Y-84239321D01*
X147396301Y-84029119D01*
X147396299Y-84029116D01*
X147396298Y-84029114D01*
X147263273Y-83839135D01*
X147263268Y-83839129D01*
X147099269Y-83675130D01*
X147034678Y-83629903D01*
X146909282Y-83542099D01*
X146699079Y-83444080D01*
X146699076Y-83444079D01*
X146699074Y-83444078D01*
X146475051Y-83384051D01*
X146475044Y-83384050D01*
X146244002Y-83363837D01*
X146243998Y-83363837D01*
X146012955Y-83384050D01*
X146012948Y-83384051D01*
X145788917Y-83444081D01*
X145578718Y-83542099D01*
X145578714Y-83542101D01*
X145388735Y-83675126D01*
X145388729Y-83675131D01*
X145224731Y-83839129D01*
X145224726Y-83839135D01*
X145091701Y-84029114D01*
X145091699Y-84029118D01*
X144993681Y-84239317D01*
X144933651Y-84463348D01*
X144933650Y-84463355D01*
X144913437Y-84694398D01*
X144913437Y-84694401D01*
X144074563Y-84694401D01*
X144074563Y-84694400D01*
X144054349Y-84463350D01*
X143994320Y-84239321D01*
X143896301Y-84029119D01*
X143896299Y-84029116D01*
X143896298Y-84029114D01*
X143763273Y-83839135D01*
X143763268Y-83839129D01*
X143599269Y-83675130D01*
X143534678Y-83629903D01*
X143409282Y-83542099D01*
X143199079Y-83444080D01*
X143199076Y-83444079D01*
X143199074Y-83444078D01*
X142975051Y-83384051D01*
X142975044Y-83384050D01*
X142744002Y-83363837D01*
X142743998Y-83363837D01*
X142512955Y-83384050D01*
X142512948Y-83384051D01*
X142288917Y-83444081D01*
X142078718Y-83542099D01*
X142078714Y-83542101D01*
X141888735Y-83675126D01*
X141888729Y-83675131D01*
X141724731Y-83839129D01*
X141724726Y-83839135D01*
X141591701Y-84029114D01*
X141591699Y-84029118D01*
X141493681Y-84239317D01*
X141433651Y-84463348D01*
X141433650Y-84463355D01*
X141413437Y-84694398D01*
X141413437Y-84694401D01*
X137590291Y-84694401D01*
X137590291Y-84694398D01*
X137571734Y-84482294D01*
X137571734Y-84482290D01*
X137512834Y-84262469D01*
X137416656Y-84056216D01*
X137397682Y-84029119D01*
X137286127Y-83869801D01*
X137286122Y-83869795D01*
X137125205Y-83708878D01*
X137125199Y-83708873D01*
X136938786Y-83578345D01*
X136938784Y-83578344D01*
X136835658Y-83530256D01*
X136732532Y-83482167D01*
X136732528Y-83482166D01*
X136732524Y-83482164D01*
X136512716Y-83423268D01*
X136512706Y-83423266D01*
X136286002Y-83403432D01*
X136286000Y-83403432D01*
X136059295Y-83423266D01*
X136059285Y-83423268D01*
X135839477Y-83482164D01*
X135839468Y-83482168D01*
X135633217Y-83578344D01*
X135633215Y-83578345D01*
X135446802Y-83708873D01*
X135446796Y-83708878D01*
X135285879Y-83869795D01*
X135285874Y-83869801D01*
X135155346Y-84056214D01*
X135155345Y-84056216D01*
X135059169Y-84262467D01*
X135059165Y-84262476D01*
X135000269Y-84482284D01*
X135000267Y-84482294D01*
X134980433Y-84708999D01*
X134980433Y-84709000D01*
X134091569Y-84709000D01*
X134090291Y-84694398D01*
X134071734Y-84482294D01*
X134071734Y-84482290D01*
X134012834Y-84262469D01*
X133916656Y-84056216D01*
X133897682Y-84029119D01*
X133786127Y-83869801D01*
X133786122Y-83869795D01*
X133625205Y-83708878D01*
X133625199Y-83708873D01*
X133438786Y-83578345D01*
X133438784Y-83578344D01*
X133335658Y-83530256D01*
X133232532Y-83482167D01*
X133232528Y-83482166D01*
X133232524Y-83482164D01*
X133012716Y-83423268D01*
X133012706Y-83423266D01*
X132786002Y-83403432D01*
X132786000Y-83403432D01*
X132559295Y-83423266D01*
X132559285Y-83423268D01*
X132339477Y-83482164D01*
X132339468Y-83482168D01*
X132133217Y-83578344D01*
X132133215Y-83578345D01*
X131946802Y-83708873D01*
X131946796Y-83708878D01*
X131785879Y-83869795D01*
X131785874Y-83869801D01*
X131655346Y-84056214D01*
X131655345Y-84056216D01*
X131559169Y-84262467D01*
X131559165Y-84262476D01*
X131500269Y-84482284D01*
X131500267Y-84482294D01*
X131480433Y-84708999D01*
X131480433Y-84709000D01*
X130591568Y-84709000D01*
X130590290Y-84694398D01*
X130571733Y-84482294D01*
X130571733Y-84482290D01*
X130512833Y-84262469D01*
X130416655Y-84056216D01*
X130397681Y-84029119D01*
X130286126Y-83869801D01*
X130286121Y-83869795D01*
X130125204Y-83708878D01*
X130125198Y-83708873D01*
X129938785Y-83578345D01*
X129938783Y-83578344D01*
X129835657Y-83530256D01*
X129732531Y-83482167D01*
X129732527Y-83482166D01*
X129732523Y-83482164D01*
X129512715Y-83423268D01*
X129512705Y-83423266D01*
X129286001Y-83403432D01*
X129285999Y-83403432D01*
X129059294Y-83423266D01*
X129059284Y-83423268D01*
X128839476Y-83482164D01*
X128839467Y-83482168D01*
X128633216Y-83578344D01*
X128633214Y-83578345D01*
X128446801Y-83708873D01*
X128446795Y-83708878D01*
X128285878Y-83869795D01*
X128285873Y-83869801D01*
X128155345Y-84056214D01*
X128155344Y-84056216D01*
X128059168Y-84262467D01*
X128059164Y-84262476D01*
X128000268Y-84482284D01*
X128000266Y-84482294D01*
X127980432Y-84708999D01*
X127980432Y-84709000D01*
X124002569Y-84709000D01*
X124001291Y-84694398D01*
X123982734Y-84482294D01*
X123982734Y-84482290D01*
X123923834Y-84262469D01*
X123827656Y-84056216D01*
X123808682Y-84029119D01*
X123697127Y-83869801D01*
X123697122Y-83869795D01*
X123536205Y-83708878D01*
X123536199Y-83708873D01*
X123349786Y-83578345D01*
X123349784Y-83578344D01*
X123246658Y-83530256D01*
X123143532Y-83482167D01*
X123143528Y-83482166D01*
X123143524Y-83482164D01*
X122923716Y-83423268D01*
X122923706Y-83423266D01*
X122697002Y-83403432D01*
X122697000Y-83403432D01*
X122470295Y-83423266D01*
X122470285Y-83423268D01*
X122250477Y-83482164D01*
X122250468Y-83482168D01*
X122044217Y-83578344D01*
X122044215Y-83578345D01*
X121857802Y-83708873D01*
X121857796Y-83708878D01*
X121696879Y-83869795D01*
X121696874Y-83869801D01*
X121566346Y-84056214D01*
X121566345Y-84056216D01*
X121470169Y-84262467D01*
X121470165Y-84262476D01*
X121411269Y-84482284D01*
X121411267Y-84482294D01*
X121391433Y-84708999D01*
X121391433Y-84709000D01*
X120502569Y-84709000D01*
X120501291Y-84694398D01*
X120482734Y-84482294D01*
X120482734Y-84482290D01*
X120423834Y-84262469D01*
X120327656Y-84056216D01*
X120308682Y-84029119D01*
X120197127Y-83869801D01*
X120197122Y-83869795D01*
X120036205Y-83708878D01*
X120036199Y-83708873D01*
X119849786Y-83578345D01*
X119849784Y-83578344D01*
X119746658Y-83530256D01*
X119643532Y-83482167D01*
X119643528Y-83482166D01*
X119643524Y-83482164D01*
X119423716Y-83423268D01*
X119423706Y-83423266D01*
X119197002Y-83403432D01*
X119197000Y-83403432D01*
X118970295Y-83423266D01*
X118970285Y-83423268D01*
X118750477Y-83482164D01*
X118750468Y-83482168D01*
X118544217Y-83578344D01*
X118544215Y-83578345D01*
X118357802Y-83708873D01*
X118357796Y-83708878D01*
X118196879Y-83869795D01*
X118196874Y-83869801D01*
X118066346Y-84056214D01*
X118066345Y-84056216D01*
X117970169Y-84262467D01*
X117970165Y-84262476D01*
X117911269Y-84482284D01*
X117911267Y-84482294D01*
X117891433Y-84708999D01*
X117891433Y-84709000D01*
X117002568Y-84709000D01*
X117001290Y-84694398D01*
X116982733Y-84482294D01*
X116982733Y-84482290D01*
X116923833Y-84262469D01*
X116827655Y-84056216D01*
X116808681Y-84029119D01*
X116697126Y-83869801D01*
X116697121Y-83869795D01*
X116536204Y-83708878D01*
X116536198Y-83708873D01*
X116349785Y-83578345D01*
X116349783Y-83578344D01*
X116246657Y-83530256D01*
X116143531Y-83482167D01*
X116143527Y-83482166D01*
X116143523Y-83482164D01*
X115923715Y-83423268D01*
X115923705Y-83423266D01*
X115697001Y-83403432D01*
X115696999Y-83403432D01*
X115470294Y-83423266D01*
X115470284Y-83423268D01*
X115250476Y-83482164D01*
X115250467Y-83482168D01*
X115044216Y-83578344D01*
X115044214Y-83578345D01*
X114857801Y-83708873D01*
X114857795Y-83708878D01*
X114696878Y-83869795D01*
X114696873Y-83869801D01*
X114566345Y-84056214D01*
X114566344Y-84056216D01*
X114470168Y-84262467D01*
X114470164Y-84262476D01*
X114411268Y-84482284D01*
X114411266Y-84482294D01*
X114391432Y-84708999D01*
X114391432Y-84709000D01*
X110342568Y-84709000D01*
X110341290Y-84694398D01*
X110322733Y-84482294D01*
X110322733Y-84482290D01*
X110263833Y-84262469D01*
X110167655Y-84056216D01*
X110148681Y-84029119D01*
X110037126Y-83869801D01*
X110037121Y-83869795D01*
X109876204Y-83708878D01*
X109876198Y-83708873D01*
X109689785Y-83578345D01*
X109689783Y-83578344D01*
X109586657Y-83530256D01*
X109483531Y-83482167D01*
X109483527Y-83482166D01*
X109483523Y-83482164D01*
X109263715Y-83423268D01*
X109263705Y-83423266D01*
X109037001Y-83403432D01*
X109036999Y-83403432D01*
X108810294Y-83423266D01*
X108810284Y-83423268D01*
X108590476Y-83482164D01*
X108590467Y-83482168D01*
X108384216Y-83578344D01*
X108384214Y-83578345D01*
X108197801Y-83708873D01*
X108197795Y-83708878D01*
X108036878Y-83869795D01*
X108036873Y-83869801D01*
X107906345Y-84056214D01*
X107906344Y-84056216D01*
X107810168Y-84262467D01*
X107810164Y-84262476D01*
X107751268Y-84482284D01*
X107751266Y-84482294D01*
X107731432Y-84708999D01*
X107731432Y-84709000D01*
X106842066Y-84709000D01*
X106842066Y-84708999D01*
X106822239Y-84482382D01*
X106822237Y-84482372D01*
X106763363Y-84262648D01*
X106763359Y-84262639D01*
X106667220Y-84056468D01*
X106667219Y-84056466D01*
X106616096Y-83983455D01*
X106616096Y-83983454D01*
X106059630Y-84539920D01*
X106056406Y-84524403D01*
X105987342Y-84391114D01*
X105884877Y-84281402D01*
X105756612Y-84203402D01*
X105703833Y-84188614D01*
X106262544Y-83629903D01*
X106262543Y-83629901D01*
X106189536Y-83578782D01*
X105983360Y-83482640D01*
X105983351Y-83482636D01*
X105763627Y-83423762D01*
X105763617Y-83423760D01*
X105537001Y-83403934D01*
X105536999Y-83403934D01*
X105310382Y-83423760D01*
X105310372Y-83423762D01*
X105090648Y-83482636D01*
X105090639Y-83482640D01*
X104884464Y-83578781D01*
X104811454Y-83629901D01*
X105368396Y-84186843D01*
X105250588Y-84238015D01*
X105134138Y-84332754D01*
X105047567Y-84455397D01*
X105016699Y-84542252D01*
X104457901Y-83983454D01*
X104406781Y-84056464D01*
X104310640Y-84262639D01*
X104310636Y-84262648D01*
X104251762Y-84482372D01*
X104251760Y-84482382D01*
X104231934Y-84708999D01*
X104231934Y-84709000D01*
X103342567Y-84709000D01*
X103341289Y-84694398D01*
X103322732Y-84482294D01*
X103322732Y-84482290D01*
X103263832Y-84262469D01*
X103167654Y-84056216D01*
X103148680Y-84029119D01*
X103037125Y-83869801D01*
X103037120Y-83869795D01*
X102876203Y-83708878D01*
X102876197Y-83708873D01*
X102689784Y-83578345D01*
X102689782Y-83578344D01*
X102586656Y-83530256D01*
X102483530Y-83482167D01*
X102483526Y-83482166D01*
X102483522Y-83482164D01*
X102263714Y-83423268D01*
X102263704Y-83423266D01*
X102037000Y-83403432D01*
X102036998Y-83403432D01*
X101810293Y-83423266D01*
X101810283Y-83423268D01*
X101590475Y-83482164D01*
X101590466Y-83482168D01*
X101384215Y-83578344D01*
X101384213Y-83578345D01*
X101197800Y-83708873D01*
X101197794Y-83708878D01*
X101036877Y-83869795D01*
X101036872Y-83869801D01*
X100906344Y-84056214D01*
X100906343Y-84056216D01*
X100810167Y-84262467D01*
X100810163Y-84262476D01*
X100751267Y-84482284D01*
X100751265Y-84482294D01*
X100731431Y-84708999D01*
X100731431Y-84709000D01*
X90932500Y-84709000D01*
X90932500Y-81953486D01*
X90952185Y-81886447D01*
X91004989Y-81840692D01*
X91074147Y-81830748D01*
X91137703Y-81859773D01*
X91166985Y-81897192D01*
X91278874Y-82116788D01*
X91278875Y-82116791D01*
X91490122Y-82442082D01*
X91490124Y-82442084D01*
X91734219Y-82743516D01*
X92008484Y-83017781D01*
X92008488Y-83017784D01*
X92309917Y-83261877D01*
X92590487Y-83444081D01*
X92635211Y-83473125D01*
X92980806Y-83649214D01*
X93342913Y-83788214D01*
X93717567Y-83888602D01*
X94100662Y-83949278D01*
X94466576Y-83968455D01*
X94487999Y-83969578D01*
X94488000Y-83969578D01*
X94488001Y-83969578D01*
X94508301Y-83968514D01*
X94875338Y-83949278D01*
X95258433Y-83888602D01*
X95633087Y-83788214D01*
X95995194Y-83649214D01*
X96340789Y-83473125D01*
X96666084Y-83261876D01*
X96967516Y-83017781D01*
X97241781Y-82743516D01*
X97485876Y-82442084D01*
X97697125Y-82116789D01*
X97873214Y-81771194D01*
X98012214Y-81409087D01*
X98112602Y-81034433D01*
X98173278Y-80651338D01*
X98193578Y-80264000D01*
X98173278Y-79876662D01*
X98146723Y-79709000D01*
X100731431Y-79709000D01*
X100751265Y-79935705D01*
X100751267Y-79935715D01*
X100810163Y-80155523D01*
X100810165Y-80155527D01*
X100810166Y-80155531D01*
X100837710Y-80214598D01*
X100906343Y-80361783D01*
X100906344Y-80361785D01*
X101036872Y-80548198D01*
X101036877Y-80548204D01*
X101197794Y-80709121D01*
X101197800Y-80709126D01*
X101384213Y-80839654D01*
X101384215Y-80839655D01*
X101590468Y-80935833D01*
X101810289Y-80994733D01*
X101991657Y-81010601D01*
X102036998Y-81014568D01*
X102036999Y-81014568D01*
X102037000Y-81014568D01*
X102074784Y-81011262D01*
X102263709Y-80994733D01*
X102483530Y-80935833D01*
X102689783Y-80839655D01*
X102876202Y-80709123D01*
X103037122Y-80548203D01*
X103167654Y-80361784D01*
X103263832Y-80155531D01*
X103322732Y-79935710D01*
X103342567Y-79709000D01*
X104231934Y-79709000D01*
X104251760Y-79935617D01*
X104251762Y-79935627D01*
X104310636Y-80155351D01*
X104310640Y-80155360D01*
X104406782Y-80361536D01*
X104457901Y-80434543D01*
X104457903Y-80434544D01*
X105014369Y-79878077D01*
X105017594Y-79893597D01*
X105086658Y-80026886D01*
X105189123Y-80136598D01*
X105317388Y-80214598D01*
X105370166Y-80229385D01*
X104811454Y-80788096D01*
X104884466Y-80839219D01*
X104884468Y-80839220D01*
X105090639Y-80935359D01*
X105090648Y-80935363D01*
X105310372Y-80994237D01*
X105310382Y-80994239D01*
X105536999Y-81014066D01*
X105537001Y-81014066D01*
X105763617Y-80994239D01*
X105763627Y-80994237D01*
X105983351Y-80935363D01*
X105983360Y-80935359D01*
X106189530Y-80839221D01*
X106262544Y-80788096D01*
X105705603Y-80231156D01*
X105823412Y-80179985D01*
X105939862Y-80085246D01*
X106026433Y-79962603D01*
X106057300Y-79875748D01*
X106616096Y-80434544D01*
X106667221Y-80361530D01*
X106763359Y-80155360D01*
X106763363Y-80155351D01*
X106822237Y-79935627D01*
X106822239Y-79935617D01*
X106842066Y-79709000D01*
X107731432Y-79709000D01*
X107751266Y-79935705D01*
X107751268Y-79935715D01*
X107810164Y-80155523D01*
X107810166Y-80155527D01*
X107810167Y-80155531D01*
X107837711Y-80214598D01*
X107906344Y-80361783D01*
X107906345Y-80361785D01*
X108036873Y-80548198D01*
X108036878Y-80548204D01*
X108197795Y-80709121D01*
X108197801Y-80709126D01*
X108384214Y-80839654D01*
X108384216Y-80839655D01*
X108590469Y-80935833D01*
X108810290Y-80994733D01*
X108991658Y-81010601D01*
X109036999Y-81014568D01*
X109037000Y-81014568D01*
X109037001Y-81014568D01*
X109074785Y-81011262D01*
X109263710Y-80994733D01*
X109483531Y-80935833D01*
X109689784Y-80839655D01*
X109876203Y-80709123D01*
X110037123Y-80548203D01*
X110167655Y-80361784D01*
X110263833Y-80155531D01*
X110322733Y-79935710D01*
X110342568Y-79709000D01*
X114391432Y-79709000D01*
X114411266Y-79935705D01*
X114411268Y-79935715D01*
X114470164Y-80155523D01*
X114470166Y-80155527D01*
X114470167Y-80155531D01*
X114497711Y-80214598D01*
X114566344Y-80361783D01*
X114566345Y-80361785D01*
X114696873Y-80548198D01*
X114696878Y-80548204D01*
X114857795Y-80709121D01*
X114857801Y-80709126D01*
X115044214Y-80839654D01*
X115044216Y-80839655D01*
X115250469Y-80935833D01*
X115470290Y-80994733D01*
X115651658Y-81010601D01*
X115696999Y-81014568D01*
X115697000Y-81014568D01*
X115697001Y-81014568D01*
X115734785Y-81011262D01*
X115923710Y-80994733D01*
X116143531Y-80935833D01*
X116349784Y-80839655D01*
X116536203Y-80709123D01*
X116697123Y-80548203D01*
X116827655Y-80361784D01*
X116923833Y-80155531D01*
X116982733Y-79935710D01*
X117002568Y-79709000D01*
X117891433Y-79709000D01*
X117911267Y-79935705D01*
X117911269Y-79935715D01*
X117970165Y-80155523D01*
X117970167Y-80155527D01*
X117970168Y-80155531D01*
X117997712Y-80214598D01*
X118066345Y-80361783D01*
X118066346Y-80361785D01*
X118196874Y-80548198D01*
X118196879Y-80548204D01*
X118357796Y-80709121D01*
X118357802Y-80709126D01*
X118544215Y-80839654D01*
X118544217Y-80839655D01*
X118750470Y-80935833D01*
X118970291Y-80994733D01*
X119151659Y-81010601D01*
X119197000Y-81014568D01*
X119197001Y-81014568D01*
X119197002Y-81014568D01*
X119234786Y-81011262D01*
X119423711Y-80994733D01*
X119643532Y-80935833D01*
X119849785Y-80839655D01*
X120036204Y-80709123D01*
X120197124Y-80548203D01*
X120327656Y-80361784D01*
X120423834Y-80155531D01*
X120482734Y-79935710D01*
X120502569Y-79709000D01*
X121391433Y-79709000D01*
X121411267Y-79935705D01*
X121411269Y-79935715D01*
X121470165Y-80155523D01*
X121470167Y-80155527D01*
X121470168Y-80155531D01*
X121497712Y-80214598D01*
X121566345Y-80361783D01*
X121566346Y-80361785D01*
X121696874Y-80548198D01*
X121696879Y-80548204D01*
X121857796Y-80709121D01*
X121857802Y-80709126D01*
X122044215Y-80839654D01*
X122044217Y-80839655D01*
X122250470Y-80935833D01*
X122470291Y-80994733D01*
X122651659Y-81010601D01*
X122697000Y-81014568D01*
X122697001Y-81014568D01*
X122697002Y-81014568D01*
X122734786Y-81011262D01*
X122923711Y-80994733D01*
X123143532Y-80935833D01*
X123349785Y-80839655D01*
X123536204Y-80709123D01*
X123697124Y-80548203D01*
X123827656Y-80361784D01*
X123923834Y-80155531D01*
X123982734Y-79935710D01*
X124002569Y-79709000D01*
X127980432Y-79709000D01*
X128000266Y-79935705D01*
X128000268Y-79935715D01*
X128059164Y-80155523D01*
X128059166Y-80155527D01*
X128059167Y-80155531D01*
X128086711Y-80214598D01*
X128155344Y-80361783D01*
X128155345Y-80361785D01*
X128285873Y-80548198D01*
X128285878Y-80548204D01*
X128446795Y-80709121D01*
X128446801Y-80709126D01*
X128633214Y-80839654D01*
X128633216Y-80839655D01*
X128839469Y-80935833D01*
X129059290Y-80994733D01*
X129240658Y-81010601D01*
X129285999Y-81014568D01*
X129286000Y-81014568D01*
X129286001Y-81014568D01*
X129323785Y-81011262D01*
X129512710Y-80994733D01*
X129732531Y-80935833D01*
X129938784Y-80839655D01*
X130125203Y-80709123D01*
X130286123Y-80548203D01*
X130416655Y-80361784D01*
X130512833Y-80155531D01*
X130571733Y-79935710D01*
X130591568Y-79709000D01*
X131480433Y-79709000D01*
X131500267Y-79935705D01*
X131500269Y-79935715D01*
X131559165Y-80155523D01*
X131559167Y-80155527D01*
X131559168Y-80155531D01*
X131586712Y-80214598D01*
X131655345Y-80361783D01*
X131655346Y-80361785D01*
X131785874Y-80548198D01*
X131785879Y-80548204D01*
X131946796Y-80709121D01*
X131946802Y-80709126D01*
X132133215Y-80839654D01*
X132133217Y-80839655D01*
X132339470Y-80935833D01*
X132559291Y-80994733D01*
X132740659Y-81010601D01*
X132786000Y-81014568D01*
X132786001Y-81014568D01*
X132786002Y-81014568D01*
X132823786Y-81011262D01*
X133012711Y-80994733D01*
X133232532Y-80935833D01*
X133438785Y-80839655D01*
X133625204Y-80709123D01*
X133786124Y-80548203D01*
X133916656Y-80361784D01*
X134012834Y-80155531D01*
X134071734Y-79935710D01*
X134091569Y-79709000D01*
X134980433Y-79709000D01*
X135000267Y-79935705D01*
X135000269Y-79935715D01*
X135059165Y-80155523D01*
X135059167Y-80155527D01*
X135059168Y-80155531D01*
X135086712Y-80214598D01*
X135155345Y-80361783D01*
X135155346Y-80361785D01*
X135285874Y-80548198D01*
X135285879Y-80548204D01*
X135446796Y-80709121D01*
X135446802Y-80709126D01*
X135633215Y-80839654D01*
X135633217Y-80839655D01*
X135839470Y-80935833D01*
X136059291Y-80994733D01*
X136240659Y-81010601D01*
X136286000Y-81014568D01*
X136286001Y-81014568D01*
X136286002Y-81014568D01*
X136323786Y-81011262D01*
X136512711Y-80994733D01*
X136732532Y-80935833D01*
X136938785Y-80839655D01*
X137125204Y-80709123D01*
X137286124Y-80548203D01*
X137416656Y-80361784D01*
X137512834Y-80155531D01*
X137571734Y-79935710D01*
X137591569Y-79709000D01*
X137590291Y-79694401D01*
X141413437Y-79694401D01*
X141433650Y-79925444D01*
X141433651Y-79925451D01*
X141493678Y-80149474D01*
X141493679Y-80149476D01*
X141493680Y-80149479D01*
X141591699Y-80359682D01*
X141724730Y-80549669D01*
X141888731Y-80713670D01*
X142078718Y-80846701D01*
X142288921Y-80944720D01*
X142512950Y-81004749D01*
X142677985Y-81019187D01*
X142743998Y-81024963D01*
X142744000Y-81024963D01*
X142744002Y-81024963D01*
X142801762Y-81019909D01*
X142975050Y-81004749D01*
X143199079Y-80944720D01*
X143409282Y-80846701D01*
X143599269Y-80713670D01*
X143763270Y-80549669D01*
X143896301Y-80359682D01*
X143994320Y-80149479D01*
X144054349Y-79925450D01*
X144074563Y-79694401D01*
X144913437Y-79694401D01*
X144933650Y-79925444D01*
X144933651Y-79925451D01*
X144993678Y-80149474D01*
X144993679Y-80149476D01*
X144993680Y-80149479D01*
X145091699Y-80359682D01*
X145224730Y-80549669D01*
X145388731Y-80713670D01*
X145578718Y-80846701D01*
X145788921Y-80944720D01*
X146012950Y-81004749D01*
X146177985Y-81019187D01*
X146243998Y-81024963D01*
X146244000Y-81024963D01*
X146244002Y-81024963D01*
X146301762Y-81019909D01*
X146475050Y-81004749D01*
X146699079Y-80944720D01*
X146909282Y-80846701D01*
X147099269Y-80713670D01*
X147263270Y-80549669D01*
X147396301Y-80359682D01*
X147494320Y-80149479D01*
X147554349Y-79925450D01*
X147574563Y-79694401D01*
X148413437Y-79694401D01*
X148433650Y-79925444D01*
X148433651Y-79925451D01*
X148493678Y-80149474D01*
X148493679Y-80149476D01*
X148493680Y-80149479D01*
X148591699Y-80359682D01*
X148724730Y-80549669D01*
X148888731Y-80713670D01*
X149078718Y-80846701D01*
X149288921Y-80944720D01*
X149512950Y-81004749D01*
X149677985Y-81019187D01*
X149743998Y-81024963D01*
X149744000Y-81024963D01*
X149744002Y-81024963D01*
X149801762Y-81019909D01*
X149975050Y-81004749D01*
X150199079Y-80944720D01*
X150409282Y-80846701D01*
X150599269Y-80713670D01*
X150763270Y-80549669D01*
X150896301Y-80359682D01*
X150994320Y-80149479D01*
X151054349Y-79925450D01*
X151074563Y-79694401D01*
X151913437Y-79694401D01*
X151933650Y-79925444D01*
X151933651Y-79925451D01*
X151993678Y-80149474D01*
X151993679Y-80149476D01*
X151993680Y-80149479D01*
X152091699Y-80359682D01*
X152224730Y-80549669D01*
X152388731Y-80713670D01*
X152578718Y-80846701D01*
X152788921Y-80944720D01*
X153012950Y-81004749D01*
X153177985Y-81019187D01*
X153243998Y-81024963D01*
X153244000Y-81024963D01*
X153244002Y-81024963D01*
X153301762Y-81019909D01*
X153475050Y-81004749D01*
X153699079Y-80944720D01*
X153909282Y-80846701D01*
X154099269Y-80713670D01*
X154263270Y-80549669D01*
X154396301Y-80359682D01*
X154494320Y-80149479D01*
X154554349Y-79925450D01*
X154574563Y-79694400D01*
X154554349Y-79463350D01*
X154494320Y-79239321D01*
X154396301Y-79029119D01*
X154396299Y-79029116D01*
X154396298Y-79029114D01*
X154263273Y-78839135D01*
X154263268Y-78839129D01*
X154099269Y-78675130D01*
X154034678Y-78629903D01*
X153909282Y-78542099D01*
X153699079Y-78444080D01*
X153699076Y-78444079D01*
X153699074Y-78444078D01*
X153475051Y-78384051D01*
X153475044Y-78384050D01*
X153244002Y-78363837D01*
X153243998Y-78363837D01*
X153012955Y-78384050D01*
X153012948Y-78384051D01*
X152788917Y-78444081D01*
X152578718Y-78542099D01*
X152578714Y-78542101D01*
X152388735Y-78675126D01*
X152388729Y-78675131D01*
X152224731Y-78839129D01*
X152224726Y-78839135D01*
X152091701Y-79029114D01*
X152091699Y-79029118D01*
X151993681Y-79239317D01*
X151933651Y-79463348D01*
X151933650Y-79463355D01*
X151913437Y-79694398D01*
X151913437Y-79694401D01*
X151074563Y-79694401D01*
X151074563Y-79694400D01*
X151054349Y-79463350D01*
X150994320Y-79239321D01*
X150896301Y-79029119D01*
X150896299Y-79029116D01*
X150896298Y-79029114D01*
X150763273Y-78839135D01*
X150763268Y-78839129D01*
X150599269Y-78675130D01*
X150534678Y-78629903D01*
X150409282Y-78542099D01*
X150199079Y-78444080D01*
X150199076Y-78444079D01*
X150199074Y-78444078D01*
X149975051Y-78384051D01*
X149975044Y-78384050D01*
X149744002Y-78363837D01*
X149743998Y-78363837D01*
X149512955Y-78384050D01*
X149512948Y-78384051D01*
X149288917Y-78444081D01*
X149078718Y-78542099D01*
X149078714Y-78542101D01*
X148888735Y-78675126D01*
X148888729Y-78675131D01*
X148724731Y-78839129D01*
X148724726Y-78839135D01*
X148591701Y-79029114D01*
X148591699Y-79029118D01*
X148493681Y-79239317D01*
X148433651Y-79463348D01*
X148433650Y-79463355D01*
X148413437Y-79694398D01*
X148413437Y-79694401D01*
X147574563Y-79694401D01*
X147574563Y-79694400D01*
X147554349Y-79463350D01*
X147494320Y-79239321D01*
X147396301Y-79029119D01*
X147396299Y-79029116D01*
X147396298Y-79029114D01*
X147263273Y-78839135D01*
X147263268Y-78839129D01*
X147099269Y-78675130D01*
X147034678Y-78629903D01*
X146909282Y-78542099D01*
X146699079Y-78444080D01*
X146699076Y-78444079D01*
X146699074Y-78444078D01*
X146475051Y-78384051D01*
X146475044Y-78384050D01*
X146244002Y-78363837D01*
X146243998Y-78363837D01*
X146012955Y-78384050D01*
X146012948Y-78384051D01*
X145788917Y-78444081D01*
X145578718Y-78542099D01*
X145578714Y-78542101D01*
X145388735Y-78675126D01*
X145388729Y-78675131D01*
X145224731Y-78839129D01*
X145224726Y-78839135D01*
X145091701Y-79029114D01*
X145091699Y-79029118D01*
X144993681Y-79239317D01*
X144933651Y-79463348D01*
X144933650Y-79463355D01*
X144913437Y-79694398D01*
X144913437Y-79694401D01*
X144074563Y-79694401D01*
X144074563Y-79694400D01*
X144054349Y-79463350D01*
X143994320Y-79239321D01*
X143896301Y-79029119D01*
X143896299Y-79029116D01*
X143896298Y-79029114D01*
X143763273Y-78839135D01*
X143763268Y-78839129D01*
X143599269Y-78675130D01*
X143534678Y-78629903D01*
X143409282Y-78542099D01*
X143199079Y-78444080D01*
X143199076Y-78444079D01*
X143199074Y-78444078D01*
X142975051Y-78384051D01*
X142975044Y-78384050D01*
X142744002Y-78363837D01*
X142743998Y-78363837D01*
X142512955Y-78384050D01*
X142512948Y-78384051D01*
X142288917Y-78444081D01*
X142078718Y-78542099D01*
X142078714Y-78542101D01*
X141888735Y-78675126D01*
X141888729Y-78675131D01*
X141724731Y-78839129D01*
X141724726Y-78839135D01*
X141591701Y-79029114D01*
X141591699Y-79029118D01*
X141493681Y-79239317D01*
X141433651Y-79463348D01*
X141433650Y-79463355D01*
X141413437Y-79694398D01*
X141413437Y-79694401D01*
X137590291Y-79694401D01*
X137590291Y-79694398D01*
X137572721Y-79493570D01*
X137571734Y-79482290D01*
X137512834Y-79262469D01*
X137416656Y-79056216D01*
X137403879Y-79037969D01*
X137286127Y-78869801D01*
X137286122Y-78869795D01*
X137125205Y-78708878D01*
X137125199Y-78708873D01*
X136938786Y-78578345D01*
X136938784Y-78578344D01*
X136835658Y-78530256D01*
X136732532Y-78482167D01*
X136732528Y-78482166D01*
X136732524Y-78482164D01*
X136512716Y-78423268D01*
X136512706Y-78423266D01*
X136286002Y-78403432D01*
X136286000Y-78403432D01*
X136059295Y-78423266D01*
X136059285Y-78423268D01*
X135839477Y-78482164D01*
X135839468Y-78482168D01*
X135633217Y-78578344D01*
X135633215Y-78578345D01*
X135446802Y-78708873D01*
X135446796Y-78708878D01*
X135285879Y-78869795D01*
X135285874Y-78869801D01*
X135155346Y-79056214D01*
X135155345Y-79056216D01*
X135059169Y-79262467D01*
X135059165Y-79262476D01*
X135000269Y-79482284D01*
X135000267Y-79482294D01*
X134980433Y-79708999D01*
X134980433Y-79709000D01*
X134091569Y-79709000D01*
X134090291Y-79694398D01*
X134072721Y-79493570D01*
X134071734Y-79482290D01*
X134012834Y-79262469D01*
X133916656Y-79056216D01*
X133903879Y-79037969D01*
X133786127Y-78869801D01*
X133786122Y-78869795D01*
X133625205Y-78708878D01*
X133625199Y-78708873D01*
X133438786Y-78578345D01*
X133438784Y-78578344D01*
X133335658Y-78530256D01*
X133232532Y-78482167D01*
X133232528Y-78482166D01*
X133232524Y-78482164D01*
X133012716Y-78423268D01*
X133012706Y-78423266D01*
X132786002Y-78403432D01*
X132786000Y-78403432D01*
X132559295Y-78423266D01*
X132559285Y-78423268D01*
X132339477Y-78482164D01*
X132339468Y-78482168D01*
X132133217Y-78578344D01*
X132133215Y-78578345D01*
X131946802Y-78708873D01*
X131946796Y-78708878D01*
X131785879Y-78869795D01*
X131785874Y-78869801D01*
X131655346Y-79056214D01*
X131655345Y-79056216D01*
X131559169Y-79262467D01*
X131559165Y-79262476D01*
X131500269Y-79482284D01*
X131500267Y-79482294D01*
X131480433Y-79708999D01*
X131480433Y-79709000D01*
X130591568Y-79709000D01*
X130590290Y-79694398D01*
X130572720Y-79493570D01*
X130571733Y-79482290D01*
X130512833Y-79262469D01*
X130416655Y-79056216D01*
X130403878Y-79037969D01*
X130286126Y-78869801D01*
X130286121Y-78869795D01*
X130125204Y-78708878D01*
X130125198Y-78708873D01*
X129938785Y-78578345D01*
X129938783Y-78578344D01*
X129835657Y-78530256D01*
X129732531Y-78482167D01*
X129732527Y-78482166D01*
X129732523Y-78482164D01*
X129512715Y-78423268D01*
X129512705Y-78423266D01*
X129286001Y-78403432D01*
X129285999Y-78403432D01*
X129059294Y-78423266D01*
X129059284Y-78423268D01*
X128839476Y-78482164D01*
X128839467Y-78482168D01*
X128633216Y-78578344D01*
X128633214Y-78578345D01*
X128446801Y-78708873D01*
X128446795Y-78708878D01*
X128285878Y-78869795D01*
X128285873Y-78869801D01*
X128155345Y-79056214D01*
X128155344Y-79056216D01*
X128059168Y-79262467D01*
X128059164Y-79262476D01*
X128000268Y-79482284D01*
X128000266Y-79482294D01*
X127980432Y-79708999D01*
X127980432Y-79709000D01*
X124002569Y-79709000D01*
X124001291Y-79694398D01*
X123983721Y-79493570D01*
X123982734Y-79482290D01*
X123923834Y-79262469D01*
X123827656Y-79056216D01*
X123814879Y-79037969D01*
X123697127Y-78869801D01*
X123697122Y-78869795D01*
X123536205Y-78708878D01*
X123536199Y-78708873D01*
X123349786Y-78578345D01*
X123349784Y-78578344D01*
X123246658Y-78530256D01*
X123143532Y-78482167D01*
X123143528Y-78482166D01*
X123143524Y-78482164D01*
X122923716Y-78423268D01*
X122923706Y-78423266D01*
X122697002Y-78403432D01*
X122697000Y-78403432D01*
X122470295Y-78423266D01*
X122470285Y-78423268D01*
X122250477Y-78482164D01*
X122250468Y-78482168D01*
X122044217Y-78578344D01*
X122044215Y-78578345D01*
X121857802Y-78708873D01*
X121857796Y-78708878D01*
X121696879Y-78869795D01*
X121696874Y-78869801D01*
X121566346Y-79056214D01*
X121566345Y-79056216D01*
X121470169Y-79262467D01*
X121470165Y-79262476D01*
X121411269Y-79482284D01*
X121411267Y-79482294D01*
X121391433Y-79708999D01*
X121391433Y-79709000D01*
X120502569Y-79709000D01*
X120501291Y-79694398D01*
X120483721Y-79493570D01*
X120482734Y-79482290D01*
X120423834Y-79262469D01*
X120327656Y-79056216D01*
X120314879Y-79037969D01*
X120197127Y-78869801D01*
X120197122Y-78869795D01*
X120036205Y-78708878D01*
X120036199Y-78708873D01*
X119849786Y-78578345D01*
X119849784Y-78578344D01*
X119746658Y-78530256D01*
X119643532Y-78482167D01*
X119643528Y-78482166D01*
X119643524Y-78482164D01*
X119423716Y-78423268D01*
X119423706Y-78423266D01*
X119197002Y-78403432D01*
X119197000Y-78403432D01*
X118970295Y-78423266D01*
X118970285Y-78423268D01*
X118750477Y-78482164D01*
X118750468Y-78482168D01*
X118544217Y-78578344D01*
X118544215Y-78578345D01*
X118357802Y-78708873D01*
X118357796Y-78708878D01*
X118196879Y-78869795D01*
X118196874Y-78869801D01*
X118066346Y-79056214D01*
X118066345Y-79056216D01*
X117970169Y-79262467D01*
X117970165Y-79262476D01*
X117911269Y-79482284D01*
X117911267Y-79482294D01*
X117891433Y-79708999D01*
X117891433Y-79709000D01*
X117002568Y-79709000D01*
X117001290Y-79694398D01*
X116983720Y-79493570D01*
X116982733Y-79482290D01*
X116923833Y-79262469D01*
X116827655Y-79056216D01*
X116814878Y-79037969D01*
X116697126Y-78869801D01*
X116697121Y-78869795D01*
X116536204Y-78708878D01*
X116536198Y-78708873D01*
X116349785Y-78578345D01*
X116349783Y-78578344D01*
X116246657Y-78530256D01*
X116143531Y-78482167D01*
X116143527Y-78482166D01*
X116143523Y-78482164D01*
X115923715Y-78423268D01*
X115923705Y-78423266D01*
X115697001Y-78403432D01*
X115696999Y-78403432D01*
X115470294Y-78423266D01*
X115470284Y-78423268D01*
X115250476Y-78482164D01*
X115250467Y-78482168D01*
X115044216Y-78578344D01*
X115044214Y-78578345D01*
X114857801Y-78708873D01*
X114857795Y-78708878D01*
X114696878Y-78869795D01*
X114696873Y-78869801D01*
X114566345Y-79056214D01*
X114566344Y-79056216D01*
X114470168Y-79262467D01*
X114470164Y-79262476D01*
X114411268Y-79482284D01*
X114411266Y-79482294D01*
X114391432Y-79708999D01*
X114391432Y-79709000D01*
X110342568Y-79709000D01*
X110341290Y-79694398D01*
X110323720Y-79493570D01*
X110322733Y-79482290D01*
X110263833Y-79262469D01*
X110167655Y-79056216D01*
X110154878Y-79037969D01*
X110037126Y-78869801D01*
X110037121Y-78869795D01*
X109876204Y-78708878D01*
X109876198Y-78708873D01*
X109689785Y-78578345D01*
X109689783Y-78578344D01*
X109586657Y-78530256D01*
X109483531Y-78482167D01*
X109483527Y-78482166D01*
X109483523Y-78482164D01*
X109263715Y-78423268D01*
X109263705Y-78423266D01*
X109037001Y-78403432D01*
X109036999Y-78403432D01*
X108810294Y-78423266D01*
X108810284Y-78423268D01*
X108590476Y-78482164D01*
X108590467Y-78482168D01*
X108384216Y-78578344D01*
X108384214Y-78578345D01*
X108197801Y-78708873D01*
X108197795Y-78708878D01*
X108036878Y-78869795D01*
X108036873Y-78869801D01*
X107906345Y-79056214D01*
X107906344Y-79056216D01*
X107810168Y-79262467D01*
X107810164Y-79262476D01*
X107751268Y-79482284D01*
X107751266Y-79482294D01*
X107731432Y-79708999D01*
X107731432Y-79709000D01*
X106842066Y-79709000D01*
X106842066Y-79708999D01*
X106822239Y-79482382D01*
X106822237Y-79482372D01*
X106763363Y-79262648D01*
X106763359Y-79262639D01*
X106667220Y-79056468D01*
X106667219Y-79056466D01*
X106616096Y-78983455D01*
X106616096Y-78983454D01*
X106059630Y-79539920D01*
X106056406Y-79524403D01*
X105987342Y-79391114D01*
X105884877Y-79281402D01*
X105756612Y-79203402D01*
X105703833Y-79188614D01*
X106262544Y-78629903D01*
X106262543Y-78629901D01*
X106189536Y-78578782D01*
X105983360Y-78482640D01*
X105983351Y-78482636D01*
X105763627Y-78423762D01*
X105763617Y-78423760D01*
X105537001Y-78403934D01*
X105536999Y-78403934D01*
X105310382Y-78423760D01*
X105310372Y-78423762D01*
X105090648Y-78482636D01*
X105090639Y-78482640D01*
X104884464Y-78578781D01*
X104811454Y-78629901D01*
X105368396Y-79186843D01*
X105250588Y-79238015D01*
X105134138Y-79332754D01*
X105047567Y-79455397D01*
X105016699Y-79542252D01*
X104457901Y-78983454D01*
X104406781Y-79056464D01*
X104310640Y-79262639D01*
X104310636Y-79262648D01*
X104251762Y-79482372D01*
X104251760Y-79482382D01*
X104231934Y-79708999D01*
X104231934Y-79709000D01*
X103342567Y-79709000D01*
X103341289Y-79694398D01*
X103323719Y-79493570D01*
X103322732Y-79482290D01*
X103263832Y-79262469D01*
X103167654Y-79056216D01*
X103154877Y-79037969D01*
X103037125Y-78869801D01*
X103037120Y-78869795D01*
X102876203Y-78708878D01*
X102876197Y-78708873D01*
X102689784Y-78578345D01*
X102689782Y-78578344D01*
X102586656Y-78530256D01*
X102483530Y-78482167D01*
X102483526Y-78482166D01*
X102483522Y-78482164D01*
X102263714Y-78423268D01*
X102263704Y-78423266D01*
X102037000Y-78403432D01*
X102036998Y-78403432D01*
X101810293Y-78423266D01*
X101810283Y-78423268D01*
X101590475Y-78482164D01*
X101590466Y-78482168D01*
X101384215Y-78578344D01*
X101384213Y-78578345D01*
X101197800Y-78708873D01*
X101197794Y-78708878D01*
X101036877Y-78869795D01*
X101036872Y-78869801D01*
X100906344Y-79056214D01*
X100906343Y-79056216D01*
X100810167Y-79262467D01*
X100810163Y-79262476D01*
X100751267Y-79482284D01*
X100751265Y-79482294D01*
X100731431Y-79708999D01*
X100731431Y-79709000D01*
X98146723Y-79709000D01*
X98112602Y-79493567D01*
X98012214Y-79118913D01*
X97873214Y-78756806D01*
X97697125Y-78411211D01*
X97697122Y-78411206D01*
X97485877Y-78085917D01*
X97241784Y-77784488D01*
X97241781Y-77784484D01*
X96967516Y-77510219D01*
X96666084Y-77266124D01*
X96666082Y-77266122D01*
X96340793Y-77054877D01*
X95995197Y-76878787D01*
X95633094Y-76739788D01*
X95633087Y-76739786D01*
X95478161Y-76698273D01*
X95418503Y-76661910D01*
X95387974Y-76599063D01*
X95396269Y-76529687D01*
X95440754Y-76475810D01*
X95507306Y-76454535D01*
X95510257Y-76454500D01*
X159246198Y-76454500D01*
X159313237Y-76474185D01*
G37*
%TD.AperFunction*%
%TD*%
M02*
