%TF.GenerationSoftware,KiCad,Pcbnew,7.0.9*%
%TF.CreationDate,2024-01-20T18:52:18+00:00*%
%TF.ProjectId,DRV8234 DC Motor Driver Expander,44525638-3233-4342-9044-43204d6f746f,rev?*%
%TF.SameCoordinates,Original*%
%TF.FileFunction,Soldermask,Bot*%
%TF.FilePolarity,Negative*%
%FSLAX46Y46*%
G04 Gerber Fmt 4.6, Leading zero omitted, Abs format (unit mm)*
G04 Created by KiCad (PCBNEW 7.0.9) date 2024-01-20 18:52:18*
%MOMM*%
%LPD*%
G01*
G04 APERTURE LIST*
%ADD10C,1.600200*%
%ADD11C,0.800000*%
%ADD12C,6.400000*%
%ADD13C,1.650000*%
G04 APERTURE END LIST*
D10*
%TO.C,J3*%
X136286001Y-84709000D03*
X136286001Y-79709000D03*
X132786001Y-84709000D03*
X132786001Y-79709000D03*
X129286000Y-84709000D03*
X129286000Y-79709000D03*
%TD*%
%TO.C,J5*%
X155782000Y-95504000D03*
X160782000Y-95504000D03*
X155782000Y-92003997D03*
X160782000Y-92003997D03*
%TD*%
%TO.C,J2*%
X122697001Y-84709000D03*
X122697001Y-79709000D03*
X119197001Y-84709000D03*
X119197001Y-79709000D03*
X115697000Y-84709000D03*
X115697000Y-79709000D03*
%TD*%
%TO.C,J1*%
X109037000Y-84709000D03*
X109037000Y-79709000D03*
X105537000Y-84709000D03*
X105537000Y-79709000D03*
X102036999Y-84709000D03*
X102036999Y-79709000D03*
%TD*%
D11*
%TO.C,H2*%
X158128000Y-80183056D03*
X158830944Y-78486000D03*
X158830944Y-81880112D03*
X160528000Y-77783056D03*
D12*
X160528000Y-80183056D03*
D11*
X160528000Y-82583056D03*
X162225056Y-78486000D03*
X162225056Y-81880112D03*
X162928000Y-80183056D03*
%TD*%
%TO.C,H3*%
X92088000Y-104140000D03*
X92790944Y-102442944D03*
X92790944Y-105837056D03*
X94488000Y-101740000D03*
D12*
X94488000Y-104140000D03*
D11*
X94488000Y-106540000D03*
X96185056Y-102442944D03*
X96185056Y-105837056D03*
X96888000Y-104140000D03*
%TD*%
D13*
%TO.C,J4*%
X153244000Y-84694400D03*
X153244000Y-79694400D03*
X149744000Y-84694400D03*
X149744000Y-79694400D03*
X146244000Y-84694400D03*
X146244000Y-79694400D03*
X142744000Y-84694400D03*
X142744000Y-79694400D03*
%TD*%
D11*
%TO.C,H1*%
X92088000Y-80264000D03*
X92790944Y-78566944D03*
X92790944Y-81961056D03*
X94488000Y-77864000D03*
D12*
X94488000Y-80264000D03*
D11*
X94488000Y-82664000D03*
X96185056Y-78566944D03*
X96185056Y-81961056D03*
X96888000Y-80264000D03*
%TD*%
%TO.C,H4*%
X158128000Y-104093944D03*
X158830944Y-102396888D03*
X158830944Y-105791000D03*
X160528000Y-101693944D03*
D12*
X160528000Y-104093944D03*
D11*
X160528000Y-106493944D03*
X162225056Y-102396888D03*
X162225056Y-105791000D03*
X162928000Y-104093944D03*
%TD*%
M02*
