%TF.GenerationSoftware,KiCad,Pcbnew,7.0.9*%
%TF.CreationDate,2024-01-20T18:52:18+00:00*%
%TF.ProjectId,DRV8234 DC Motor Driver Expander,44525638-3233-4342-9044-43204d6f746f,rev?*%
%TF.SameCoordinates,Original*%
%TF.FileFunction,Soldermask,Top*%
%TF.FilePolarity,Negative*%
%FSLAX46Y46*%
G04 Gerber Fmt 4.6, Leading zero omitted, Abs format (unit mm)*
G04 Created by KiCad (PCBNEW 7.0.9) date 2024-01-20 18:52:18*
%MOMM*%
%LPD*%
G01*
G04 APERTURE LIST*
G04 Aperture macros list*
%AMRoundRect*
0 Rectangle with rounded corners*
0 $1 Rounding radius*
0 $2 $3 $4 $5 $6 $7 $8 $9 X,Y pos of 4 corners*
0 Add a 4 corners polygon primitive as box body*
4,1,4,$2,$3,$4,$5,$6,$7,$8,$9,$2,$3,0*
0 Add four circle primitives for the rounded corners*
1,1,$1+$1,$2,$3*
1,1,$1+$1,$4,$5*
1,1,$1+$1,$6,$7*
1,1,$1+$1,$8,$9*
0 Add four rect primitives between the rounded corners*
20,1,$1+$1,$2,$3,$4,$5,0*
20,1,$1+$1,$4,$5,$6,$7,0*
20,1,$1+$1,$6,$7,$8,$9,0*
20,1,$1+$1,$8,$9,$2,$3,0*%
G04 Aperture macros list end*
%ADD10RoundRect,0.250000X-0.450000X0.350000X-0.450000X-0.350000X0.450000X-0.350000X0.450000X0.350000X0*%
%ADD11C,1.600200*%
%ADD12RoundRect,0.250001X0.799999X-1.999999X0.799999X1.999999X-0.799999X1.999999X-0.799999X-1.999999X0*%
%ADD13C,0.800000*%
%ADD14C,6.400000*%
%ADD15R,0.300000X0.800000*%
%ADD16R,0.800000X0.300000*%
%ADD17R,1.750000X1.750000*%
%ADD18RoundRect,0.250000X-0.650000X0.412500X-0.650000X-0.412500X0.650000X-0.412500X0.650000X0.412500X0*%
%ADD19RoundRect,0.250000X0.650000X-0.412500X0.650000X0.412500X-0.650000X0.412500X-0.650000X-0.412500X0*%
%ADD20C,1.650000*%
G04 APERTURE END LIST*
D10*
%TO.C,R1*%
X129286000Y-89932000D03*
X129286000Y-91932000D03*
%TD*%
D11*
%TO.C,J3*%
X136286001Y-84709000D03*
X136286001Y-79709000D03*
X132786001Y-84709000D03*
X132786001Y-79709000D03*
X129286000Y-84709000D03*
X129286000Y-79709000D03*
%TD*%
%TO.C,J5*%
X155782000Y-95504000D03*
X160782000Y-95504000D03*
X155782000Y-92003997D03*
X160782000Y-92003997D03*
%TD*%
D10*
%TO.C,R6*%
X150114000Y-89916000D03*
X150114000Y-91916000D03*
%TD*%
D12*
%TO.C,C2*%
X117805200Y-100418000D03*
X117805200Y-93218000D03*
%TD*%
D10*
%TO.C,R2*%
X135890000Y-89932000D03*
X135890000Y-91932000D03*
%TD*%
D11*
%TO.C,J2*%
X122697001Y-84709000D03*
X122697001Y-79709000D03*
X119197001Y-84709000D03*
X119197001Y-79709000D03*
X115697000Y-84709000D03*
X115697000Y-79709000D03*
%TD*%
%TO.C,J1*%
X109037000Y-84709000D03*
X109037000Y-79709000D03*
X105537000Y-84709000D03*
X105537000Y-79709000D03*
X102036999Y-84709000D03*
X102036999Y-79709000D03*
%TD*%
D13*
%TO.C,H2*%
X158128000Y-80183056D03*
X158830944Y-78486000D03*
X158830944Y-81880112D03*
X160528000Y-77783056D03*
D14*
X160528000Y-80183056D03*
D13*
X160528000Y-82583056D03*
X162225056Y-78486000D03*
X162225056Y-81880112D03*
X162928000Y-80183056D03*
%TD*%
D15*
%TO.C,IC1*%
X130802000Y-97028000D03*
X130302000Y-97028000D03*
X129802000Y-97028000D03*
X129302000Y-97028000D03*
D16*
X128552000Y-97778000D03*
X128552000Y-98278000D03*
X128552000Y-98778000D03*
X128552000Y-99278000D03*
D15*
X129302000Y-100028000D03*
X129802000Y-100028000D03*
X130302000Y-100028000D03*
X130802000Y-100028000D03*
D16*
X131552000Y-99278000D03*
X131552000Y-98778000D03*
X131552000Y-98278000D03*
X131552000Y-97778000D03*
D17*
X130052000Y-98528000D03*
%TD*%
D13*
%TO.C,H3*%
X92088000Y-104140000D03*
X92790944Y-102442944D03*
X92790944Y-105837056D03*
X94488000Y-101740000D03*
D14*
X94488000Y-104140000D03*
D13*
X94488000Y-106540000D03*
X96185056Y-102442944D03*
X96185056Y-105837056D03*
X96888000Y-104140000D03*
%TD*%
D10*
%TO.C,R4*%
X140208000Y-89916000D03*
X140208000Y-91916000D03*
%TD*%
%TO.C,R5*%
X143510000Y-89916000D03*
X143510000Y-91916000D03*
%TD*%
%TO.C,R7*%
X146812000Y-89916000D03*
X146812000Y-91916000D03*
%TD*%
%TO.C,R3*%
X132588000Y-89932000D03*
X132588000Y-91932000D03*
%TD*%
D18*
%TO.C,C3*%
X134890000Y-97751500D03*
X134890000Y-100876500D03*
%TD*%
D19*
%TO.C,C1*%
X124968000Y-97320500D03*
X124968000Y-94195500D03*
%TD*%
D20*
%TO.C,J4*%
X153244000Y-84694400D03*
X153244000Y-79694400D03*
X149744000Y-84694400D03*
X149744000Y-79694400D03*
X146244000Y-84694400D03*
X146244000Y-79694400D03*
X142744000Y-84694400D03*
X142744000Y-79694400D03*
%TD*%
D13*
%TO.C,H1*%
X92088000Y-80264000D03*
X92790944Y-78566944D03*
X92790944Y-81961056D03*
X94488000Y-77864000D03*
D14*
X94488000Y-80264000D03*
D13*
X94488000Y-82664000D03*
X96185056Y-78566944D03*
X96185056Y-81961056D03*
X96888000Y-80264000D03*
%TD*%
%TO.C,H4*%
X158128000Y-104093944D03*
X158830944Y-102396888D03*
X158830944Y-105791000D03*
X160528000Y-101693944D03*
D14*
X160528000Y-104093944D03*
D13*
X160528000Y-106493944D03*
X162225056Y-102396888D03*
X162225056Y-105791000D03*
X162928000Y-104093944D03*
%TD*%
M02*
