M48
; DRILL file {KiCad 7.0.9} date Sat Jan 20 18:52:18 2024
; FORMAT={-:-/ absolute / inch / decimal}
; #@! TF.CreationDate,2024-01-20T18:52:18+00:00
; #@! TF.GenerationSoftware,Kicad,Pcbnew,7.0.9
; #@! TF.FileFunction,Plated,1,4,PTH
FMAT,2
INCH
; #@! TA.AperFunction,Plated,PTH,ViaDrill
T1C0.0118
; #@! TA.AperFunction,Plated,PTH,ComponentDrill
T2C0.0197
; #@! TA.AperFunction,Plated,PTH,ViaDrill
T3C0.0236
; #@! TA.AperFunction,Plated,PTH,ComponentDrill
T4C0.0430
; #@! TA.AperFunction,Plated,PTH,ComponentDrill
T5C0.0433
; #@! TA.AperFunction,Plated,PTH,ComponentDrill
T6C0.1260
%
G90
G05
T1
X4.988Y-3.905
X5.05Y-3.95
X5.096Y-4.056
X5.13Y-3.97
X5.16Y-3.99
X5.19Y-3.81
X5.19Y-3.95
X5.213Y-4.039
X5.22Y-3.92
T2
X3.6255Y-3.16
X3.6255Y-4.1
X3.6532Y-3.0932
X3.6532Y-3.2268
X3.6532Y-4.0332
X3.6532Y-4.1668
X3.72Y-3.0655
X3.72Y-3.2545
X3.72Y-4.0055
X3.72Y-4.1945
X3.7868Y-3.0932
X3.7868Y-3.2268
X3.7868Y-4.0332
X3.7868Y-4.1668
X3.8145Y-3.16
X3.8145Y-4.1
X6.2255Y-3.1568
X6.2255Y-4.0982
X6.2532Y-3.09
X6.2532Y-3.2236
X6.2532Y-4.0314
X6.2532Y-4.165
X6.32Y-3.0623
X6.32Y-3.2513
X6.32Y-4.0037
X6.32Y-4.1927
X6.3868Y-3.09
X6.3868Y-3.2236
X6.3868Y-4.0314
X6.3868Y-4.165
X6.4145Y-3.1568
X6.4145Y-4.0982
T3
X4.5849Y-3.572
X4.688Y-3.572
X4.87Y-3.67
X4.97Y-3.67
X5.09Y-3.66
X5.22Y-3.66
X5.27Y-3.81
X5.31Y-4.02
X5.35Y-3.66
X5.36Y-3.81
X5.52Y-3.66
X5.65Y-3.66
X5.78Y-3.66
X5.91Y-3.66
T4
X4.0172Y-3.1381
X4.0172Y-3.335
X4.155Y-3.1381
X4.155Y-3.335
X4.2928Y-3.1381
X4.2928Y-3.335
X4.555Y-3.1381
X4.555Y-3.335
X4.6928Y-3.1381
X4.6928Y-3.335
X4.8306Y-3.1381
X4.8306Y-3.335
X5.09Y-3.1381
X5.09Y-3.335
X5.2278Y-3.1381
X5.2278Y-3.335
X5.3656Y-3.1381
X5.3656Y-3.335
X6.1331Y-3.6222
X6.1331Y-3.76
X6.33Y-3.6222
X6.33Y-3.76
T5
X5.6198Y-3.1376
X5.6198Y-3.3344
X5.7576Y-3.1376
X5.7576Y-3.3344
X5.8954Y-3.1376
X5.8954Y-3.3344
X6.0332Y-3.1376
X6.0332Y-3.3344
T6
X3.72Y-3.16
X3.72Y-4.1
X6.32Y-3.1568
X6.32Y-4.0982
T0
M30
