%TF.GenerationSoftware,KiCad,Pcbnew,7.0.9*%
%TF.CreationDate,2024-01-20T18:52:18+00:00*%
%TF.ProjectId,DRV8234 DC Motor Driver Expander,44525638-3233-4342-9044-43204d6f746f,rev?*%
%TF.SameCoordinates,Original*%
%TF.FileFunction,Copper,L1,Top*%
%TF.FilePolarity,Positive*%
%FSLAX46Y46*%
G04 Gerber Fmt 4.6, Leading zero omitted, Abs format (unit mm)*
G04 Created by KiCad (PCBNEW 7.0.9) date 2024-01-20 18:52:18*
%MOMM*%
%LPD*%
G01*
G04 APERTURE LIST*
G04 Aperture macros list*
%AMRoundRect*
0 Rectangle with rounded corners*
0 $1 Rounding radius*
0 $2 $3 $4 $5 $6 $7 $8 $9 X,Y pos of 4 corners*
0 Add a 4 corners polygon primitive as box body*
4,1,4,$2,$3,$4,$5,$6,$7,$8,$9,$2,$3,0*
0 Add four circle primitives for the rounded corners*
1,1,$1+$1,$2,$3*
1,1,$1+$1,$4,$5*
1,1,$1+$1,$6,$7*
1,1,$1+$1,$8,$9*
0 Add four rect primitives between the rounded corners*
20,1,$1+$1,$2,$3,$4,$5,0*
20,1,$1+$1,$4,$5,$6,$7,0*
20,1,$1+$1,$6,$7,$8,$9,0*
20,1,$1+$1,$8,$9,$2,$3,0*%
G04 Aperture macros list end*
%TA.AperFunction,SMDPad,CuDef*%
%ADD10RoundRect,0.250000X-0.450000X0.350000X-0.450000X-0.350000X0.450000X-0.350000X0.450000X0.350000X0*%
%TD*%
%TA.AperFunction,ComponentPad*%
%ADD11C,1.600200*%
%TD*%
%TA.AperFunction,SMDPad,CuDef*%
%ADD12RoundRect,0.250001X0.799999X-1.999999X0.799999X1.999999X-0.799999X1.999999X-0.799999X-1.999999X0*%
%TD*%
%TA.AperFunction,ComponentPad*%
%ADD13C,0.800000*%
%TD*%
%TA.AperFunction,ComponentPad*%
%ADD14C,6.400000*%
%TD*%
%TA.AperFunction,SMDPad,CuDef*%
%ADD15R,0.300000X0.800000*%
%TD*%
%TA.AperFunction,SMDPad,CuDef*%
%ADD16R,0.800000X0.300000*%
%TD*%
%TA.AperFunction,SMDPad,CuDef*%
%ADD17R,1.750000X1.750000*%
%TD*%
%TA.AperFunction,SMDPad,CuDef*%
%ADD18RoundRect,0.250000X-0.650000X0.412500X-0.650000X-0.412500X0.650000X-0.412500X0.650000X0.412500X0*%
%TD*%
%TA.AperFunction,SMDPad,CuDef*%
%ADD19RoundRect,0.250000X0.650000X-0.412500X0.650000X0.412500X-0.650000X0.412500X-0.650000X-0.412500X0*%
%TD*%
%TA.AperFunction,ComponentPad*%
%ADD20C,1.650000*%
%TD*%
%TA.AperFunction,ViaPad*%
%ADD21C,0.500000*%
%TD*%
%TA.AperFunction,ViaPad*%
%ADD22C,0.800000*%
%TD*%
%TA.AperFunction,Conductor*%
%ADD23C,0.320000*%
%TD*%
%TA.AperFunction,Conductor*%
%ADD24C,1.000000*%
%TD*%
%TA.AperFunction,Conductor*%
%ADD25C,0.500000*%
%TD*%
G04 APERTURE END LIST*
D10*
%TO.P,R1,1*%
%TO.N,NFAULT*%
X129286000Y-89932000D03*
%TO.P,R1,2*%
%TO.N,+5V*%
X129286000Y-91932000D03*
%TD*%
D11*
%TO.P,J3,1,1*%
%TO.N,IPROPI*%
X136286001Y-84709000D03*
%TO.P,J3,2,2*%
X136286001Y-79709000D03*
%TO.P,J3,3,3*%
%TO.N,RC_OUT*%
X132786001Y-84709000D03*
%TO.P,J3,4,4*%
X132786001Y-79709000D03*
%TO.P,J3,5,5*%
%TO.N,NFAULT*%
X129286000Y-84709000D03*
%TO.P,J3,6,6*%
X129286000Y-79709000D03*
%TD*%
%TO.P,J5,1,1*%
%TO.N,OUT1*%
X155782000Y-95504000D03*
%TO.P,J5,2,2*%
X160782000Y-95504000D03*
%TO.P,J5,3,3*%
%TO.N,OUT2*%
X155782000Y-92003997D03*
%TO.P,J5,4,4*%
X160782000Y-92003997D03*
%TD*%
D10*
%TO.P,R6,1*%
%TO.N,A0*%
X150114000Y-89916000D03*
%TO.P,R6,2*%
%TO.N,+5V*%
X150114000Y-91916000D03*
%TD*%
D12*
%TO.P,C2,1*%
%TO.N,VCC*%
X117805200Y-100418000D03*
%TO.P,C2,2*%
%TO.N,GND*%
X117805200Y-93218000D03*
%TD*%
D10*
%TO.P,R2,1*%
%TO.N,IPROPI*%
X135890000Y-89932000D03*
%TO.P,R2,2*%
%TO.N,GND*%
X135890000Y-91932000D03*
%TD*%
D11*
%TO.P,J2,1,1*%
%TO.N,NSLEEP*%
X122697001Y-84709000D03*
%TO.P,J2,2,2*%
X122697001Y-79709000D03*
%TO.P,J2,3,3*%
%TO.N,IN1*%
X119197001Y-84709000D03*
%TO.P,J2,4,4*%
X119197001Y-79709000D03*
%TO.P,J2,5,5*%
%TO.N,IN2*%
X115697000Y-84709000D03*
%TO.P,J2,6,6*%
X115697000Y-79709000D03*
%TD*%
%TO.P,J1,1,1*%
%TO.N,+5V*%
X109037000Y-84709000D03*
%TO.P,J1,2,2*%
X109037000Y-79709000D03*
%TO.P,J1,3,3*%
%TO.N,GND*%
X105537000Y-84709000D03*
%TO.P,J1,4,4*%
X105537000Y-79709000D03*
%TO.P,J1,5,5*%
%TO.N,VCC*%
X102036999Y-84709000D03*
%TO.P,J1,6,6*%
X102036999Y-79709000D03*
%TD*%
D13*
%TO.P,H2,1*%
%TO.N,N/C*%
X158128000Y-80183056D03*
X158830944Y-78486000D03*
X158830944Y-81880112D03*
X160528000Y-77783056D03*
D14*
X160528000Y-80183056D03*
D13*
X160528000Y-82583056D03*
X162225056Y-78486000D03*
X162225056Y-81880112D03*
X162928000Y-80183056D03*
%TD*%
D15*
%TO.P,IC1,1,IPROPI*%
%TO.N,IPROPI*%
X130802000Y-97028000D03*
%TO.P,IC1,2,RSVD*%
%TO.N,unconnected-(IC1-RSVD-Pad2)*%
X130302000Y-97028000D03*
%TO.P,IC1,3,RC_OUT*%
%TO.N,RC_OUT*%
X129802000Y-97028000D03*
%TO.P,IC1,4,NFAULT*%
%TO.N,NFAULT*%
X129302000Y-97028000D03*
D16*
%TO.P,IC1,5,VM*%
%TO.N,VCC*%
X128552000Y-97778000D03*
%TO.P,IC1,6,OUT1*%
%TO.N,OUT1*%
X128552000Y-98278000D03*
%TO.P,IC1,7,GND*%
%TO.N,GND*%
X128552000Y-98778000D03*
%TO.P,IC1,8,OUT2*%
%TO.N,OUT2*%
X128552000Y-99278000D03*
D15*
%TO.P,IC1,9,A1*%
%TO.N,A1*%
X129302000Y-100028000D03*
%TO.P,IC1,10,A0*%
%TO.N,A0*%
X129802000Y-100028000D03*
%TO.P,IC1,11,NSLEEP*%
%TO.N,NSLEEP*%
X130302000Y-100028000D03*
%TO.P,IC1,12,PH/IN2*%
%TO.N,IN2*%
X130802000Y-100028000D03*
D16*
%TO.P,IC1,13,EN/IN1*%
%TO.N,IN1*%
X131552000Y-99278000D03*
%TO.P,IC1,14,SDA*%
%TO.N,SDA*%
X131552000Y-98778000D03*
%TO.P,IC1,15,SCL*%
%TO.N,SCL*%
X131552000Y-98278000D03*
%TO.P,IC1,16,VREF*%
%TO.N,+5V*%
X131552000Y-97778000D03*
D17*
%TO.P,IC1,17,EP*%
%TO.N,GND*%
X130052000Y-98528000D03*
%TD*%
D13*
%TO.P,H3,1*%
%TO.N,N/C*%
X92088000Y-104140000D03*
X92790944Y-102442944D03*
X92790944Y-105837056D03*
X94488000Y-101740000D03*
D14*
X94488000Y-104140000D03*
D13*
X94488000Y-106540000D03*
X96185056Y-102442944D03*
X96185056Y-105837056D03*
X96888000Y-104140000D03*
%TD*%
D10*
%TO.P,R4,1*%
%TO.N,SCL*%
X140208000Y-89916000D03*
%TO.P,R4,2*%
%TO.N,+5V*%
X140208000Y-91916000D03*
%TD*%
%TO.P,R5,1*%
%TO.N,SDA*%
X143510000Y-89916000D03*
%TO.P,R5,2*%
%TO.N,+5V*%
X143510000Y-91916000D03*
%TD*%
%TO.P,R7,1*%
%TO.N,A1*%
X146812000Y-89916000D03*
%TO.P,R7,2*%
%TO.N,+5V*%
X146812000Y-91916000D03*
%TD*%
%TO.P,R3,1*%
%TO.N,RC_OUT*%
X132588000Y-89932000D03*
%TO.P,R3,2*%
%TO.N,+5V*%
X132588000Y-91932000D03*
%TD*%
D18*
%TO.P,C3,1*%
%TO.N,+5V*%
X134890000Y-97751500D03*
%TO.P,C3,2*%
%TO.N,GND*%
X134890000Y-100876500D03*
%TD*%
D19*
%TO.P,C1,1*%
%TO.N,VCC*%
X124968000Y-97320500D03*
%TO.P,C1,2*%
%TO.N,GND*%
X124968000Y-94195500D03*
%TD*%
D20*
%TO.P,J4,1,1*%
%TO.N,A0*%
X153244000Y-84694400D03*
%TO.P,J4,2,2*%
X153244000Y-79694400D03*
%TO.P,J4,3,3*%
%TO.N,A1*%
X149744000Y-84694400D03*
%TO.P,J4,4,4*%
X149744000Y-79694400D03*
%TO.P,J4,5,5*%
%TO.N,SDA*%
X146244000Y-84694400D03*
%TO.P,J4,6,6*%
X146244000Y-79694400D03*
%TO.P,J4,7,7*%
%TO.N,SCL*%
X142744000Y-84694400D03*
%TO.P,J4,8,8*%
X142744000Y-79694400D03*
%TD*%
D13*
%TO.P,H1,1*%
%TO.N,N/C*%
X92088000Y-80264000D03*
X92790944Y-78566944D03*
X92790944Y-81961056D03*
X94488000Y-77864000D03*
D14*
X94488000Y-80264000D03*
D13*
X94488000Y-82664000D03*
X96185056Y-78566944D03*
X96185056Y-81961056D03*
X96888000Y-80264000D03*
%TD*%
%TO.P,H4,1*%
%TO.N,N/C*%
X158128000Y-104093944D03*
X158830944Y-102396888D03*
X158830944Y-105791000D03*
X160528000Y-101693944D03*
D14*
X160528000Y-104093944D03*
D13*
X160528000Y-106493944D03*
X162225056Y-102396888D03*
X162225056Y-105791000D03*
X162928000Y-104093944D03*
%TD*%
D21*
%TO.N,GND*%
X131826000Y-100330000D03*
D22*
X123698000Y-93218000D03*
X135890000Y-92964000D03*
D21*
X128270000Y-100330000D03*
D22*
X126238000Y-93218000D03*
X134874000Y-102108000D03*
X119075200Y-90728800D03*
D21*
X126695200Y-99186600D03*
D22*
X116456500Y-90728800D03*
D21*
X131826000Y-96774000D03*
D22*
%TO.N,+5V*%
X129286000Y-92964000D03*
X136144000Y-96774000D03*
X133858000Y-96774000D03*
X132588000Y-92964000D03*
X150114000Y-92964000D03*
X143510000Y-92964000D03*
X146812000Y-92964000D03*
X140208000Y-92964000D03*
D21*
%TO.N,A1*%
X129438400Y-103022400D03*
X132410200Y-102590600D03*
%TO.N,NSLEEP*%
X130302000Y-100838000D03*
%TO.N,IN2*%
X131064000Y-101346000D03*
%TO.N,IN1*%
X132588000Y-99568000D03*
%TD*%
D23*
%TO.N,*%
X131191000Y-97409000D02*
X130937000Y-97663000D01*
X131064000Y-100330000D02*
X130810000Y-100076000D01*
X131826000Y-100330000D02*
X131572000Y-100076000D01*
X128905000Y-99695000D02*
X128651000Y-99949000D01*
X131699000Y-96901000D02*
X131445000Y-97155000D01*
X128651000Y-99949000D02*
X128397000Y-100203000D01*
X131445000Y-97155000D02*
X131191000Y-97409000D01*
X131318000Y-99822000D02*
X131064000Y-99568000D01*
X131064000Y-99568000D02*
X130810000Y-99314000D01*
X130937000Y-97663000D02*
X130683000Y-97917000D01*
X131572000Y-100076000D02*
X131318000Y-99822000D01*
X129413000Y-99187000D02*
X129159000Y-99441000D01*
X129159000Y-99441000D02*
X128905000Y-99695000D01*
D24*
%TO.N,VCC*%
X124968000Y-97320500D02*
X128094500Y-97320500D01*
X121870500Y-100418000D02*
X124968000Y-97320500D01*
X128094500Y-97320500D02*
X128202000Y-97428000D01*
X102036999Y-79709000D02*
X102036999Y-84709000D01*
X117745999Y-100418000D02*
X121870500Y-100418000D01*
X102036999Y-84709000D02*
X117745999Y-100418000D01*
D25*
%TO.N,GND*%
X135890000Y-92964000D02*
X135890000Y-91932000D01*
X134874000Y-100892500D02*
X134890000Y-100876500D01*
D24*
X123990500Y-93218000D02*
X124968000Y-94195500D01*
X125945500Y-93218000D02*
X124968000Y-94195500D01*
D23*
X126695200Y-99186600D02*
X127101200Y-98780600D01*
D24*
X123698000Y-93218000D02*
X123990500Y-93218000D01*
D23*
X105537000Y-79709000D02*
X105537000Y-84709000D01*
X127228600Y-98780600D02*
X128244600Y-98780600D01*
X128651000Y-98780600D02*
X129413000Y-98780600D01*
X127101200Y-98780600D02*
X127228600Y-98780600D01*
D24*
X116456500Y-90728800D02*
X119075200Y-90728800D01*
X126238000Y-93218000D02*
X125945500Y-93218000D01*
D25*
X134874000Y-102108000D02*
X134874000Y-100892500D01*
%TO.N,+5V*%
X129286000Y-92964000D02*
X129286000Y-91932000D01*
X136144000Y-96774000D02*
X135867500Y-96774000D01*
X135867500Y-96774000D02*
X134890000Y-97751500D01*
X140208000Y-92964000D02*
X140208000Y-91916000D01*
X143510000Y-92964000D02*
X143510000Y-91916000D01*
X134816500Y-97678000D02*
X131552000Y-97678000D01*
X133858000Y-96774000D02*
X133912500Y-96774000D01*
D23*
X109037000Y-79709000D02*
X109037000Y-84709000D01*
D25*
X134890000Y-97751500D02*
X134816500Y-97678000D01*
X150114000Y-92964000D02*
X150114000Y-91916000D01*
X146812000Y-92964000D02*
X146812000Y-91916000D01*
X132588000Y-92964000D02*
X132588000Y-91932000D01*
X133912500Y-96774000D02*
X134890000Y-97751500D01*
D23*
%TO.N,IPROPI*%
X130812000Y-96264000D02*
X130812000Y-97028000D01*
X136286001Y-84709000D02*
X136286001Y-79709000D01*
X136286001Y-89535999D02*
X135890000Y-89932000D01*
X136286001Y-84709000D02*
X136286001Y-89535999D01*
X134112000Y-92964000D02*
X130812000Y-96264000D01*
X135890000Y-89932000D02*
X134112000Y-91710000D01*
X134112000Y-91710000D02*
X134112000Y-92964000D01*
%TO.N,RC_OUT*%
X132588000Y-89932000D02*
X132588000Y-84907001D01*
X129794000Y-95250000D02*
X131064000Y-93980000D01*
X131064000Y-90678000D02*
X131810000Y-89932000D01*
X131810000Y-89932000D02*
X132588000Y-89932000D01*
X129794000Y-97155000D02*
X129794000Y-95250000D01*
X131064000Y-93980000D02*
X131064000Y-90678000D01*
X132786001Y-84709000D02*
X132786001Y-79709000D01*
X132588000Y-84907001D02*
X132786001Y-84709000D01*
%TO.N,NFAULT*%
X127762000Y-91456000D02*
X127762000Y-95498000D01*
X129286000Y-89932000D02*
X127762000Y-91456000D01*
X129286000Y-89932000D02*
X129286000Y-79709000D01*
X127762000Y-95498000D02*
X129292000Y-97028000D01*
D25*
%TO.N,OUT1*%
X126390400Y-98298000D02*
X126538024Y-98298000D01*
X127381000Y-98298000D02*
X128143000Y-98298000D01*
X155782000Y-95504000D02*
X145317200Y-105968800D01*
X126136400Y-105968800D02*
X123723400Y-103555800D01*
X123723400Y-100965000D02*
X126390400Y-98298000D01*
X123723400Y-103555800D02*
X123723400Y-100965000D01*
X126593600Y-98298000D02*
X127355600Y-98298000D01*
X145317200Y-105968800D02*
X126136400Y-105968800D01*
X160782000Y-95504000D02*
X155782000Y-95504000D01*
%TO.N,OUT2*%
X155782000Y-92003997D02*
X160782000Y-92003997D01*
X128549400Y-104597200D02*
X143188797Y-104597200D01*
X126746000Y-102793800D02*
X128549400Y-104597200D01*
X143188797Y-104597200D02*
X155782000Y-92003997D01*
X128148300Y-99359500D02*
X126746000Y-100761800D01*
X126746000Y-100761800D02*
X126746000Y-102793800D01*
D23*
%TO.N,A1*%
X129274000Y-102858000D02*
X129274000Y-101892608D01*
X132687600Y-102868000D02*
X132461000Y-102641400D01*
X136933400Y-102868000D02*
X132687600Y-102868000D01*
X149733000Y-84535000D02*
X149733000Y-79535000D01*
X132410200Y-102590600D02*
X132461000Y-102641400D01*
X129438400Y-103022400D02*
X129274000Y-102858000D01*
X129286000Y-101815900D02*
X129286000Y-100012500D01*
X145135600Y-94665800D02*
X136933400Y-102868000D01*
X146812000Y-89916000D02*
X145135600Y-91592400D01*
X149733000Y-86995000D02*
X146812000Y-89916000D01*
X145135600Y-91592400D02*
X145135600Y-94665800D01*
X149733000Y-84535000D02*
X149733000Y-86995000D01*
%TO.N,A0*%
X150114000Y-89916000D02*
X149054000Y-90976000D01*
X149054000Y-90976000D02*
X149054000Y-91001400D01*
X131165600Y-103479600D02*
X129794000Y-102108000D01*
X149054000Y-91001400D02*
X148666200Y-91389200D01*
X153233000Y-84535000D02*
X153233000Y-86797000D01*
X129794000Y-101282500D02*
X129794000Y-100749100D01*
X129794000Y-102108000D02*
X129794000Y-101282500D01*
X153233000Y-86797000D02*
X150114000Y-89916000D01*
X153233000Y-84535000D02*
X153233000Y-79535000D01*
X129794000Y-100749100D02*
X129794000Y-100215700D01*
X148666200Y-91389200D02*
X148666200Y-93141800D01*
X148666200Y-93141800D02*
X138328400Y-103479600D01*
X138328400Y-103479600D02*
X131165600Y-103479600D01*
%TO.N,NSLEEP*%
X130302000Y-100330000D02*
X130302000Y-100838000D01*
X122697001Y-79709000D02*
X122697001Y-84709000D01*
%TO.N,IN2*%
X131064000Y-100838000D02*
X131064000Y-100330000D01*
X115697000Y-79709000D02*
X115697000Y-84709000D01*
X131064000Y-101346000D02*
X131064000Y-100838000D01*
%TO.N,IN1*%
X119197001Y-79709000D02*
X119197001Y-84709000D01*
X132308000Y-99288000D02*
X131552000Y-99288000D01*
X132588000Y-99568000D02*
X132308000Y-99288000D01*
%TO.N,SDA*%
X146233000Y-87193000D02*
X143510000Y-89916000D01*
X138658600Y-99618800D02*
X133198000Y-99618800D01*
X146233000Y-84535000D02*
X146233000Y-87193000D01*
X133198000Y-99618800D02*
X133198000Y-99315329D01*
X132295996Y-98780600D02*
X131508404Y-98780600D01*
X132650671Y-98768000D02*
X132092608Y-98768000D01*
X141782800Y-96494600D02*
X138658600Y-99618800D01*
X133198000Y-99315329D02*
X132650671Y-98768000D01*
X146233000Y-84535000D02*
X146233000Y-79535000D01*
X143510000Y-89916000D02*
X141782800Y-91643200D01*
X141782800Y-91643200D02*
X141782800Y-96494600D01*
%TO.N,SCL*%
X132397596Y-98298000D02*
X131610004Y-98298000D01*
X137769600Y-92354400D02*
X137769600Y-98348800D01*
X133622800Y-98774000D02*
X133146800Y-98298000D01*
X133159596Y-98298000D02*
X132372004Y-98298000D01*
X142733000Y-84535000D02*
X142733000Y-79535000D01*
X140208000Y-89916000D02*
X137769600Y-92354400D01*
X142733000Y-87391000D02*
X140208000Y-89916000D01*
X142733000Y-84535000D02*
X142733000Y-87391000D01*
X137769600Y-98348800D02*
X137344400Y-98774000D01*
X137344400Y-98774000D02*
X133622800Y-98774000D01*
%TD*%
M02*
